<svg xmlns="http://www.w3.org/2000/svg" viewBox="0 0 235.33 137.82"><defs><style>.cls-1{fill:#fff;stroke:#fff;stroke-miterlimit:10;stroke-width:0.65px;}.cls-2{fill:#848825;}.cls-2,.cls-3,.cls-4{fill-rule:evenodd;}.cls-3{fill:#d9d8b7;}.cls-4{fill:#1d1d1b;}</style></defs><title>Recurso 4</title><g id="Capa_2" data-name="Capa 2"><g id="Capa_2-2" data-name="Capa 2"><rect class="cls-1" x="0.33" y="0.33" width="234.68" height="137.17" rx="35.61"/><path class="cls-2" d="M204.28,32.51l3.12-1.07c-.29-.91-.68-1.88-1-2.78l-3.07,1.24c.34.86.68,1.71,1,2.61"/><path class="cls-2" d="M206,38.87l3.23-.63c-.22-1-.39-1.92-.68-2.89l-3.17.79c.22.91.45,1.82.62,2.73"/><path class="cls-2" d="M206.77,45.39l3.24-.17a27.81,27.81,0,0,0-.23-2.95l-3.23.4c.11.91.17,1.81.22,2.72"/><path class="cls-2" d="M206.66,52l3.23.28a23.47,23.47,0,0,0,.17-2.94l-3.29-.06c0,.9-.05,1.81-.11,2.72"/><path class="cls-2" d="M205.64,58.49l3.18.74c.22-1,.39-1.93.56-2.89l-3.23-.57-.51,2.72"/><path class="cls-2" d="M203.71,64.79,206.77,66c.34-1,.68-1.87,1-2.83l-3.12-1c-.29.91-.57,1.76-.91,2.61"/><path class="cls-2" d="M174.27,93l1,3.06c.91-.28,1.87-.62,2.78-1l-1.25-3.06c-.85.34-1.7.62-2.55,1"/><path class="cls-2" d="M141.82,92.19l-1.19,3.06c.91.34,1.87.68,2.78,1l1-3.12c-.85-.29-1.76-.57-2.61-.91"/><path class="cls-2" d="M121.86,77.44l-2.56,2c.63.8,1.25,1.53,1.93,2.27l2.44-2.21c-.62-.68-1.19-1.36-1.81-2.1"/><path class="cls-2" d="M132.69,78.46A10,10,0,1,0,140.8,90a10,10,0,0,0-8.11-11.57"/><path class="cls-3" d="M132.52,79.31A9.1,9.1,0,1,0,140,89.86a9.11,9.11,0,0,0-7.43-10.55"/><path class="cls-2" d="M130.93,79.77h-1a.42.42,0,0,0-.4.34l-.17,1.59a3,3,0,0,0-.68.22l-1-1.25a.43.43,0,0,0-.45-.11l-1.42.85a.36.36,0,0,0-.17.45l.63,1.48a4.24,4.24,0,0,0-.46.51l-1.42-.57a.36.36,0,0,0-.45.17l-.85,1.42a.32.32,0,0,0,.11.46l1.25,1c-.06.23-.11.45-.17.68l-1.47.23a.32.32,0,0,0-.34.34v1.7a.31.31,0,0,0,.28.34l1.64.17.18.68-1.2,1a.3.3,0,0,0-.11.45l.85,1.47a.34.34,0,0,0,.46.12l1.47-.63a4.24,4.24,0,0,0,.51.46l-.57,1.47a.32.32,0,0,0,.12.46l1.41.79a.42.42,0,0,0,.51-.06l1-1.3.68.17.23,1.53a.31.31,0,0,0,.34.28h.62v-.68l-.28-.05-.23-1.48a.3.3,0,0,0-.28-.28,5.48,5.48,0,0,1-1.08-.23.35.35,0,0,0-.45.11l-.91,1.2-.85-.51.56-1.37a.43.43,0,0,0-.11-.45,3.48,3.48,0,0,1-.85-.74.27.27,0,0,0-.4,0l-1.41.56-.52-.85,1.2-1a.33.33,0,0,0,.11-.4,3.94,3.94,0,0,1-.29-1.08.58.58,0,0,0-.34-.28l-1.53-.17v-1l1.48-.23a.36.36,0,0,0,.34-.28,4.35,4.35,0,0,1,.23-1.08.33.33,0,0,0-.12-.4l-1.25-1,.51-.85,1.37.56a.43.43,0,0,0,.45-.11,4.62,4.62,0,0,1,.74-.79.45.45,0,0,0,.11-.46l-.62-1.42.9-.51.91,1.2a.3.3,0,0,0,.4.11,7.15,7.15,0,0,1,1.08-.28.36.36,0,0,0,.28-.34l.17-1.54h.68Zm8.17,7.09-1.65-.23a5.38,5.38,0,0,0-.17-.62l1.2-1a.37.37,0,0,0,.11-.51l-.85-1.42a.37.37,0,0,0-.46-.17l-1.47.63c-.17-.17-.34-.29-.51-.46l.57-1.41a.32.32,0,0,0-.12-.46l-1.42-.85a.43.43,0,0,0-.51.11l-1,1.25a3.21,3.21,0,0,0-.68-.11L132,80.11a.37.37,0,0,0-.34-.34h-.68v.73h.34L131.5,82a.36.36,0,0,0,.28.34,4.85,4.85,0,0,1,1.08.23.44.44,0,0,0,.45-.12l.91-1.25.85.52-.56,1.41a.37.37,0,0,0,.11.4,5,5,0,0,1,.85.74c.06.17.23.17.4.11l1.41-.57.52.85-1.2.91h.06a.39.39,0,0,0-.17.46c.11.34.23.62.34,1,0,.17.17.28.28.34l1.54.17v1l-1.48.17a.52.52,0,0,0-.34.34,6.94,6.94,0,0,1-.23,1.08.37.37,0,0,0,.12.39l1.24.91-.51.91-1.36-.57a.36.36,0,0,0-.45.12,8.92,8.92,0,0,1-.74.79.37.37,0,0,0-.11.4l.62,1.42-.9.51-.91-1.2v.06a.31.31,0,0,0-.4-.17,4.09,4.09,0,0,1-1.08.34.36.36,0,0,0-.28.34l-.23,1.53h-.68v.68l1,.06a.49.49,0,0,0,.4-.34l.17-1.59a3,3,0,0,0,.68-.22l.91,1.24a.42.42,0,0,0,.51.06L136,95a.4.4,0,0,0,.17-.46l-.63-1.47a4.24,4.24,0,0,0,.46-.51l1.41.56a.36.36,0,0,0,.46-.17l.85-1.41a.38.38,0,0,0-.11-.52l-1.25-1c0-.17.11-.4.17-.68l1.47-.17c.23-.06.34-.17.34-.4V87.2A.31.31,0,0,0,139.1,86.86Z"/><path class="cls-2" d="M130.93,92.13a3.94,3.94,0,0,1,0-7.88H131v-.74h-.06a4.68,4.68,0,0,0,0,9.36H131v-.74Zm.06-7.88a3.94,3.94,0,0,1,0,7.88v.74a4.68,4.68,0,0,0,0-9.36Z"/><path class="cls-2" d="M161.56,84a13.25,13.25,0,1,0,10.78,15.37A13.32,13.32,0,0,0,161.56,84"/><path class="cls-3" d="M161.34,85.21a12.19,12.19,0,0,0-14.07,9.87,12.15,12.15,0,1,0,14.07-9.87"/><path class="cls-2" d="M166.5,99.56a7.21,7.21,0,0,0,.28-4,7.69,7.69,0,0,0-9-6.12l-.22-1.08a8.87,8.87,0,0,1,10,11.51Zm-12.31-8.33a7.67,7.67,0,0,0-2.5,7.26l-1.08.22a5.6,5.6,0,0,1-.17-1.3v-.74a9.15,9.15,0,0,1,3-6.3Z"/><path class="cls-2" d="M152.71,89.58a10,10,0,0,1,4.66-2.27,9.92,9.92,0,0,1,11.57,7.83,9.66,9.66,0,0,1-3.18,9.3l.68.85A10.88,10.88,0,0,0,170.07,95a11.07,11.07,0,0,0-12.93-8.74,10.82,10.82,0,0,0-5.11,2.5Z"/><path class="cls-4" d="M29,76.76a.22.22,0,0,1-.29.06,1.74,1.74,0,0,0-1.87-1.42c-1.19,0-2.44.85-2.44,2.83s1.25,3.07,2.5,3.07a2.16,2.16,0,0,0,2-1.48c.06,0,.23,0,.28.06a4,4,0,0,1-.45,1.47c-.12,0-.23.06-.34.06a4.15,4.15,0,0,1-1.53.29A4.33,4.33,0,0,1,24.46,81a3,3,0,0,1-1.36-2.66,3.13,3.13,0,0,1,1.19-2.5A4.35,4.35,0,0,1,27,75a7.46,7.46,0,0,1,1.65.23,2.5,2.5,0,0,1,.28,0c0,.23.06.8.12,1.48"/><path class="cls-4" d="M31.21,77.61V78h-.06a.54.54,0,0,0-.51.45.34.34,0,0,1-.17.34,1.58,1.58,0,0,1-.62.17c-.12,0-.17,0-.17-.17s.05-.28.39-.62a2.6,2.6,0,0,1,1.14-.57m0-.68v.34c-.06-.06-.12-.06-.12-.17Zm0,4.2a.55.55,0,0,1-.51-.57.56.56,0,0,1,.51-.62v-.4c-.23.11-.51.17-.74.28-.68.23-.79.57-.79.91a.91.91,0,0,0,1,.91,1.86,1.86,0,0,0,.57-.11Zm0-3.86v-.34L32,75.34c.06-.22.17-.28.29-.28a.52.52,0,0,1,.34.17c.11.11.22.17.22.28s-.11.23-.28.4l-1.25,1.36Zm.51,3.4c-.06.23-.12.46-.46.46h-.05v.4c.11-.06.17-.06.28-.12s.17-.17.23-.17.11.06.17.11a.82.82,0,0,0,.68.29,1.46,1.46,0,0,0,1-.4c.06-.11-.05-.23-.05-.23s-.17.12-.34.12c-.34,0-.51-.28-.46-.85l.06-1.48a1,1,0,0,0-1.19-1.19h-.34V78c.45,0,.56.45.56.91v.28c0,.06-.05.17-.22.23a1,1,0,0,1-.34.11v.4a.72.72,0,0,1,.45-.12.21.21,0,0,1,.06.12Z"/><path class="cls-4" d="M34.27,79c0-.45,0-.57-.28-.74l-.12,0s0-.17.06-.23a7.78,7.78,0,0,0,1.25-.51c.06,0,.06.06.11.11a1.44,1.44,0,0,0,0,.4c0,.11,0,.11.11.11a2.65,2.65,0,0,1,1.36-.45.88.88,0,0,1,.85.4.62.62,0,0,1,.17.11.42.42,0,0,0,.23-.06,2.25,2.25,0,0,1,1.25-.45c.79,0,1.13.51,1.13,1.25v1.53c0,.68.06.79.4.85H41a.44.44,0,0,1,0,.29H38.87c-.12,0-.12-.18-.06-.29H39c.34-.06.4-.17.4-.85v-1.3c0-.51-.23-.91-.8-.91a.85.85,0,0,0-.68.28,1,1,0,0,0-.11.51v1.42c0,.68.05.79.39.85h.12c.11.11.06.29,0,.29h-2c-.05,0-.05-.18,0-.29h.12c.34-.06.39-.17.39-.85v-1.3c0-.51-.17-.91-.73-.91a.77.77,0,0,0-.68.28.8.8,0,0,0-.17.63v1.3c0,.68,0,.79.39.85h.12c.11.11,0,.29,0,.29h-2c-.05,0-.05-.18,0-.29h.17c.34-.06.4-.17.4-.85Z"/><path class="cls-4" d="M43,77.61V78h-.06a.5.5,0,0,0-.51.45c0,.17-.05.29-.17.34a2,2,0,0,1-.62.17.15.15,0,0,1-.17-.17c0-.11.06-.28.34-.62A2.87,2.87,0,0,1,43,77.61m0,3.52a.55.55,0,0,1-.51-.57.57.57,0,0,1,.51-.62v-.4c-.28.11-.51.17-.74.28-.68.23-.79.57-.79.91a.88.88,0,0,0,1,.91,1.86,1.86,0,0,0,.57-.11Zm.45-.46a.42.42,0,0,1-.45.46v.4c.06-.06.17-.06.23-.12s.22-.17.28-.17.06.06.17.11a.76.76,0,0,0,.68.29,1.63,1.63,0,0,0,1-.4c0-.11-.06-.23-.12-.23a.69.69,0,0,1-.34.12c-.34,0-.45-.28-.45-.85l.05-1.48c.06-.85-.39-1.19-1.19-1.19H43V78c.4,0,.57.45.51.91v.28c0,.06,0,.17-.23.23s-.17.11-.28.11v.4a.67.67,0,0,1,.4-.12.13.13,0,0,1,.11.12Z"/><path class="cls-4" d="M46,79c0-.45,0-.57-.23-.74l-.11,0V78a5,5,0,0,0,1.24-.51.13.13,0,0,1,.12.11V78c0,.11,0,.11.05.11.34-.17.63-.45,1-.45s.51.17.51.45a.56.56,0,0,1-.51.57c-.12,0-.17,0-.29-.11a.7.7,0,0,0-.45-.17c-.23,0-.28.23-.28.68v1.36c0,.68.05.79.39.85h.34c.12.11.06.29,0,.29H45.45c-.06,0-.06-.18,0-.29h.17c.34-.06.34-.17.34-.85Z"/><path class="cls-4" d="M50.32,77.61V78h0a.53.53,0,0,0-.51.45.34.34,0,0,1-.17.34A1.64,1.64,0,0,1,49,79a.15.15,0,0,1-.17-.17c0-.11.06-.28.4-.62a2.61,2.61,0,0,1,1.13-.57m0,3.52a.55.55,0,0,1-.51-.57.57.57,0,0,1,.51-.62v-.4c-.22.11-.51.17-.73.28-.68.23-.8.57-.8.91a.92.92,0,0,0,1,.91,1.86,1.86,0,0,0,.56-.11Zm.51-.46a.42.42,0,0,1-.45.46h-.06v.4c.12-.06.17-.06.29-.12s.17-.17.22-.17.12.06.17.11a.85.85,0,0,0,.69.29,1.46,1.46,0,0,0,1-.4c.06-.11-.06-.23-.06-.23s-.17.12-.34.12c-.34,0-.51-.28-.45-.85l.06-1.48c0-.85-.46-1.19-1.2-1.19h-.34V78c.46,0,.57.45.57.91v.28c0,.06-.06.17-.23.23a.85.85,0,0,1-.34.11v.4a.74.74,0,0,1,.46-.12s0,.06,0,.12Z"/><path class="cls-4" d="M57.24,76c0-.4,0-.46.52-.46a.76.76,0,0,1,.39.06v-.4a1.77,1.77,0,0,0-.51,0c-.79,0-1.59,0-2.21.11-.11,0-.11.17,0,.28h.23c.45.06.45.17.45,1.08v3.52c0,1-.06,1.07-.51,1.13h-.23c-.11.11,0,.29,0,.29H58c.06,0,.06-.18,0-.29h-.22c-.46-.06-.52-.11-.52-1.13V78.92c0-.23,0-.23.29-.23a.57.57,0,0,1,.62.34v-.74H57.7c-.46,0-.46,0-.46-.28Zm.91-.4a1.37,1.37,0,0,1,.91,1.36,1.22,1.22,0,0,1-.91,1.36V79c.23.4.51.91.74,1.3a2.13,2.13,0,0,0,2,1.25,1.86,1.86,0,0,0,.63,0c0-.06,0-.18-.06-.18a.82.82,0,0,1-.62-.34,9.72,9.72,0,0,1-1.71-2.43c-.05-.06-.05-.18,0-.18a1.76,1.76,0,0,0,1.14-1.53,1.52,1.52,0,0,0-.85-1.41,2.85,2.85,0,0,0-1.31-.29Z"/><path class="cls-4" d="M62.58,78.86c-.12,0-.12-.06-.12-.06a1,1,0,0,1,.8-.85v-.34a2,2,0,0,0-1.76,2.1,1.81,1.81,0,0,0,1.76,1.93v-.85a1.5,1.5,0,0,1-.91-1.42c0-.11.06-.11.23-.11h.68v-.4Zm.68,2.78v-.85a.94.94,0,0,0,.56.11,1,1,0,0,0,.91-.45.16.16,0,0,1,.23.11,1.73,1.73,0,0,1-1.65,1.08Zm0-3.69h.11a.61.61,0,0,1,.68.63.26.26,0,0,1-.11.22,3,3,0,0,1-.46.06h-.22v.4h1c.4,0,.63-.06.68-.17S65,79,65,78.86a1.35,1.35,0,0,0-1.48-1.25h-.22Z"/><path class="cls-4" d="M67.57,83.62c-.74,0-1.31-.39-1.31-1a.79.79,0,0,1,.29-.57,2,2,0,0,1,.68-.11h.34v-.85H67c-.4,0-.51-.17-.51-.34a.43.43,0,0,1,.28-.4c.12,0,.23.06.34.06a1.22,1.22,0,0,0,.46-.06V80a.51.51,0,0,1-.29.06c-.34,0-.68-.4-.68-1.13s.29-1,.63-1a1,1,0,0,1,.34.11v-.45h-.29a1.57,1.57,0,0,0-1.75,1.48,1.32,1.32,0,0,0,.73,1.19v0c0,.17-.45.46-.62.52a.3.3,0,0,0-.11.28.9.9,0,0,0,.62.79c.06,0,0,.12-.06.17s-.51.34-.62.46a.61.61,0,0,0-.11.39c0,.51.45,1.14,1.81,1.14h.4Zm0-3.23V80c.23-.11.4-.39.4-.9a1.32,1.32,0,0,0-.4-1v-.45a1.24,1.24,0,0,1,.68.17,1.22,1.22,0,0,0,.45.17h.91c.06,0,.11.06.11.17s-.11.28-.17.28h-.68v.46A1.5,1.5,0,0,1,67.57,80.39ZM67.8,82c.56,0,1,.23,1,.74s-.46.9-1.25.9v.46A2.87,2.87,0,0,0,69,83.45a1.66,1.66,0,0,0,.57-1.13c0-1.08-.85-1.19-1.53-1.19h-.51V82Z"/><path class="cls-4" d="M70.29,75.68a.58.58,0,0,1,.63-.56.55.55,0,0,1,.62.56.57.57,0,0,1-.62.63.6.6,0,0,1-.63-.63m1.14,4.71c0,.68,0,.79.39.85H72c.06.11.06.29,0,.29h-2s0-.18,0-.29h.18c.33-.06.33-.17.33-.85V79c0-.45,0-.57-.22-.74l-.11,0V78a3.58,3.58,0,0,0,1.24-.51c.06,0,.12.06.17.11a7.9,7.9,0,0,0,0,1.14Z"/><path class="cls-4" d="M73.58,79.54c0-1.08.4-1.59.91-1.59h.06v-.34a2,2,0,0,0-2.1,2.1,1.87,1.87,0,0,0,2,1.93h.06v-.4c-.68-.06-1-.85-1-1.7m1-1.59c.62.06.9,1,.9,1.76s-.17,1.53-.85,1.53h0v.4a2,2,0,1,0,0-4Z"/><path class="cls-4" d="M78.74,80.39c0,.68.06.79.4.85h.11c.06.11.06.29,0,.29H77.16c-.06,0-.06-.18,0-.29h.22c.34-.06.34-.17.34-.85V79c0-.45,0-.57-.23-.74l-.11,0V78a6,6,0,0,0,1.25-.51.12.12,0,0,1,.11.11V78c0,.11.06.11.12.11a2.44,2.44,0,0,1,1.3-.45c.8,0,1.14.51,1.14,1.25v1.53c0,.68,0,.79.39.85h.17c.12.11.06.29,0,.29h-2c-.11,0-.11-.18-.06-.29h.18c.33-.06.33-.17.33-.85V79c0-.45-.17-.85-.73-.85a.77.77,0,0,0-.68.28c-.12.17-.12.29-.12.63Z"/><path class="cls-4" d="M83.85,77.61V78a.46.46,0,0,0-.51.45c-.06.17-.12.29-.23.34a1.59,1.59,0,0,1-.57.17c-.17,0-.22,0-.22-.17s.05-.28.39-.62a3,3,0,0,1,1.14-.57m0,3.52a.55.55,0,0,1-.51-.57.61.61,0,0,1,.51-.62v-.4c-.23.11-.51.17-.74.28-.62.23-.79.57-.79.91a.93.93,0,0,0,1,.91,1.48,1.48,0,0,0,.51-.11Zm.51-.46a.42.42,0,0,1-.45.46h-.06v.4c.11-.06.23-.06.28-.12a.56.56,0,0,1,.29-.17,1,1,0,0,0,.11.11.82.82,0,0,0,.68.29,1.35,1.35,0,0,0,1-.4c.06-.11,0-.23,0-.23s-.17.12-.34.12c-.34,0-.51-.28-.46-.85l.06-1.48c.06-.85-.4-1.19-1.19-1.19h-.34V78c.45,0,.57.45.57.91v.28c0,.06-.06.17-.23.23a.9.9,0,0,1-.34.11v.4h.06a.66.66,0,0,1,.39-.12c.06,0,.06.06.06.12Z"/><path class="cls-4" d="M86.8,76.25c0-.68,0-.74-.23-.85l-.11-.06c-.06-.06-.06-.22,0-.22a13.24,13.24,0,0,0,1.25-.52c.05,0,.11.06.17.12a10.32,10.32,0,0,0-.06,1.36v4.31c0,.68.06.79.4.85h.17c0,.11,0,.29,0,.29h-2.1c-.12,0-.12-.18-.06-.29h.23c.34-.06.34-.17.34-.85Z"/><path class="cls-4" d="M93.32,81c-.56-.11-.91-.73-.91-1.58s.35-1.37.91-1.42v-.4a2.18,2.18,0,0,0-2,2.21,1.76,1.76,0,0,0,1.82,1.82h.22Zm.91-.45c0,.17,0,.23-.06.29a.87.87,0,0,1-.56.22.42.42,0,0,1-.29-.06v.63a2,2,0,0,0,.85-.4h.06v.4a.12.12,0,0,0,.11.11,5.58,5.58,0,0,1,1.53-.4c.12,0,.06-.28,0-.34a1.38,1.38,0,0,1-.39.12c-.17,0-.23-.28-.23-1.19V74.72a.13.13,0,0,0-.11-.12c-.4.17-.91.4-1.25.52-.11,0-.06.16,0,.22l.11.06c.23.11.23.17.23.85V77.5c0,.11,0,.17-.06.17a1.47,1.47,0,0,0-.56-.06h-.29V78c.06-.06.06-.06.11-.06a.89.89,0,0,1,.69.34,1.2,1.2,0,0,1,.11.46Z"/><path class="cls-4" d="M97.35,78.86c-.11,0-.11-.06-.11-.06A1,1,0,0,1,98,78v-.34a2,2,0,0,0-1.75,2.1A1.84,1.84,0,0,0,98,81.64v-.85a1.55,1.55,0,0,1-.85-1.42c0-.11,0-.11.23-.11H98v-.4ZM98,81.64v-.85a1.28,1.28,0,0,0,.63.11,1,1,0,0,0,.9-.45.16.16,0,0,1,.23.11,1.78,1.78,0,0,1-1.64,1.08ZM98,78h.17a.6.6,0,0,1,.63.63c0,.11,0,.17-.06.22a4.16,4.16,0,0,1-.51.06H98v.4h1c.4,0,.63-.06.69-.17s0-.12,0-.23a1.35,1.35,0,0,0-1.47-1.25H98Z"/><path class="cls-4" d="M25,90.43c0,1,.05,1,.51,1.08l.22.06a.19.19,0,0,1-.05.28,8.72,8.72,0,0,0-1.25-.06,9,9,0,0,0-1.3.06c-.06-.06-.12-.23,0-.28l.17-.06c.45-.06.56-.06.56-1.08V86.86c0-1-.11-1.08-.56-1.14H23.1c-.12,0-.06-.22,0-.28h2.55a.19.19,0,0,1,.05.28h-.22c-.46.06-.51.12-.51,1.14Z"/><path class="cls-4" d="M27.8,90.66c0,.74.06.85.4.91h.11c.12.05.06.22,0,.28a5.82,5.82,0,0,0-1-.06,6.54,6.54,0,0,0-1,.06.19.19,0,0,1-.05-.28l.22-.06c.34,0,.4-.11.4-.85V89.24c0-.4,0-.51-.28-.68l-.12-.06s0-.17.06-.22a10.18,10.18,0,0,0,1.25-.51c.05,0,.05,0,.11,0a1.54,1.54,0,0,0-.06.46s.06,0,.12.11a2.19,2.19,0,0,1,1.3-.51c.8,0,1.14.57,1.14,1.3v1.48c0,.74.05.85.39.85l.23.06a.19.19,0,0,1-.06.28,6.4,6.4,0,0,0-1.07-.06,5.54,5.54,0,0,0-1,.06c-.05-.06-.11-.23,0-.28H29c.34-.06.39-.17.39-.91V89.35c0-.51-.22-.9-.79-.9a.78.78,0,0,0-.63.34.75.75,0,0,0-.17.56Z"/><path class="cls-4" d="M33.42,91.34c-.57-.17-.91-.8-.91-1.65a1.3,1.3,0,0,1,.91-1.41v-.4a2.26,2.26,0,0,0-2,2.21A1.8,1.8,0,0,0,33.19,92a.39.39,0,0,0,.23,0Zm.91-.46a.42.42,0,0,1-.06.29,1.26,1.26,0,0,1-.57.23,2.57,2.57,0,0,1-.28-.06v.57a2,2,0,0,0,.85-.4h.06V92c0,.06.05.06.11.06A9.52,9.52,0,0,1,36,91.68c.12-.06.06-.28,0-.34a1,1,0,0,1-.39.06c-.17,0-.23-.29-.23-1.14V85a.22.22,0,0,0-.11,0c-.4.17-.91.34-1.25.45a.17.17,0,0,0,0,.23l.11.11c.23.12.23.17.23.8v1.3c0,.06,0,.11-.06.11s-.28-.05-.57-.05h-.28v.4h.11a.74.74,0,0,1,.68.34.81.81,0,0,1,.12.45Z"/><path class="cls-4" d="M40.34,90.37c0,.57,0,1,.23,1a.89.89,0,0,0,.39-.06.21.21,0,0,1,0,.34,7.27,7.27,0,0,0-1.58.34c-.06,0-.06,0-.12-.06a.89.89,0,0,0,.06-.39c0-.06-.06-.06-.11-.06A2.57,2.57,0,0,1,37.9,92c-.85,0-1.13-.51-1.13-1.3V89.18c0-.68-.06-.73-.29-.85h-.11a.24.24,0,0,1,0-.28,6.62,6.62,0,0,0,1.36-.17.17.17,0,0,1,.06.11v2.27c0,.57.11,1.14.79,1.14a.93.93,0,0,0,.63-.29c.11-.06.11-.17.11-.51V89.13c0-.63-.06-.68-.45-.74l-.12-.06a.16.16,0,0,1,0-.28,4.38,4.38,0,0,0,1.48-.17.12.12,0,0,1,.11.11v2.38Z"/><path class="cls-4" d="M41.53,91.62a2.73,2.73,0,0,1-.17-1.08.28.28,0,0,1,.28,0c.17.51.52,1,1,1a.49.49,0,0,0,.56-.52c0-.39-.34-.62-.68-.73-.45-.29-1-.63-1-1.25s.68-1.19,1.48-1.19a2.16,2.16,0,0,1,.85.17A2.14,2.14,0,0,1,44,89a.25.25,0,0,1-.29.06,1,1,0,0,0-.79-.79c-.34,0-.57.17-.57.45s.29.51.68.68,1.08.57,1.08,1.3S43.35,92,42.61,92a1.72,1.72,0,0,1-1.08-.34"/><path class="cls-4" d="M46.35,88.45c-.17,0-.17,0-.17.34v1.47c0,.62.12,1.14.74,1.14a.77.77,0,0,0,.45-.17c.06,0,.12,0,.12.17a1.47,1.47,0,0,1-1.25.56c-.91,0-1.08-.56-1.08-1.25V88.79c0-.34,0-.34-.17-.34h-.34c-.06-.06-.11-.23,0-.29a1.89,1.89,0,0,0,.74-.39A3.06,3.06,0,0,0,46,87.2a.13.13,0,0,1,.22,0v.57c0,.11,0,.17.23.17h.91s.11.12.11.23a.34.34,0,0,1-.11.23Z"/><path class="cls-4" d="M48.34,89.24c0-.4,0-.51-.28-.68l-.12-.06s0-.17.06-.22a6.64,6.64,0,0,0,1.19-.51c.06,0,.11,0,.11,0v.46a.13.13,0,0,0,.12.11,1.81,1.81,0,0,1,.9-.51.52.52,0,0,1,.57.45.53.53,0,0,1-.57.57c-.11,0-.17,0-.22-.06a1,1,0,0,0-.51-.17c-.23,0-.29.23-.29.68v1.31c0,.74.06.85.4.85l.4.06a.2.2,0,0,1-.06.28,10.48,10.48,0,0,0-1.25-.06,6.54,6.54,0,0,0-1,.06.24.24,0,0,1,0-.28l.17-.06c.34,0,.4-.11.4-.85Z"/><path class="cls-4" d="M52.65,89V87.82s-.06,0-.11,0a11.79,11.79,0,0,1-1.25.51c-.06,0-.06.17-.06.22l.12.06c.28.17.28.28.28.68v1.42c0,.74-.06.85-.4.85l-.17.06a.19.19,0,0,0,.06.28,5.49,5.49,0,0,1,1-.06,6.52,6.52,0,0,1,1.08.06.24.24,0,0,0,0-.28L53,91.51c-.34,0-.34-.11-.34-.85Zm-.51-2.38a.58.58,0,0,0,.57-.62.6.6,0,1,0-.57.62Z"/><path class="cls-4" d="M55.2,87.93v.4h-.05a.45.45,0,0,0-.51.4.35.35,0,0,1-.17.34,1.07,1.07,0,0,1-.63.17c-.11,0-.17-.06-.17-.11A1,1,0,0,1,54,88.5a2.7,2.7,0,0,1,1.19-.57m0,3.47a.51.51,0,0,1-.51-.52c0-.45.23-.56.51-.68v-.34c-.28.06-.51.17-.73.23-.69.28-.8.57-.8.91a.89.89,0,0,0,1,1,1.59,1.59,0,0,0,.56-.11Zm.46-.46a.42.42,0,0,1-.46.46v.45a.76.76,0,0,0,.23-.17,2.24,2.24,0,0,1,.28-.11.25.25,0,0,1,.17.11.82.82,0,0,0,.68.28,1.41,1.41,0,0,0,1-.45c0-.06-.06-.17-.11-.17a.78.78,0,0,1-.29.11c-.4,0-.51-.28-.51-.85l.11-1.53a1,1,0,0,0-1.19-1.19.83.83,0,0,0-.34.05v.4c.46,0,.57.4.51.91v.23c0,.11,0,.17-.22.28a1.22,1.22,0,0,0-.29.11v.34a2.88,2.88,0,0,1,.4-.11c.06,0,.11.06.11.17Z"/><path class="cls-4" d="M58,93c-.11,0-.17-.17-.11-.28.34-.11.85-.34.85-.85s-.45-.51-.57-.57a.37.37,0,0,1-.22-.34c0-.28.22-.51.62-.51a.92.92,0,0,1,.79,1A1.58,1.58,0,0,1,58,93"/><path class="cls-4" d="M63.43,86.91c0-.9,0-1-.4-1.07l-.34-.06a.24.24,0,0,1,0-.28c.68-.06,1.25-.06,2.16-.06a3.64,3.64,0,0,1,2,.4,1.59,1.59,0,0,1,.85,1.41,2,2,0,0,1-2.15,1.88h-.29a.2.2,0,0,1,0-.23,1.5,1.5,0,0,0,1.19-1.65,1.35,1.35,0,0,0-1.36-1.41c-.51,0-.51,0-.51.39v4.2c0,1,.06,1,.51,1.08l.4.06a.19.19,0,0,1-.06.28A12,12,0,0,0,64,91.79a8.65,8.65,0,0,0-1.25.06.24.24,0,0,1,0-.28h.17c.45-.12.51-.12.51-1.14Z"/><path class="cls-4" d="M68.53,89.24c0-.4,0-.51-.22-.68l-.12-.06a.18.18,0,0,1,0-.22,6.64,6.64,0,0,0,1.19-.51c.06,0,.12,0,.12,0v.46a.12.12,0,0,0,.11.11,1.79,1.79,0,0,1,.91-.51.52.52,0,0,1,.57.45.54.54,0,0,1-.57.57.33.33,0,0,1-.23-.06.83.83,0,0,0-.45-.17c-.23,0-.29.23-.29.68v1.31c0,.74,0,.85.34.85l.4.06a.24.24,0,0,1,0,.28,11.25,11.25,0,0,0-1.3-.06,5.54,5.54,0,0,0-1,.06.19.19,0,0,1,0-.28l.17-.06c.34,0,.39-.11.39-.85Z"/><path class="cls-4" d="M72.39,89.86c0-1.07.4-1.58.91-1.58h0v-.4A2.05,2.05,0,0,0,71.26,90a1.91,1.91,0,0,0,2,2h0v-.39c-.68-.06-1-.91-1-1.71m1-1.58c.63,0,.91,1,.91,1.75s-.17,1.54-.85,1.54h-.06V92a2,2,0,0,0,2.05-2.1,1.92,1.92,0,0,0-2.05-2Z"/><path class="cls-4" d="M78,91.34a1.63,1.63,0,0,1-.91-1.65A1.3,1.3,0,0,1,78,88.28v-.4a2.22,2.22,0,0,0-2,2.21A1.79,1.79,0,0,0,77.78,92a.39.39,0,0,0,.23,0Zm.9-.46a.49.49,0,0,1,0,.29,1.05,1.05,0,0,1-.57.23c-.11,0-.17-.06-.28-.06v.57a2.61,2.61,0,0,0,.9-.4c.06.06.06.11.06.28l-.06.17C79,92,79,92,79,92a9.52,9.52,0,0,1,1.53-.34.22.22,0,0,0,0-.34,1,1,0,0,1-.4.06c-.17,0-.22-.29-.22-1.14V86.4A13.57,13.57,0,0,1,80,85s-.11,0-.17,0a10.43,10.43,0,0,1-1.25.45.2.2,0,0,0,0,.23l.12.11c.22.12.22.17.22.8v1.3c0,.06,0,.11,0,.11s-.29-.05-.57-.05H78v.4h.17a.64.64,0,0,1,.62.34c.11.11.11.22.11.45Z"/><path class="cls-4" d="M84.93,90.37c0,.57,0,1,.22,1a.81.81,0,0,0,.4-.06.22.22,0,0,1,0,.34A7.49,7.49,0,0,0,84,92s0,0,0-.06v-.39c0-.06-.06-.06-.12-.06a2.54,2.54,0,0,1-1.3.45c-.85,0-1.14-.51-1.14-1.3V89.18c0-.68,0-.73-.28-.85H81a.24.24,0,0,1,0-.28,6.72,6.72,0,0,0,1.36-.17c.05,0,.05.05.05.11v2.27c0,.57.12,1.14.8,1.14a.92.92,0,0,0,.62-.29c.12-.06.12-.17.12-.51V89.13c0-.63-.06-.68-.4-.74l-.17-.06a.24.24,0,0,1,0-.28,5,5,0,0,0,1.53-.17c.06,0,.06.05.06.11v2.38Z"/><path class="cls-4" d="M89.12,88a.83.83,0,0,1,.23.51c0,.34-.17.46-.28.46s-.12,0-.17-.12a1.23,1.23,0,0,0-.85-.56,1.26,1.26,0,0,0-1.14,1.41,1.42,1.42,0,0,0,1.36,1.54,1.16,1.16,0,0,0,1.08-.52.18.18,0,0,1,.17.17A1.79,1.79,0,0,1,87.82,92a2.07,2.07,0,0,1-1.31-.51A2,2,0,0,1,86,90a2.15,2.15,0,0,1,2.38-2.15,3.58,3.58,0,0,1,.79.11"/><path class="cls-4" d="M93,88a.77.77,0,0,1,.17.51c0,.34-.11.46-.23.46s-.11,0-.16-.12a1.24,1.24,0,0,0-.86-.56,1.26,1.26,0,0,0-1.13,1.41,1.42,1.42,0,0,0,1.36,1.54,1,1,0,0,0,1-.52c.12,0,.23.06.23.17A1.79,1.79,0,0,1,91.68,92a1.94,1.94,0,0,1-1.31-.51A2,2,0,0,1,89.81,90a2.15,2.15,0,0,1,2.38-2.15A4.14,4.14,0,0,1,93,88"/><path class="cls-4" d="M94.06,86a.63.63,0,0,1,.62-.63.6.6,0,0,1,.63.63.6.6,0,0,1-.63.62.62.62,0,0,1-.62-.62m1.13,4.65c0,.74.06.85.4.85l.17.06a.19.19,0,0,1-.06.28,5.82,5.82,0,0,0-1-.06,6.17,6.17,0,0,0-1,.06.28.28,0,0,1,0-.28l.17-.06c.34,0,.34-.11.34-.85V89.24c0-.4,0-.51-.22-.68l-.12-.06v-.22a6.18,6.18,0,0,0,1.25-.51.23.23,0,0,1,.17,0A7.58,7.58,0,0,0,95.19,89Z"/><path class="cls-4" d="M98.31,86.91v.63h0c-.12,0-.17,0-.23-.12Zm-1,3c0-1.07.4-1.58.91-1.58h0v-.4A2.05,2.05,0,0,0,96.22,90a1.91,1.91,0,0,0,2,2h0v-.39C97.63,91.51,97.35,90.66,97.35,89.86Zm1-2.32v-.63l.63-1.24c0-.23.17-.29.28-.29a.62.62,0,0,1,.57.46c0,.11-.11.22-.29.34Zm0,.74c.63,0,.91,1,.91,1.75s-.17,1.54-.85,1.54h-.06V92a2,2,0,0,0,2-2.1,2,2,0,0,0-2-2Z"/><path class="cls-4" d="M102.51,90.66c0,.74.06.85.4.91H103a.24.24,0,0,1,0,.28,5.82,5.82,0,0,0-1-.06,7.28,7.28,0,0,0-1.08.06.28.28,0,0,1,0-.28l.23-.06c.34,0,.34-.11.34-.85V89.24c0-.4,0-.51-.23-.68l-.11-.06a.16.16,0,0,1,0-.22,7.37,7.37,0,0,0,1.25-.51s.11,0,.11,0v.46s.06,0,.11.11a2.12,2.12,0,0,1,1.31-.51c.79,0,1.13.57,1.13,1.3v1.48c0,.74.06.85.34.85l.23.06c.12.05.06.22,0,.28a6.83,6.83,0,0,0-1.08-.06,4.85,4.85,0,0,0-1,.06.2.2,0,0,1-.06-.28h.17c.34-.06.34-.17.34-.91V89.35c0-.51-.17-.9-.73-.9a.81.81,0,0,0-.69.34c-.11.17-.11.22-.11.56Z"/><path class="cls-4" d="M108.41,93.72c0-.34.23-.45.51-.45h.17a.39.39,0,0,0,.4-.23,2.21,2.21,0,0,0,.51-1.19,3,3,0,0,0-.17-.68l-.8-2c-.22-.63-.28-.74-.68-.8l-.17,0a.3.3,0,0,1,0-.29h2.1a.2.2,0,0,1,.06.29l-.28,0c-.23.06-.29.06-.12.51l.46,1.08c.17.51.28.74.34.74a4.76,4.76,0,0,0,.28-.57l.28-.68a4.63,4.63,0,0,0,.34-.91c0-.11,0-.11-.17-.17l-.34,0a.22.22,0,0,1,.06-.29h1.65c.11,0,.11.23,0,.29a.79.79,0,0,0-.56.22c-.12.06-.29.34-.57,1l-.51,1c-.34.68-1.19,2.38-1.59,3.23a.77.77,0,0,1-.74.57.5.5,0,0,1-.51-.51"/><path class="cls-4" d="M29,97.35a.2.2,0,0,1-.29.06A1.74,1.74,0,0,0,26.84,96c-1.19,0-2.44.85-2.44,2.84s1.25,3.06,2.5,3.06a2.09,2.09,0,0,0,2-1.48c.06,0,.23,0,.28.06a3.72,3.72,0,0,1-.45,1.48c-.12,0-.23,0-.34,0a4.15,4.15,0,0,1-1.53.29,4.41,4.41,0,0,1-2.44-.68A2.94,2.94,0,0,1,23.1,99a3.16,3.16,0,0,1,1.19-2.56A4.42,4.42,0,0,1,27,95.59a7.46,7.46,0,0,1,1.65.23,2.13,2.13,0,0,1,.28.06c0,.22.06.79.12,1.47"/><path class="cls-4" d="M30.81,100.13c0-1.08.34-1.59.85-1.59h.06V98.2a2,2,0,0,0-2,2.1,1.85,1.85,0,0,0,2,1.93h.06v-.4c-.63,0-.91-.85-.91-1.7m.91-1.59c.68.06,1,1,1,1.76s-.22,1.53-.85,1.53h-.11v.4a2,2,0,0,0,2.1-2,2,2,0,0,0-2.05-2h-.05Z"/><path class="cls-4" d="M35,99.56c0-.45,0-.56-.23-.68l-.11-.11c-.06,0-.06-.17,0-.23A7.78,7.78,0,0,0,35.86,98a.12.12,0,0,1,.11.12v.39c0,.12,0,.12.06.12a2.57,2.57,0,0,1,1.36-.46,1.26,1.26,0,0,1,.91.4l.11.11a.49.49,0,0,0,.23,0,2.19,2.19,0,0,1,1.25-.46,1.12,1.12,0,0,1,1.19,1.25V101c0,.68,0,.8.34.85h.22a.44.44,0,0,1,0,.29H39.55c-.06,0-.12-.17,0-.29h.11c.34,0,.4-.17.4-.85v-1.3c0-.51-.17-.91-.8-.91a.72.72,0,0,0-.62.28c-.12.12-.12.23-.12.51V101c0,.68,0,.8.35.85H39c.05.12.05.29-.06.29H37c-.05,0-.05-.17,0-.29h.12c.34,0,.39-.17.39-.85v-1.3c0-.51-.17-.91-.73-.91a1,1,0,0,0-.68.28c-.12.17-.12.23-.12.63V101c0,.68,0,.8.34.85h.17c.06.12.06.29,0,.29h-2c-.11,0-.11-.17-.06-.29h.17c.34,0,.4-.17.4-.85Z"/><path class="cls-4" d="M43.18,99.45c-.12,0-.12-.06-.12-.06a1,1,0,0,1,.8-.85V98.2a2,2,0,0,0-1.76,2.1,1.81,1.81,0,0,0,1.76,1.93v-.85A1.5,1.5,0,0,1,43,100c0-.11.06-.11.23-.11h.68v-.4Zm.68,2.78v-.85a.94.94,0,0,0,.56.11,1,1,0,0,0,.91-.45c.12-.06.23.06.23.17a1.75,1.75,0,0,1-1.65,1Zm0-3.69H44a.62.62,0,0,1,.68.63.29.29,0,0,1-.11.22,3.08,3.08,0,0,1-.51.06h-.17v.4h1c.4,0,.63-.06.68-.17a.21.21,0,0,0,.06-.17,1.37,1.37,0,0,0-1.48-1.31h-.22Z"/><path class="cls-4" d="M46.58,99.56c0-.45,0-.56-.23-.68l-.11-.11c-.06,0-.06-.17,0-.23A5.46,5.46,0,0,0,47.43,98a.12.12,0,0,1,.11.12v.39c0,.12.06.12.12.12.28-.17.62-.46.91-.46a.51.51,0,0,1,.56.46.53.53,0,0,1-.56.56.41.41,0,0,1-.23-.11,2.57,2.57,0,0,0-.46-.17c-.22,0-.28.23-.28.68V101c0,.68,0,.8.34.85h.4c.06.12.06.29-.06.29H46.07c-.11,0-.11-.17-.06-.29h.17c.34,0,.4-.17.4-.85Z"/><path class="cls-4" d="M52.42,98.32a.55.55,0,0,1,.23.51.46.46,0,0,1-.23.45c-.11,0-.11-.06-.22-.11a1.09,1.09,0,0,0-.85-.63A1.33,1.33,0,0,0,50.21,100a1.43,1.43,0,0,0,1.42,1.53,1.08,1.08,0,0,0,1-.51.18.18,0,0,1,.17.17,1.8,1.8,0,0,1-1.64,1,1.94,1.94,0,0,1-1.37-.51,2,2,0,0,1-.56-1.36,2.18,2.18,0,0,1,2.38-2.16,1.69,1.69,0,0,1,.79.12"/><path class="cls-4" d="M53.56,96.33a.54.54,0,0,1,.56-.62.57.57,0,0,1,.63.62.56.56,0,0,1-.63.57.53.53,0,0,1-.56-.57M54.64,101c0,.68,0,.8.39.85h.17c.06.12.06.29,0,.29H53.1c-.05,0-.05-.17,0-.29h.17c.34,0,.4-.17.4-.85V99.56c0-.45,0-.56-.28-.68l-.12-.11s0-.17.06-.23A5.23,5.23,0,0,0,54.58,98c.06,0,.06.06.11.12,0,.28,0,.73,0,1.13Z"/><path class="cls-4" d="M56.79,100.13c0-1.08.4-1.59.91-1.59h.06V98.2a2,2,0,0,0-2.1,2.1,1.9,1.9,0,0,0,2,1.93h.06v-.4c-.63,0-1-.85-1-1.7m1-1.59c.68.06.9,1,.9,1.76s-.17,1.53-.85,1.53h-.05v.4a1.94,1.94,0,0,0,2-2,1.91,1.91,0,0,0-2-2h-.05Z"/><path class="cls-4" d="M64.9,101.61c-.57-.12-1-.74-1-1.59a1.3,1.3,0,0,1,1-1.42v-.4a2.19,2.19,0,0,0-2,2.21,1.76,1.76,0,0,0,1.82,1.82h.22Zm.91-.4c0,.11-.06.17-.06.23a.87.87,0,0,1-.56.22.49.49,0,0,1-.29,0v.62a2,2,0,0,0,.85-.4h.06v.4a.12.12,0,0,0,.11.11,5.26,5.26,0,0,1,1.53-.39.34.34,0,0,0,0-.34,1.7,1.7,0,0,1-.39.11c-.17,0-.23-.28-.23-1.19V95.31c0-.06-.06-.11-.11-.06-.4.12-.91.34-1.31.46,0,0,0,.17,0,.22l.17.06c.23.11.23.23.23.85v1.25a.25.25,0,0,1-.06.17,1.47,1.47,0,0,0-.56-.06H64.9v.4c0-.06.06-.06.12-.06a1,1,0,0,1,.68.34,1.54,1.54,0,0,1,.11.46Z"/><path class="cls-4" d="M68.93,99.45a.25.25,0,0,1-.17-.06,1.07,1.07,0,0,1,.79-.85V98.2a2,2,0,0,0-1.75,2.1,1.84,1.84,0,0,0,1.75,1.93v-.85A1.55,1.55,0,0,1,68.7,100c0-.11,0-.11.23-.11h.62v-.4Zm.62,2.78v-.85a1.17,1.17,0,0,0,.63.11,1,1,0,0,0,.91-.45c.11-.06.17.06.22.17a1.8,1.8,0,0,1-1.64,1Zm0-3.69h.17a.6.6,0,0,1,.63.63.27.27,0,0,1-.12.22,1.84,1.84,0,0,1-.45.06h-.23v.4h1c.39,0,.62-.06.68-.17v-.17a1.32,1.32,0,0,0-1.42-1.31h-.29Z"/><path class="cls-4" d="M77.61,96h.11v-.4A3.31,3.31,0,0,0,74.32,99a3.26,3.26,0,0,0,3.4,3.29v-.4c-1.59-.11-2.1-1.87-2.1-3.18,0-2,1-2.72,2-2.72m.11,0c1.48.06,2.1,1.7,2.1,3.12,0,1.93-.91,2.78-2,2.78h-.12v.4a3.3,3.3,0,0,0,3.41-3.35,3.2,3.2,0,0,0-3.41-3.35Z"/><path class="cls-4" d="M83.17,99.34c0-.34,0-.46.11-.51a.73.73,0,0,1,.46-.12.7.7,0,0,1,.34.06V98.2a1.58,1.58,0,0,0-.86.29s0-.06,0-.17v-3c0-.06-.06-.11-.11-.06-.4.12-.91.34-1.25.46-.12,0-.06.17,0,.22l.11.06c.23.11.23.23.23.85v4.31c0,.4-.06.91-.06.91a.12.12,0,0,0,.11.11c.06,0,.06,0,.06,0a.29.29,0,0,1,.23-.12,4.76,4.76,0,0,0,1.3.23h.29v-.4H84a.94.94,0,0,1-.68-.28,2.19,2.19,0,0,1-.17-1Zm.91-.57a1.58,1.58,0,0,1,.9,1.64c0,.8-.28,1.42-.9,1.42v.4a2.09,2.09,0,0,0,2-2.16,1.74,1.74,0,0,0-1.81-1.87h-.17Z"/><path class="cls-4" d="M87.76,99.45c-.11,0-.11-.06-.11-.06a1,1,0,0,1,.79-.85V98.2a2,2,0,0,0-1.75,2.1,1.81,1.81,0,0,0,1.75,1.93v-.85a1.47,1.47,0,0,1-.85-1.42c0-.11,0-.11.17-.11h.68v-.4Zm.68,2.78v-.85a1,1,0,0,0,.57.11.92.92,0,0,0,.91-.45c.11-.06.23.06.23.17a1.76,1.76,0,0,1-1.65,1Zm0-3.69h.17a.6.6,0,0,1,.63.63.27.27,0,0,1-.12.22,2,2,0,0,1-.45.06h-.23v.4h1c.4,0,.62-.06.68-.17a.21.21,0,0,0,.06-.17,1.35,1.35,0,0,0-1.42-1.31h-.29Z"/><path class="cls-4" d="M91.17,99.56c0-.45,0-.56-.23-.68l-.11-.11c-.06,0-.06-.17,0-.23A5.92,5.92,0,0,0,92,98s.11.06.17.12a1.2,1.2,0,0,0-.06.39c0,.12.06.12.11.12a2.23,2.23,0,0,1,1-.46.47.47,0,0,1,.51.46.54.54,0,0,1-.57.56.44.44,0,0,1-.23-.11,1.53,1.53,0,0,0-.45-.17c-.23,0-.28.23-.28.68V101c0,.68,0,.8.34.85h.39c.06.12.06.29,0,.29H90.66c-.12,0-.12-.17-.06-.29h.23c.28,0,.34-.17.34-.85Z"/><path class="cls-4" d="M95.53,98.2v.4h0a.49.49,0,0,0-.51.45.34.34,0,0,1-.17.34,1.94,1.94,0,0,1-.63.17.15.15,0,0,1-.17-.17c0-.11.06-.28.34-.62a3,3,0,0,1,1.19-.57m0-.68v.34s-.11,0-.11-.17Zm0,4.2a.55.55,0,0,1-.51-.57.57.57,0,0,1,.51-.62v-.4a5.87,5.87,0,0,1-.73.28c-.68.23-.8.57-.8.91a.88.88,0,0,0,1,.91,1.86,1.86,0,0,0,.56-.11Zm0-3.86v-.34l.74-1.59c.11-.17.23-.28.29-.28a.52.52,0,0,1,.34.17c.17.11.22.17.22.28s-.11.23-.22.4l-1.25,1.36Zm.46,3.41a.42.42,0,0,1-.46.45v.4c.06-.06.17-.06.23-.12s.23-.17.29-.17,0,.06.17.12a.83.83,0,0,0,.68.28,1.31,1.31,0,0,0,1-.4c0-.11-.06-.22-.11-.22a.73.73,0,0,1-.34.11c-.34,0-.46-.28-.46-.85L97,99.39c.06-.85-.4-1.19-1.19-1.19h-.29v.4c.4.06.57.45.52.91v.28c0,.06,0,.17-.23.23s-.17.11-.29.11v.4a.67.67,0,0,1,.4-.12c.06,0,.12.06.12.17Z"/><path class="cls-4" d="M48.23,41.14a1,1,0,0,1-1.31.11c-.74-2.61-2.55-6-8.05-6-5.22,0-10.5,3.68-10.5,12.14,0,8.79,5.5,13.1,10.84,13.1,5.16,0,7.43-3.46,8.62-6.18a.82.82,0,0,1,1.19.17,16.22,16.22,0,0,1-1.93,6.29,12.2,12.2,0,0,0-1.47.34,22.25,22.25,0,0,1-6.41,1A19.16,19.16,0,0,1,28.6,59.35,13,13,0,0,1,22.76,48a13.54,13.54,0,0,1,5.21-11,19.4,19.4,0,0,1,11.35-3.52,34.45,34.45,0,0,1,7.15.91c.51.17.79.17,1.19.29.05,1,.17,3.34.57,6.41"/><path class="cls-4" d="M53.73,40.4c0-4-.06-4.43-2-4.65l-1.08-.12a1,1,0,0,1,0-1.19c2.61-.22,6.13-.34,9.53-.34.74,0,1.54,0,2.22.06V36a8,8,0,0,0-1.76-.22c-2.1,0-2.16.11-2.16,2v8.57c0,1.3,0,1.41,2,1.41a6.7,6.7,0,0,0,1.93-.22v3.34s-.06-.11-.06-.17c-.74-1.25-1.19-1.41-2.61-1.41-1.19,0-1.25,0-1.25.9v5.33c0,4.37.34,4.49,2.33,4.71l.91.12c.28.28.22,1.07-.12,1.19-1.81-.06-3.68-.12-5.5-.12s-3.63.06-5.56.12a.78.78,0,0,1-.06-1.19l.91-.12c1.93-.22,2.33-.34,2.33-4.71Zm8.68-6.24A13.63,13.63,0,0,1,68,35.52a6.39,6.39,0,0,1,3.63,6c0,3.8-3,5.68-4.93,6.53-.29.11-.17.45,0,.68C70,54.3,72.05,57.81,74,59.46a5.41,5.41,0,0,0,2.83,1.25.91.91,0,0,1,.06.85,12.2,12.2,0,0,1-2.72.23c-4,0-6.13-1.59-8.63-5.45-1.07-1.65-2.21-3.86-3.17-5.45V47.55c2.72-.57,4-2.5,4-5.68a5.88,5.88,0,0,0-4-5.9Z"/><path class="cls-4" d="M86.4,55.54c0,4.37.4,4.49,2.33,4.71l.9.12c.29.28.23,1.07,0,1.19-1.82-.06-3.69-.12-5.5-.12s-3.75.06-5.56.12c-.34-.12-.4-.91-.12-1.19l.91-.12c1.93-.22,2.33-.34,2.33-4.71V40.17c0-4.37-.4-4.48-2.33-4.76l-.91-.12a.88.88,0,0,1,.12-1.19c1.81.06,3.63.12,5.56.12s3.68-.06,5.5-.12a.93.93,0,0,1,0,1.19l-.9.12c-1.93.28-2.33.39-2.33,4.76Z"/><path class="cls-4" d="M96.22,40.4c0-3.74,0-4.37-1.76-4.6L93,35.63c-.34-.28-.34-1,0-1.19a89,89,0,0,1,9.13-.34c3.92,0,6.75.57,8.62,1.65a7,7,0,0,1,3.46,6.18c0,6.3-5.9,8-9.19,8h-1a.87.87,0,0,1-.11-1.08c3.74-.74,5.1-3.46,5.1-6.81s-2.15-6.29-5.89-6.29c-2.1,0-2.1.11-2.1,1.76v18c0,4.37.34,4.49,2.27,4.66l1.53.17c.28.28.22,1.07-.06,1.19-2.44-.06-4.31-.12-6.13-.12s-3.63.06-5.33.12c-.28-.12-.34-.91,0-1.19l.68-.06c1.92-.28,2.27-.4,2.27-4.77Z"/><path class="cls-4" d="M141.43,41.14a1,1,0,0,1-1.31.11c-.74-2.61-2.55-6-8-6-5.27,0-10.55,3.68-10.55,12.14,0,8.79,5.5,13.1,10.84,13.1,5.16,0,7.43-3.46,8.62-6.18a.9.9,0,0,1,1.25.17,17.11,17.11,0,0,1-2,6.29,12.2,12.2,0,0,0-1.47.34,22.25,22.25,0,0,1-6.41,1,19.16,19.16,0,0,1-10.61-2.77A13,13,0,0,1,116,48a13.54,13.54,0,0,1,5.21-11,19.45,19.45,0,0,1,11.41-3.52,34.39,34.39,0,0,1,7.09.91c.51.17.79.17,1.19.29.06,1,.17,3.34.57,6.41"/><path class="cls-4" d="M159.18,62.12c-9.25,0-14.58-6.58-14.58-13.89,0-8.4,6-14.58,14.58-14.7v1.71h-.34c-4.14,0-8.62,3-8.62,11.8,0,5.56,2.32,13,9,13.44Zm14.64-14.18c0,8.12-6.19,14.18-14.53,14.18h-.11V60.48h.51c4.71,0,8.51-3.52,8.51-11.8,0-6.13-2.72-13.22-9-13.44V33.53h.17C168.88,33.53,173.82,40.4,173.82,47.94Z"/><path class="cls-2" d="M213.81,68.19h-9.48a17,17,0,0,0-7-2.83,17.66,17.66,0,0,0-13.16,2.83H22.87v4.15H179.94a17.74,17.74,0,0,0,11.29,27.9,17.71,17.71,0,0,0,20.48-14.4,17.52,17.52,0,0,0-3.12-13.5h5.22Z"/><path class="cls-3" d="M197.07,66.83a16.18,16.18,0,1,0,13.16,18.78,16.12,16.12,0,0,0-13.16-18.78"/><path class="cls-2" d="M196.62,68.59l.17-1.08a7.07,7.07,0,0,0-1-.11l-.06,1.08c.28.06.57.06.91.11"/><path class="cls-2" d="M198.83,69.16l.34-1.08c-.28-.06-.62-.17-1-.28l-.29,1.08c.34.11.63.17.91.28"/><path class="cls-2" d="M201,70.07l.51-1c-.28-.17-.57-.28-.91-.45l-.45,1c.28.11.56.28.85.4"/><path class="cls-2" d="M202.92,71.31l.68-.9a6.59,6.59,0,0,1-.8-.57l-.62,1c.23.17.51.34.74.51"/><path class="cls-2" d="M204.68,72.85l.79-.74a10.33,10.33,0,0,0-.74-.74l-.74.85a6.57,6.57,0,0,1,.69.63"/><path class="cls-2" d="M206.15,74.66l.91-.62a9.31,9.31,0,0,0-.63-.8l-.85.68c.17.23.34.46.57.74"/><path class="cls-2" d="M207.28,76.65l1-.46c-.18-.34-.35-.62-.51-.91l-1,.57a3.45,3.45,0,0,1,.45.8"/><path class="cls-2" d="M208.08,78.8l1.08-.28c-.12-.34-.17-.68-.29-1l-1.07.34c.11.34.22.63.28.91"/><path class="cls-2" d="M208.53,81.07l1.14-.17c-.06-.28-.12-.62-.17-1l-1.08.22a4.28,4.28,0,0,1,.11.91"/><path class="cls-2" d="M208.65,82.77v.63h1.07a2,2,0,0,0,.06-.63v-.34h-1.13v.34"/><path class="cls-2" d="M194.29,68.42V67.29c-.34,0-.68,0-1,0l.06,1.08h1"/><path class="cls-2" d="M192,68.59l-.17-1.08-1,.17.23,1.08c.34-.05.62-.11.91-.17"/><path class="cls-2" d="M189.7,69.16l-.34-1.08a6.48,6.48,0,0,0-.91.4l.4,1,.85-.34"/><path class="cls-2" d="M187.6,70.07l-.51-1a7.09,7.09,0,0,0-.85.46l.57,1a3.38,3.38,0,0,1,.79-.45"/><path class="cls-2" d="M185.61,71.31l-.62-.9a7.49,7.49,0,0,0-.79.62l.73.85a8.22,8.22,0,0,1,.68-.57"/><path class="cls-2" d="M183.91,72.85l-.79-.8a8.29,8.29,0,0,1-.68.74l.85.74a6.47,6.47,0,0,1,.62-.68"/><path class="cls-2" d="M182.44,74.6l-.91-.62a7,7,0,0,1-.57.85l1,.57c.17-.28.34-.51.51-.8"/><path class="cls-2" d="M181.3,76.59l-1-.45c-.11.28-.28.62-.39.9l1,.4a5.35,5.35,0,0,1,.39-.85"/><path class="cls-2" d="M180.45,78.75l-1-.29a7.08,7.08,0,0,0-.28,1l1.08.22c.05-.28.17-.56.22-.9"/><path class="cls-2" d="M195.43,97.12l.11,1.08a4.88,4.88,0,0,0,1-.11L196.39,97c-.34.06-.62.06-1,.11"/><path class="cls-2" d="M197.7,96.73l.28,1.08c.34-.06.63-.18,1-.23l-.33-1.08a4.84,4.84,0,0,1-.91.23"/><path class="cls-2" d="M199.91,96l.45,1a9.88,9.88,0,0,0,.91-.4l-.51-1a5.43,5.43,0,0,1-.85.4"/><path class="cls-2" d="M202,94.91l.63,1c.28-.17.56-.4.79-.57l-.62-.91c-.29.17-.51.34-.8.51"/><path class="cls-2" d="M203.82,93.55l.74.79c.23-.22.51-.45.74-.68l-.8-.79-.68.68"/><path class="cls-2" d="M205.41,91.85l.85.74c.23-.29.46-.57.63-.8l-.91-.68a3.47,3.47,0,0,1-.57.74"/><path class="cls-2" d="M206.72,90l1,.51.51-.85-1-.51a6.38,6.38,0,0,1-.45.85"/><path class="cls-2" d="M207.74,87.88l1,.4c.11-.29.23-.63.34-1L208,87c-.11.28-.17.56-.28.85"/><path class="cls-2" d="M208.53,84.76c-.05.28-.11.62-.17.91l1.08.22c.06-.34.11-.68.17-1Z"/><path class="cls-2" d="M193.1,97.12l0,1.08a4.85,4.85,0,0,0,1,.06l.06-1.08c-.34,0-.63-.06-1-.06"/><path class="cls-2" d="M190.83,96.73l-.22,1.08a4.51,4.51,0,0,0,1,.22l.17-1.08a6.59,6.59,0,0,1-.91-.22"/><path class="cls-2" d="M188.62,96l-.45,1a7.82,7.82,0,0,0,1,.4l.34-1.08a5,5,0,0,1-.85-.34"/><path class="cls-2" d="M186.58,94.91l-.57,1,.85.51.51-1c-.28-.17-.51-.34-.79-.51"/><path class="cls-2" d="M184.71,93.55l-.68.79a8.16,8.16,0,0,0,.73.69l.68-.91a7.74,7.74,0,0,0-.73-.57"/><path class="cls-2" d="M183.12,91.85l-.85.74c.23.22.45.51.68.73l.79-.73c-.22-.23-.39-.46-.62-.74"/><path class="cls-2" d="M181.81,90l-1,.51a5.77,5.77,0,0,0,.51.85l1-.57a7.2,7.2,0,0,0-.51-.79"/><path class="cls-2" d="M180.85,87.88l-1.08.4c.12.34.29.62.4.9l1-.45-.34-.85"/><path class="cls-2" d="M180.17,85.67l-1.08.22c.06.34.17.63.23,1l1.08-.29c-.06-.28-.17-.62-.23-.9"/><path class="cls-2" d="M179.89,83.4l-1.08,0c0,.29.05.63.05,1L180,84.3c-.06-.28-.06-.62-.11-.9"/><path class="cls-2" d="M180,81.07,178.92,81a5.23,5.23,0,0,0-.11,1l1.13.06a4.64,4.64,0,0,1,.06-.91"/></g></g></svg>