<?xml version="1.0" encoding="UTF-8"?><svg id="Capa_1" xmlns="http://www.w3.org/2000/svg" viewBox="0 0 350 350"><defs><style>.cls-1{fill:#dbd9b7;}.cls-1,.cls-2,.cls-3{fill-rule:evenodd;}.cls-2{fill:#84890d;}.cls-3{fill:#1d1d1b;}</style></defs><path class="cls-2" d="M306.94,118.27l4.79-1.65c-.44-1.39-1.04-2.87-1.57-4.26l-4.7,1.92c.52,1.31,1.04,2.61,1.48,4"/><path class="cls-2" d="M309.55,128.01l4.96-.96c-.35-1.48-.61-2.96-1.04-4.44l-4.87,1.22c.35,1.39,.7,2.78,.96,4.18"/><path class="cls-2" d="M310.77,138.02l4.96-.26c0-1.48-.17-2.96-.35-4.53l-4.96,.61c.17,1.39,.26,2.79,.35,4.18"/><path class="cls-2" d="M310.6,148.12l4.96,.44c.17-1.48,.26-2.96,.26-4.53l-5.05-.09c0,1.39-.09,2.79-.17,4.18"/><path class="cls-2" d="M309.03,158.13l4.87,1.13c.35-1.48,.61-2.96,.87-4.44l-4.96-.87c-.26,1.39-.52,2.79-.78,4.18"/><path class="cls-2" d="M306.07,167.79l4.7,1.83c.52-1.48,1.04-2.87,1.48-4.35l-4.79-1.48c-.43,1.39-.87,2.7-1.39,4"/><path class="cls-2" d="M260.9,211.13l1.57,4.7c1.39-.44,2.87-.96,4.27-1.48l-1.92-4.7c-1.31,.52-2.61,.96-3.92,1.48"/><path class="cls-2" d="M211.12,209.82l-1.83,4.7c1.39,.52,2.87,1.04,4.26,1.48l1.57-4.79c-1.31-.44-2.7-.87-4-1.39"/><path class="cls-2" d="M180.48,187.19l-3.92,3.13c.96,1.22,1.92,2.35,2.96,3.48l3.74-3.4c-.96-1.04-1.83-2.09-2.79-3.22"/><path class="cls-2" d="M197.11,188.76c-8.35-1.48-16.27,4.09-17.76,12.45-1.39,8.27,4.09,16.19,12.45,17.67,8.36,1.48,16.28-4.09,17.76-12.36,1.39-8.36-4.09-16.28-12.45-17.75"/><path class="cls-1" d="M196.85,190.07c-7.57-1.39-14.8,3.74-16.19,11.31-1.31,7.66,3.74,14.88,11.4,16.19,7.57,1.39,14.79-3.74,16.19-11.31,1.31-7.57-3.74-14.88-11.4-16.19"/><path class="cls-2" d="M194.41,190.76h-1.48c-.26,0-.52,.17-.61,.52l-.26,2.44c-.35,.09-.7,.17-1.04,.35l-1.48-1.91c-.17-.17-.43-.26-.69-.17l-2.18,1.31c-.26,.09-.35,.44-.26,.7l.96,2.26c-.26,.26-.52,.52-.7,.78l-2.18-.87c-.26-.09-.61,0-.7,.26l-1.3,2.17c-.18,.26-.09,.52,.17,.7l1.91,1.48c-.09,.35-.17,.7-.26,1.04l-2.26,.35c-.35,0-.52,.26-.52,.52v2.61c0,.26,.17,.52,.43,.52l2.52,.26c.09,.35,.18,.7,.26,1.04l-1.83,1.48c-.26,.17-.35,.43-.18,.69l1.31,2.26c.09,.17,.43,.35,.7,.17l2.26-.96c.26,.26,.52,.52,.78,.7l-.87,2.26c-.17,.26-.09,.52,.18,.7l2.17,1.22c.26,.17,.61,.09,.78-.09l1.48-2c.35,.09,.7,.17,1.04,.26l.35,2.35c0,.26,.26,.44,.52,.44h.96v-1.05l-.44-.09-.35-2.26c0-.17-.18-.44-.44-.44-.7-.09-1.13-.17-1.65-.35-.26-.09-.52-.09-.7,.17l-1.39,1.83-1.31-.78,.87-2.09c.09-.26,0-.52-.17-.7-.52-.35-.87-.61-1.31-1.13-.09-.17-.35-.26-.61-.09l-2.18,.87-.78-1.31,1.83-1.48c.17-.09,.26-.35,.17-.61-.26-.61-.35-1.04-.43-1.65-.09-.17-.26-.35-.52-.43l-2.35-.26v-1.57l2.26-.35c.26,0,.44-.17,.52-.44,.09-.69,.17-1.13,.35-1.65,.09-.26,0-.52-.17-.61l-1.91-1.48,.78-1.31,2.09,.87c.26,.09,.52,0,.7-.17,.35-.43,.7-.87,1.13-1.22,.17-.17,.26-.43,.17-.7l-.96-2.18,1.39-.78,1.39,1.83c.17,.26,.44,.26,.61,.17,.61-.17,1.04-.35,1.65-.43,.26-.09,.44-.26,.44-.52l.26-2.35h1.05v-1.13Zm12.53,10.88l-2.53-.35c-.09-.35-.17-.69-.26-.96l1.83-1.48c.26-.17,.35-.52,.17-.78l-1.31-2.17c-.09-.26-.44-.35-.7-.26l-2.26,.96c-.26-.26-.52-.43-.78-.7l.87-2.18c.17-.26,.09-.52-.17-.7l-2.18-1.31c-.26-.09-.61-.09-.78,.18l-1.48,1.91c-.35-.09-.7-.18-1.04-.18l-.35-2.35c0-.26-.26-.52-.52-.52h-1.04v1.13h.52l.35,2.26c0,.26,.17,.43,.44,.52,.7,.09,1.13,.17,1.65,.35,.26,.09,.52,0,.7-.17l1.39-1.92,1.31,.78-.87,2.18c-.09,.18,0,.43,.17,.61,.52,.35,.87,.7,1.31,1.13,.09,.26,.35,.26,.61,.17l2.18-.87,.78,1.3-1.83,1.39h.09c-.26,.17-.35,.44-.26,.7,.17,.52,.35,.96,.52,1.57,0,.26,.26,.44,.44,.52l2.35,.26v1.57l-2.26,.26c-.26,.09-.43,.26-.52,.52-.09,.61-.17,1.04-.35,1.65-.09,.17,0,.43,.17,.61l1.91,1.39-.78,1.39-2.09-.87c-.26-.09-.52-.09-.7,.17-.35,.44-.7,.78-1.13,1.22-.17,.17-.26,.43-.17,.61l.96,2.18-1.39,.78-1.39-1.83v.09c-.09-.26-.43-.35-.61-.26-.61,.26-1.04,.44-1.65,.52-.26,.09-.44,.26-.44,.52l-.35,2.35h-1.04v1.05l1.57,.09c.26,0,.52-.26,.61-.52l.26-2.44c.35-.09,.7-.17,1.04-.35l1.39,1.91c.17,.17,.52,.26,.78,.09l2.18-1.22c.26-.17,.35-.43,.26-.69l-.96-2.26c.26-.26,.52-.52,.7-.78l2.18,.87c.26,.09,.61,0,.7-.26l1.3-2.18c.17-.26,.09-.61-.17-.78l-1.91-1.48c.09-.26,.17-.61,.26-1.04l2.26-.26c.35-.09,.52-.26,.52-.61v-2.52c0-.26-.17-.52-.43-.52Z"/><path class="cls-2" d="M194.41,209.74c-3.31,0-6.01-2.7-6.01-6.01s2.7-6.09,6.01-6.09h.09v-1.13h-.09c-3.92,0-7.14,3.22-7.14,7.22s3.22,7.14,7.14,7.14h.09v-1.13h-.09Zm.09-12.1c3.31,0,6.01,2.7,6.01,6.09s-2.7,6.01-6.01,6.01v1.13c3.92,0,7.14-3.22,7.14-7.14s-3.22-7.22-7.14-7.22v1.13Z"/><path class="cls-2" d="M241.41,197.29c-11.14-2-21.67,5.48-23.67,16.54-1.92,11.05,5.48,21.58,16.54,23.5,11.14,2,21.67-5.4,23.67-16.45,1.91-11.05-5.48-21.67-16.54-23.59"/><path class="cls-1" d="M241.06,199.12c-10.1-1.74-19.76,4.96-21.58,15.14-1.74,10.18,4.96,19.76,15.14,21.5,10.1,1.83,19.76-4.96,21.58-15.06,1.83-10.1-4.96-19.76-15.14-21.58"/><path class="cls-2" d="M248.98,221.14c.7-1.91,.87-4,.44-6.09-1.22-6.44-7.4-10.62-13.84-9.4l-.35-1.65c7.4-1.39,14.45,3.39,15.84,10.71,.52,2.44,.26,4.79-.43,6.96l-1.65-.52Zm-18.89-12.79c-3.04,2.7-4.7,6.88-3.83,11.14l-1.65,.35c-.17-.69-.26-1.39-.26-2v-1.13c.17-3.74,1.92-7.22,4.61-9.66l1.13,1.31Z"/><path class="cls-2" d="M227.83,205.82c2-1.74,4.44-2.96,7.14-3.48,8.18-1.57,16.19,3.83,17.75,12.01,1.13,5.57-.96,10.97-4.87,14.27l1.04,1.31c4.44-3.74,6.7-9.75,5.57-15.84-1.83-9.22-10.71-15.14-19.84-13.4-3.04,.61-5.66,1.91-7.83,3.83l1.04,1.31Z"/><path class="cls-3" d="M38.01,186.15c-.09,.17-.35,.17-.44,.09-.26-.96-.87-2.18-2.87-2.18-1.83,0-3.74,1.31-3.74,4.35s1.91,4.7,3.83,4.7,2.7-1.3,3.13-2.26c.09-.09,.35,0,.43,.09-.09,.96-.52,2-.7,2.26-.17,0-.35,.09-.52,.09-.35,.17-1.39,.44-2.35,.44-1.39,0-2.7-.35-3.74-1.04-1.22-.78-2.09-2.09-2.09-4.09,0-1.65,.78-3.05,1.83-3.83,1.13-.87,2.61-1.31,4.09-1.31,.87,0,1.83,.17,2.52,.35,.17,0,.35,.09,.43,.09,0,.35,.09,1.22,.17,2.26"/><path class="cls-3" d="M41.4,187.46v.61h-.09c-.35,0-.7,.26-.78,.7,0,.26-.09,.43-.26,.52-.17,.09-.61,.26-.96,.26-.17,0-.26-.09-.26-.26s.09-.44,.61-.96c.35-.35,1.04-.7,1.74-.87m0-1.05v.52c-.09-.09-.17-.09-.17-.26l.17-.26Zm0,6.44c-.52,0-.78-.52-.78-.87,0-.61,.35-.87,.78-.96v-.61c-.35,.17-.78,.26-1.13,.44-1.04,.35-1.22,.87-1.22,1.39,0,.7,.52,1.39,1.48,1.39,.35,0,.61-.09,.87-.17v-.61Zm0-5.92v-.52l1.22-2.44c.09-.35,.26-.44,.44-.44s.35,.09,.52,.26c.17,.18,.35,.26,.35,.44s-.17,.35-.43,.61l-1.91,2.09h-.17Zm.78,5.22c-.09,.35-.17,.7-.7,.7h-.09v.61c.17-.09,.26-.09,.43-.17,.17-.18,.26-.26,.35-.26s.17,.09,.26,.17c.26,.35,.69,.44,1.04,.44,.43,0,1.22-.26,1.48-.61,.09-.17-.09-.35-.09-.35-.09,0-.26,.17-.52,.17-.52,0-.78-.43-.7-1.3l.09-2.26c0-1.31-.7-1.83-1.83-1.83h-.52v.61c.7,.09,.87,.7,.87,1.39v.44c0,.09-.09,.26-.35,.35-.17,.09-.35,.17-.52,.17v.61c.26-.17,.52-.17,.7-.17,0,0,.09,.09,.09,.17v1.13Z"/><path class="cls-3" d="M46.1,189.54c0-.7,0-.87-.43-1.13l-.18-.09s0-.26,.09-.35c.61-.18,1.39-.52,1.91-.78,.09,0,.09,.09,.17,.17-.09,.26-.09,.52-.09,.61,0,.17,.09,.17,.17,.17,.7-.35,1.13-.69,2.09-.69,.7,0,1.13,.26,1.3,.61,.17,.09,.26,.17,.26,.17,.09,0,.17,0,.35-.09,.69-.43,1.22-.69,1.91-.69,1.22,0,1.74,.78,1.74,1.91v2.35c0,1.05,.08,1.22,.61,1.31h.35c.09,.17,0,.44,0,.44h-3.22c-.18,0-.18-.26-.09-.44h.26c.52-.09,.61-.26,.61-1.31v-2c0-.78-.35-1.39-1.22-1.39-.44,0-.87,.17-1.05,.44-.09,.17-.17,.35-.17,.78v2.18c0,1.05,.09,1.22,.61,1.31h.17c.17,.17,.09,.44,0,.44h-3.05c-.09,0-.09-.26,0-.44h.17c.52-.09,.61-.26,.61-1.31v-2c0-.78-.26-1.39-1.13-1.39-.52,0-.87,.17-1.04,.44-.18,.26-.26,.35-.26,.96v2c0,1.05,.09,1.22,.61,1.31h.17c.17,.17,.09,.44,0,.44h-3.13c-.09,0-.09-.26,0-.44h.26c.52-.09,.61-.26,.61-1.31v-2.18Z"/><path class="cls-3" d="M59.42,187.46v.61h-.09c-.43,0-.7,.26-.78,.7,0,.26-.09,.43-.26,.52-.26,.09-.61,.26-.96,.26-.17,0-.26-.09-.26-.26s.09-.44,.52-.96c.35-.35,1.13-.7,1.83-.87m0,5.39c-.52,0-.78-.52-.78-.87,0-.61,.35-.87,.78-.96v-.61c-.43,.17-.78,.26-1.13,.44-1.05,.35-1.22,.87-1.22,1.39,0,.7,.44,1.39,1.48,1.39,.35,0,.61-.09,.87-.17v-.61Zm.7-.7c0,.35-.17,.7-.7,.7v.61c.09-.09,.26-.09,.35-.17,.26-.18,.35-.26,.44-.26s.09,.09,.26,.17c.26,.35,.61,.44,1.04,.44s1.13-.26,1.48-.61c0-.17-.09-.35-.17-.35,0,0-.26,.17-.52,.17-.52,0-.7-.43-.7-1.3l.09-2.26c.09-1.31-.61-1.83-1.83-1.83h-.43v.61c.61,.09,.87,.7,.78,1.39v.44c0,.09,0,.26-.35,.35-.17,.09-.26,.17-.43,.17v.61c.26-.17,.52-.17,.61-.17s.17,.09,.17,.17l-.09,1.13Z"/><path class="cls-3" d="M64.03,189.54c0-.7,0-.87-.35-1.13l-.17-.09v-.35c.7-.18,1.48-.52,1.91-.78,.09,0,.17,.09,.17,.17v.61q0,.17,.09,.17c.52-.26,.96-.69,1.48-.69s.78,.26,.78,.69c0,.52-.43,.87-.78,.87-.18,0-.26-.09-.44-.18-.35-.26-.61-.26-.7-.26-.35,0-.44,.35-.44,1.04v2.09c0,1.05,.09,1.22,.61,1.31h.52c.18,.17,.09,.44,0,.44h-3.48c-.09,0-.09-.26,0-.44h.26c.52-.09,.52-.26,.52-1.31v-2.18Z"/><path class="cls-3" d="M70.73,187.46v.61h-.09c-.35,0-.7,.26-.78,.7,0,.26-.09,.43-.26,.52-.17,.09-.61,.26-.96,.26-.18,0-.26-.09-.26-.26s.09-.44,.61-.96c.35-.35,1.04-.7,1.74-.87m0,5.39c-.52,0-.78-.52-.78-.87,0-.61,.35-.87,.78-.96v-.61c-.35,.17-.78,.26-1.13,.44-1.04,.35-1.22,.87-1.22,1.39,0,.7,.52,1.39,1.48,1.39,.35,0,.61-.09,.87-.17v-.61Zm.78-.7c0,.35-.18,.7-.7,.7h-.09v.61c.17-.09,.26-.09,.44-.17,.17-.18,.26-.26,.35-.26s.17,.09,.26,.17c.26,.35,.7,.44,1.04,.44,.43,0,1.22-.26,1.48-.61,.09-.17-.09-.35-.09-.35-.09,0-.26,.17-.52,.17-.52,0-.78-.43-.7-1.3l.09-2.26c.09-1.31-.7-1.83-1.83-1.83h-.52v.61c.7,.09,.87,.7,.87,1.39v.44c0,.09-.09,.26-.35,.35-.17,.09-.35,.17-.52,.17v.61c.26-.17,.52-.17,.7-.17,.09,0,.09,.09,.09,.17v1.13Z"/><path class="cls-3" d="M81.35,184.93c0-.61,0-.7,.78-.7,.26,0,.44,0,.61,.09v-.61c-.26-.09-.52-.09-.78-.09-1.22,0-2.44,.09-3.39,.17-.17,.09-.17,.26,0,.44h.35c.7,.09,.7,.26,.7,1.65v5.4c0,1.56-.09,1.65-.78,1.74h-.35c-.17,.17-.09,.44,0,.44h4c.09,0,.09-.26,0-.44h-.35c-.7-.09-.78-.17-.78-1.74v-1.83q0-.35,.43-.35c.52,0,.7,.09,.96,.52v-1.13h-.7q-.7,0-.7-.44v-3.13Zm1.39-.61c.87,.26,1.39,1.13,1.39,2.09,0,1.13-.43,1.83-1.39,2.09v1.13c.35,.61,.78,1.39,1.13,2,.87,1.39,1.65,1.91,3.13,1.91,.52,0,.78,0,.96-.09,0-.09,0-.26-.09-.26-.17,0-.61-.09-.96-.52-.7-.52-1.48-1.83-2.61-3.74-.09-.09-.09-.26,0-.26,.7-.35,1.74-1.04,1.74-2.35,0-1.04-.52-1.74-1.31-2.18-.52-.26-1.22-.43-2-.43v.61Z"/><path class="cls-3" d="M89.53,189.37c-.17,0-.17-.09-.17-.09,0-.35,.35-1.13,1.22-1.31v-.52c-1.74,.17-2.7,1.65-2.7,3.22,0,1.65,1.04,2.87,2.7,2.96v-1.3c-.87-.35-1.39-1.22-1.39-2.18,0-.17,.09-.17,.35-.17h1.05v-.61h-1.05Zm1.05,4.26v-1.3c.26,.17,.52,.17,.87,.17,.61,0,1.04-.17,1.39-.7,.17-.09,.35,.09,.35,.17-.52,1.22-1.57,1.65-2.52,1.65h-.09Zm0-5.66h.17c.7,0,1.04,.43,1.04,.96,0,.17-.09,.26-.17,.35-.09,0-.35,.09-.7,.09h-.35v.61h1.48c.61,0,.96-.09,1.04-.26,.09-.09,.09-.17,.09-.35,0-1.22-1.13-1.91-2.26-1.91h-.35v.52Z"/><path class="cls-3" d="M97.19,196.68c-1.13,0-2-.61-2-1.48,0-.43,.26-.7,.44-.87,.26-.09,.52-.17,1.04-.17h.52v-1.31h-.87c-.61,0-.78-.26-.78-.52s.17-.52,.43-.61c.17,0,.35,.09,.52,.09,.26,0,.44,0,.7-.09v-.61c-.18,.09-.26,.09-.44,.09-.52,0-1.04-.61-1.04-1.74,0-.96,.44-1.48,.96-1.48,.17,0,.35,.09,.52,.17v-.69h-.44c-1.57,0-2.7,.96-2.7,2.26,0,.96,.61,1.57,1.13,1.83v.09c0,.26-.7,.7-.96,.78-.17,.17-.17,.26-.17,.43,0,.52,.44,1.05,.96,1.22,.09,0,0,.17-.09,.26-.26,.26-.78,.52-.96,.7-.17,.26-.17,.43-.17,.61,0,.78,.7,1.74,2.78,1.74h.61v-.7Zm0-4.96v-.61c.35-.18,.61-.61,.61-1.39,0-.7-.26-1.31-.61-1.57v-.69c.43,0,.78,.09,1.04,.26,.35,.17,.52,.26,.7,.26h1.39c.09,0,.17,.09,.17,.26,0,.26-.17,.43-.26,.43h-1.04v.7c0,1.04-.61,2.09-2,2.35Zm.35,2.44c.87,0,1.57,.35,1.57,1.13,0,.87-.7,1.39-1.91,1.39v.7c.96-.09,1.65-.52,2.26-.96,.35-.26,.87-1.05,.87-1.74,0-1.65-1.3-1.83-2.35-1.83h-.78v1.31h.35Z"/><path class="cls-3" d="M101.37,184.5c0-.52,.44-.87,.96-.87,.61,0,.96,.35,.96,.87,0,.61-.35,.96-.96,.96-.52,0-.96-.35-.96-.96m1.74,7.22c0,1.05,.09,1.22,.61,1.31h.26c.09,.17,.09,.44-.09,.44h-3.13c-.09,0-.09-.26,0-.44h.26c.52-.09,.52-.26,.52-1.31v-2.18c0-.7,0-.87-.35-1.13l-.17-.09v-.35c.78-.18,1.57-.52,1.91-.78,.09,0,.18,.09,.26,.17-.09,.43-.09,1.13-.09,1.74v2.61Z"/><path class="cls-3" d="M106.42,190.42c0-1.65,.61-2.44,1.39-2.44h.09v-.52c-1.74,0-3.22,1.22-3.22,3.22s1.39,2.96,3.13,2.96h.09v-.61c-1.04-.09-1.48-1.31-1.48-2.61m1.48-2.44c.96,.09,1.39,1.57,1.39,2.7s-.26,2.35-1.3,2.35h-.09v.61c1.74,0,3.13-1.13,3.13-3.13s-1.48-3.05-3.13-3.05v.52Z"/><path class="cls-3" d="M114.34,191.72c0,1.05,.09,1.22,.61,1.31h.17c.09,.17,.09,.44,0,.44h-3.22c-.09,0-.09-.26,0-.44h.35c.52-.09,.52-.26,.52-1.31v-2.18c0-.7,0-.87-.35-1.13l-.17-.09v-.35c.61-.18,1.48-.52,1.91-.78,.09,0,.17,.09,.17,.17v.61c0,.17,.09,.17,.17,.17,.7-.35,1.04-.69,2-.69,1.22,0,1.74,.78,1.74,1.91v2.35c0,1.05,.09,1.22,.61,1.31h.26c.17,.17,.09,.44,0,.44h-3.13c-.17,0-.17-.26-.09-.44h.26c.52-.09,.52-.26,.52-1.31v-2.09c0-.7-.26-1.31-1.13-1.31-.52,0-.87,.17-1.04,.44-.17,.26-.17,.43-.17,.96v2Z"/><path class="cls-3" d="M122.17,187.46v.61c-.44,0-.78,.26-.78,.7-.09,.26-.17,.43-.35,.52-.17,.09-.61,.26-.87,.26s-.35-.09-.35-.26,.09-.44,.61-.96c.35-.35,1.13-.7,1.74-.87m0,5.39c-.52,0-.78-.52-.78-.87,0-.61,.44-.87,.78-.96v-.61c-.35,.17-.78,.26-1.13,.44-.96,.35-1.22,.87-1.22,1.39,0,.7,.52,1.39,1.57,1.39,.26,0,.61-.09,.78-.17v-.61Zm.78-.7c0,.35-.17,.7-.7,.7h-.09v.61c.17-.09,.35-.09,.43-.17,.17-.18,.35-.26,.44-.26,0,0,.09,.09,.17,.17,.26,.35,.7,.44,1.04,.44,.52,0,1.22-.26,1.48-.61,.09-.17,0-.35-.09-.35s-.26,.17-.52,.17c-.52,0-.78-.43-.7-1.3l.09-2.26c.09-1.31-.61-1.83-1.83-1.83h-.52v.61c.7,.09,.87,.7,.87,1.39v.44c0,.09-.09,.26-.35,.35-.17,.09-.35,.17-.52,.17v.61h.09c.26-.17,.52-.17,.61-.17s.09,.09,.09,.17v1.13Z"/><path class="cls-3" d="M126.7,185.37c0-1.04,0-1.13-.35-1.31l-.17-.09c-.09-.09-.09-.35,0-.35,.61-.17,1.3-.52,1.91-.78,.09,0,.17,.09,.26,.17-.09,.61-.09,1.48-.09,2.09v6.61c0,1.05,.09,1.22,.61,1.31h.26c.09,.17,.09,.44,0,.44h-3.22c-.17,0-.17-.26-.09-.44h.35c.52-.09,.52-.26,.52-1.31v-6.35Z"/><path class="cls-3" d="M136.71,192.68c-.87-.17-1.39-1.13-1.39-2.44,0-1.13,.52-2.09,1.39-2.18v-.61c-1.65,.17-3.13,1.39-3.13,3.39,0,1.48,1.04,2.78,2.78,2.78h.35v-.96Zm1.39-.7c0,.26,0,.35-.09,.44-.17,.17-.52,.35-.87,.35-.17,0-.35,0-.43-.09v.96c.52-.09,.96-.35,1.31-.61h.09v.61c0,.09,.09,.18,.17,.18,.52-.26,1.57-.52,2.35-.61,.17-.09,.09-.43,0-.52-.26,.09-.44,.17-.61,.17-.26,0-.35-.43-.35-1.83v-8.01c0-.09-.09-.17-.17-.17-.61,.26-1.39,.61-1.91,.78-.17,0-.09,.26,0,.35l.17,.09c.35,.18,.35,.26,.35,1.31v1.91c0,.18,0,.26-.09,.26-.17-.09-.52-.09-.87-.09h-.43v.61q.09-.09,.17-.09c.52,0,.79,.26,1.05,.52,.09,.17,.17,.44,.17,.7v2.79Z"/><path class="cls-3" d="M142.89,189.37c-.18,0-.18-.09-.18-.09,0-.35,.35-1.13,1.13-1.31v-.52c-1.65,.17-2.7,1.65-2.7,3.22,0,1.65,1.13,2.87,2.7,2.96v-1.3c-.78-.35-1.31-1.22-1.31-2.18q0-.17,.35-.17h.96v-.61h-.96Zm.96,4.26v-1.3c.35,.17,.61,.17,.96,.17,.61,0,1.04-.17,1.39-.7,.17-.09,.35,.09,.35,.17-.52,1.22-1.65,1.65-2.52,1.65h-.17Zm0-5.66h.26c.61,0,.96,.43,.96,.96,0,.17,0,.26-.09,.35-.18,0-.35,.09-.78,.09h-.35v.61h1.57c.61,0,.96-.09,1.04-.26,0-.09,.09-.17,.09-.35,0-1.22-1.13-1.91-2.26-1.91h-.44v.52Z"/><path class="cls-3" d="M31.83,207.13c0,1.57,.09,1.57,.78,1.65l.35,.09c.09,.09,.09,.35-.09,.43-.61-.09-1.3-.09-1.91-.09-.7,0-1.39,0-2,.09-.09-.09-.17-.35,0-.43l.26-.09c.7-.09,.87-.09,.87-1.65v-5.48c0-1.57-.18-1.65-.87-1.74h-.26c-.17-.09-.09-.35,0-.43h3.92c.17,.09,.17,.35,.09,.43h-.35c-.7,.09-.78,.17-.78,1.74v5.48Z"/><path class="cls-3" d="M36.18,207.47c0,1.13,.09,1.31,.61,1.39h.17c.17,.09,.09,.35,0,.43-.52-.09-1.04-.09-1.57-.09-.44,0-.96,0-1.57,.09-.17-.09-.17-.35-.09-.43l.35-.09c.52,0,.61-.17,.61-1.31v-2.18c0-.61,0-.78-.43-1.04l-.17-.09c0-.09,0-.26,.09-.35,.61-.17,1.39-.52,1.92-.78q.09,0,.17,.09c-.09,.26-.09,.61-.09,.7s.09,.09,.17,.17c.7-.43,1.13-.78,2-.78,1.22,0,1.74,.87,1.74,2v2.26c0,1.13,.09,1.31,.61,1.31l.35,.09c.09,.09,.09,.35-.09,.43-.61-.09-1.04-.09-1.65-.09-.43,0-.96,0-1.48,.09-.09-.09-.17-.35,0-.43h.17c.52-.09,.61-.26,.61-1.39v-2c0-.78-.35-1.39-1.22-1.39-.44,0-.78,.26-.96,.52-.17,.26-.26,.35-.26,.87v2Z"/><path class="cls-3" d="M44.8,208.52c-.87-.26-1.39-1.22-1.39-2.52,0-1.13,.52-2,1.39-2.18v-.61c-1.65,.26-3.13,1.48-3.13,3.39,0,1.48,1.04,2.87,2.79,2.87,.09,0,.26,0,.35-.09v-.87Zm1.39-.7c0,.17,0,.35-.09,.44-.17,.09-.52,.35-.87,.35-.18,0-.35-.09-.44-.09v.87c.52-.09,.96-.35,1.31-.61h.09v.7c0,.09,.09,.09,.17,.09,.52-.17,1.57-.44,2.35-.52,.17-.09,.09-.43,0-.52-.26,.09-.44,.09-.61,.09-.26,0-.35-.44-.35-1.74v-8.1s-.09-.09-.17-.09c-.61,.26-1.39,.52-1.91,.7-.09,.09-.09,.26,0,.35l.17,.17c.35,.17,.35,.26,.35,1.22v2c0,.09,0,.17-.09,.17-.17,0-.43-.09-.87-.09h-.44v.61h.17c.52,0,.78,.17,1.04,.52,.09,.17,.17,.35,.17,.7v2.79Z"/><path class="cls-3" d="M55.42,207.04c0,.87,0,1.57,.35,1.57,.18,0,.44,0,.61-.09,.17,.09,.17,.44,0,.52-.7,.09-1.83,.26-2.44,.52q-.09,0-.17-.09c.09-.17,.09-.44,.09-.61,0-.09-.09-.09-.17-.09-.61,.35-1.22,.7-2,.7-1.31,0-1.74-.78-1.74-2v-2.26c0-1.04-.09-1.13-.44-1.31h-.17c-.09-.09-.09-.35,0-.44,.87,0,1.74-.17,2.09-.26,0,0,.09,.09,.09,.17v3.48c0,.87,.17,1.74,1.22,1.74,.35,0,.7-.17,.96-.44,.17-.09,.17-.26,.17-.78v-2.26c0-.96-.09-1.04-.7-1.13l-.18-.09c-.17-.09-.17-.35,0-.44,.96,0,2-.09,2.26-.26,.09,0,.17,.09,.17,.17v3.65Z"/><path class="cls-3" d="M57.24,208.95c-.17-.26-.26-1.05-.26-1.65,.09-.09,.35-.09,.44,0,.26,.78,.78,1.57,1.57,1.57,.52,0,.87-.26,.87-.78,0-.61-.52-.96-1.04-1.13-.7-.44-1.57-.96-1.57-1.92,0-1.13,1.05-1.83,2.26-1.83,.61,0,1.13,.17,1.31,.26,.17,.35,.26,.78,.26,1.48-.09,.09-.26,.17-.43,.09-.17-.7-.7-1.22-1.22-1.22s-.87,.26-.87,.7,.44,.78,1.04,1.05c.78,.35,1.65,.87,1.65,2,0,1.31-1.22,1.91-2.35,1.91-.61,0-1.22-.17-1.66-.52"/><path class="cls-3" d="M64.64,204.08q-.26,0-.26,.52v2.26c0,.96,.17,1.74,1.13,1.74,.26,0,.44-.09,.7-.26,.09,0,.18,.09,.18,.26-.26,.43-.96,.87-1.92,.87-1.39,0-1.65-.87-1.65-1.91v-2.96q0-.52-.26-.52h-.52c-.09-.09-.17-.35,0-.44,.52-.17,.87-.35,1.13-.61,.26-.17,.61-.52,.87-.87,.09-.09,.26-.09,.35,.09v.87c0,.17,0,.26,.35,.26h1.39c.09,0,.17,.17,.17,.35s-.09,.26-.17,.35h-1.48Z"/><path class="cls-3" d="M67.69,205.3c0-.61,0-.78-.43-1.04l-.18-.09c0-.09,0-.26,.09-.35,.61-.17,1.39-.52,1.83-.78,.08,0,.17,0,.17,.09v.7c0,.09,.09,.17,.17,.17,.44-.35,.96-.78,1.39-.78,.52,0,.87,.35,.87,.7,0,.61-.43,.87-.87,.87-.17,0-.26,0-.35-.09-.44-.26-.7-.26-.78-.26-.35,0-.43,.35-.43,1.04v2c0,1.13,.09,1.31,.61,1.31l.61,.09c.09,.09,.09,.35-.09,.43-.87-.09-1.39-.09-1.91-.09-.44,0-.96,0-1.57,.09-.09-.09-.09-.35,0-.43l.26-.09c.52,0,.61-.17,.61-1.31v-2.18Z"/><path class="cls-3" d="M74.3,204.95v-1.83c0-.09-.09-.09-.18-.09-.43,.26-1.22,.52-1.91,.78-.09,.09-.09,.26-.09,.35l.17,.09c.43,.26,.43,.43,.43,1.04v2.18c0,1.13-.09,1.31-.61,1.31l-.26,.09c-.09,.09-.09,.35,.09,.43,.52-.09,1.04-.09,1.48-.09,.61,0,1.04,0,1.65,.09,.09-.09,.09-.35,0-.43l-.26-.09c-.52,0-.52-.17-.52-1.31v-2.52Zm-.78-3.66c.52,0,.87-.43,.87-.96s-.35-.96-.87-.96c-.61,0-.96,.44-.96,.96s.35,.96,.96,.96Z"/><path class="cls-3" d="M78.22,203.3v.61h-.09c-.43,0-.7,.17-.78,.61,0,.26-.09,.44-.26,.52-.18,.17-.61,.26-.96,.26-.17,0-.26-.09-.26-.18,0-.17,.09-.52,.52-.96,.44-.35,1.13-.78,1.83-.87m0,5.31c-.52,0-.78-.44-.78-.78,0-.7,.35-.87,.78-1.04v-.52c-.44,.09-.78,.26-1.13,.35-1.04,.43-1.22,.87-1.22,1.39,0,.78,.44,1.48,1.48,1.48,.35,0,.61-.09,.87-.17v-.69Zm.7-.7c0,.35-.17,.7-.7,.7v.69c.17-.09,.26-.17,.35-.26,.26-.09,.35-.17,.44-.17s.17,.09,.26,.17c.26,.35,.7,.44,1.04,.44,.44,0,1.13-.26,1.48-.7,0-.09-.09-.26-.17-.26,0,0-.26,.17-.44,.17-.61,0-.78-.43-.78-1.31l.17-2.35c0-1.31-.69-1.83-1.83-1.83-.18,0-.35,0-.52,.09v.61c.7,0,.87,.61,.78,1.39v.35c0,.17,0,.26-.35,.43-.09,0-.26,.09-.44,.17v.52c.26-.09,.52-.17,.61-.17s.18,.09,.18,.26l-.09,1.04Z"/><path class="cls-3" d="M82.48,211.04c-.17,0-.26-.26-.17-.43,.52-.17,1.31-.52,1.31-1.31,0-.61-.7-.78-.87-.87-.17-.09-.35-.26-.35-.52,0-.43,.35-.78,.96-.78,.52,0,1.22,.52,1.22,1.57,0,1.31-.96,2.09-2.09,2.35"/><path class="cls-3" d="M90.84,201.73c0-1.39,0-1.57-.61-1.65l-.52-.09c-.09-.09-.09-.35,0-.44,1.04-.09,1.92-.09,3.31-.09s2.35,.17,3.05,.61c.78,.43,1.3,1.22,1.3,2.18,0,2.26-2.17,2.87-3.31,2.87h-.43c-.09-.09-.09-.26,0-.35,1.31-.26,1.83-1.31,1.83-2.52,0-1.13-.78-2.18-2.09-2.18q-.78,0-.78,.61v6.44c0,1.57,.09,1.57,.78,1.65l.61,.09c.09,.09,.09,.35-.09,.43-.87-.09-1.48-.09-2.18-.09-.61,0-1.31,0-1.91,.09-.09-.09-.09-.35,0-.43h.26c.7-.17,.78-.17,.78-1.74v-5.39Z"/><path class="cls-3" d="M98.67,205.3c0-.61,0-.78-.35-1.04l-.17-.09c-.09-.09-.09-.26,0-.35,.61-.17,1.39-.52,1.83-.78,.09,0,.17,0,.17,.09v.7c0,.09,.09,.17,.17,.17,.44-.35,.96-.78,1.39-.78,.52,0,.87,.35,.87,.7,0,.61-.44,.87-.87,.87-.09,0-.26,0-.35-.09-.43-.26-.61-.26-.7-.26-.35,0-.44,.35-.44,1.04v2c0,1.13,0,1.31,.52,1.31l.61,.09c.09,.09,.09,.35,0,.43-.96-.09-1.39-.09-2-.09-.43,0-.96,0-1.48,.09-.18-.09-.18-.35-.09-.43l.26-.09c.52,0,.61-.17,.61-1.31v-2.18Z"/><path class="cls-3" d="M104.59,206.26c0-1.65,.61-2.44,1.39-2.44h.09v-.61c-1.74,0-3.22,1.3-3.22,3.22s1.39,3.05,3.13,3.05h.09v-.61c-1.04-.09-1.48-1.39-1.48-2.61m1.48-2.44c.96,.09,1.39,1.48,1.39,2.7,0,1.13-.26,2.35-1.31,2.35h-.09v.61c1.74-.09,3.13-1.13,3.13-3.22,0-1.91-1.39-3.05-3.13-3.05v.61Z"/><path class="cls-3" d="M113.21,208.52c-.78-.26-1.39-1.22-1.39-2.52,0-1.13,.52-2,1.39-2.18v-.61c-1.65,.26-3.05,1.48-3.05,3.39,0,1.48,1.05,2.87,2.7,2.87,.09,0,.26,0,.35-.09v-.87Zm1.39-.7c0,.17,0,.35-.09,.44-.09,.09-.52,.35-.87,.35-.18,0-.26-.09-.44-.09v.87c.52-.09,.96-.35,1.39-.61,.09,.09,.09,.17,.09,.43l-.09,.26q.09,.09,.17,.09c.52-.17,1.57-.44,2.35-.52,.17-.09,.17-.43,0-.52-.17,.09-.44,.09-.61,.09-.26,0-.35-.44-.35-1.74v-5.92c0-.61,0-1.57,.09-2.18-.09,0-.17-.09-.26-.09-.61,.26-1.31,.52-1.91,.7-.09,.09-.09,.26,0,.35l.18,.17c.35,.17,.35,.26,.35,1.22v2c0,.09,0,.17-.09,.17-.17,0-.44-.09-.87-.09h-.44v.61h.26c.44,0,.78,.17,.96,.52,.17,.17,.17,.35,.17,.7v2.79Z"/><path class="cls-3" d="M123.83,207.04c0,.87,0,1.57,.35,1.57,.26,0,.43,0,.61-.09,.17,.09,.17,.44,0,.52-.7,.09-1.83,.26-2.44,.52q-.09,0-.09-.09v-.61c0-.09-.09-.09-.17-.09-.61,.35-1.22,.7-2,.7-1.3,0-1.74-.78-1.74-2v-2.26c0-1.04-.09-1.13-.43-1.31h-.18c-.09-.09-.09-.35,0-.44,.87,0,1.74-.17,2.09-.26,.09,0,.09,.09,.09,.17v3.48c0,.87,.17,1.74,1.22,1.74,.35,0,.7-.17,.96-.44,.17-.09,.17-.26,.17-.78v-2.26c0-.96-.09-1.04-.61-1.13l-.26-.09c-.09-.09-.09-.35,0-.44,.96,0,2-.09,2.35-.26,.09,0,.09,.09,.09,.17v3.65Z"/><path class="cls-3" d="M130.27,203.38c.17,.26,.35,.44,.35,.78,0,.52-.26,.7-.44,.7-.09,0-.17,0-.26-.18-.35-.43-.78-.87-1.31-.87-.87,0-1.74,.78-1.74,2.18,0,1.22,.78,2.35,2.09,2.35,.96,0,1.31-.35,1.65-.78,.09,0,.26,.09,.26,.26-.52,1.22-1.65,1.65-2.61,1.65-.78,0-1.48-.35-2-.78-.52-.52-.87-1.31-.87-2.18,0-1.74,1.22-3.31,3.65-3.31,.43,0,.78,.09,1.22,.17"/><path class="cls-3" d="M136.18,203.38c.17,.26,.26,.44,.26,.78,0,.52-.17,.7-.35,.7-.09,0-.17,0-.26-.18-.35-.43-.78-.87-1.31-.87-.87,0-1.74,.78-1.74,2.18,0,1.22,.78,2.35,2.09,2.35,.96,0,1.31-.35,1.57-.78,.17,0,.35,.09,.35,.26-.52,1.22-1.65,1.65-2.61,1.65-.78,0-1.57-.35-2-.78-.52-.52-.87-1.31-.87-2.18,0-1.74,1.22-3.31,3.65-3.31,.35,0,.78,.09,1.22,.17"/><path class="cls-3" d="M137.84,200.34c0-.52,.44-.96,.96-.96,.61,0,.96,.44,.96,.96s-.35,.96-.96,.96c-.52,0-.96-.43-.96-.96m1.74,7.14c0,1.13,.09,1.31,.61,1.31l.26,.09c.09,.09,.09,.35-.09,.43-.52-.09-1.04-.09-1.57-.09s-.96,0-1.57,.09c-.09-.09-.09-.35,0-.43l.26-.09c.52,0,.52-.17,.52-1.31v-2.18c0-.61,0-.78-.35-1.04l-.17-.09v-.35c.78-.26,1.57-.52,1.92-.78,.09,0,.17,0,.26,.09-.09,.52-.09,1.22-.09,1.83v2.52Z"/><path class="cls-3" d="M144.36,201.73v.96h-.09c-.18,.09-.26,0-.35-.18l.44-.78Zm-1.48,4.52c0-1.65,.61-2.44,1.39-2.44h.09v-.61c-1.74,0-3.22,1.3-3.22,3.22s1.39,3.05,3.13,3.05h.09v-.61c-1.05-.09-1.48-1.39-1.48-2.61Zm1.48-3.57v-.96l.96-1.92c.09-.35,.26-.44,.44-.44s.35,0,.52,.17c.26,.17,.35,.35,.35,.52s-.17,.35-.44,.52l-1.83,2.09Zm0,1.13c.96,.09,1.39,1.48,1.39,2.7,0,1.13-.26,2.35-1.31,2.35h-.09v.61c1.65-.09,3.13-1.13,3.13-3.22,0-1.91-1.48-3.05-3.13-3.05v.61Z"/><path class="cls-3" d="M150.8,207.47c0,1.13,.09,1.31,.61,1.39h.17c.09,.09,.09,.35,0,.43-.52-.09-1.04-.09-1.57-.09s-.96,0-1.65,.09c-.09-.09-.09-.35,0-.43l.35-.09c.52,0,.52-.17,.52-1.31v-2.18c0-.61,0-.78-.35-1.04l-.17-.09c-.09-.09-.09-.26,0-.35,.61-.17,1.48-.52,1.91-.78,.09,0,.17,0,.17,.09v.7c0,.09,.09,.09,.17,.17,.7-.43,1.05-.78,2-.78,1.22,0,1.74,.87,1.74,2v2.26c0,1.13,.09,1.31,.52,1.31l.35,.09c.18,.09,.09,.35,0,.43-.61-.09-1.13-.09-1.65-.09s-1.05,0-1.48,.09c-.17-.09-.17-.35-.09-.43h.26c.52-.09,.52-.26,.52-1.39v-2c0-.78-.26-1.39-1.13-1.39-.52,0-.87,.26-1.05,.52-.17,.26-.17,.35-.17,.87v2Z"/><path class="cls-3" d="M159.86,212.17c0-.52,.35-.7,.78-.7h.26c.26,0,.52-.09,.61-.35,.35-.44,.78-1.22,.78-1.83,0-.17-.09-.52-.26-1.04l-1.22-3.14c-.35-.96-.43-1.13-1.04-1.22l-.26-.09c-.09-.09-.09-.35,0-.44h3.22c.17,.09,.17,.35,.09,.44l-.44,.09c-.35,.09-.44,.09-.17,.78l.7,1.65c.26,.78,.43,1.13,.52,1.13,0,0,.26-.44,.44-.87l.43-1.04c.35-.78,.52-1.31,.52-1.39q0-.17-.26-.26l-.52-.09c-.09-.09-.09-.35,.09-.44h2.52c.17,0,.17,.35,.09,.44-.17,0-.7,.09-.87,.35-.17,.09-.43,.52-.87,1.48l-.78,1.48c-.52,1.04-1.83,3.66-2.44,4.96-.26,.61-.61,.87-1.13,.87s-.78-.44-.78-.78"/><path class="cls-3" d="M38.01,217.74c-.09,.17-.35,.17-.44,.09-.26-.96-.87-2.17-2.87-2.17-1.83,0-3.74,1.3-3.74,4.35s1.91,4.7,3.83,4.7,2.7-1.22,3.13-2.26c.09-.09,.35,0,.43,.09-.09,1.04-.52,2-.7,2.26-.17,0-.35,.09-.52,.09-.35,.17-1.39,.44-2.35,.44-1.39,0-2.7-.35-3.74-1.04-1.22-.78-2.09-2.09-2.09-4,0-1.74,.78-3.13,1.83-3.92,1.13-.87,2.61-1.31,4.09-1.31,.87,0,1.83,.17,2.52,.35,.17,0,.35,.09,.43,.09,0,.35,.09,1.22,.17,2.26"/><path class="cls-3" d="M40.8,222.01c0-1.65,.52-2.44,1.3-2.44h.09v-.52c-1.65,0-3.13,1.22-3.13,3.22s1.39,2.96,3.05,2.96h.09v-.61c-.96-.09-1.39-1.31-1.39-2.61m1.39-2.44c1.04,.09,1.48,1.57,1.48,2.7,0,1.22-.35,2.35-1.31,2.35h-.17v.61c1.74,0,3.22-1.13,3.22-3.13s-1.48-3.05-3.13-3.05h-.09v.52Z"/><path class="cls-3" d="M47.15,221.14c0-.7,0-.87-.35-1.04l-.17-.17c-.09,0-.09-.26,0-.35,.61-.17,1.39-.52,1.91-.78,.09,0,.17,.09,.17,.17v.61q0,.17,.09,.17c.7-.35,1.13-.7,2.09-.7,.7,0,1.13,.35,1.39,.61,.09,.09,.17,.17,.17,.17,.09,0,.17,0,.35-.09,.7-.44,1.22-.7,1.91-.7,1.22,0,1.83,.78,1.83,1.92v2.35c0,1.04,0,1.22,.52,1.31h.35c.09,.17,0,.44,0,.44h-3.22c-.09,0-.18-.26,0-.44h.17c.52-.09,.61-.26,.61-1.31v-2c0-.78-.26-1.39-1.22-1.39-.44,0-.78,.17-.96,.43-.17,.17-.17,.35-.17,.78v2.18c0,1.04,0,1.22,.52,1.31h.26c.09,.17,.09,.44-.09,.44h-3.05c-.09,0-.09-.26,0-.44h.17c.52-.09,.61-.26,.61-1.31v-2c0-.78-.26-1.39-1.13-1.39-.52,0-.87,.26-1.04,.43-.17,.26-.17,.35-.17,.96v2c0,1.04,0,1.22,.52,1.31h.26c.09,.17,.09,.44-.09,.44h-3.05c-.17,0-.17-.26-.09-.44h.26c.52-.09,.61-.26,.61-1.31v-2.18Z"/><path class="cls-3" d="M59.77,220.96c-.17,0-.17-.09-.17-.09,0-.35,.35-1.13,1.22-1.31v-.52c-1.74,.17-2.7,1.74-2.7,3.22,0,1.66,1.04,2.87,2.7,2.96v-1.3c-.87-.35-1.39-1.22-1.39-2.18,0-.17,.09-.17,.35-.17h1.04v-.61h-1.04Zm1.04,4.26v-1.3c.26,.17,.52,.17,.87,.17,.61,0,1.04-.17,1.39-.7,.17-.09,.35,.09,.35,.26-.52,1.13-1.57,1.57-2.52,1.57h-.09Zm0-5.66h.17c.7,0,1.04,.44,1.04,.96,0,.17-.09,.26-.17,.35-.09,0-.35,.09-.78,.09h-.26v.61h1.48c.61,0,.96-.09,1.04-.26,.09-.09,.09-.17,.09-.26,0-1.3-1.13-2-2.26-2h-.35v.52Z"/><path class="cls-3" d="M64.99,221.14c0-.7,0-.87-.35-1.04l-.18-.17c-.09,0-.09-.26,0-.35,.61-.17,1.39-.52,1.83-.78,.09,0,.17,.09,.17,.17v.61c0,.17,.09,.17,.17,.17,.43-.26,.96-.7,1.39-.7,.52,0,.87,.35,.87,.7,0,.61-.44,.87-.87,.87-.09,0-.26-.09-.35-.18-.43-.17-.61-.26-.7-.26-.35,0-.44,.35-.44,1.04v2.09c0,1.04,0,1.22,.52,1.31h.61c.09,.17,.09,.44-.09,.44h-3.39c-.17,0-.17-.26-.09-.44h.26c.52-.09,.61-.26,.61-1.31v-2.18Z"/><path class="cls-3" d="M73.96,219.22c.26,.17,.35,.44,.35,.78,0,.43-.26,.7-.35,.7-.18,0-.18-.09-.35-.17-.26-.44-.7-.96-1.3-.96-.87,0-1.74,.87-1.74,2.26,0,1.22,.78,2.35,2.17,2.35,.96,0,1.22-.35,1.57-.78,.09,0,.26,.09,.26,.26-.52,1.13-1.65,1.57-2.52,1.57-.78,0-1.57-.26-2.09-.78-.52-.52-.87-1.31-.87-2.09,0-1.74,1.31-3.31,3.66-3.31,.44,0,.87,0,1.22,.17"/><path class="cls-3" d="M75.7,216.18c0-.61,.35-.96,.87-.96,.61,0,.96,.35,.96,.96,0,.52-.35,.87-.96,.87-.52,0-.87-.35-.87-.87m1.65,7.14c0,1.04,.09,1.22,.61,1.31h.26c.09,.17,.09,.44,0,.44h-3.22c-.09,0-.09-.26,0-.44h.26c.52-.09,.61-.26,.61-1.31v-2.18c0-.7,0-.87-.43-1.04l-.18-.17s0-.26,.09-.35c.7-.17,1.48-.52,1.91-.78,.09,0,.09,.09,.18,.17,0,.44-.09,1.13-.09,1.74v2.61Z"/><path class="cls-3" d="M80.66,222.01c0-1.65,.61-2.44,1.39-2.44h.09v-.52c-1.74,0-3.22,1.22-3.22,3.22s1.48,2.96,3.13,2.96h.09v-.61c-.96-.09-1.48-1.31-1.48-2.61m1.48-2.44c1.04,.09,1.39,1.57,1.39,2.7,0,1.22-.26,2.35-1.3,2.35h-.09v.61c1.74,0,3.13-1.13,3.13-3.13s-1.39-3.05-3.05-3.05h-.09v.52Z"/><path class="cls-3" d="M93.1,224.27c-.87-.17-1.48-1.13-1.48-2.44,0-1.13,.61-2.09,1.48-2.18v-.61c-1.65,.17-3.13,1.39-3.13,3.39,0,1.48,1.04,2.79,2.79,2.79h.35v-.96Zm1.39-.61c0,.17-.09,.26-.09,.35-.17,.17-.52,.35-.87,.35-.17,0-.35,0-.43-.09v.96c.52-.09,.96-.35,1.3-.61h.09v.61c0,.09,.09,.17,.17,.17,.52-.26,1.57-.52,2.35-.61,.09-.09,.09-.44,0-.52-.26,.09-.44,.17-.61,.17-.26,0-.35-.44-.35-1.83v-8.01c0-.09-.09-.17-.17-.09-.61,.17-1.39,.52-2,.7-.09,0-.09,.26,0,.35l.26,.09c.35,.17,.35,.35,.35,1.3v1.92c0,.17-.09,.26-.09,.26-.17-.09-.52-.09-.87-.09h-.43v.61c0-.09,.09-.09,.17-.09,.43,0,.78,.26,1.04,.52,.09,.26,.17,.44,.17,.7v2.87Z"/><path class="cls-3" d="M99.28,220.96c-.17,0-.26-.09-.26-.09,0-.35,.43-1.13,1.22-1.31v-.52c-1.74,.17-2.7,1.74-2.7,3.22,0,1.66,1.13,2.87,2.7,2.96v-1.3c-.78-.35-1.3-1.22-1.3-2.18q0-.17,.35-.17h.96v-.61h-.96Zm.96,4.26v-1.3c.26,.17,.61,.17,.96,.17,.52,0,1.04-.17,1.39-.7,.17-.09,.26,.09,.35,.26-.52,1.13-1.65,1.57-2.52,1.57h-.18Zm0-5.66h.26c.61,0,.96,.44,.96,.96,0,.17-.09,.26-.17,.35-.09,0-.26,.09-.7,.09h-.35v.61h1.57c.61,0,.96-.09,1.04-.26v-.26c0-1.3-1.04-2-2.18-2h-.44v.52Z"/><path class="cls-3" d="M112.6,215.66h.17v-.61c-3.05,0-5.22,2.26-5.22,5.22,0,2.7,1.92,4.96,5.22,5.05v-.61c-2.44-.17-3.22-2.87-3.22-4.87,0-3.13,1.57-4.18,3.05-4.18m.17,0c2.26,.09,3.22,2.61,3.22,4.79,0,2.96-1.39,4.26-3.05,4.26h-.17v.61c2.96,0,5.22-2.18,5.22-5.14,0-2.7-1.74-5.13-5.22-5.13v.61Z"/><path class="cls-3" d="M121.13,220.79c0-.52,0-.7,.18-.78,.09-.09,.35-.17,.7-.17,.17,0,.35,0,.52,.09v-.87c-.52,0-.87,.17-1.3,.44-.09,0-.09-.09-.09-.26v-4.61c0-.09-.09-.17-.17-.09-.61,.17-1.39,.52-1.92,.7-.17,0-.09,.26,0,.35l.17,.09c.35,.17,.35,.35,.35,1.3v6.61c0,.61-.09,1.39-.09,1.39,0,.09,.09,.18,.17,.18s.09,0,.09-.09c.09-.09,.17-.17,.35-.17s.87,.35,2,.35h.43v-.61h-.09c-.44,0-.78-.17-1.05-.44-.17-.35-.26-.87-.26-1.48v-1.91Zm1.39-.87c.78,.26,1.39,1.13,1.39,2.52,0,1.22-.43,2.18-1.39,2.18v.61c1.74-.17,3.05-1.39,3.05-3.31,0-1.65-1.04-2.87-2.79-2.87h-.26v.87Z"/><path class="cls-3" d="M128.18,220.96c-.17,0-.17-.09-.17-.09,0-.35,.35-1.13,1.22-1.31v-.52c-1.74,.17-2.7,1.74-2.7,3.22,0,1.66,1.04,2.87,2.7,2.96v-1.3c-.87-.35-1.3-1.22-1.3-2.18q0-.17,.26-.17h1.04v-.61h-1.04Zm1.04,4.26v-1.3c.26,.17,.52,.17,.87,.17,.61,0,1.13-.17,1.39-.7,.17-.09,.35,.09,.35,.26-.52,1.13-1.57,1.57-2.52,1.57h-.09Zm0-5.66h.26c.61,0,.96,.44,.96,.96,0,.17-.09,.26-.17,.35-.09,0-.26,.09-.7,.09h-.35v.61h1.48c.61,0,.96-.09,1.05-.26,.09-.09,.09-.17,.09-.26,0-1.3-1.13-2-2.18-2h-.44v.52Z"/><path class="cls-3" d="M133.4,221.14c0-.7,0-.87-.35-1.04l-.17-.17c-.09,0-.09-.26,0-.35,.61-.17,1.39-.52,1.83-.78,.09,0,.17,.09,.26,.17-.09,.26-.09,.52-.09,.61,0,.17,.09,.17,.17,.17,.44-.26,.96-.7,1.48-.7s.78,.35,.78,.7c0,.61-.44,.87-.87,.87-.09,0-.26-.09-.35-.18-.35-.17-.61-.26-.7-.26-.35,0-.43,.35-.43,1.04v2.09c0,1.04,0,1.22,.52,1.31h.61c.09,.17,.09,.44,0,.44h-3.48c-.17,0-.17-.26-.09-.44h.35c.44-.09,.52-.26,.52-1.31v-2.18Z"/><path class="cls-3" d="M140.1,219.05v.61h-.09c-.43,0-.7,.26-.78,.7,0,.26-.09,.44-.26,.52-.26,.09-.61,.26-.96,.26-.17,0-.26-.09-.26-.26s.09-.44,.52-.96c.35-.35,1.13-.7,1.83-.87m0-1.04v.52c-.09,0-.17-.09-.17-.26l.17-.26Zm0,6.44c-.52,0-.78-.52-.78-.87,0-.61,.35-.87,.78-.96v-.61c-.44,.17-.78,.35-1.13,.43-1.04,.35-1.22,.87-1.22,1.39,0,.7,.44,1.39,1.48,1.39,.35,0,.61-.09,.87-.17v-.61Zm0-5.92v-.52l1.13-2.44c.17-.26,.35-.43,.44-.43,.17,0,.35,.09,.52,.26,.26,.17,.35,.26,.35,.44s-.17,.35-.35,.61l-1.92,2.09h-.17Zm.7,5.22c0,.35-.17,.7-.7,.7v.61c.09-.09,.26-.09,.35-.17,.26-.17,.35-.26,.44-.26s.09,.09,.26,.17c.26,.35,.7,.43,1.04,.43,.44,0,1.13-.17,1.48-.61,0-.17-.09-.35-.17-.35,0,0-.26,.17-.52,.17-.52,0-.7-.44-.7-1.31l.09-2.26c.09-1.31-.61-1.83-1.83-1.83h-.44v.61c.61,.09,.87,.7,.78,1.39v.44c0,.09,0,.26-.35,.35-.18,.09-.26,.17-.44,.17v.61c.26-.17,.52-.17,.61-.17s.17,.09,.17,.26l-.09,1.04Z"/><path class="cls-3" d="M67.52,131.49c-.44,.52-1.57,.61-2,.17-1.13-4-3.92-9.23-12.36-9.23-8.01,0-16.1,5.66-16.1,18.62s8.44,20.1,16.62,20.1,11.4-5.31,13.23-9.49c.52-.52,1.56-.26,1.83,.26-.43,4.26-2.09,8.44-2.96,9.66-.78,.09-1.57,.35-2.26,.52-1.39,.52-5.74,1.57-9.84,1.57-6.27,0-11.66-1.3-16.27-4.26-5.14-3.31-8.97-9.14-8.97-17.41,0-7.4,3.31-13.14,8.01-16.8,4.7-3.48,11.05-5.4,17.41-5.4,3.66,0,8.01,.7,10.97,1.4,.78,.26,1.22,.26,1.83,.43,.09,1.48,.26,5.14,.87,9.84"/><path class="cls-3" d="M75.96,130.36c0-6.09-.09-6.79-3.05-7.14l-1.65-.17c-.43-.43-.43-1.48,0-1.83,4-.35,9.4-.52,14.62-.52,1.13,0,2.35,0,3.39,.09v2.78c-.78-.17-1.65-.35-2.7-.35-3.22,0-3.31,.17-3.31,3.13v13.14c0,2,0,2.17,3.05,2.17,1.13,0,2.09-.09,2.96-.35v5.14c0-.09-.09-.17-.09-.26-1.13-1.92-1.83-2.18-4-2.18-1.83,0-1.91,.09-1.91,1.39v8.18c0,6.7,.52,6.88,3.57,7.22l1.39,.17c.44,.43,.35,1.65-.17,1.83-2.79-.09-5.66-.17-8.44-.17s-5.57,.09-8.53,.17c-.52-.17-.7-1.39-.09-1.83l1.39-.17c2.96-.35,3.57-.52,3.57-7.22v-23.24Zm13.32-9.57c3.48,.26,6.53,.87,8.62,2.09,3.22,1.65,5.57,4.61,5.57,9.23,0,5.83-4.53,8.7-7.57,10.01-.44,.18-.26,.7,0,1.05,5.05,8.53,8.18,13.93,11.23,16.45,1.74,1.48,3.57,1.83,4.35,1.91,.26,.26,.26,.96,.09,1.3-.78,.17-1.92,.35-4.18,.35-6.09,0-9.4-2.44-13.23-8.36-1.65-2.52-3.39-5.92-4.87-8.36v-5.14c4.18-.87,6.09-3.83,6.09-8.7,0-4.18-2.18-7.83-6.09-9.05v-2.78Z"/><path class="cls-3" d="M126.09,153.6c0,6.7,.61,6.88,3.57,7.22l1.39,.17c.44,.43,.35,1.65-.09,1.83-2.78-.09-5.66-.17-8.44-.17s-5.74,.09-8.53,.17c-.52-.17-.61-1.39-.17-1.83l1.39-.17c2.96-.35,3.57-.52,3.57-7.22v-23.59c0-6.7-.61-6.88-3.57-7.31l-1.39-.17c-.43-.44-.35-1.57,.17-1.83,2.79,.09,5.57,.17,8.53,.17,2.79,0,5.66-.09,8.44-.17,.44,.26,.52,1.39,.09,1.83l-1.39,.17c-2.96,.43-3.57,.61-3.57,7.31v23.59Z"/><path class="cls-3" d="M141.14,130.36c0-5.74,0-6.7-2.7-7.05l-2.18-.26c-.52-.43-.52-1.57,0-1.83,4.44-.44,8.27-.52,14.01-.52s10.36,.87,13.23,2.52c3.31,2,5.31,5.31,5.31,9.49,0,9.66-9.05,12.27-14.1,12.27h-1.57c-.44-.43-.52-1.22-.17-1.65,5.74-1.13,7.83-5.31,7.83-10.44s-3.31-9.66-9.05-9.66c-3.22,0-3.22,.17-3.22,2.7v27.68c0,6.7,.52,6.88,3.48,7.14l2.35,.26c.44,.43,.35,1.65-.09,1.83-3.74-.09-6.61-.17-9.4-.17s-5.57,.09-8.18,.17c-.44-.17-.52-1.39-.09-1.83l1.04-.09c2.96-.44,3.48-.61,3.48-7.31v-23.24Z"/><path class="cls-3" d="M210.51,131.49c-.44,.52-1.57,.61-2,.17-1.13-4-3.92-9.23-12.27-9.23s-16.19,5.66-16.19,18.62,8.44,20.1,16.62,20.1,11.4-5.31,13.23-9.49c.52-.52,1.57-.26,1.92,.26-.52,4.26-2.18,8.44-3.05,9.66-.78,.09-1.57,.35-2.26,.52-1.39,.52-5.74,1.57-9.83,1.57-6.27,0-11.66-1.3-16.28-4.26-5.13-3.31-8.96-9.14-8.96-17.41,0-7.4,3.31-13.14,8.01-16.8,4.7-3.48,11.05-5.4,17.49-5.4,3.57,0,7.92,.7,10.88,1.4,.78,.26,1.22,.26,1.83,.43,.09,1.48,.26,5.14,.87,9.84"/><path class="cls-3" d="M237.75,163.7c-14.19-.09-22.37-10.1-22.37-21.32,0-12.88,9.23-22.37,22.37-22.54v2.61h-.52c-6.35,0-13.23,4.61-13.23,18.1,0,8.53,3.57,20.02,13.75,20.63v2.52Zm22.45-21.76c0,12.45-9.49,21.76-22.28,21.76h-.17v-2.52h.78c7.22,0,13.06-5.4,13.06-18.1,0-9.4-4.18-20.28-13.84-20.63v-2.61h.26c14.62,0,22.19,10.53,22.19,22.11Z"/><path class="cls-2" d="M321.56,173.01h-14.53c-3.05-2.18-6.7-3.65-10.71-4.35-7.31-1.3-14.53,.44-20.19,4.35H28.61v6.35h240.99c-2.35,3.22-4,7.05-4.79,11.31-2.61,14.79,7.31,28.9,22.11,31.51,14.71,2.61,28.81-7.31,31.42-22.11,1.39-7.57-.61-14.97-4.79-20.71h8.01v-6.35Z"/><path class="cls-1" d="M295.89,170.92c-13.49-2.44-26.37,6.62-28.72,20.11-2.44,13.58,6.62,26.46,20.1,28.81,13.58,2.44,26.46-6.61,28.81-20.1,2.35-13.58-6.61-26.46-20.19-28.81"/><path class="cls-2" d="M295.19,173.62l.26-1.65c-.52-.09-1.04-.17-1.57-.17l-.09,1.65c.43,.09,.87,.09,1.39,.18"/><path class="cls-2" d="M298.59,174.49l.52-1.65c-.44-.09-.96-.26-1.48-.43l-.44,1.65c.52,.17,.96,.26,1.39,.43"/><path class="cls-2" d="M301.89,175.88l.78-1.48c-.43-.26-.87-.44-1.39-.7l-.7,1.57c.44,.17,.87,.44,1.31,.61"/><path class="cls-2" d="M304.85,177.8l1.04-1.39c-.44-.26-.78-.52-1.22-.87l-.96,1.48c.35,.26,.78,.52,1.13,.78"/><path class="cls-2" d="M307.55,180.15l1.22-1.13c-.35-.35-.7-.78-1.13-1.13l-1.13,1.31c.35,.26,.7,.61,1.05,.96"/><path class="cls-2" d="M309.81,182.93l1.39-.96c-.35-.44-.61-.87-.96-1.22l-1.3,1.04c.26,.35,.52,.7,.87,1.13"/><path class="cls-2" d="M311.55,185.98l1.57-.7c-.26-.52-.52-.96-.78-1.39l-1.48,.87c.26,.35,.52,.78,.7,1.22"/><path class="cls-2" d="M312.77,189.28l1.65-.44c-.17-.52-.26-1.04-.44-1.48l-1.65,.52c.17,.52,.35,.96,.43,1.39"/><path class="cls-2" d="M313.47,192.77l1.74-.26c-.09-.44-.18-.96-.26-1.48l-1.65,.35c.09,.43,.17,.87,.17,1.39"/><path class="cls-2" d="M313.64,195.38v.96h1.65c.09-.26,.09-.61,.09-.96v-.52h-1.74v.52"/><path class="cls-2" d="M291.62,173.36v-1.74c-.52,0-1.04,.09-1.57,.09l.09,1.65h1.48"/><path class="cls-2" d="M288.06,173.62l-.26-1.65c-.44,.09-.96,.17-1.48,.26l.35,1.65c.52-.09,.96-.17,1.39-.26"/><path class="cls-2" d="M284.57,174.49l-.52-1.65c-.44,.17-.96,.35-1.39,.61l.61,1.57c.43-.18,.87-.35,1.3-.52"/><path class="cls-2" d="M281.35,175.88l-.78-1.48c-.43,.17-.87,.43-1.31,.7l.87,1.48c.35-.26,.78-.52,1.22-.7"/><path class="cls-2" d="M278.31,177.8l-.96-1.39c-.44,.35-.87,.61-1.22,.96l1.13,1.31c.35-.35,.7-.61,1.04-.87"/><path class="cls-2" d="M275.7,180.15l-1.22-1.22c-.35,.44-.69,.78-1.04,1.13l1.31,1.13c.26-.35,.61-.7,.96-1.05"/><path class="cls-2" d="M273.43,182.84l-1.39-.96c-.26,.44-.52,.87-.87,1.31l1.48,.87c.26-.43,.52-.78,.78-1.22"/><path class="cls-2" d="M271.69,185.89l-1.57-.7c-.17,.44-.44,.96-.61,1.39l1.57,.61c.18-.43,.35-.87,.61-1.31"/><path class="cls-2" d="M270.39,189.2l-1.57-.43c-.17,.52-.35,.96-.44,1.48l1.65,.35c.09-.43,.26-.87,.35-1.39"/><path class="cls-2" d="M293.36,217.4l.17,1.65c.52,0,1.05-.09,1.48-.17l-.17-1.65c-.52,.09-.96,.09-1.48,.17"/><path class="cls-2" d="M296.85,216.79l.43,1.65c.52-.09,.96-.26,1.48-.35l-.52-1.65c-.44,.17-.87,.26-1.39,.35"/><path class="cls-2" d="M300.24,215.66l.7,1.57c.52-.18,.96-.43,1.39-.61l-.78-1.57c-.43,.26-.87,.44-1.3,.61"/><path class="cls-2" d="M303.37,214l.96,1.48c.44-.26,.87-.61,1.22-.87l-.96-1.39c-.43,.26-.78,.52-1.22,.78"/><path class="cls-2" d="M306.25,211.91l1.13,1.22c.35-.35,.78-.69,1.13-1.04l-1.22-1.22c-.35,.35-.7,.7-1.04,1.04"/><path class="cls-2" d="M308.68,209.3l1.3,1.13c.35-.44,.7-.87,.96-1.22l-1.39-1.04c-.26,.44-.52,.78-.87,1.13"/><path class="cls-2" d="M310.68,206.43l1.48,.78c.26-.43,.52-.87,.78-1.3l-1.57-.78c-.17,.44-.44,.87-.7,1.31"/><path class="cls-2" d="M312.25,203.21l1.57,.61c.17-.44,.35-.96,.52-1.48l-1.65-.44c-.17,.44-.26,.87-.44,1.31"/><path class="cls-2" d="M313.47,198.42c-.09,.43-.17,.96-.26,1.39l1.65,.35c.09-.52,.17-1.04,.26-1.48l-1.65-.26Z"/><path class="cls-2" d="M289.8,217.4l-.09,1.65c.44,.09,.96,.09,1.48,.09l.09-1.65c-.52,0-.96-.09-1.48-.09"/><path class="cls-2" d="M286.32,216.79l-.35,1.65c.44,.17,.96,.26,1.48,.35l.26-1.65c-.44-.09-.87-.17-1.39-.35"/><path class="cls-2" d="M282.92,215.66l-.7,1.57c.52,.26,.96,.43,1.48,.61l.52-1.65c-.44-.17-.87-.26-1.31-.52"/><path class="cls-2" d="M279.79,214l-.87,1.48c.43,.26,.87,.52,1.3,.78l.78-1.48c-.44-.26-.78-.52-1.22-.78"/><path class="cls-2" d="M276.92,211.91l-1.04,1.22c.35,.35,.7,.7,1.13,1.05l1.04-1.39c-.35-.26-.7-.61-1.13-.87"/><path class="cls-2" d="M274.48,209.3l-1.31,1.13c.35,.35,.7,.78,1.04,1.13l1.22-1.13c-.35-.35-.61-.7-.96-1.13"/><path class="cls-2" d="M272.48,206.43l-1.48,.78c.26,.52,.52,.96,.78,1.31l1.48-.87c-.26-.44-.52-.87-.78-1.22"/><path class="cls-2" d="M271,203.21l-1.65,.61c.17,.52,.43,.96,.61,1.39l1.57-.7c-.17-.43-.35-.87-.52-1.3"/><path class="cls-2" d="M269.95,199.82l-1.65,.35c.09,.52,.26,.96,.35,1.48l1.65-.43c-.09-.44-.26-.96-.35-1.39"/><path class="cls-2" d="M269.52,196.33l-1.65,.09c0,.43,.09,.96,.09,1.48l1.74-.17c-.09-.43-.09-.96-.17-1.39"/><path class="cls-2" d="M269.69,192.77l-1.65-.18c-.09,.52-.17,.96-.17,1.48l1.74,.09c0-.44,0-.96,.09-1.39"/></svg>