<?xml version="1.0" encoding="UTF-8"?><svg id="Capa_1" xmlns="http://www.w3.org/2000/svg" viewBox="0 0 350 350"><defs><style>.cls-1{fill:#fff;}.cls-2{fill:#2e3192;}.cls-3{fill:#ff2411;}</style></defs><path class="cls-3" d="M6.21,104.78s17.16,5.86,33.49,16.74c16.33,10.88,31.39,23.86,31.39,23.86,0,0,13.81-31.81,28.05-48.56,14.23-16.74,33.91-29.3,33.91-29.3,0,0,16.74,18.84,14.23,52.74-2.51,33.91-11.72,51.49-11.72,51.49,0,0,9.63,2.51,19.67,0,10.05-2.51,18-7.95,18-7.95,0,0-5.44,17.16-11.3,22.19-5.86,5.02-12.56,11.72-12.56,11.72,0,0,7.53,8.79,17.58,11.72,10.05,2.93,19.67,3.77,19.67,3.77,0,0-12.56,18.42-39.35,20.72-26.79,2.3-36-1.88-36-1.88,0,0-5.02,12.56-9.63,18.84-4.6,6.28-10.46,12.98-10.46,12.98,0,0-15.49-13.81-22.19-26.37-6.7-12.56-7.95-30.14-7.95-30.14,0,0-29.72-12.14-43.12-41.65-13.4-29.51-11.72-60.91-11.72-60.91Z"/><path class="cls-1" d="M105.43,158.05s-1.21,5.28-5.86,13.6c-3.45,6.17-8.37,10.26-8.37,10.26,0,0-12.98,1.05-21.35-1.36,7.01,12.03,14.91,12.4,14.91,12.4,0,0-2.25,7.69,.05,13.13,2.3,5.44,5.65,9,5.65,9,0,0,1.83-10.05,3.72-13.19,6.91,8.16,19.31,5.65,24.96,2.09-15.07-4.81-13.34-9.08-13.34-9.08,0,0,2.67,.5,9.16-2.01,6.49-2.51,11.09-9.84,11.09-9.84,0,0-14.65,3.98-18.63,.42,3.45-13.29-1.99-25.43-1.99-25.43Z"/><path class="cls-2" d="M167.44,143.35s.68-6.54,.68-9.42-.42-9.21-.42-9.21c0,0,60.17-25.8,127.57-25.8,42.91,0,54.73,6.28,54.73,6.28,0,0-24.96-1.63-57.71,2.2-66.35,7.74-124.85,35.95-124.85,35.95Z"/><path class="cls-2" d="M37.83,219.79s2.04,2.83,2.83,3.92c.78,1.1,2.98,3.61,2.98,3.61,0,0-28.57,30.85-43.64,55.1,12.61-34.59,37.83-62.63,37.83-62.63Z"/></svg>