<?xml version="1.0" encoding="UTF-8"?><svg id="Capa_1" xmlns="http://www.w3.org/2000/svg" viewBox="0 0 350 350"><defs><style>.cls-1{fill:#38b5e6;}</style></defs><path class="cls-1" d="M197.17,125.44c7.23,0,11.86-4.61,11.86-10.23s-4.63-10.2-11.86-10.2-11.86,4.61-11.86,10.2,4.6,10.23,11.86,10.23Zm0-16.5c2.6,0,4.24,1.79,4.24,6.27s-1.64,6.3-4.24,6.3-4.24-1.79-4.24-6.3,1.61-6.27,4.24-6.27Z"/><path class="cls-1" d="M187.01,155.39h12.98c4.21,0,8.38-1.22,8.38-5.02s-4.57-4.83-5.55-4.88v-.11c1.05-.08,4.86-1.22,4.86-4.53,0-3.77-4.96-4.86-9.43-4.86h-11.24s.03,2.55,.03,2.55v14.3l-.03,2.55Zm6.83-15.6h3.81c2.1,0,3.29,.54,3.29,1.93,0,1.49-1.45,2.04-3.48,2.04h-3.62v-3.96Zm0,7.6h3.65c2.07,0,3.78,.46,3.78,2.2,0,1.33-.99,2.03-3.15,2.03h-4.27v-4.23Z"/><polygon class="cls-1" points="189.02 185.85 206.34 185.85 206.34 181.75 195.85 181.75 195.85 178.09 204.36 178.09 204.36 174 195.85 174 195.85 170.55 206.14 170.55 206.14 166.45 189.02 166.45 189.05 169 189.05 183.3 189.02 185.85"/><path class="cls-1" d="M197.22,208.88l3.35,7.43h7.59v-.05l-4.54-8.2c2.43-.9,4.14-2.6,4.14-5.34,0-4.64-4.67-5.81-9-5.81h-11.37l.03,2.55v14.3l-.03,2.55h6.87l-.03-2.55v-4.88h2.99Zm-2.99-8.06h3.38c1.91,0,3.35,.46,3.35,2.09,0,1.52-1.45,2.06-3.15,2.06h-3.58v-4.15Z"/><path class="cls-1" d="M193.67,227.38l-8.28,19.4h6.18l1.41-3.74h7.26l1.28,3.74h7.3l-8.05-19.4h-7.1Zm.76,11.83l2.37-6.35h.07l2.1,6.35h-4.53Z"/><path class="cls-1" d="M175,31.26C95.61,31.26,31.26,95.61,31.26,175s64.36,143.74,143.74,143.74,143.74-64.36,143.74-143.74S254.39,31.26,175,31.26Zm0,278.24c-74.16,0-134.49-60.33-134.49-134.49S100.84,40.51,175,40.51s134.49,60.33,134.49,134.49-60.33,134.49-134.49,134.49Z"/><path class="cls-1" d="M175,47.36c-70.38,0-127.64,57.26-127.64,127.64s57.26,127.64,127.64,127.64,127.64-57.26,127.64-127.64-57.26-127.64-127.64-127.64Zm122.45,102.49l-18.96,3.69c-2.63-12.77-7.55-24.79-14.64-35.77l16.04-10.62c8.32,12.82,14.38,27.23,17.56,42.7Zm-53.69-79.16l-10.75,15.94c-10.92-7.18-22.9-12.21-35.64-14.95l3.84-18.89c15.43,3.31,29.8,9.47,42.55,17.9Zm-3.66,150.16c4.19-.76,7.21-2.25,7.07-3.68-.11-1.19-2.38-2-5.57-2.22,1.07-4.67,1.89-9.58,2.27-14.56,6.85-1.41,11.88-4.45,11.45-7.11-.39-2.44-5.22-3.76-11.36-3.36-.23-4.23-.76-8.08-1.5-11.59,.08-.02,.17-.03,.25-.05,8.73-1.87,15.21-6.17,14.47-9.61-.74-3.44-8.41-4.71-17.14-2.84-.39,.08-.78,.18-1.16,.27-.85-2.31-1.72-4.47-2.55-6.5-.25-.61-.49-1.2-.72-1.79,1.16,.23,2.38,.42,3.64,.55,8.22,.83,15.14-.99,15.45-4.06,.31-3.07-6.1-6.24-14.32-7.07-2.98-.3-5.77-.25-8.16,.08-.25-1.36-.39-2.71-.39-4.06,0-1.63,.13-3.34,.35-5.08,1.76,.33,3.75,.54,5.91,.54,6.72,0,12.17-1.84,12.17-4.12s-5.45-4.12-12.17-4.12c-1.59,0-3.1,.11-4.49,.3,.74-3.04,1.64-5.97,2.52-8.58,3.25,.05,5.74-.69,5.86-1.87,.1-1.03-1.63-2.1-4.21-2.75,.5-1.33,.96-2.47,1.31-3.33,15.03,15.85,24.28,37.23,24.28,60.75,0,26.96-12.15,51.13-31.25,67.35,2.23-4.83,5.44-12.49,7.98-21.5Zm-4.99-103.76c-.11-.01-.22-.03-.33-.04-4.12-.42-7.57,.38-7.71,1.77-.13,1.29,2.63,2.63,6.31,3.16-.95,2.85-1.88,6.06-2.64,9.36-2.91,.75-4.82,1.93-4.82,3.26,0,1.16,1.42,2.2,3.68,2.95-.26,1.95-.42,3.87-.42,5.71,0,1.55,.16,3.06,.44,4.57-2.76,.74-4.55,1.95-4.7,3.48-.22,2.15,2.86,4.34,7.54,5.75,.45,1.16,.93,2.34,1.42,3.56,.79,1.95,1.62,4.02,2.44,6.22-6.77,2.14-11.38,5.69-10.75,8.62,.65,3.06,6.79,4.39,14.28,3.34,.73,3.46,1.25,7.25,1.48,11.4-.26,.04-.51,.05-.78,.09-7.7,1.23-13.57,4.56-13.11,7.44,.44,2.75,6.51,4.07,13.76,3.11-.4,4.81-1.22,9.55-2.28,14.05-.63,.02-1.28,.06-1.94,.12-5.47,.52-9.77,2.33-9.61,4.04,.16,1.67,4.56,2.62,9.89,2.17-3.79,13-8.91,22.99-9.95,24.94-2.7,1.99-5.52,3.82-8.44,5.49V98.33c6.66,3.83,12.79,8.48,18.22,13.85-.42,.97-1.13,2.69-1.97,4.91Zm-18.89,136.04c-11.95,6.33-25.51,9.99-39.9,10.2V86.66c14.39,.21,27.95,3.87,39.9,10.2V253.14ZM135.79,92.88c-18.73,8.98-33.94,24.18-42.92,42.92l-5.69-48.6,48.6,5.69Zm-45.07,47.21l-16.23,12.83-14.21-25.44,28.06-7.77,2.38,20.37Zm-1.51,4.56c-3.37,9.5-5.22,19.71-5.22,30.35s1.85,20.85,5.22,30.35l-38.39-30.35,38.39-30.35Zm1.51,65.26l-2.39,20.45-28.05-7.84,14.21-25.44,16.23,12.83Zm2.16,4.29c8.98,18.74,24.18,33.94,42.92,42.92l-48.61,5.69,5.69-48.61Zm47.21,45.08l12.83,16.23-25.45,14.22-8.03-28.03,20.65-2.42Zm-11.2-8.93c1.47-2.42,4.42-8.27,4.42-16.14,0-9.74-5.88-18.57-9.39-23.84l-.94-1.41c-3.42-5.17-9.8-14.79-9.8-28.06,0-12.48,7.47-23.95,18.99-29.76-3.01,5.16-4.39,11.31-4.39,19.31,0,11.74,9.62,25.32,19.81,39.68l1.86,2.63c10.1,14.29,23.41,34.88,24.14,50.58-16.36-.25-31.66-4.96-44.72-12.99Zm22.74-39.12l-1.86-2.63c-9.94-14.01-19.32-27.25-19.32-38.16,0-9.44,2-16.07,6.49-21.5l3.06-3.7-4.52,1.61c-14.91,5.32-24.92,19-24.92,34.04,0,14.07,6.91,24.5,10.24,29.52l.94,1.42c3.35,5.03,8.95,13.44,8.95,22.38,0,7.14-2.71,12.53-4.01,14.71-24.08-15.8-40.03-43.03-40.03-73.92,0-48.29,38.93-87.63,87.05-88.34V250.66c-4.58-13.64-14.25-28.39-22.06-39.43Zm-31.65-122.87l8.17-28.39,24.95,14.3-13,16.44-20.12-2.35Zm34.77-16.19l-24.31-13.93c13.03-4.99,27.09-7.85,41.78-8.17l-17.47,22.1Zm-37.43,15.87l-28.61-3.35c10.6-10.13,22.95-18.43,36.58-24.36l-7.97,27.7Zm-29.29,29.01l-27.39,7.58c5.91-13.37,14.1-25.51,24.07-35.94l3.32,28.36Zm-15.64,37.52l-22.31,17.63c.33-14.94,3.29-29.24,8.44-42.46l13.87,24.82Zm0,40.84l-13.87,24.82c-5.15-13.22-8.11-27.52-8.44-42.46l22.31,17.64Zm15.63,37.6l-3.31,28.28c-9.97-10.43-18.16-22.56-24.07-35.93l27.37,7.65Zm28.77,29l7.83,27.34c-13.36-5.91-25.49-14.09-35.91-24.05l28.07-3.28Zm37.8,15.6l17.64,22.31c-14.94-.33-29.24-3.29-42.46-8.44l24.82-13.87Zm-9.93-16.82c9.1,3.23,18.87,5.04,29.03,5.19v31.53l-29.03-36.72Zm29.03-176.78c-10.16,.15-19.92,1.96-29.03,5.19l29.03-36.72v31.53Zm26.47,213.44l-3.69-18.96c12.77-2.63,24.79-7.55,35.77-14.64l10.61,16.04c-12.82,8.32-27.23,14.38-42.7,17.56Zm44.91-18.99l-12.08-18.26-1.1,.73c-11.35,7.52-23.87,12.65-37.21,15.23l-1.3,.25,4.18,21.51c-6.9,1.26-13.99,1.97-21.23,2.04v-33.98c49.58-.71,89.69-41.24,89.69-90.98s-40.12-90.27-89.69-90.98V50.04c7.62,.08,15.07,.85,22.3,2.24l-4.37,21.46,1.3,.26c13.32,2.69,25.8,7.93,37.08,15.55l1.1,.74,12.22-18.12c12.75,8.82,23.79,19.94,32.51,32.76l-18.26,12.09,.73,1.1c7.52,11.35,12.65,23.87,15.23,37.21l.25,1.3,21.51-4.18c1.34,7.32,2.08,14.85,2.08,22.55,0,8.08-.8,15.97-2.27,23.62l-21.46-4.36-.26,1.3c-2.69,13.32-7.93,25.8-15.55,37.08l-.74,1.1,18.12,12.22c-8.82,12.75-19.94,23.79-32.76,32.51Zm52.14-77.25c-3.31,15.43-9.47,29.8-17.9,42.55l-15.94-10.75c7.18-10.92,12.21-22.89,14.95-35.64l18.89,3.84Z"/><polygon class="cls-1" points="161.31 131.1 152.56 128.98 157.25 121.28 149.55 125.97 147.42 117.21 145.3 125.97 137.6 121.28 142.29 128.98 133.53 131.1 142.29 133.23 137.6 140.93 145.3 136.24 147.42 144.99 149.55 136.24 157.25 140.93 152.56 133.23 161.31 131.1"/></svg>