<?xml version="1.0" encoding="UTF-8"?><svg id="Capa_1" xmlns="http://www.w3.org/2000/svg" viewBox="0 0 350 350"><defs><style>.cls-1{fill:#5f5335;}.cls-2{fill:#fff;}.cls-3{fill:#bd0c1b;}.cls-4{fill:#182c62;}.cls-5{fill:#026033;}.cls-6{fill:#e42a17;}.cls-7{fill:#f1e900;}.cls-8{fill:#78c3ec;}.cls-9{fill:#4b8e72;}.cls-10{fill:#022d71;}.cls-11{fill:none;stroke:#000;stroke-linecap:round;stroke-linejoin:round;stroke-width:0px;}.cls-12{fill:#aaa384;}.cls-13{fill:#837c54;}.cls-14{fill:#5f542e;}.cls-15{fill:#f8da09;}</style></defs><circle class="cls-2" cx="175" cy="175" r="145.69" transform="translate(-72.49 175) rotate(-45)"/><g><path class="cls-15" d="M313.12,207.46c2.46-10.47,3.77-21.39,3.77-32.61,0-.03,0-.06,0-.09l-117.66-80.56c1.16-1.34,2.18-2.78,3.04-4.3l110.17,49.6c-2.39-9.31-5.7-18.24-9.82-26.71l-98.42-27.11c.48-1.37,.83-2.79,1.06-4.25l84.99,10.64c-4.45-6.19-9.39-12.01-14.76-17.4l-69.95,2.08c-.06-1.7-.3-3.37-.7-4.97l54.79-10.82c-4.41-3.28-9.01-6.31-13.79-9.07l-42.55,15.49c-.64-1.4-1.41-2.74-2.3-4.01l32.41-17.87c-3.59-1.62-7.27-3.09-11.01-4.42l-24.3,18.78c-1.28-1.31-2.7-2.51-4.24-3.59l16.56-18.86c-2.81-.72-5.66-1.35-8.54-1.9l-11.78,18.52c-2.2-1.11-4.57-1.99-7.07-2.59l5.41-17.85c-2.34-.22-4.7-.38-7.07-.49l-2.49,17.62c-1.25-.14-2.51-.22-3.8-.22s-2.55,.08-3.8,.22l-2.49-17.62c-2.37,.1-4.73,.26-7.08,.48l5.42,17.86c-2.5,.6-4.87,1.48-7.07,2.59l-11.79-18.55c-2.88,.55-5.73,1.18-8.55,1.9l16.59,18.89c-1.54,1.07-2.96,2.28-4.24,3.59l-24.35-18.82c-3.75,1.33-7.43,2.8-11.03,4.42l32.47,17.9c-.89,1.27-1.66,2.61-2.3,4.01l-42.63-15.52c-4.79,2.76-9.4,5.8-13.81,9.08l54.9,10.84c-.4,1.61-.64,3.27-.7,4.97l-70.08-2.08c-5.38,5.4-10.32,11.22-14.78,17.42l85.14-10.66c.23,1.45,.58,2.87,1.06,4.25l-98.58,27.15c-4.13,8.48-7.43,17.42-9.82,26.74l110.33-49.67c.87,1.52,1.89,2.96,3.04,4.3L33.11,174.86c0,8.69,.79,17.19,2.28,25.45,5.31-7.65,14.88-17.97,27.46-17.14l91.26-85.81c1.4,1.18,2.94,2.25,4.57,3.18l16.39-22.89,16.66,22.73c1.54-.89,2.98-1.91,4.3-3.02l117.09,110.1Z"/><path class="cls-15" d="M187.84,102.31l-12.78-24.65,7.18,26.38c1.94-.42,3.81-1,5.59-1.73Z"/><path class="cls-15" d="M168.18,104.1l6.89-26.44-12.49,24.76c1.78,.71,3.66,1.28,5.6,1.68Z"/><path class="cls-15" d="M178.1,104.67l-.06-.54c-.18,.21-.37,.41-.59,.59,.22-.01,.43-.02,.65-.04Z"/><path class="cls-15" d="M174.49,96.52c1.06,0,2.02,.37,2.8,.96l-2.22-19.82-1.93,19.08c.43-.13,.88-.22,1.35-.22Z"/><path class="cls-8" d="M187.84,102.31l49.26,95.06c1.99-.09,4.7,.63,5.18,2.22,.36,1.21-1.05,2.82-2.06,3.8l.71,1.38c.51,.46,.93,1.1,1.01,1.95l8.73,16.85c.18-.12,.36-.24,.55-.37,2.34-1.57,5.94-2.09,7.54-1.09,.9,.56,1,1.38,1.12,2.42,.11,.97,.25,2.18,1.07,3.74,1.83,3.49,4.83,3.77,5.71,3.77,.58,0,1-.81,1.49-1.74,.51-.97,1.09-2.08,2.06-2.67,1.47-.88,3.37,.03,4.34,.62-.24-.89-.63-2.42-.77-3.56-.23-1.81,.14-4.42,1.52-5.85,.57-.6,1.52-.88,2.46-1l-86.05-117.44-16.66-22.73,12.78,24.65Z"/><path class="cls-8" d="M196.06,167.52s-3.08-3.64-4.14-14.86c-.73-7.67-7.59-11.22-9.76-11.77l5.04,44.95c.16,.12,.32,.22,.47,.35,1.52,1.4,2.53,3.95,2.57,6.5,.02,1.42-.78,3.06-1.76,4.52l.61,5.4c.22,0,.4,0,.51-.01,.1,0,.22-.02,.36-.03,1.2-.11,3.7-.34,5.91,1.6,1.39,1.22,2.03,4.51,2.55,9.45,2.44,.22,8.38,.92,11.19,2.52,.2,.11,.38,.26,.56,.42,.37,.1,.68,.18,.86,.26,.16,.07,.41,.18,.73,.33,.4,.18,.92,.42,1.5,.67l-2.75-10.1c-1.26-1.31-2.74-3.27-2.74-5.27,0-.69,.33-1.25,.84-1.71l-12.38-45.45c-.06,6.47-.14,12.23-.14,12.23Z"/><path class="cls-8" d="M179.13,101.16c0,1.13-.42,2.16-1.1,2.97l.06,.54,2.53,22.59c.06,.03,.11,.06,.17,.09,3.06,1.42,5.39,2.02,8.89,3.98l-7.43-27.28-7.18-26.38,2.22,19.82c1.11,.85,1.84,2.17,1.84,3.68Z"/><path class="cls-8" d="M161.39,130.17c2.37-1.12,4.3-1.73,6.66-2.83,.85-.4,1.55-.81,2.13-1.24l2.11-20.87c-.32-.17-.62-.38-.89-.62-.94-.85-1.55-2.07-1.55-3.44,0-2.09,1.39-3.84,3.29-4.42l1.93-19.08-6.89,26.44-6.79,26.07Z"/><path class="cls-8" d="M167.13,140.81c-1.43,.07-9.53,3.54-10.21,11.86-.92,11.14-4.14,14.86-4.14,14.86,0,0-.02-1.62-.06-4.09l-3.08,11.84c1.63-.72,3.84-.92,5.81-.95,1.06-1.71,2.55-2.62,4.32-2.62,1.58,0,2.92,.69,3.98,2.04,.16,.2,.29,.42,.42,.63,.38,0,.76-.01,1.13-.02l3.29-32.6c-.13-.47-.48-.99-1.46-.94Z"/><path class="cls-8" d="M147.49,188.63c3.54,.05,5.58,2.68,6.04,3.35l1.07-.19v-3.75c-2.28-.69-3.84-1.87-4.84-2.94-.83-.89-1.46-1.92-1.9-3l-1.7,6.54c.42-.01,.86-.02,1.34,0Z"/><path class="cls-8" d="M93.81,209.44c1.29-.45,6.69-2.21,9.83-1.68,1.37,.23,2.81,1.69,4.07,3.43l54.87-108.77,12.49-24.76-16.39,22.89-70.93,99.05c3.42,1.23,5.62,8.3,6.06,9.84Z"/><path class="cls-6" d="M243.76,274.05c-1.51-.11-2.83-.2-3.89-.29-5.47-.43-11.08-2.21-11-4.46,.05-1.46,2.44-3.23,4.68-4.77,.15-.1,.3-.21,.43-.3-1.2-.09-4.12-.27-8.24-.49-2.97-.16-6.56-.34-10.59-.53,.11,.77,.17,1.27,.19,1.54h.01v.26s0,0,0,0v.28s0,0,0,0c0,.07,0,.14,0,.23-.02,1.57-.2,5.4-1.54,5.76-.28,.07-.52,.11-.74,.11-.38,0-.68-.09-.9-.21l.16,1.3-.26,.04c-.1,.02-1.19,.18-2.71,.22,.08,1.59,.09,3.63-.24,5.37-.47,2.47-.73,3.68-.84,4.15,.58,.16,1.78,.62,2.18,1.63,.13,.33,.27,.83-.02,1.25-.46,.67-1.9,.96-4.93,.97h0s-.27,0-.27,0h-.27c-3.12-.02-4.73-.28-4.82-1.57-.07-.97,1.32-1.89,1.87-2.21-.17-.48-.57-1.81-1.04-4.51-.43-2.47-.41-5.43-.37-6.93-2.39-1.13-3.83-2.15-3.85-2.16l-.17-.12,.08-.2s.48-1.19,.93-2.86c.24-.9,.48-1.95,.64-3.05-.15,0-.29-.01-.44-.02-.58,.19-1.24,.39-1.95,.58-.79,.21-1.65,.4-2.58,.57-.08,2.54-.23,6.77-.47,10.31-.31,4.5-.65,6.59-.77,7.22,.59,.28,2.33,1.21,2.43,2.66,.03,.5,.01,1.08-.42,1.53-.68,.72-2.25,1.02-5.47,1.02-.34,0-.7,0-1.08-.01-.19,0-.38,0-.57,0-3.26,0-4.81-.31-5.49-1.07-.34-.38-.45-.87-.37-1.54,.2-1.51,1.66-2.31,2.18-2.55-.04-.58-.22-2.57-.76-6.97-.59-4.75-.87-9.46-.93-10.51-3.43-.44-6.01-1.11-6.91-1.36l.09,15.83h0s.03,5.93,.03,5.93l-.09,.08c-.11,.1-2.71,2.48-5.98,2.59-.08,0-.15,0-.23,0-3.17,0-4.56-2.23-4.62-2.33l-.04-.06v-5.06s-.71-4.93-2.13-9.67c-.62-2.07-1.01-5.14-1.24-7.99-.44,0-.88,0-1.31,0-.09,.67-.15,1.34-.18,1.97-.13,2.48,.02,9.75,.17,15.41,.08,3.02,.15,5.25,.15,5.25v.09s-.05,.07-.05,.07c-.04,.06-1.02,1.41-4.87,1.41-.15,0-.3,0-.45,0-3.34-.09-5.56-2.26-6.16-2.92-.82-.9-1.27-1.82-1.23-2.46,.1-1.36,1.98-2.22,2.61-2.47h0s0,0,0,0v-.16s-.01-.02-.02-.02l-.04-.44h0c-.13-1.51-.37-4.55-.64-8.74-.13-2.02-.28-4.31-.42-6.83-6.18,.14-11.62,.34-15.98,.57-5.8,.3-9.67,.62-10.73,.83-1.87,.37-3.31,2.17-4.58,3.75-.6,.75-1.17,1.46-1.73,1.94-1.53,1.3-6.27,.79-7.64,.61,.08,.58,.18,1.7-.07,2.45l-.06,.18c-.3,.97-.72,2.29-5.53,4.9-4.47,2.43-12.76,2.52-22.41,2.54,25.24,23.08,58.83,37.16,95.73,37.16s72.83-15.08,98.34-39.61c-2.13-.36-4.16-.68-5.95-.91-7.85-1.04-17.35-1.72-23.63-2.18Z"/><path class="cls-2" d="M183.78,281.1h.47s2.97-.02,2.97-.02v-16.96c-1.82-.02-3.55-.15-5.12-.34,.07,1.22,.35,5.78,.92,10.38,.53,4.25,.71,6.28,.76,6.94Z"/><path class="cls-2" d="M187.96,264.12c-.06,0-.13,0-.19,0v16.95l3.74-.02c.12-.63,.46-2.75,.76-7.14,.24-3.48,.39-7.64,.47-10.19-1.46,.24-3.06,.4-4.77,.4Z"/><path class="cls-2" d="M202.54,282.19h2.42c0-3.52,0-7.42,0-9.76-.72-.13-1.43-.3-2.09-.56-.62-.24-1.19-.49-1.73-.73-.04,1.54-.04,4.28,.37,6.59,.47,2.69,.88,4.02,1.03,4.45Z"/><path class="cls-2" d="M205.51,272.53h0c0,2.33,0,6.01,0,9.66h2.23c.1-.45,.36-1.66,.84-4.17,.32-1.68,.31-3.69,.23-5.26-.07,0-.13,0-.2,0-.96,0-2.03-.07-3.11-.23Z"/><path class="cls-9" d="M284.7,206.79c-4.19,1.19-6.83,2.75-6.87,4.09-.04,1.21,2.13,5.53,2.97,7.09l.25,.46-.52-.07s-1.16-.15-2.37-.04c-.93,.08-1.9,.31-2.43,.87-1.2,1.25-1.6,3.66-1.37,5.4,.21,1.62,.95,4.16,.96,4.19l.23,.79-.66-.5s-2.66-2.02-4.36-1c-.84,.51-1.39,1.54-1.86,2.45-.55,1.05-1.06,2.03-1.97,2.03s-4.21-.29-6.19-4.06c-.86-1.65-1.02-2.97-1.13-3.93-.12-1-.18-1.6-.86-2.02-1.43-.89-4.81-.36-6.96,1.08-.21,.14-.41,.28-.6,.41-.07,.05-.14,.1-.21,.14-1.75,1.2-2.9,1.99-4.16,1.85-.63-.07-1.27-.52-2.07-1.09-1.05-.74-2.35-1.67-4.22-2.17-1.06-.28-2.86-.28-4.77-.27-4.11,.01-8.79,.03-9.33-2.7-.44-2.2-.3-3.65,.46-4.68,.75-1.03,2.09-1.62,4.23-1.85,1.87-.21,3.35-.1,4.53-.02,1.59,.11,2.31,.14,2.59-.47,.48-1.04-.6-3.26-1.06-4.03l-.3-.5,.58,.1s2.74,.45,3.83-.42c.26-.21,.4-.48,.41-.82,.1-2.01-2.36-2.83-2.38-2.84l-.48-.15,.39-.31c.25-.21,.62-.53,1-.91,.97-.96,2.06-2.3,1.8-3.14-.37-1.22-2.63-1.86-4.39-1.84-.27,0-.54,.02-.78,.05-1.9,.27-2.65-.04-2.72-.08l-.09-.04-.04-.1s-2.03-4.73-4.42-4.33c-2.48,.4-4.94,4.03-4.96,4.06l-.17,.25-.23-.2s-1.88-1.59-3.52-.87c-1.76,.78-3.66,2.41-3.68,2.42l-.07,.06h-.1c-1.93,.06-6.4,.59-7.84,2.21-.29,.32-.47,.69-.47,1.11,0,1.45,.9,2.92,1.88,4.09,1.14,1.36,2.38,2.32,2.4,2.34l.18,.14-.11,.2s-.73,1.41,.13,2.01c.81,.57,3.71,.47,4.75,.38l.43-.04-.15,.4s-.35,.98,.31,1.64c.52,.52,2.64,.49,3.85,.35l.26-.03,.04,.26c.03,.21,.64,5.07-2.13,5.76-1.7,.42-4.57-.58-6.72-1.48-.75-.31-1.41-.62-1.9-.84-.31-.14-.56-.25-.71-.32-.02,0-.04-.01-.06-.02,2.03,3.16,1.59,10.36,1.47,11.82,.65,.12,2.45,.49,4.4,1.09,1.89,.58,3.93,1.39,5.18,2.4,2.51,2.02,3.48,7.09,3.69,8.43,1.57-.5,8.6-2.72,10.69-2.86,2.49-.17,4.09,.09,6.98,2.08,2.62,1.81,1.94,8.42,1.65,10.48,.62-.35,1.73-.8,2.97-.5,.52,.13,.87,.5,1.11,.97,.04,.09,.08,.18,.12,.27,.03,.09,.07,.18,.1,.27,.12,.4,.18,.84,.21,1.25,.15-.38,.34-.81,.56-1.25,.04-.09,.1-.18,.14-.27,.05-.09,.1-.18,.15-.27,.17-.3,.34-.6,.54-.91,1.33-2.03,3.53-4.46,6.38-4.52,2.33-.06,5.72,1.6,6.74,2.12,.15-.58,.46-1.87,.6-3.3,.02-.23,.04-.47,.05-.71,.11-2.35,1.69-4.15,5.54-8,3.3-3.3,8.57-5.41,14.11-5.65,.94-.04,1.88,0,2.81,.07,7.83,.62,14.75,4.8,16.13,5.69,3.21-6.7,5.9-13.7,8.03-20.93-3.14-3.13-13.46-11.97-26.4-8.3Z"/><path class="cls-9" d="M62.58,251.48c.07-.09,.14-.18,.2-.27,.17-.23,.34-.44,.49-.64,2.67-3.38,7.69-3.12,8.61-3.04,.19-.21,.68-.78,1.34-1.79,.59-.9,1.78-2.27,3.96-3.41,1.15-.6,2.56-1.15,4.32-1.53,3.35-.72,7.44,.48,10.43,1.36,.05,.01,.09,.03,.14,.04,1.33,.39,2.46,.72,2.92,.65,.79-.11,1.48-1.36,2.15-2.57,.51-.92,1.03-1.86,1.66-2.5,1.32-1.32,3.82-.73,4.75-.45,.04-1.24,.29-5.3,1.9-8.43,1.83-3.56,10.15-2.67,11.39-2.52,.65-.71,4.34-4.65,6.32-6.04,1.61-1.13,5.13-1.71,6.96-1.95,.33-1.85,1.33-5.02,2.59-8.58-2.01,.08-5.25,.45-6.74,1.95-2.33,2.33-5.97,5.65-6.01,5.69l-.16,.15-.18-.13s-2.51-1.82-4.22-1.73c-1.7,.1-3.98,2.3-4.01,2.32l-.28,.27-.16-.35c-.02-.06-1.57-3.47-3.52-6.23-1.23-1.74-2.61-3.22-3.89-3.44-3.38-.57-9.76,1.73-9.83,1.76l-.28,.1-.08-.29c-.02-.09-2.38-8.77-5.93-9.82-.22-.06-.44-.11-.66-.11-.02,0-.04,0-.06,0-4.01,0-9.28,5.17-9.34,5.23l-.62,.61,.16-.86c.26-1.36,.72-5.08-.29-5.96-1.01-.89-3.64-.38-4.57-.1l-.35,.1v-.36c0-.14,.02-14.02-8.22-14.84-.4-.04-.8-.05-1.19-.07-12.32-.54-21.67,9.87-26.77,17.36,.41,2.19,.87,4.36,1.37,6.52,3.71,15.72,10.03,30.43,18.48,43.64,.06,.09,.12,.18,.17,.27,.06,.09,.12,.18,.18,.27,1.13,1.75,2.29,3.47,3.49,5.16,.97-1.99,2.14-3.78,3.15-5.16,.07-.09,.13-.18,.2-.27Z"/><path d="M273.8,224.67c.15,1.14,.54,2.68,.77,3.56-.97-.59-2.88-1.49-4.34-.62-.97,.59-1.55,1.69-2.06,2.67-.49,.94-.91,1.74-1.49,1.74-.88,0-3.87-.27-5.71-3.77-.82-1.56-.96-2.77-1.07-3.74-.12-1.04-.21-1.86-1.12-2.42-1.61-1-5.2-.48-7.54,1.09-.19,.13-.37,.25-.55,.37-.09,.06-.18,.12-.26,.18-1.65,1.13-2.75,1.87-3.79,1.76-.49-.05-1.08-.47-1.82-.99-1.08-.77-2.43-1.72-4.39-2.25-1.13-.3-2.97-.3-4.91-.29-3.72,.02-8.34,.03-8.8-2.27-.41-2.04-.3-3.36,.36-4.26,.66-.9,1.88-1.42,3.85-1.63,1.82-.2,3.27-.1,4.43-.02,1.61,.11,2.67,.19,3.12-.78,.54-1.16-.35-3.15-.82-4.06,.91,.09,2.76,.16,3.72-.61,.38-.31,.59-.72,.61-1.22,0-.15-.01-.28-.03-.41-.08-.85-.5-1.49-1.01-1.95-.45-.41-.94-.69-1.29-.85,.16-.14,.36-.33,.57-.53,1.01-.98,2.42-2.6,2.06-3.8-.48-1.59-3.19-2.32-5.18-2.22-.2,0-.4,.02-.58,.05-1.39,.2-2.1,.06-2.33,0-.34-.76-2.35-4.98-4.96-4.55-2.35,.38-4.54,3.2-5.16,4.06-.6-.44-2.26-1.47-3.86-.77-1.66,.73-3.37,2.13-3.74,2.45-.8,.03-5.87,.32-7.9,2.15-.52,.46-.84,1.02-.84,1.71,0,2,1.48,3.96,2.74,5.27,.67,.7,1.29,1.22,1.58,1.45-.3,.69-.51,1.87,.4,2.5,.95,.67,3.69,.57,4.73,.5-.07,.45-.08,1.21,.54,1.82,.75,.75,3.16,.61,4.02,.53,.08,.98,.23,4.41-1.75,4.9-1.66,.41-4.66-.71-6.77-1.62-.58-.25-1.1-.49-1.5-.67-.32-.15-.57-.26-.73-.33-.18-.07-.49-.16-.86-.26-.17-.16-.36-.31-.56-.42-2.81-1.6-8.75-2.29-11.19-2.52-.52-4.94-1.16-8.23-2.55-9.45-2.21-1.94-4.71-1.71-5.91-1.6-.13,.01-.25,.02-.36,.03-.11,0-.29,.01-.51,.01-.18,0-.38,0-.61,0v-5.39s0,0,0-.01c.98-1.46,1.78-3.1,1.76-4.52-.04-2.55-1.05-5.1-2.57-6.5-.15-.14-.31-.24-.47-.35-.95-.7-2.04-1.05-3.26-.96-4.23,.28-7.11,3.46-7,7.72,.05,1.87,.98,3.66,2.02,5.1l.08,4.8c-.22,0-.44,0-.67,0-1.43-.03-2.89-.06-3.97,.32-.17-1.79-.79-5.47-3.01-7.53-2.39-2.22-5.35-3.16-6.45-3.45v-4.16c2.2-.78,3.65-1.89,4.56-2.88,1.37-1.5,2.11-3.33,2.03-5.02-.17-3.33-1.83-5.46-4.24-5.46-.03,0-.07,0-.11,0-.51,.01-1.17,.03-1.88,.04-.37,0-.75,.01-1.13,.02-.14-.22-.27-.43-.42-.63-1.06-1.35-2.4-2.04-3.98-2.04-1.77,0-3.26,.91-4.32,2.62-1.98,.03-4.18,.23-5.81,.95-1.29,.57-2.23,1.45-2.38,2.83-.14,1.32,.08,2.69,.6,3.99,.43,1.08,1.07,2.11,1.9,3,1,1.07,2.56,2.25,4.84,2.94v3.75l-1.07,.19c-.46-.67-2.5-3.3-6.04-3.35-.47,0-.91,0-1.34,0-3.05,.1-4.79,.77-5.76,2.14-.63,.89-4.64,10.5-7.49,18.47-2.06,.06-5.63,.42-7.32,2.12-2.05,2.05-5.1,4.85-5.83,5.52-.63-.44-2.77-1.81-4.39-1.71-1.54,.09-3.38,1.59-4.07,2.21-.46-.99-1.86-3.85-3.58-6.21-1.26-1.73-2.7-3.2-4.07-3.43-3.14-.53-8.53,1.24-9.83,1.68-.44-1.54-2.64-8.61-6.06-9.84-.32-.11-.64-.2-.98-.2-3.49-.02-7.66,3.44-9.2,4.83,.22-1.53,.53-4.68-.59-5.67-1.19-1.05-3.8-.54-4.74-.31-.06-2.23-.74-14.24-8.7-15.03-.24-.02-.47-.02-.7-.04-12.58-.83-22.15,9.48-27.46,17.14,.02,.11,.04,.22,.06,.33,.03,.14,.05,.27,.08,.41,5.1-7.5,14.45-17.9,26.77-17.36,.4,.02,.79,.03,1.19,.07,8.24,.82,8.22,14.7,8.22,14.84v.36s.35-.1,.35-.1c.93-.27,3.56-.78,4.57,.1,1,.88,.55,4.6,.29,5.96l-.16,.86,.62-.61c.05-.05,5.33-5.23,9.34-5.23,.02,0,.04,0,.06,0,.23,0,.45,.05,.66,.11,3.56,1.04,5.91,9.72,5.93,9.82l.08,.29,.28-.1c.06-.02,6.45-2.33,9.83-1.76,1.28,.22,2.66,1.7,3.89,3.44,1.95,2.76,3.49,6.17,3.52,6.23l.16,.35,.28-.27s2.31-2.22,4.01-2.32c1.7-.09,4.19,1.72,4.22,1.73l.18,.13,.16-.15s3.67-3.35,6.01-5.69c1.5-1.5,4.73-1.87,6.74-1.95-1.26,3.56-2.26,6.74-2.59,8.58-1.83,.24-5.36,.83-6.96,1.95-1.99,1.39-5.67,5.33-6.32,6.04-1.24-.15-9.55-1.04-11.39,2.52-1.61,3.13-1.86,7.19-1.9,8.43-.93-.28-3.43-.87-4.75,.45-.64,.64-1.16,1.58-1.66,2.5-.67,1.21-1.36,2.46-2.15,2.57-.45,.07-1.59-.26-2.92-.65-.05-.01-.09-.03-.14-.04-2.99-.88-7.09-2.08-10.43-1.36-1.76,.38-3.17,.92-4.32,1.53-2.18,1.15-3.36,2.51-3.96,3.41-.67,1.02-1.16,1.59-1.34,1.79-.92-.08-5.94-.33-8.61,3.04-.16,.2-.32,.41-.49,.64-.07,.09-.13,.18-.2,.27-.07,.09-.13,.18-.2,.27-1.01,1.38-2.18,3.17-3.15,5.16,.06,.09,.12,.17,.18,.26,.06,.08,.12,.16,.18,.24,1.05-2.22,2.38-4.21,3.46-5.66,.07-.09,.14-.18,.2-.27,.07-.09,.14-.18,.21-.27,.08-.1,.16-.21,.24-.3,2.69-3.41,8.2-2.83,8.26-2.83h.13s.09-.08,.09-.08c.02-.02,.6-.61,1.5-1.97,.57-.87,1.75-2.21,3.93-3.32,1.07-.54,2.39-1.03,4.01-1.38,3.21-.69,7.23,.49,10.17,1.35,.01,0,.03,0,.04,.01,1.54,.45,2.66,.78,3.24,.7,1.06-.15,1.78-1.46,2.55-2.84,.49-.88,.99-1.79,1.57-2.38,1.36-1.36,4.5-.22,4.54-.21l.37,.13v-.39s.02-5.01,1.85-8.56c1.77-3.43,10.88-2.23,10.97-2.21l.14,.02,.1-.1s4.24-4.6,6.33-6.07c1.46-1.02,4.75-1.59,6.57-1.84-.01,.13-.03,.26-.03,.37-.09,2.36,.84,4.65,2.53,6.28,.77,.74,1.9,1.53,3.47,2.01,.88,.27,1.9,.44,3.07,.44,.31,0,.64-.01,.98-.04,1.52-.11,3-.41,4.39-.81-.12,4.43-.28,6.76-.28,6.79l-.02,.26,.26,.02s1.56,.14,3.71,.29c-.26,2.79-.64,8.11-.59,14.76,0,.09,0,.18,0,.27,0,.09,0,.18,0,.27,0,.45,0,.89,.02,1.35,0,.09,0,.18,0,.27,0,.09,0,.18,0,.27,.03,1.32,.07,2.67,.14,4.07,.09,1.92,.19,3.73,.28,5.46-6.76,.15-12.64,.38-17.19,.63-5.17,.28-8.6,.58-9.6,.77-2.07,.41-3.57,2.29-4.9,3.95-.59,.73-1.14,1.42-1.65,1.86-1.3,1.11-5.91,.69-7.57,.44l-.38-.06,.07,.38s.31,1.66,0,2.54l-.06,.19c-.28,.88-.65,2.08-5.28,4.59-4.44,2.41-12.91,2.45-22.74,2.47,.1,.09,.19,.18,.29,.27,.1,.09,.19,.18,.29,.27,9.65-.02,17.94-.11,22.41-2.54,4.82-2.61,5.23-3.94,5.53-4.9l.06-.18c.25-.75,.15-1.87,.07-2.45,1.37,.18,6.11,.69,7.64-.61,.56-.47,1.12-1.18,1.73-1.94,1.27-1.59,2.71-3.39,4.58-3.75,1.06-.21,4.93-.53,10.73-.83,4.35-.22,9.8-.43,15.98-.57,.14,2.52,.28,4.81,.42,6.83,.28,4.19,.52,7.23,.64,8.74h0s.04,.44,.04,.44c0,0,0,.02,0,.02v.16s.01,0,.01,0h0c-.63,.26-2.51,1.11-2.61,2.47-.05,.64,.41,1.56,1.23,2.46,.6,.66,2.82,2.83,6.16,2.92,.15,0,.3,0,.45,0,3.85,0,4.83-1.35,4.87-1.41l.05-.07v-.09s-.07-2.23-.15-5.25c-.15-5.66-.3-12.93-.17-15.41,.03-.63,.1-1.3,.18-1.97,.44,0,.87,0,1.31,0,.24,2.85,.62,5.92,1.24,7.99,1.42,4.75,2.13,9.66,2.13,9.67v5.06l.04,.06c.06,.1,1.45,2.33,4.62,2.33,.08,0,.15,0,.23,0,3.28-.11,5.88-2.49,5.98-2.59l.09-.08-.03-5.93h0s-.09-15.83-.09-15.83c.9,.25,3.48,.92,6.91,1.36,.06,1.05,.34,5.76,.93,10.51,.54,4.4,.72,6.4,.76,6.97-.52,.24-1.99,1.03-2.18,2.55-.09,.67,.03,1.16,.37,1.54,.68,.76,2.24,1.07,5.49,1.07,.18,0,.37,0,.57,0,.38,0,.74,.01,1.08,.01,3.22,0,4.79-.3,5.47-1.02,.43-.46,.46-1.03,.42-1.53-.1-1.44-1.83-2.38-2.43-2.66,.12-.63,.46-2.72,.77-7.22,.24-3.54,.4-7.78,.47-10.31,.93-.17,1.79-.36,2.58-.57,.71-.19,1.37-.38,1.95-.58,.15,0,.29,.01,.44,.02-.16,1.1-.39,2.15-.64,3.05-.45,1.67-.92,2.83-.93,2.86l-.08,.2,.17,.12s1.46,1.03,3.85,2.16c-.05,1.51-.07,4.46,.37,6.93,.47,2.7,.88,4.03,1.04,4.51-.55,.32-1.94,1.24-1.87,2.21,.09,1.29,1.71,1.56,4.82,1.57h0s.27,0,.27,0h.27c3.02-.02,4.47-.3,4.93-.98,.29-.42,.15-.92,.02-1.25-.4-1.01-1.6-1.46-2.18-1.63,.11-.48,.36-1.68,.84-4.15,.33-1.74,.33-3.77,.24-5.37,1.52-.04,2.61-.2,2.71-.22l.26-.04-.16-1.3c.23,.12,.52,.21,.9,.21,.22,0,.47-.03,.74-.11,1.34-.36,1.52-4.19,1.54-5.76,0-.08,0-.16,0-.23h0v-.28s0,0,0,0v-.26h-.02c-.02-.27-.07-.77-.19-1.54,4.03,.19,7.62,.37,10.59,.53,4.12,.22,7.04,.4,8.24,.49-.13,.09-.28,.2-.43,.3-2.24,1.54-4.63,3.31-4.68,4.77-.08,2.24,5.53,4.03,11,4.46,1.06,.08,2.38,.18,3.89,.29,6.29,.45,15.78,1.14,23.63,2.18,1.79,.24,3.82,.55,5.95,.91,.08-.08,.16-.16,.24-.23,.08-.08,.16-.16,.24-.23-2.27-.39-4.45-.73-6.36-.98-7.87-1.04-17.37-1.72-23.67-2.18-1.51-.11-2.83-.2-3.89-.29-5.75-.45-10.56-2.24-10.5-3.9,.05-1.31,3.02-3.36,4.45-4.34,.94-.65,1.06-.73,1.06-.94v-.15s-.13-.08-.13-.08c-.11-.08-3.63-.31-9.2-.61-2.98-.16-6.56-.34-10.52-.52-.21-1.28-.56-3.14-1.16-5.74-.21-.91-.5-1.68-.83-2.34-.06-.11-.11-.23-.17-.33-.07-.12-.13-.23-.2-.34-.62-.99-1.38-1.68-2.22-2.16-.17-.1-.34-.19-.52-.27-.22-.1-.45-.19-.68-.27-.74-.26-1.51-.4-2.28-.49,.67-.24,1.23-.59,1.67-1.05,.94-.97,1.38-2.45,1.31-4.37-.17-4.64-2.99-7.87-5.41-7.87-1.96,0-3.29,1.76-4.03,3.87-.05-1.14-.11-2.28-.17-3.42,.1-.38,.19-.77,.24-1.17,.15-1.14-.02-2.66-.53-3.63-.13-1.87-.27-3.67-.43-5.33-.25-2.63-.46-5.08-.64-7.34-.15-1.8-.29-3.46-.43-5,0-.09-.02-.18-.03-.27,0-.09-.02-.18-.03-.27-.02-.23-.04-.46-.07-.68,2.17,.21,6.98,.79,9.89,1.98,.35,.15,.69,.3,.98,.46,.02,.01,.04,.03,.07,.05,.18,.11,.34,.24,.49,.4,2.62,2.71,1.78,12.16,1.77,12.26l-.02,.25,.24,.04s2.41,.44,4.91,1.24c1.75,.56,3.56,1.29,4.67,2.19,2.67,2.16,3.54,8.34,3.55,8.4l.04,.32,.31-.1c.09-.03,8.62-2.78,10.87-2.93,2.12-.15,3.63-.09,6.63,1.99,2.69,1.86,1.43,9.93,1.34,10.5,0,.02,0,.05,0,.05l-.04,.22-.05,.27-.04,.23,.28-.23,.28-.23s.03-.02,.05-.04c.07-.05,.21-.15,.43-.27,.55-.31,1.5-.7,2.56-.44,.25,.06,.43,.23,.59,.44,.06,.08,.12,.17,.17,.27,.04,.09,.08,.18,.11,.27,.33,.94,.29,2.3,.21,2.95l.53,.1s.4-1.46,1.23-3.06c.05-.09,.09-.18,.14-.27,.05-.09,.1-.18,.15-.27,.12-.2,.24-.41,.37-.61,1.26-1.92,3.32-4.22,5.94-4.27,.03,0,.06,0,.09,0,2.58,0,6.65,2.2,6.69,2.22l.29,.16,.1-.32c.03-.08,.56-1.92,.73-3.99,.01-.16,.03-.31,.04-.47,.1-2.16,1.64-3.9,5.39-7.64,3.2-3.2,8.34-5.26,13.75-5.49,1.08-.05,2.15,0,3.2,.1,7.62,.73,14.29,4.84,15.48,5.62,.04-.08,.08-.16,.12-.25,.04-.08,.08-.16,.12-.25-1.38-.89-8.3-5.07-16.13-5.69-.93-.07-1.86-.11-2.81-.07-5.54,.24-10.81,2.35-14.11,5.65-3.85,3.85-5.43,5.65-5.54,8-.01,.24-.03,.48-.05,.71-.14,1.42-.45,2.72-.6,3.3-1.03-.53-4.42-2.19-6.74-2.12-2.86,.06-5.05,2.49-6.38,4.52-.2,.3-.37,.6-.54,.91-.05,.09-.1,.18-.15,.27-.05,.09-.1,.18-.14,.27-.22,.44-.41,.87-.56,1.25-.03-.41-.09-.85-.21-1.25-.03-.09-.06-.18-.1-.27-.04-.09-.07-.18-.12-.27-.23-.47-.58-.84-1.11-.97-1.25-.3-2.35,.15-2.97,.5,.29-2.06,.97-8.67-1.65-10.48-2.89-2-4.49-2.26-6.98-2.08-2.09,.15-9.12,2.36-10.69,2.86-.22-1.34-1.19-6.4-3.69-8.43-1.25-1.01-3.29-1.81-5.18-2.4-1.95-.6-3.75-.97-4.4-1.09,.12-1.46,.56-8.66-1.47-11.82,.02,0,.04,.01,.06,.02,.15,.06,.4,.17,.71,.32,.49,.22,1.15,.53,1.9,.84,2.15,.9,5.02,1.9,6.72,1.48,2.77-.69,2.16-5.56,2.13-5.76l-.04-.26-.26,.03c-1.21,.14-3.33,.17-3.85-.35-.67-.67-.33-1.6-.31-1.64l.15-.4-.43,.04c-1.05,.09-3.94,.19-4.75-.38-.86-.6-.14-1.99-.13-2.01l.11-.2-.18-.14s-1.26-.97-2.4-2.34c-.98-1.17-1.88-2.64-1.88-4.09,0-.42,.18-.78,.47-1.11,1.44-1.62,5.92-2.15,7.84-2.21h.1s.07-.07,.07-.07c.02-.02,1.92-1.64,3.68-2.42,1.64-.72,3.5,.85,3.52,.87l.23,.2,.17-.25s2.48-3.66,4.96-4.06c2.39-.39,4.4,4.29,4.42,4.33l.04,.1,.09,.04c.08,.04,.82,.35,2.72,.08,.24-.03,.51-.05,.78-.05,1.76-.01,4.02,.63,4.39,1.84,.25,.84-.84,2.18-1.8,3.14-.38,.38-.75,.71-1,.91l-.39,.31,.48,.15s2.48,.82,2.38,2.84c-.02,.34-.15,.61-.41,.82-1.08,.87-3.8,.43-3.83,.42l-.58-.1,.3,.5c.46,.77,1.54,3,1.06,4.03-.28,.61-1,.58-2.59,.47-1.19-.08-2.66-.19-4.53,.02-2.13,.24-3.47,.83-4.23,1.85-.76,1.04-.9,2.48-.46,4.68,.55,2.73,5.22,2.72,9.33,2.7,1.91,0,3.71-.01,4.77,.27,1.87,.5,3.17,1.43,4.22,2.17,.81,.57,1.44,1.02,2.07,1.09,1.26,.14,2.41-.65,4.16-1.85,.07-.05,.14-.1,.21-.14,.2-.13,.39-.27,.6-.41,2.15-1.44,5.53-1.97,6.96-1.08,.68,.42,.75,1.02,.86,2.02,.11,.96,.26,2.28,1.13,3.93,1.97,3.76,5.23,4.06,6.19,4.06s1.43-.99,1.97-2.03c.48-.91,1.02-1.95,1.86-2.45,1.7-1.02,4.33,.98,4.36,1l.66,.5-.23-.79s-.75-2.57-.96-4.19c-.22-1.74,.18-4.16,1.37-5.4,.53-.56,1.5-.79,2.43-.87,1.21-.11,2.35,.03,2.37,.04l.52,.07-.25-.46c-.84-1.56-3.01-5.88-2.97-7.09,.05-1.33,2.68-2.9,6.87-4.09,12.95-3.67,23.26,5.17,26.4,8.3,.03-.1,.06-.2,.09-.3,.03-.1,.06-.19,.08-.29-3.44-3.36-13.79-11.9-26.73-8.23-2.16,.61-7.19,2.28-7.27,4.59-.05,1.36,2.07,5.54,2.8,6.92-.53-.04-1.41-.07-2.3,.05-.93,.12-1.88,.4-2.46,1-1.38,1.43-1.75,4.04-1.52,5.85Zm-75.82-9.85c0,.09,.02,.18,.03,.27,0,.09,.02,.18,.03,.27,.15,1.57,.29,3.27,.44,5.09,.19,2.26,.39,4.72,.64,7.35,.14,1.44,.26,2.98,.38,4.58-.2-.14-.41-.24-.64-.24h0c-1.05,0-2.32,1.47-2.93,2.88-.54,1.25-.26,3.05-.19,3.44-.26,.55-1.71,3.72-1.8,6.73-.07,2.23,.82,3.66,1.76,4.87,.07,.09,.14,.18,.21,.27,.07,.09,.15,.18,.22,.27,.03,.04,.06,.08,.09,.11,.14,.17,.26,.33,.39,.5,.07,.09,.15,.18,.21,.27,.06,.08,.14,.17,.2,.25,0,0,0,.01,.01,.02,1.1,1.57,1.22,3.54,1.39,7.82,.03,.71,0,1.44-.08,2.15-.2,.07-.4,.14-.62,.21-.24,.08-.49,.16-.75,.24-.26,.08-.54,.16-.82,.24-.12,.03-.23,.06-.35,.1-.76,.2-1.6,.39-2.5,.56-.09,.02-.18,.03-.27,.05-.09,.02-.18,.03-.27,.05-1.21,.2-2.53,.34-3.92,.39-.24,0-.47,.02-.71,.02-.05,0-.11,0-.16,0-.07,0-.14,0-.2,0-.05,0-.11,0-.16,0-.05,0-.1,0-.14,0-.09,0-.19,0-.28,0-.14,0-.28,0-.42,0-1.54-.04-3.01-.15-4.37-.3-.11-.01-.22-.03-.33-.04-.11-.01-.22-.03-.33-.04-3.67-.46-6.35-1.19-7.06-1.39,0,0,0,0-.01,0-.11-.03-.18-.05-.19-.06h0s0,0,0,0c-.03-.02-.05-.06-.08-.09-.02-.03-.04-.08-.06-.12-.03-.07-.06-.16-.09-.27-.05-.2-.09-.45-.13-.76-.2-1.73-.2-5.03-.17-8.73,0-.09,0-.18,0-.27,0-.09,0-.18,0-.27,0-.31,0-.63,0-.95,0-.09,0-.18,0-.27,0-.09,0-.18,0-.26,0-.15,0-.29,0-.44,.02-1.79,.04-3.73,.05-5.77,0-.05,0-.09,0-.14,.01-3.04,.1-6.44,.21-9.74,0-.07,0-.13,0-.2,0-.09,0-.18,0-.27,0-.09,0-.18,0-.27,0-.2,.01-.4,.02-.6,.11-2.96,.24-5.79,.35-8.15,.06-1.21,.12-2.28,.16-3.19,.1-1.83,.17-2.97,.17-3.01h0s.05-.79,.05-.79l-.07,.08-.26,.3-.19,.22s-.03,.04-.07,.08c-.42,.48-2.8,3.16-3.94,4.06-1.32,1.04-3.44-.53-3.53-.59-.52-.39-2.03-2.17-2.03-4.12,0-.18,.09-.47,.23-.8,.04-.09,.06-.17,.11-.28,.04-.09,.1-.19,.14-.28,.41-.85,1.07-1.95,1.84-3.16,.06-.09,.11-.17,.16-.26,.06-.08,.11-.17,.17-.26,2.37-3.62,5.59-7.87,6.35-8.47,0,0,.02-.01,.03-.02,.08-.06,.17-.11,.26-.16,.08-.05,.17-.09,.26-.12,.98-.4,2.47-.37,3.92-.34,.24,0,.45,0,.69,0,.09,0,.18,0,.27,0,.09,0,.18,0,.27,0,.12,0,.24,0,.36,0,.45-.01,1.11,0,1.86,0v.68s0,.27,0,.27v.27s-.04,8.74-.04,8.74l.18,.07s.47,.17,1.19,.26c.03,0,.06,0,.09,0,.77,0,1.57-1.06,1.66-1.19l.05-.07,.19-7.61v-.27s.01-.27,.01-.27l.02-.82s.03,0,.04,0c.99,.02,1.95,.04,2.74,.05,.1,0,.18,0,.27,0,.09,0,.19,0,.27,0,.26,0,.48,0,.68,0,.2,0,.37,0,.48-.01,.11,0,.23-.02,.37-.03,1.21-.11,3.47-.32,5.5,1.47,1.24,1.09,1.86,4.33,2.36,8.99,0,.09,.02,.18,.03,.27,0,.09,.02,.18,.03,.27,.02,.23,.05,.45,.07,.69Zm2.1,28.17c-.18,.88-.27,1.76-.27,2.55,0,1.01,.17,1.89,.47,2.66,0,.28,.02,.55,.03,.82-.69-.66-1.15-1.51-1.36-2.56-.45-2.35,.51-6.07,.58-6.34,.04-.07,.19-.38,.37-.84,.06,1.24,.12,2.49,.18,3.72Zm4.5-5.01c2.18,0,4.71,3.02,4.87,7.35,.07,1.77-.32,3.11-1.16,3.98-.81,.84-2.05,1.26-3.71,1.26-.35-.02-.67-.05-.99-.1-1.31-.27-2.26-1.1-2.78-2.38-.13-.31-.23-.65-.31-1.02-.1-.48-.16-.98-.16-1.54,0-.36,.02-.74,.06-1.13,.05-.45,.11-.92,.21-1.38,.54-2.57,1.89-5.04,3.96-5.04Zm3.7,13.51c.32,.07,.63,.16,.93,.27,1,.36,1.92,.95,2.67,1.92,.09,.11,.17,.23,.25,.35,.08,.11,.15,.22,.23,.35,.42,.72,.77,1.59,1.02,2.67,.59,2.52,.93,4.32,1.14,5.59,.02,.09,.03,.18,.04,.27,.01,.09,.03,.19,.04,.27,.12,.77,.17,1.28,.2,1.57h-2.92l-.05,.21s-.02,.07-.04,.16c-.02,.1-.05,.24-.08,.41-.03,.14-.05,.3-.08,.47-.16,1.05-.33,2.77-.07,4.58h0s0,0,0,0h0s.18,1.44,.18,1.44c-.42,.05-1.3,.14-2.4,.17-.09,0-.18,0-.27,0-.09,0-.18,0-.27,0-1,0-2.14-.05-3.27-.22h0s0,0,0,0c-.09-.01-.18-.03-.27-.05,0,0,0,0,0,0-.09-.02-.18-.03-.27-.05,0,0,0,0,0,0-.65-.13-1.3-.3-1.89-.53-.69-.27-1.32-.54-1.91-.81-.09-.04-.18-.08-.27-.12-.09-.04-.18-.09-.27-.13-1.76-.85-2.95-1.61-3.38-1.9,.17-.43,.55-1.48,.92-2.86,.24-.9,.47-1.94,.62-3.03,.01-.09,.02-.18,.04-.27,0-.04,0-.09,.02-.13,0-.05,.01-.09,.02-.14,0-.05,.01-.11,.02-.16,.01-.1,.02-.2,.03-.31,.06-.65,.08-1.31,.06-1.96-.16-4.13-.29-6.16-1.29-7.8-.06-.09-.11-.18-.17-.27-.01-.02-.02-.04-.04-.06-.05-.07-.11-.14-.17-.21-.15-.2-.31-.4-.47-.6-.07-.08-.12-.16-.19-.24,0-.01-.02-.02-.03-.03-.07-.09-.14-.18-.22-.27-1.02-1.25-1.99-2.6-1.92-4.86,.08-2.64,1.29-5.51,1.67-6.35l2.82,1.29c-.22,.88-.96,4.15-.54,6.38,.21,1.1,.73,2.33,1.91,3.23,.09,.07,.18,.13,.28,.19,.09,.06,.18,.12,.28,.17,.68,.4,1.55,.7,2.63,.85,.02,0,.04,0,.05,0,.32,.04,.64,.08,1,.09h.23c.55,.04,1.12,.06,1.68,.11,.6,.05,1.21,.14,1.79,.27Zm6.53,14.04c-.03,2.2-.37,5.04-1.14,5.24-1.01,.27-1.48-.18-1.6-.32,0,0,0,0,0,0-.02-.16-.03-.32-.05-.47-.01-.12-.03-.23-.03-.35-.01-.16-.01-.32-.02-.48,0-.12-.01-.24-.01-.35,0-.15,0-.29,0-.43,0-.12,0-.24,0-.36,0-.13,.01-.24,.02-.36,0-.12,.01-.25,.02-.37,0-.1,.02-.18,.03-.27,.01-.13,.02-.26,.04-.38,0-.05,.01-.09,.02-.14,.03-.2,.05-.37,.08-.53,.03-.16,.05-.3,.07-.42,.02-.08,.03-.17,.05-.23h2.51c0,.07,0,.15,0,.23Zm-6.23,12.49c-.48,2.51-.74,3.73-.84,4.17h-2.23c0-3.64,0-7.33,0-9.66h0c1.07,.16,2.15,.23,3.11,.23,.07,0,.13,0,.2,0,.08,1.57,.09,3.58-.23,5.26Zm-7.44-6.87c.54,.24,1.11,.49,1.73,.73,.66,.26,1.37,.42,2.09,.56,0,2.33-.01,6.24,0,9.76h-2.42c-.15-.44-.56-1.77-1.03-4.45-.41-2.31-.41-5.06-.37-6.59Zm-.28-21.87c.08,.11,.14,.23,.23,.34-.07-.05-.15-.08-.22-.13,0-.07,0-.13,0-.2Zm2.68,1.46c.33,.05,.67,.09,1.04,.11-.37-.02-.71-.06-1.04-.11Zm-3.46-14.09c0,.07-.02,.13-.03,.2-.05,.33-.13,.66-.22,.98-.23,.8-.52,1.49-.68,1.84l-2.41-1.11-.48-.22c-.08-.47-.28-2.04,.17-3.08,.59-1.36,1.72-2.55,2.43-2.55h0c.18,0,.35,.09,.51,.27,.07,.08,.13,.17,.18,.27,.13,.22,.24,.49,.33,.79,.23,.81,.31,1.83,.2,2.61Zm-12.86,27.48v16.96l-2.97,.02h-.47c-.05-.66-.23-2.68-.76-6.94-.57-4.59-.85-9.16-.92-10.38,1.57,.18,3.3,.31,5.12,.34Zm4.28,16.93l-3.74,.02v-16.95c.06,0,.13,0,.19,0,1.71,0,3.31-.17,4.77-.4-.08,2.54-.23,6.71-.47,10.19-.3,4.4-.64,6.51-.76,7.14Zm-30.54-19.65c0-.09-.01-.18-.02-.27-.28-3.63-.34-6.82-.34-6.87l-.03-1.93-.5,1.86s-.94,3.51-1.42,6.95c-.01,.09-.02,.18-.04,.27-.01,.09-.02,.18-.03,.27-.08,.66-.15,1.32-.18,1.94-.13,2.46,.01,9.57,.16,15.2-.12,.01-.26,.02-.39,.04-.17,.02-.33,.03-.51,.04-.18,.01-.38,.02-.57,.03-.2,.01-.4,.02-.61,.03-.21,0-.42,0-.64,.01-.2,0-.41,0-.61,0-.42,0-.84-.02-1.26-.05-.29-.02-.61-.07-.94-.13-.1-.02-.22-.06-.32-.08-.24-.06-.48-.11-.74-.19-.14-.04-.29-.1-.44-.15-.24-.08-.48-.15-.73-.25-.17-.06-.35-.14-.52-.21-.22-.09-.44-.18-.66-.28-.11-1.36-.36-4.43-.65-8.78-.14-2.08-.29-4.44-.43-7.06,0-.09-.01-.18-.02-.27,0-.09,0-.18-.01-.27-.1-1.73-.19-3.55-.29-5.47-.07-1.39-.11-2.73-.14-4.05,0-.09,0-.18,0-.27,0-.09,0-.18,0-.27,0-.45-.01-.9-.02-1.34,0-.09,0-.18,0-.27,0-.09,0-.18,0-.27-.04-6.64,.34-11.95,.6-14.73,2.61,.18,6,.36,8.87,.36,.59,0,1.14-.01,1.67-.03,.21,0,.43-.01,.63-.02,4.17-.2,10.86-1.02,13.86-1.41-.12,3.34-.2,6.79-.22,9.87,0,2.09-.03,4.07-.05,5.91,0,.15,0,.29,0,.43,0,.09,0,.18,0,.26,0,.09,0,.18,0,.27,0,.32,0,.65,0,.95,0,.09,0,.18,0,.27,0,.09,0,.18,0,.27-.04,5.25,0,8.12,.31,9.48,.02,.09,.04,.19,.07,.27,.03,.1,.06,.19,.1,.27,.07,.17,.15,.28,.25,.36l.1,16.26c-.08,.03-.17,.07-.26,.1-.1,.04-.2,.08-.3,.12-.13,.05-.27,.1-.41,.15-.12,.04-.23,.08-.35,.13-.14,.05-.28,.1-.43,.15-.13,.04-.26,.09-.39,.13-.14,.05-.29,.09-.44,.14-.14,.04-.27,.09-.41,.13-.15,.04-.3,.08-.45,.12-.14,.04-.27,.08-.41,.11-.15,.04-.3,.07-.46,.11-.13,.03-.25,.06-.38,.09-.17,.03-.32,.06-.48,.08-.1,.02-.21,.04-.31,.05-.25,.03-.49,.05-.71,.05-.69,0-1.5-.05-2.39-.15-.1-.01-.2-.02-.31-.03-.17-.02-.36-.05-.53-.08-.15-.02-.29-.04-.44-.07v-.42s-.72-5-2.15-9.79c-.6-2-.98-5.01-1.21-7.83,0-.09-.02-.18-.02-.27Zm-1.76-.26c.25-1.78,.62-3.57,.92-4.86,.05,1.26,.13,3,.28,4.86-.4,0-.8,0-1.19,0Zm-23.06-34.06c-1.46-.45-2.52-1.18-3.23-1.87-1.58-1.52-2.44-3.66-2.36-5.87,0-.14,.02-.29,.04-.46,.01-.09,.03-.19,.04-.28s.03-.18,.04-.28c.35-1.86,1.35-5.02,2.6-8.53,.03-.09,.07-.18,.1-.27,.03-.09,.07-.18,.1-.27,2.82-7.86,6.75-17.27,7.37-18.15,.84-1.2,2.43-1.79,5.17-1.9,.33-.01,.67-.02,1.04-.02,.14,0,.29,0,.44,0,2.95,.04,4.82,2.09,5.45,2.91l-3.69,.65h0s.08,.26,.08,.26v.03s.04,.1,.08,.23c.37,1.29,2.29,8.14,3.01,13.36,.18,1.34,.3,2.79,.36,4.24,0,.09,0,.18,.01,.27,0,.09,0,.18,0,.27,.06,1.85,.03,3.7-.05,5.32,0,.09-.01,.18-.02,.27,0,.09-.01,.18-.02,.27-.12,2.12-.33,3.82-.56,4.55-.36,1.19-3.27,3.32-7.15,4.62-.09,.03-.18,.06-.27,.09-.09,.03-.18,.06-.27,.09-1.39,.42-2.9,.73-4.44,.85-1.53,.12-2.8-.07-3.87-.4Zm16.52-5.09c.23-.77,.45-2.54,.58-4.75,0-.09,.01-.18,.02-.27,0-.09,0-.18,.01-.27,.08-1.61,.1-3.42,.05-5.24,0-.09,0-.18,0-.27,0-.09,0-.18-.01-.27-.06-1.5-.17-2.99-.36-4.36-.71-5.16-2.59-11.91-3.01-13.38l3.91-.69h0s.76-.14,.76-.14l.27-.05h.05s.22,0,.22,0h8.36s.91,0,.91,0h.05s.09,.02,.22,.05c.07,.02,.17,.04,.27,.07,1.1,.31,3.88,1.25,6.08,3.29,2.14,1.99,2.7,5.74,2.85,7.37-.11,.06-.22,.13-.32,.2-.75,.6-4.18,5.05-6.63,8.84-.06,.09-.11,.17-.16,.26-.06,.09-.11,.17-.16,.26-.79,1.24-1.44,2.38-1.84,3.26-.04,.1-.08,.19-.12,.28-.04,.1-.07,.19-.1,.28-.11,.3-.18,.57-.18,.76,0,2.19,1.65,4.11,2.25,4.56,.26,.19,2.58,1.86,4.19,.58,.96-.76,2.7-2.66,3.56-3.63-.11,1.98-.42,7.45-.64,13.49,0,.09,0,.18-.01,.27,0,.09,0,.18,0,.27,0,.07,0,.15,0,.22-2.94,.38-9.71,1.21-13.9,1.41-.17,0-.36,.01-.54,.02-3.11,.1-7.38-.12-10.54-.33-.09,0-.18-.01-.27-.02-.09,0-.18-.01-.27-.02-1.65-.12-2.93-.22-3.45-.27,.05-.74,.17-3.02,.27-6.73,4.1-1.31,7.23-3.56,7.68-5.05Zm-4.56-40.82c-.3-.99-.41-2.01-.31-3,.11-1.01,.75-1.72,1.67-2.22,1.47-.79,3.67-1.03,5.69-1.08-1.09,2.12-1.32,4.69-.89,5.43,.77,1.35,2.38,1.9,5.54,1.9,2.47,0,3.94-.37,4.8-.88,.68-.4,.98-.87,1.09-1.31,.12-.48,0-2.04-.58-3.69-.17-.47-.37-.95-.62-1.42,.26,0,.51,0,.76-.01,.74-.01,1.42-.03,1.95-.04,.03,0,.06,0,.09,0,2.13,0,3.55,1.89,3.7,4.95,.08,1.54-.61,3.23-1.89,4.62-.84,.91-2.16,1.93-4.16,2.67-.09,.03-.18,.07-.27,.1-.09,.03-.18,.06-.27,.09-.13,.04-.28,.07-.42,.11-1.25,.36-2.71,.62-4.47,.69-1.07,.04-2.02-.03-2.9-.16-.31-.05-.61-.1-.9-.16-.26-.06-.51-.11-.75-.18-2.3-.65-3.84-1.81-4.82-2.87-.97-1.05-1.66-2.29-2.05-3.57Zm7.99-6.84c.72-1.03,1.88-2.08,3.68-2.08,1.41,0,2.6,.62,3.55,1.83,.08,.1,.14,.21,.21,.31,.06,.09,.12,.18,.18,.27,.06,.09,.12,.18,.18,.27,.54,.93,.88,1.96,1.08,2.85,.22,.99,.27,1.82,.2,2.12-.07,.27-.24,.51-.49,.72-.8,.68-2.5,1.05-4.88,1.05-3.64,0-4.61-.82-5.07-1.63-.29-.5-.18-3.02,1.03-5.17,.02-.03,.03-.05,.04-.08,.04-.06,.08-.13,.12-.19,.06-.09,.11-.18,.17-.27Zm2.77,14.33c.22,0,.45,0,.68-.01,1.71-.06,3.14-.31,4.39-.65,.16-.04,.32-.08,.47-.13v3.89h-.85s-8.41,0-8.41,0v-3.55c1.09,.28,2.31,.46,3.72,.46Zm20.65,9.78c1,1.24,1.98,2.11,2.3,2.38v1.7c-.76,0-1.42-.01-1.88,0-.11,0-.24,0-.35,0l-.07-4.07Zm-2.03-5.84c-.1-3.96,2.57-6.91,6.5-7.17,1.25-.09,2.37,.31,3.3,1.16,0,0,.01,0,.02,.01,1.42,1.3,2.35,3.7,2.39,6.11,.02,1.11-.55,2.4-1.3,3.63,0,0,0,.01-.01,.02-.06,.1-.12,.2-.18,.3-.09,.14-.18,.27-.27,.4-1.41,2.07-3.16,3.78-3.19,3.81l-.08,.08-.04,1.61v.27s-.01,.27-.01,.27l-.02,.8v.27s-.01,.27-.01,.27l-.18,7.46c-.32,.41-.88,.93-1.2,.9-.4-.05-.71-.12-.88-.17l.04-8.32v-.27s0-.27,0-.27v-.7s0-.27,0-.27v-.27s0-1.96,0-1.96l-.1-.08s-1.47-1.22-2.76-2.97c-.07-.09-.13-.19-.2-.28-.06-.09-.12-.17-.18-.26-.87-1.29-1.6-2.82-1.64-4.38Zm10.44,10.03c-.78-.01-1.74-.03-2.73-.05-.01,0-.02,0-.04,0l.03-1.39c.33-.33,1.57-1.59,2.73-3.17v4.61Z"/><path class="cls-5" d="M159.2,261.13c.4,0,.79,0,1.19,0-.14-1.86-.23-3.6-.28-4.86-.3,1.3-.67,3.08-.92,4.86Z"/><path class="cls-5" d="M106.71,271.99l.06-.19c.3-.89,0-2.53,0-2.54l-.07-.38,.38,.06c1.66,.25,6.27,.67,7.57-.44,.52-.44,1.07-1.13,1.65-1.86,1.33-1.66,2.83-3.54,4.9-3.95,1-.2,4.43-.49,9.6-.77,4.54-.25,10.43-.48,17.19-.63-.1-1.72-.19-3.54-.28-5.46-.07-1.4-.11-2.75-.14-4.07,0-.09,0-.18,0-.27,0-.09,0-.18,0-.27,0-.46-.01-.9-.02-1.35,0-.09,0-.18,0-.27,0-.09,0-.18,0-.27-.04-6.65,.34-11.96,.59-14.76-2.16-.15-3.67-.29-3.71-.29l-.26-.02,.02-.26s.16-2.37,.28-6.79c-1.39,.4-2.87,.7-4.39,.81-.34,.03-.66,.04-.98,.04-1.17,0-2.19-.17-3.07-.44-1.57-.48-2.7-1.27-3.47-2.01-1.69-1.63-2.61-3.91-2.53-6.28,0-.11,.02-.24,.03-.37-1.82,.25-5.11,.81-6.57,1.84-2.09,1.47-6.29,6.02-6.33,6.07l-.1,.1-.14-.02c-.09-.01-9.21-1.22-10.97,2.21-1.82,3.54-1.85,8.51-1.85,8.56v.39l-.37-.13s-3.18-1.16-4.54,.21c-.58,.58-1.09,1.49-1.57,2.38-.77,1.39-1.49,2.7-2.55,2.84-.58,.08-1.7-.24-3.24-.7-.01,0-.03,0-.04-.01-2.94-.86-6.96-2.04-10.17-1.35-1.62,.35-2.93,.84-4.01,1.38-2.19,1.11-3.36,2.45-3.93,3.32-.9,1.36-1.47,1.95-1.5,1.97l-.09,.09h-.13c-.06-.02-5.56-.6-8.26,2.81-.08,.1-.16,.2-.24,.3-.07,.09-.14,.18-.21,.27-.07,.09-.13,.18-.2,.27-1.09,1.45-2.41,3.44-3.46,5.66,2.79,3.9,5.78,7.65,8.95,11.24,.06,.07,.13,.15,.19,.22s.13,.15,.19,.22c3.09,3.48,6.35,6.8,9.77,9.96,9.82-.02,18.29-.06,22.74-2.47,4.62-2.51,5-3.71,5.28-4.59Z"/><path class="cls-5" d="M284.15,230.8c-5.41,.24-10.55,2.29-13.75,5.49-3.75,3.75-5.28,5.49-5.39,7.64,0,.16-.02,.31-.04,.47-.16,2.07-.7,3.9-.73,3.99l-.1,.32-.29-.16s-4.11-2.22-6.69-2.22c-.03,0-.06,0-.09,0-2.62,.05-4.68,2.35-5.94,4.27-.13,.2-.25,.41-.37,.61-.05,.09-.1,.18-.15,.27-.05,.09-.1,.18-.14,.27-.83,1.59-1.22,3.04-1.23,3.06l-.53-.1c.08-.65,.12-2.01-.21-2.95-.03-.09-.07-.19-.11-.27-.05-.1-.11-.19-.17-.27-.16-.21-.34-.38-.59-.44-1.06-.26-2.01,.13-2.56,.44-.21,.12-.36,.22-.43,.27-.02,.02-.05,.04-.05,.04l-.28,.23-.28,.23,.04-.23,.05-.27,.04-.22s0-.04,0-.05c.09-.57,1.34-8.64-1.34-10.5-3.01-2.08-4.51-2.14-6.63-1.99-2.25,.16-10.78,2.91-10.87,2.93l-.31,.1-.04-.32c0-.06-.88-6.24-3.55-8.4-1.11-.9-2.92-1.63-4.67-2.19-2.5-.8-4.87-1.23-4.91-1.24l-.24-.04,.02-.25c0-.1,.85-9.55-1.77-12.26-.15-.16-.32-.29-.49-.4-.02-.01-.04-.03-.07-.05-.29-.16-.62-.32-.98-.46-2.9-1.19-7.72-1.77-9.89-1.98,.02,.22,.05,.45,.07,.68,0,.09,.02,.18,.03,.27,0,.09,.02,.18,.03,.27,.14,1.54,.28,3.2,.43,5,.19,2.26,.39,4.71,.64,7.34,.16,1.66,.3,3.46,.43,5.33,.51,.96,.68,2.49,.53,3.63-.05,.4-.14,.8-.24,1.17,.06,1.14,.12,2.28,.17,3.42,.75-2.11,2.07-3.87,4.03-3.87,2.42,0,5.24,3.23,5.41,7.87,.07,1.93-.37,3.4-1.31,4.37-.45,.46-1.01,.81-1.67,1.05,.77,.09,1.54,.23,2.28,.49,.23,.08,.45,.17,.68,.27,.18,.08,.35,.17,.52,.27,.84,.48,1.6,1.17,2.22,2.16,.07,.11,.14,.22,.2,.34,.06,.11,.11,.22,.17,.33,.33,.66,.61,1.43,.83,2.34,.6,2.6,.96,4.46,1.16,5.74,3.97,.18,7.54,.36,10.52,.52,5.57,.3,9.09,.53,9.2,.61l.12,.08v.15c0,.21-.11,.29-1.05,.94-1.43,.99-4.4,3.04-4.45,4.34-.06,1.66,4.75,3.45,10.5,3.9,1.06,.08,2.38,.18,3.89,.29,6.29,.45,15.8,1.14,23.67,2.18,1.9,.25,4.08,.59,6.36,.98,7.15-6.94,13.58-14.63,19.14-22.94,.25-.37,.49-.75,.74-1.13,.07-.11,.15-.22,.22-.34,.02-.03,.03-.05,.05-.07,.09-.14,.18-.27,.27-.41,.2-.3,.39-.61,.59-.91,2.93-4.61,5.61-9.4,8-14.36-1.2-.78-7.87-4.88-15.48-5.62-1.05-.1-2.12-.14-3.2-.1Z"/><path class="cls-5" d="M200.86,249.27c0,.07,0,.13,0,.2,.07,.05,.15,.09,.22,.13-.09-.1-.15-.23-.23-.34Z"/><path class="cls-2" d="M163.55,191.73h.85v-3.89c-.15,.05-.32,.09-.47,.13-1.25,.34-2.68,.59-4.39,.65-.23,0-.45,.01-.68,.01-1.41,0-2.64-.18-3.72-.46v3.55h8.41Z"/><path class="cls-2" d="M181.8,202.51v-1.7c-.31-.27-1.29-1.15-2.29-2.38l.07,4.07c.11,0,.24,0,.35,0,.46-.01,1.12,0,1.87,0Z"/><path class="cls-2" d="M185.15,202.57s.02,0,.04,0c.99,.02,1.95,.04,2.73,.05v-4.61c-1.16,1.58-2.4,2.84-2.73,3.17l-.03,1.39Z"/><path class="cls-14" d="M164.35,279.29v.42c.15,.02,.3,.05,.44,.07,.18,.03,.36,.05,.53,.08,.11,.01,.2,.02,.31,.03,.89,.1,1.7,.15,2.39,.15,.22,0,.46-.02,.71-.05,.1-.01,.2-.03,.31-.05,.16-.03,.32-.05,.48-.08,.12-.02,.25-.06,.38-.09,.15-.03,.3-.07,.46-.11,.14-.03,.27-.07,.41-.11,.15-.04,.3-.08,.45-.12,.14-.04,.27-.08,.41-.13,.15-.05,.3-.09,.44-.14,.13-.04,.26-.09,.39-.13,.14-.05,.29-.1,.43-.15,.12-.04,.23-.08,.35-.13,.14-.05,.28-.1,.41-.15,.11-.04,.2-.08,.3-.12,.09-.03,.17-.07,.26-.1l-.1-16.26c-.09-.08-.18-.2-.25-.36-.03-.08-.07-.17-.1-.27-.02-.08-.05-.17-.07-.27-.31-1.36-.35-4.24-.31-9.48,0-.09,0-.18,0-.27,0-.09,0-.18,0-.27,0-.31,0-.63,0-.95,0-.09,0-.18,0-.27,0-.09,0-.17,0-.26,0-.15,0-.28,0-.43,.02-1.83,.04-3.81,.05-5.91,.01-3.08,.1-6.53,.22-9.87-3,.39-9.69,1.2-13.86,1.41-.2,0-.42,.01-.63,.02-.53,.02-1.08,.03-1.67,.03-2.87,0-6.25-.18-8.87-.36-.26,2.78-.64,8.08-.6,14.73,0,.09,0,.18,0,.27,0,.09,0,.18,0,.27,0,.44,0,.89,.02,1.34,0,.09,0,.18,0,.27,0,.09,0,.18,0,.27,.03,1.31,.07,2.66,.14,4.05,.09,1.92,.19,3.74,.29,5.47,0,.09,0,.18,.01,.27,0,.09,.01,.18,.02,.27,.15,2.61,.3,4.98,.43,7.06,.29,4.35,.54,7.42,.65,8.78,.23,.1,.44,.19,.66,.28,.17,.07,.35,.15,.52,.21,.25,.1,.49,.17,.73,.25,.14,.05,.3,.11,.44,.15,.26,.08,.5,.13,.74,.19,.11,.02,.22,.06,.32,.08,.33,.07,.65,.11,.94,.13,.42,.03,.84,.05,1.26,.05,.21,0,.41,0,.61,0,.21,0,.43,0,.64-.01,.21,0,.41-.02,.61-.03,.19-.01,.39-.02,.57-.03,.18-.01,.34-.03,.51-.04,.13-.01,.26-.02,.39-.04-.15-5.63-.29-12.74-.16-15.2,.03-.62,.1-1.28,.18-1.94,.01-.09,.02-.18,.03-.27,.01-.09,.02-.18,.04-.27,.48-3.44,1.41-6.9,1.42-6.95l.5-1.86,.03,1.93c0,.06,.06,3.24,.34,6.87,0,.09,.01,.18,.02,.27,0,.09,.02,.18,.02,.27,.24,2.82,.61,5.83,1.21,7.83,1.44,4.79,2.15,9.74,2.15,9.79Z"/><path class="cls-10" d="M152.78,137.66c-.33,1.36-.16,17.91-.06,25.77,.03,2.47,.06,4.09,.06,4.09,0,0,3.23-3.71,4.14-14.86,.68-8.32,8.79-11.79,10.21-11.86,.98-.05,1.33,.47,1.46,.94,.06,.22,.07,.42,.07,.56v24.41h2.3s-.05-14.3-.05-17.57,1.95-4.82,3.51-4.82,3.35,1.55,3.35,4.82-.05,17.57-.05,17.57h2.45v-24.41c0-.43,.11-1.57,1.54-1.5,.11,0,.27,.04,.45,.08,2.18,.56,9.04,4.1,9.76,11.77,1.06,11.21,4.14,14.86,4.14,14.86,0,0,.09-5.76,.14-12.23,.07-7.81,.09-16.65-.14-17.63-.43-1.79-2.63-4.21-6.21-6.25-.06-.03-.11-.06-.17-.09-3.49-1.96-5.83-2.56-8.89-3.98-.06-.03-.11-.06-.17-.09-2.98-1.43-4.18-3.13-4.32-4.81-.14-1.71,1.43-2.46,1.43-4.36s-.68-3.07-1.89-4.5c-1.21-1.43-1.43-4.25-1.43-4.25,0,0-.21,2.82-1.43,4.25-1.21,1.43-1.89,2.61-1.89,4.5s1.57,2.64,1.43,4.36c-.1,1.25-.79,2.5-2.35,3.65-.59,.43-1.28,.85-2.13,1.24-2.36,1.1-4.29,1.71-6.66,2.83-.75,.35-1.53,.76-2.4,1.24-3.59,2.04-5.79,4.46-6.21,6.25Zm21.05-23.44c.63,0,1.13,.51,1.13,1.13s-.51,1.14-1.13,1.14-1.13-.51-1.13-1.14,.51-1.13,1.13-1.13Z"/><path class="cls-2" d="M173.82,116.49c.63,0,1.13-.51,1.13-1.14s-.51-1.13-1.13-1.13-1.13,.51-1.13,1.13,.51,1.14,1.13,1.14Z"/><path class="cls-6" d="M177.45,104.71c.21-.18,.41-.37,.59-.59,.68-.81,1.1-1.83,1.1-2.97,0-1.51-.73-2.83-1.84-3.68-.78-.59-1.74-.96-2.8-.96-.47,0-.92,.09-1.35,.22-1.9,.58-3.29,2.33-3.29,4.42,0,1.37,.6,2.59,1.55,3.44,.27,.24,.57,.45,.89,.62,.66,.36,1.4,.58,2.21,.58,1.13,0,2.15-.42,2.96-1.09Z"/><path class="cls-1" d="M154.98,187.59c.24,.07,.49,.12,.75,.18,.29,.06,.59,.11,.9,.16,.88,.13,1.83,.2,2.9,.16,1.75-.06,3.21-.33,4.47-.69,.14-.04,.28-.07,.42-.11,.09-.03,.18-.06,.27-.09,.1-.03,.18-.07,.27-.1,2-.74,3.32-1.75,4.16-2.67,1.28-1.39,1.97-3.08,1.89-4.62-.15-3.06-1.57-4.95-3.7-4.95-.03,0-.06,0-.09,0-.53,.01-1.21,.03-1.95,.04-.25,0-.5,0-.76,.01,.25,.47,.45,.94,.62,1.42,.57,1.65,.7,3.21,.58,3.69-.11,.44-.41,.92-1.09,1.31-.86,.5-2.33,.88-4.8,.88-3.16,0-4.77-.55-5.54-1.9-.42-.74-.2-3.32,.89-5.43-2.02,.04-4.22,.29-5.69,1.08-.92,.5-1.55,1.2-1.67,2.22-.11,.98,.01,2,.31,3,.38,1.29,1.08,2.53,2.05,3.57,.98,1.05,2.52,2.22,4.82,2.87Z"/><path class="cls-12" d="M148.16,234.03c.09,0,.18,.01,.27,.02,.09,0,.18,.01,.27,.02,3.16,.21,7.43,.43,10.54,.33,.18,0,.37-.01,.54-.02,4.19-.2,10.96-1.04,13.9-1.41,0-.07,0-.15,0-.22,0-.09,0-.18,0-.27,0-.09,0-.18,.01-.27,.22-6.04,.53-11.52,.64-13.49-.87,.97-2.6,2.86-3.56,3.63-1.61,1.28-3.93-.39-4.19-.58-.6-.45-2.25-2.37-2.25-4.56,0-.19,.08-.46,.18-.76,.03-.09,.06-.18,.1-.28,.04-.09,.07-.18,.12-.28,.39-.88,1.05-2.02,1.84-3.26,.05-.09,.11-.17,.16-.26,.06-.09,.11-.17,.16-.26,2.45-3.79,5.88-8.24,6.63-8.84,.1-.08,.21-.14,.32-.2-.15-1.63-.71-5.38-2.85-7.37-2.21-2.04-4.98-2.98-6.08-3.29-.11-.03-.2-.05-.27-.07-.13-.03-.21-.05-.22-.05h-.96s-8.36,0-8.36,0h-.22s-.05,0-.05,0l-.27,.05-.76,.13h0s-3.91,.7-3.91,.7c.42,1.47,2.3,8.22,3.01,13.38,.19,1.37,.3,2.86,.36,4.36,0,.09,0,.18,.01,.27,0,.09,0,.18,0,.27,.05,1.82,.03,3.63-.05,5.24,0,.09,0,.18-.01,.27,0,.09-.01,.18-.02,.27-.13,2.21-.35,3.98-.58,4.75-.45,1.49-3.59,3.74-7.68,5.05-.1,3.72-.23,6-.27,6.73,.53,.05,1.8,.15,3.45,.27Z"/><path class="cls-13" d="M144.45,226.62c.09-.03,.18-.06,.27-.09,.09-.03,.18-.06,.27-.09,3.88-1.29,6.79-3.43,7.15-4.62,.22-.74,.43-2.43,.56-4.55,0-.09,.01-.18,.02-.27,0-.09,.01-.18,.02-.27,.08-1.63,.1-3.47,.05-5.32,0-.09,0-.18,0-.27,0-.09,0-.18-.01-.27-.06-1.45-.17-2.9-.36-4.24-.72-5.22-2.64-12.07-3.01-13.36-.04-.13-.06-.22-.07-.23v-.03s-.09-.26-.09-.26h0s3.69-.65,3.69-.65c-.63-.82-2.5-2.87-5.45-2.91-.15,0-.29,0-.44,0-.37,0-.71,.01-1.04,.02-2.74,.11-4.33,.7-5.17,1.9-.62,.88-4.55,10.28-7.37,18.15-.03,.09-.07,.18-.1,.27-.03,.09-.07,.18-.1,.27-1.25,3.51-2.25,6.67-2.6,8.53-.02,.1-.03,.19-.04,.28s-.03,.19-.04,.28c-.02,.17-.04,.33-.04,.46-.08,2.21,.78,4.35,2.36,5.87,.71,.68,1.77,1.42,3.23,1.87,1.06,.33,2.34,.51,3.87,.4,1.55-.12,3.05-.43,4.44-.85Z"/><path class="cls-4" d="M198.96,246.44c.2,1.06,.67,1.91,1.36,2.56,0-.27-.02-.55-.03-.82-.3-.76-.47-1.65-.47-2.66,0-.79,.09-1.67,.27-2.55-.05-1.23-.11-2.48-.18-3.72-.19,.46-.34,.77-.37,.84-.07,.26-1.03,3.98-.58,6.34Z"/><path class="cls-4" d="M197.85,213.58c-.5-4.66-1.12-7.9-2.36-8.99-2.04-1.79-4.29-1.58-5.5-1.47-.14,.01-.26,.02-.37,.03-.11,0-.28,.01-.48,.01-.19,0-.41,0-.68,0-.08,0-.18,0-.27,0-.09,0-.18,0-.27,0-.79-.01-1.75-.03-2.74-.05-.01,0-.03,0-.04,0l-.02,.82v.27s-.01,.27-.01,.27l-.19,7.61-.05,.07c-.09,.13-.89,1.19-1.66,1.19-.03,0-.06,0-.09,0-.72-.08-1.17-.25-1.19-.26l-.18-.07,.04-8.74v-.27s0-.27,0-.27v-.68c-.75,0-1.4-.01-1.85,0-.11,0-.24,0-.36,0-.09,0-.18,0-.27,0-.09,0-.18,0-.27,0-.23,0-.45,0-.69,0-1.45-.03-2.93-.06-3.92,.34-.09,.04-.18,.08-.26,.12-.09,.05-.18,.1-.26,.16,0,0-.02,.01-.03,.02-.76,.6-3.98,4.84-6.35,8.47-.06,.09-.11,.17-.17,.26-.06,.09-.11,.17-.16,.26-.78,1.21-1.43,2.31-1.84,3.16-.04,.09-.1,.2-.14,.28-.05,.1-.07,.18-.11,.28-.13,.33-.23,.62-.23,.8,0,1.96,1.51,3.73,2.03,4.12,.09,.07,2.21,1.63,3.53,.59,1.14-.91,3.52-3.59,3.94-4.06,.04-.04,.07-.08,.07-.08l.19-.22,.26-.3,.07-.08-.05,.78h0c0,.05-.07,1.19-.17,3.02-.05,.91-.1,1.98-.16,3.19-.12,2.35-.24,5.18-.35,8.15,0,.2-.01,.4-.02,.6,0,.09,0,.18,0,.27,0,.09,0,.18,0,.27,0,.07,0,.13,0,.2-.11,3.3-.2,6.7-.21,9.74,0,.05,0,.09,0,.14,0,2.04-.03,3.98-.05,5.77,0,.15,0,.29,0,.44,0,.09,0,.18,0,.26,0,.09,0,.18,0,.27,0,.32,0,.63,0,.95,0,.09,0,.18,0,.27,0,.09,0,.18,0,.27-.03,3.69-.03,7,.17,8.73,.04,.31,.08,.56,.13,.76,.03,.11,.05,.2,.09,.27,.02,.05,.04,.09,.06,.12,.03,.04,.05,.08,.08,.09h0s0,0,0,0c0,0,.08,.02,.19,.06,0,0,0,0,.01,0,.71,.21,3.4,.93,7.06,1.39,.11,.01,.22,.03,.33,.04,.11,.01,.22,.03,.33,.04,1.35,.15,2.83,.26,4.37,.3,.14,0,.28,0,.42,0,.09,0,.19,0,.28,0,.05,0,.1,0,.14,0,.05,0,.11,0,.16,0,.07,0,.14,0,.2,0,.05,0,.11,0,.16,0,.24,0,.48-.01,.71-.02,1.39-.05,2.71-.19,3.92-.39,.09-.02,.18-.03,.27-.05,.09-.02,.18-.03,.27-.05,.9-.16,1.74-.35,2.5-.56,.12-.03,.24-.06,.35-.1,.29-.08,.56-.16,.82-.24,.26-.08,.51-.16,.75-.24,.22-.07,.42-.14,.62-.21,.07-.72,.11-1.44,.08-2.15-.16-4.28-.28-6.25-1.39-7.82,0,0,0-.01-.01-.02-.06-.08-.14-.17-.2-.25-.07-.09-.14-.18-.21-.27-.13-.16-.25-.33-.39-.5-.03-.04-.06-.08-.09-.11-.07-.09-.15-.18-.22-.27-.07-.09-.14-.18-.21-.27-.95-1.2-1.83-2.64-1.76-4.87,.09-3.01,1.54-6.18,1.8-6.73-.07-.4-.35-2.19,.19-3.44,.61-1.41,1.87-2.87,2.93-2.88h0c.23,0,.44,.1,.64,.24-.11-1.6-.24-3.15-.38-4.58-.25-2.63-.46-5.09-.64-7.35-.15-1.82-.29-3.52-.44-5.09,0-.09-.02-.18-.03-.27,0-.09-.02-.18-.03-.27-.02-.23-.05-.46-.07-.69,0-.09-.02-.18-.03-.27,0-.09-.02-.18-.03-.27Z"/><path class="cls-7" d="M200.35,245.53c0,.56,.07,1.06,.16,1.54,.07,.37,.18,.71,.31,1.02,.52,1.27,1.47,2.11,2.78,2.38,.32,.05,.64,.08,.99,.1,1.65,0,2.9-.42,3.71-1.26,.83-.87,1.22-2.2,1.16-3.98-.16-4.33-2.69-7.35-4.87-7.35s-3.42,2.47-3.96,5.04c-.1,.46-.17,.92-.21,1.38-.04,.39-.06,.77-.06,1.13Z"/><path class="cls-2" d="M199.55,233.23c-.06-.1-.12-.19-.18-.27-.16-.18-.33-.27-.51-.27h0c-.71,0-1.84,1.2-2.43,2.55-.45,1.04-.24,2.62-.17,3.08l.48,.22,2.41,1.11c.16-.35,.45-1.04,.68-1.84,.09-.31,.16-.64,.22-.98,.01-.07,.02-.13,.03-.2,.1-.78,.03-1.8-.2-2.61-.09-.3-.19-.57-.33-.79Z"/><path class="cls-3" d="M204.57,251.1c-.35-.02-.68-.05-1-.09-.02,0-.04,0-.05,0-1.08-.15-1.94-.45-2.63-.85-.1-.06-.19-.11-.28-.17-.1-.06-.19-.13-.28-.19-1.18-.91-1.7-2.14-1.91-3.23-.43-2.23,.32-5.5,.54-6.38l-2.82-1.29c-.38,.83-1.59,3.7-1.67,6.35-.07,2.26,.9,3.61,1.92,4.86,.07,.09,.14,.18,.22,.27,0,.01,.02,.02,.03,.03,.07,.08,.12,.16,.19,.24,.16,.2,.32,.4,.47,.6,.05,.07,.12,.14,.17,.21,.01,.02,.02,.04,.04,.06,.06,.09,.11,.18,.17,.27,1,1.64,1.14,3.67,1.29,7.8,.02,.65,0,1.31-.06,1.96,0,.1-.02,.2-.03,.31,0,.05-.01,.11-.02,.16,0,.05-.01,.09-.02,.14,0,.04,0,.09-.02,.13-.01,.09-.02,.18-.04,.27-.15,1.09-.38,2.13-.62,3.03-.36,1.37-.75,2.43-.92,2.86,.42,.29,1.62,1.05,3.38,1.9,.09,.04,.17,.09,.27,.13,.09,.04,.18,.08,.27,.12,.59,.27,1.22,.54,1.91,.81,.6,.23,1.24,.4,1.89,.53,0,0,0,0,0,0,.09,.02,.18,.03,.27,.05,0,0,0,0,0,0,.09,.02,.18,.03,.27,.05,0,0,0,0,0,0h0c1.13,.17,2.27,.23,3.27,.22,.09,0,.18,0,.27,0,.09,0,.18,0,.27,0,1.1-.03,1.98-.12,2.4-.17l-.18-1.44h0s0,0,0,0h0c-.26-1.81-.09-3.53,.07-4.58,.03-.18,.05-.34,.08-.47,.03-.17,.06-.32,.08-.41,.02-.09,.03-.14,.04-.16l.05-.21h2.92c-.02-.28-.08-.79-.2-1.57-.01-.08-.03-.19-.04-.27-.01-.09-.03-.18-.04-.27-.21-1.27-.55-3.07-1.14-5.59-.25-1.08-.6-1.96-1.02-2.67-.07-.12-.15-.23-.23-.35-.08-.12-.16-.24-.25-.35-.75-.97-1.67-1.56-2.67-1.92-.3-.11-.62-.2-.93-.27-.59-.14-1.19-.22-1.79-.27-.56-.05-1.13-.08-1.68-.1h-.23Z"/><path class="cls-11" d="M203.54,250.72c.33,.05,.67,.09,1.04,.11"/><path class="cls-2" d="M212.25,265.53c-.02,.12-.05,.26-.07,.42-.03,.16-.05,.34-.08,.53,0,.05-.01,.09-.02,.14-.01,.12-.03,.25-.04,.38,0,.09-.02,.18-.03,.27,0,.12-.02,.25-.02,.37,0,.12-.02,.24-.02,.36,0,.12,0,.24,0,.36,0,.14,0,.28,0,.43,0,.11,0,.23,.01,.35,0,.16,0,.32,.02,.48,0,.11,.02,.23,.03,.35,.02,.16,.03,.31,.05,.47,0,0,0,0,0,0,.12,.14,.59,.59,1.6,.32,.76-.21,1.11-3.04,1.14-5.24,0-.08,0-.15,0-.23h-2.51c-.01,.06-.03,.15-.05,.23Z"/><path class="cls-3" d="M179.49,197.51c1.29,1.75,2.73,2.95,2.76,2.97l.1,.08v1.96s0,.27,0,.27v.27s0,.7,0,.7v.27s0,.27,0,.27l-.04,8.32c.18,.05,.49,.12,.88,.17,.32,.04,.88-.48,1.2-.9l.18-7.46v-.27s.01-.27,.01-.27l.02-.8v-.27s.01-.27,.01-.27l.04-1.61,.08-.08s1.78-1.74,3.19-3.81c.09-.13,.18-.27,.27-.4,.06-.1,.12-.2,.18-.3,0,0,0-.01,.01-.02,.75-1.22,1.32-2.52,1.3-3.63-.04-2.41-.98-4.81-2.39-6.11,0,0-.01,0-.02-.01-.94-.85-2.05-1.25-3.3-1.16-3.93,.26-6.6,3.21-6.5,7.17,.04,1.56,.76,3.08,1.64,4.38,.06,.09,.12,.17,.18,.26,.07,.09,.13,.19,.2,.28Z"/><path class="cls-1" d="M155.76,174.86c-1.21,2.15-1.32,4.67-1.03,5.17,.46,.81,1.42,1.63,5.07,1.63,2.38,0,4.07-.38,4.88-1.05,.25-.21,.42-.45,.49-.72,.07-.3,.02-1.13-.2-2.12-.2-.89-.54-1.91-1.08-2.85-.05-.09-.12-.18-.18-.27-.06-.09-.12-.18-.18-.27-.07-.1-.13-.21-.21-.31-.95-1.22-2.15-1.83-3.55-1.83-1.8,0-2.96,1.05-3.68,2.08-.06,.09-.12,.18-.17,.27-.04,.06-.08,.13-.12,.19-.02,.03-.03,.05-.04,.08Z"/></g></svg>