<?xml version="1.0" encoding="UTF-8"?><svg id="Capa_1" xmlns="http://www.w3.org/2000/svg" viewBox="0 0 350 350"><defs><style>.cls-1{fill:#009245;}.cls-2{fill:#c1272d;}</style></defs><g><path class="cls-1" d="M159.6,123.63c-8.89-8.97-21.03-13.46-36.42-13.46-13.7,0-25.03,4.29-33.99,12.86-8.96,8.57-13.44,20.43-13.44,35.57,0,12.67,3.41,23.17,10.22,31.48,8.63,10.38,21.94,15.57,39.93,15.57,11.36,0,20.82-2.31,28.39-6.92,5.54-3.38,9.99-7.9,13.35-13.54l-24.13-10.32c-1.49,4.41-3.66,7.62-6.5,9.63-2.92,2.06-6.52,3.1-10.81,3.1-6.3,0-11.56-1.99-15.78-5.98-4.22-3.98-6.43-9.56-6.62-16.73h68.55c.39-18.52-3.86-32.27-12.76-41.25Zm-53.38,24.08c-.06-5.69,1.6-10.19,4.95-13.5,3.36-3.31,7.61-4.97,12.76-4.97,4.81,0,8.9,1.57,12.26,4.71,3.36,3.14,5.12,7.73,5.29,13.76h-35.27Z"/><path class="cls-1" d="M118.83,216.05c-33.79,0-61.18-26.16-61.18-58.42s27.39-58.42,61.18-58.42c10.5,0,20.38,2.53,29.01,6.98l27.65-17.35c-15.71-12.76-36.01-20.45-58.16-20.45-49.88,0-90.32,38.97-90.32,87.05s40.44,87.05,90.32,87.05c20.63,0,39.64-6.67,54.85-17.88l-22.53-16.5c-9.05,5.05-19.58,7.95-30.82,7.95Z"/><path class="cls-1" d="M178.35,89.61h12.02c12.46,0,22.58,10.12,22.58,22.58v111.32h-34.6V89.61h0Z"/><path class="cls-1" d="M218.52,89.61h12.02c12.46,0,22.58,10.12,22.58,22.58v111.32h-34.6V89.61h0Z"/><path class="cls-1" d="M258.05,89.61h12.02c12.46,0,22.58,10.12,22.58,22.58v111.32h-34.6V89.61h0Z"/></g><path class="cls-2" d="M322.99,254.61l-6.46-14.09s-35.62-2.93-65.38-2.93-78.61,2.02-125.36,13.12c-46.75,11.09-87.15,30.9-87.15,30.9,0,0,59.69-17.96,92.44-23.24,32.75-5.28,77.18-7.92,122.05-6.6,44.87,1.32,69.87,2.85,69.87,2.85Z"/></svg>