<?xml version="1.0" encoding="UTF-8"?><svg id="Capa_1" xmlns="http://www.w3.org/2000/svg" viewBox="0 0 350 350"><defs><style>.cls-1{fill:#ede8e4;}.cls-2{fill:#ff3c32;}.cls-3{fill:#628ad9;}</style></defs><path class="cls-3" d="M264.41,312.76H85.59c-18.25,0-33.04-14.79-33.04-33.05V70.28c0-18.25,14.79-33.05,33.04-33.05h178.82c18.25,0,33.05,14.79,33.05,33.05v209.43c0,18.25-14.8,33.05-33.05,33.05"/><path class="cls-1" d="M103.15,213.91l62.78-41.41c9.52-6.28,16.37-15.86,19.23-26.9l14.82-57.14c1.73-6.65,6.89-11.86,13.53-13.64l32.68-8.77c12.17-3.26,24.11,5.95,24.03,18.55l-.59,92.89c-.09,13.97-7.27,26.94-19.06,34.42l-109.09,69.24c-9.55,6.06-22.25,2.53-27.3-7.59l-17.57-35.2c-4.31-8.64-1.49-19.14,6.57-24.45"/><path class="cls-2" d="M231.27,150.7c.97,0,1.77,.32,2.41,.96,.64,.64,.96,1.44,.96,2.4s-.32,1.74-.96,2.39c-.64,.65-1.45,.97-2.41,.97h-2.4v3.73h-1.39v-10.45h3.79Zm0,5.42c.58,0,1.05-.2,1.43-.59,.38-.39,.57-.88,.57-1.47s-.19-1.09-.57-1.48c-.38-.39-.86-.58-1.43-.58h-2.4v4.12h2.4Z"/><path class="cls-2" d="M191.91,207.96c-1.9,0-3.18-1.51-3.18-3.76,0-6.16,6.13-18.32,12.63-31.19,7.1-14.07,14.44-28.63,14.44-36.57,0-2.04-.71-4.22-2.72-4.22-9.48,0-28.45,24-45.18,45.16-12.97,16.41-24.17,30.58-28.73,30.58-.27,0-2.62-.09-2.62-3.13,0-4.87,5.42-14.84,11.7-26.39,8.08-14.87,17.25-31.72,17.25-42.12,0-1.23-.27-4.1-2.81-4.1-8.45,0-24.72,19.71-40.45,38.77-15.69,19.01-30.51,36.96-38.43,36.96-1.21,0-4.02-.52-4.02-5.35,0-14.87,28.78-61.36,30.01-63.33l.12-.19h10.11l-.54,.67c-.33,.41-33.34,41.42-33.34,56.39,0,2.93,.94,3.34,1.96,3.34,5.79,0,19.36-16.5,33.73-33.96,17.75-21.58,36.11-43.88,46.13-43.88,2.9,0,4.93,2.43,4.93,5.9,0,12.19-11.3,33.35-20.37,50.34-5.45,10.21-10.6,19.85-9.64,21.45,.03,.05,.08,.14,.32,.14,3.07,0,13.07-12.96,23.65-26.67,17.59-22.8,39.49-51.17,51.46-51.17,2.36,0,4.88,1.71,4.88,6.49,0,9.26-9.05,27.83-17.03,44.22-6.19,12.72-12.05,24.73-10.7,26.88,.07,.12,.19,.24,.52,.24,5.23,0,18.53-18.9,24.83-28.9l.12-.19h7.23l-.5,.65c-4.66,6.17-28.29,36.93-35.78,36.93"/></svg>