<?xml version="1.0" encoding="UTF-8"?><svg id="Capa_1" xmlns="http://www.w3.org/2000/svg" viewBox="0 0 350 350"><defs><style>.cls-1{fill:red;}</style></defs><path class="cls-1" d="M203.79,66.85c.55,.25,1.1,.51,1.65,.74,4.34,1.83,7.07,6.37,6.53,10.85-.57,4.78-4.09,8.68-8.78,9.32-1.64,.22-1.78,.89-1.78,2.23,.04,9.12,.02,18.23,.02,27.35,0,2.09,.01,2.1,2.13,2.1,21.39,0,42.77,0,64.16,0,6.91,0,12.46,4.23,14.02,10.73,.39,1.64,.47,3.39,.47,5.1,.04,12.41,0,24.81,.05,37.22,0,1.13,.17,2.34,.6,3.38,6.01,14.53,2.36,30.15-9.52,40.52-.4,.35-.77,.71-1.44,1.33,3.09,0,5.8,0,8.52,0,.69,0,1.38-.03,2.05,.04,1.84,.2,3.16,1.63,3.2,3.42,.05,1.86-1.3,3.41-3.22,3.63-.61,.07-1.23,.03-1.85,.03-12.06,0-24.13,0-36.19,0h-2.54c.3,.85,.51,1.53,.77,2.19,5.89,14.74,11.79,29.48,17.68,44.23,.3,.76,.61,1.54,.7,2.34,.2,1.7-.76,3.13-2.32,3.69-1.51,.54-3.23-.02-4.13-1.44-.43-.69-.72-1.47-1.02-2.24-6.23-15.57-12.47-31.13-18.63-46.73-.62-1.56-1.39-2.1-3.09-2.09-15.22,.08-30.43,.04-45.65,.05-2.21,0-2.22,0-2.22,2.24,0,15.01,0,30.02-.01,45.03,0,.95-.04,1.93-.27,2.85-.4,1.56-1.79,2.51-3.36,2.51-1.57,0-2.95-.96-3.35-2.52-.23-.91-.26-1.9-.26-2.85-.02-14.94,0-29.89-.01-44.83,0-2.86,.03-2.4-2.44-2.43-1.44-.02-2.88,.04-4.32-.02-2.24-.08-3.69-1.52-3.67-3.58,.01-2.06,1.45-3.49,3.73-3.51,7.2-.04,14.39-.02,21.59-.02,11.72,0,23.44,0,35.16,0h2.4c-.68-.62-1.04-.98-1.43-1.31-7.5-6.54-11.6-14.8-12.3-24.7-.11-1.51-.51-1.99-2.04-1.94-3.35,.11-6.72,.12-10.07,0-1.59-.06-2.02,.51-1.92,2,.11,1.77,.06,3.56,0,5.34-.2,5.53-4.38,9.83-9.94,10.1-2.73,.13-5.49,.13-8.22,0-5.62-.28-9.85-4.69-9.96-10.3-.06-3.01-.06-6.03,0-9.05,.03-1.2-.25-1.76-1.58-1.67-1.57,.11-3.15,.05-4.73,.02-.79-.01-1.25,.19-1.42,1.08-2.43,12.75-9.16,22.7-19.78,30.43,1.17,0,2.34,0,3.51,0,1.92,0,3.84-.01,5.76,0,2.67,.02,4.35,1.46,4.3,3.62-.05,2.09-1.7,3.48-4.24,3.49-8.64,.01-17.27-.01-25.91,.02-3.19,.01-2.37-.5-3.57,2.48-6.2,15.43-12.36,30.88-18.54,46.32-.28,.7-.54,1.42-.92,2.06-.92,1.54-2.67,2.14-4.26,1.56-1.63-.61-2.55-2.13-2.26-3.92,.12-.73,.42-1.44,.7-2.13,5.86-14.68,11.73-29.36,17.59-44.04,.28-.69,.53-1.39,.89-2.34h-2.42c-12.13,0-24.27-.04-36.4,.04-2.09,.01-3.73-.5-4.98-2.15v-2.88c1.22-1.72,2.87-2.22,4.95-2.17,4.71,.12,9.43,.04,14.15,.03,.48,0,.96-.09,1.79-.18-.67-.46-1-.69-1.33-.92-8.92-6.3-14.93-14.69-17.92-25.19-.69-2.41-1.1-4.9-1.64-7.36,0-3.15,0-6.31,0-9.46,.11-.46,.27-.91,.34-1.38,1.79-12.53,7.7-22.66,17.71-30.4,1.13-.87,2.31-1.67,3.55-2.56-.79-1.32-1.52-2.55-2.26-3.78q-1.19-1.98-3.13-.89c-2.11,1.18-4.09,.8-5.19-1.01-1.08-1.77-.53-3.79,1.47-5.11,7.84-5.18,16.42-8.39,25.75-9.52,1.52-.18,2.08-.74,2.41-2.11,2.35-9.63,4.73-19.26,7.17-28.86,.33-1.3,.25-2.03-.99-2.85-3.41-2.26-5.03-5.57-4.66-9.66,.38-4.25,2.66-7.23,6.58-8.93,.49-.21,.96-.47,1.43-.7,26.19,0,52.37,0,78.56,0Zm-25.11,98.35c1.31,5.49,1.86,10.85,1.72,16.27-.03,1.17,.76,1.11,1.52,1.11,10.89,0,21.79,0,32.68,.02,1.07,0,1.59-.37,1.86-1.42,2.34-9.1,7.51-16.17,15.43-21.22,.8-.51,1.08-1.06,1.07-1.98-.05-3.63-.02-7.26-.02-10.89q0-2.85-2.75-2.92c-.41-.01-.83,0-1.23-.08-1.92-.38-3.14-1.95-3.01-3.82,.13-1.8,1.42-3.06,3.37-3.23,.68-.06,1.37-.04,2.05-.04,13.63,0,27.27,0,40.9,0,.62,0,1.25,.06,1.84-.06,.31-.06,.78-.44,.8-.71,.21-2.91,.25-5.8-2.28-7.93-1.61-1.36-3.49-1.75-5.54-1.75-20.96,.02-41.93,0-62.89,.02-3.09,0-2.75-.41-2.76,2.7-.02,9.52,.02,19.05-.02,28.57-.02,4.43-2.95,7.29-7.37,7.35-1.37,.02-2.74,0-4.11,0-3.69,0-7.38,0-11.27,0Zm15.62-42.13c0-11.1-.02-22.19,.03-33.29,0-1.41-.35-1.87-1.82-1.86-10.41,.06-20.82,.07-31.23,0-1.59-.01-1.93,.48-1.92,1.98,.05,14.11,.04,28.22,.01,42.33,0,1.04,.26,1.79,1.05,2.5,6.86,6.11,12.04,13.43,15.47,21.96,.42,1.05,.98,1.44,2.13,1.42,4.72-.06,9.45-.02,14.18-.03,2.1,0,2.11-.01,2.11-2.12,0-10.96,0-21.92,0-32.88Zm-112.18,55.97c-.05,21.24,17.27,38.64,38.49,38.69,21.21,.05,38.61-17.31,38.63-38.55,.01-21.22-17.37-38.6-38.59-38.58-21.16,.02-38.48,17.3-38.52,38.43Zm168.33-17.32c-15.49,.05-27.9,12.53-27.88,28.02,.02,15.46,12.53,27.99,27.95,27.99,15.44,0,28.11-12.72,28.05-28.17-.07-15.42-12.67-27.89-28.11-27.84Zm-127.79-42.26c10.61,.53,20.34,3.4,29.27,8.84,.17-.38,.27-.5,.27-.62,.01-12.75,0-25.5,.05-38.25,0-1.42-.71-1.5-1.8-1.5-6.1,.03-12.2,.05-18.3-.01-1.28-.01-1.76,.4-2.06,1.65-1.55,6.52-3.22,13.02-4.84,19.53-.84,3.37-1.68,6.75-2.58,10.36Zm-23.09,11.67c.9,1.53,1.76,2.78,2.4,4.12,.72,1.49,1.58,1.61,3.08,1.05,7.32-2.77,14.91-3.59,22.62-2.28,21.04,3.58,35.98,19.43,38.43,40.59,.17,1.47-.08,3.52,.76,4.23,.9,.75,2.87,.25,4.37,.26,2.05,0,2.08,0,1.98-1.97-.4-8.34-2.5-16.22-6.6-23.5-11.1-19.72-32.88-30.07-55.11-26.2-4.04,.7-7.97,1.82-11.94,3.71Zm64.93-50.32c11.24,0,22.48,0,33.72,0,1.1,0,2.2,.05,3.29-.03,1.89-.13,3.25-1.52,3.31-3.3,.06-1.76-1.23-3.24-3.11-3.51-.61-.09-1.23-.05-1.85-.05-23.58,0-47.16,0-70.74,0-.62,0-1.24-.03-1.85,.06-1.97,.33-3.12,1.85-2.92,3.81,.2,1.99,1.58,3.01,4.15,3.01,12,0,23.99,0,35.99,0Zm23,109.01c-1.92,0-3.83,.03-5.75-.01-.9-.02-1.4,.19-1.37,1.25,.07,1.85-.04,3.7,.04,5.54,.09,2.15,1.37,3.44,3.5,3.5,2.33,.06,4.66,.07,6.98,0,2.03-.06,3.29-1.34,3.37-3.38,.08-1.84-.03-3.7,.04-5.54,.05-1.14-.48-1.38-1.48-1.36-1.78,.05-3.56,.01-5.34,.01Zm87.49-25.69c0-.87,0-1.53,0-2.18,0-4.25,.03-8.49-.01-12.74-.02-1.61-.19-3.23-.29-4.84-1.7-.06-3.4-.09-5.09-.2-1.05-.07-1.48,.3-1.47,1.39,.04,4.24,0,8.49,.04,12.74,0,.43,.18,1.02,.49,1.25,2,1.51,4.05,2.94,6.34,4.58Zm-34.93-8.14c2.11-.42,3.91-.85,5.73-1.11,.87-.13,1.17-.44,1.16-1.29-.03-2.74-.03-5.48,0-8.22,.01-.9-.34-1.21-1.21-1.19-1.51,.04-3.01,.04-4.52,0-.9-.02-1.18,.37-1.17,1.23,.03,3.49,.01,6.98,.01,10.58Zm20.89-.03c0-3.66-.02-7.14,.01-10.62,0-.91-.4-1.18-1.24-1.16-1.5,.03-3.01,.02-4.51,0-.75,0-1.14,.25-1.13,1.07,.02,2.8-.03,5.6,.05,8.4,.01,.4,.58,1.04,.99,1.14,1.85,.46,3.73,.76,5.83,1.17Z"/><path class="cls-1" d="M213.7,136.97c.75,.03,1.51,0,2.25,.11,1.68,.23,2.88,1.5,3.05,3.13,.16,1.58-.78,3.34-2.4,3.61-1.85,.31-3.81,.32-5.67,.06-1.72-.25-2.76-2.07-2.56-3.7,.21-1.71,1.48-2.95,3.28-3.13,.68-.07,1.37-.01,2.05-.01,0-.02,0-.05,0-.07Z"/><path class="cls-1" d="M170.35,133.57c-1.92-.02-3.01-.62-3.67-1.89-.69-1.34-.59-2.66,.35-3.84,.37-.47,.89-.85,1.37-1.22,4.09-3.09,8.18-6.18,12.3-9.23,.7-.52,1.48-1.02,2.3-1.28,1.45-.46,2.69,.05,3.64,1.22,.93,1.15,1.03,2.79,.2,4.02-.34,.5-.79,.95-1.27,1.32-4.42,3.34-8.84,6.67-13.3,9.95-.68,.5-1.55,.76-1.93,.95Z"/><path class="cls-1" d="M187.43,99.04c-.32,.48-.73,1.66-1.56,2.31-4.53,3.53-9.14,6.96-13.77,10.36-1.85,1.36-3.86,1.05-5.1-.57-1.26-1.64-.92-3.8,.94-5.21,4.47-3.39,8.97-6.74,13.45-10.1,1.24-.93,2.57-1.31,4.02-.57,1.24,.64,1.93,1.7,2.02,3.79Z"/><path class="cls-1" d="M120.73,210.84c-17.43,.02-31.69-14.17-31.73-31.57-.03-17.52,14.23-31.83,31.71-31.8,17.37,.02,31.65,14.32,31.65,31.69,0,17.4-14.24,31.65-31.64,31.67Zm24.44-32.11c-.48-13.68-11.66-24.5-24.88-24.06-13.75,.46-24.52,11.63-24.13,25.04,.4,13.51,11.73,24.38,25,23.98,13.54-.41,24.47-11.77,24.01-24.96Z"/><path class="cls-1" d="M250.58,210.83c-11.64,.01-21.26-9.61-21.19-21.2,.07-11.58,9.57-21.07,21.12-21.1,11.62-.03,21.2,9.58,21.18,21.23-.03,11.56-9.54,21.06-21.1,21.07Zm-.07-35.05c-7.81,.01-13.91,6.17-13.87,13.99,.04,7.66,6.19,13.85,13.83,13.91,7.62,.06,14.04-6.32,14.05-13.97,.01-7.71-6.25-13.94-14.02-13.93Z"/><path class="cls-1" d="M141.29,98.41c1.98,.03,3,.76,3.64,2.01,.65,1.28,.56,2.64-.4,3.65-2.49,2.64-5.03,5.23-7.69,7.7-1.36,1.27-3.38,1.02-4.66-.23-1.34-1.32-1.54-3.4-.2-4.82,2.39-2.55,4.88-5,7.42-7.39,.59-.56,1.54-.75,1.89-.91Z"/><path class="cls-1" d="M131.29,179.12c.03,5.77-4.8,10.65-10.58,10.68-5.76,.03-10.64-4.8-10.67-10.59-.04-5.76,4.78-10.62,10.58-10.67,5.76-.05,10.64,4.78,10.67,10.58Zm-7.27,.09c.02-1.96-1.36-3.38-3.31-3.4-1.94-.02-3.39,1.38-3.41,3.31-.02,1.93,1.39,3.39,3.32,3.41,1.94,.02,3.38-1.38,3.4-3.32Z"/><path class="cls-1" d="M254.06,189.75c-.03,2-1.54,3.47-3.54,3.46-1.95,0-3.53-1.56-3.55-3.49-.02-1.97,1.72-3.67,3.69-3.6,1.94,.07,3.44,1.67,3.4,3.64Z"/></svg>