<?xml version="1.0" encoding="UTF-8"?><svg id="Capa_1" xmlns="http://www.w3.org/2000/svg" viewBox="0 0 350 350"><defs><style>.cls-1{fill:red;}</style></defs><path class="cls-1" d="M214.42,48.51c.83,1.32,1.75,2.6,2.46,3.99,.56,1.09,.86,2.31,1.32,3.46,1.38,3.51,3.84,5.96,7.35,7.34,1.56,.61,3.14,1.15,4.69,1.78,1.92,.78,2.71,1.87,2.68,3.56-.03,1.77-1.03,2.81-2.58,3.42-1.56,.61-3.13,1.18-4.69,1.77-3.62,1.36-6.09,3.89-7.5,7.46-.64,1.62-1.24,3.26-1.85,4.9-.57,1.53-1.71,2.34-3.3,2.45-1.51,.1-2.78-.81-3.48-2.5-.64-1.55-1.18-3.13-1.77-4.69-1.4-3.67-3.9-6.26-7.6-7.66-1.5-.56-3-1.11-4.49-1.69-1.61-.62-2.74-1.64-2.77-3.52-.02-1.7,.77-2.76,2.71-3.53,1.55-.62,3.13-1.17,4.69-1.79,3.5-1.39,5.95-3.85,7.35-7.34,.54-1.35,1.07-2.71,1.52-4.09,.47-1.46,1.29-2.59,2.64-3.32,.88,0,1.75,0,2.63,0Zm-1.37,14.85c-1.59,1.51-3.87,3.69-6.03,5.74,1.57,1.59,3.8,3.84,5.89,5.95,2.08-2.1,4.35-4.38,5.9-5.94-2.12-2.12-4.32-4.31-5.76-5.75Z"/><path class="cls-1" d="M91.11,139.97c2.4-5.67,4.84-10.96,6.92-16.39,4.72-12.33,13.62-18.75,26.68-20.44,23.14-3,46.33-4.08,69.62-2.91,12.01,.6,24.02,1.57,35.84,3.82,9.44,1.8,16.23,7.35,20.25,16.06,2.62,5.68,4.94,11.51,7.4,17.27,.33,.78,.7,1.54,1.04,2.28,.22-.05,.34-.04,.35-.08,2.32-4.81,6.16-5.95,11.11-4.8,2.69,.63,5.43,1.09,8.17,1.44,5.69,.72,8.84,4.69,8.05,11.31-.45,3.77-2.76,6.36-6.51,7.35-1.76,.46-3.54,.84-5.32,1.24-1.69,.39-3.38,.76-5.39,1.21,.67,1.1,1.2,2.02,1.78,2.9,2.86,4.31,5.74,8.6,7.36,13.6,1.31,4.06,2.09,8.18,2.09,12.45,.01,13.35,.06,26.7,0,40.04-.07,13.61-8.33,22.84-21.84,24.5-1.95,.24-3.92,.37-5.88,.37-51.86,.02-103.72,.01-155.58,.02-4.41,0-8.73-.47-12.85-2.12-9.47-3.8-14.51-11.03-14.76-21.02-.37-14.58-.22-29.18-.03-43.76,.08-6.36,2.08-12.33,5.35-17.81,1.46-2.44,3.07-4.78,4.6-7.18,.38-.59,.71-1.22,1.17-2.01-3.53-.82-6.84-1.58-10.16-2.35-5.11-1.19-7.31-4.33-7.13-10.16,.14-4.59,2.85-7.58,7.6-8.42,3.37-.59,6.74-1.2,10.12-1.76,4.55-.76,7.12,.49,9.38,4.52,.1,.18,.24,.34,.59,.84Zm5.8,4.73h3.25c47.78,0,95.55,0,143.33,0,.8,0,1.61-.03,2.41,.03,1.93,.15,3.32,1.55,3.4,3.36,.08,1.77-1.24,3.39-3.09,3.68-.79,.12-1.6,.07-2.4,.07-33.7,0-67.4,0-101.1,0-15.9,0-31.8,.02-47.7-.03-1.49,0-2.35,.46-3.14,1.71-3.09,4.86-6.26,9.67-9.46,14.46-3.43,5.16-5.61,10.81-5.69,16.98-.17,14.15-.21,28.3-.01,42.45,.12,8.42,5,14.08,13.26,15.89,2.54,.56,5.2,.75,7.81,.75,51.5,.04,102.99,.03,154.49,.03,1.02,0,2.04,0,3.06-.05,11.52-.62,18-7.02,18.08-17.93,.03-3.97,.61-3.46-3.46-3.46-60.69-.01-121.37,0-182.06-.02-1.09,0-2.2,0-3.26-.21-1.68-.34-2.81-1.87-2.78-3.47,.03-1.61,1.21-3.06,2.9-3.36,1.07-.19,2.18-.18,3.27-.18,58.21,0,116.41,0,174.62,0,2.92,0,5.84-.09,8.75,.03,1.66,.07,2.09-.5,2.07-2.12-.08-8.53-.07-17.07-.03-25.6,.04-7.28-1.9-13.93-5.98-19.99-3.91-5.81-7.71-11.68-11.51-17.56-.86-1.34-1.62-2.77-2.25-4.23-3.23-7.49-6.31-15.04-9.62-22.5-3.2-7.22-8.86-11.46-16.64-12.66-16.96-2.62-34.05-3.8-51.21-3.83-17.52-.03-34.95,1.14-52.31,3.64-9.1,1.32-15.24,5.97-18.68,14.42-2.23,5.46-4.59,10.87-6.89,16.3-.42,.99-.84,1.98-1.44,3.4Zm182.5,.98c.18-1.42-.38-2.14-1.85-2.35-3.3-.48-6.58-1.15-9.89-1.62-.54-.08-1.45,.29-1.69,.73-.9,1.66-1.67,3.39-2.32,5.16-.58,1.57,1.06,3.35,2.67,2.99,3.76-.82,7.51-1.71,11.27-2.49,1.41-.29,2.03-1,1.81-2.41Zm-196.21-4.17c-3.75,.64-7.11,1.26-10.48,1.78-1.43,.22-2.17,.73-2.17,2.35,0,1.58,.67,2.2,2.08,2.5,3.48,.74,6.94,1.57,10.43,2.3,.82,.17,1.76,.94,2.53-.26,.69-1.07,1.31-2.01,.54-3.37-.75-1.32-1.21-2.8-1.9-4.16-.25-.5-.76-.86-1.02-1.14Z"/><path class="cls-1" d="M270.19,84.61c-1.53-.03-2.67-.7-3.29-2.11-.47-1.07-.91-2.15-1.27-3.26-1.02-3.15-3.12-5.18-6.25-6.21-1.1-.37-2.2-.79-3.25-1.27-1.4-.64-2.05-1.79-2.02-3.33,.03-1.47,.78-2.5,2.06-3.09,1.12-.52,2.29-.93,3.46-1.34,2.95-1.03,4.93-3,5.94-5.96,.35-1.03,.76-2.05,1.16-3.06,.62-1.59,1.77-2.53,3.48-2.5,1.61,.03,2.72,.93,3.31,2.43,.46,1.15,.89,2.31,1.32,3.47,.99,2.69,2.82,4.54,5.54,5.5,1.17,.41,2.33,.85,3.47,1.33,1.47,.62,2.36,1.73,2.35,3.37,0,1.63-.88,2.74-2.37,3.34-1.21,.5-2.44,.95-3.67,1.41-2.54,.95-4.27,2.72-5.25,5.23-.48,1.22-.9,2.46-1.39,3.68-.6,1.49-1.7,2.32-3.34,2.39Zm-.2-12.94c1.17-1.03,2.42-2.12,3.45-3.02-1.16-1.13-2.33-2.28-3.35-3.27-.98,1.01-2.11,2.18-3.09,3.19,.96,.99,2.06,2.13,3,3.1Z"/><path class="cls-1" d="M264.36,90.16c-.05,1.65-.83,2.8-2.29,3.44-1.13,.49-2.3,.92-3.46,1.33-2.8,.98-4.68,2.86-5.66,5.65-.39,1.1-.82,2.18-1.25,3.26-.62,1.57-1.73,2.51-3.48,2.49-1.65-.02-2.72-.91-3.31-2.4-.46-1.15-.88-2.31-1.32-3.47-1.01-2.68-2.85-4.52-5.54-5.52-1.16-.43-2.32-.86-3.47-1.33-1.48-.61-2.34-1.7-2.33-3.36,0-1.64,.83-2.75,2.34-3.35,1.15-.46,2.31-.88,3.47-1.31,2.69-1,4.53-2.85,5.54-5.52,.39-1.02,.75-2.05,1.13-3.08,.61-1.63,1.62-2.75,3.5-2.78,1.68-.02,2.75,.77,3.55,2.7,.42,1.01,.81,2.03,1.17,3.06,.99,2.8,2.89,4.66,5.67,5.66,1.16,.42,2.32,.86,3.46,1.34,1.4,.59,2.14,1.69,2.28,3.18Zm-12.82,.12c-1.08-1.09-2.24-2.25-3.24-3.26-1.11,1.03-2.32,2.16-3.1,2.89,1.1,1.23,2.23,2.48,3.07,3.41,1.04-.97,2.2-2.05,3.27-3.04Z"/><path class="cls-1" d="M262.91,272.66c-2.84,0-5.69,.02-8.53,0-5.01-.04-8.46-3.2-8.78-8.13-.12-1.96-.1-3.94,0-5.9,.11-2.35,1.64-3.86,3.67-3.82,1.96,.04,3.35,1.47,3.49,3.75,.1,1.6,.01,3.21,.06,4.81,.05,1.93,.26,2.16,2.16,2.17,5.4,.02,10.79,.02,16.19,0,1.8,0,2.11-.32,2.13-2.22,.04-3.94,0-7.87,.02-11.81,0-.73-.01-1.46,.09-2.18,.23-1.64,1.44-2.81,3-3,1.69-.21,3.21,.68,3.77,2.32,.23,.67,.31,1.42,.31,2.14,.03,4.3,.04,8.6,0,12.91-.05,5.56-3.48,8.96-9.05,8.99-2.84,.01-5.69,0-8.53,0Z"/><path class="cls-1" d="M86.77,272.66c-2.99,0-5.98,.03-8.97,0-4.81-.07-8.29-3.44-8.38-8.24-.08-4.66-.05-9.33-.01-14,.02-2.61,1.33-4.1,3.49-4.12,2.23-.02,3.62,1.55,3.64,4.26,.04,4.16,0,8.31,.01,12.47,0,2.37,.14,2.51,2.45,2.52,5.18,.01,10.35,.01,15.53,0,2.28,0,2.49-.23,2.51-2.5,.01-1.46-.03-2.92,.01-4.37,.06-2.31,1.55-3.89,3.58-3.87,1.95,.02,3.44,1.54,3.51,3.72,.06,2.11,.09,4.23-.01,6.34-.21,4.27-3.67,7.66-7.97,7.78-3.13,.09-6.27,.02-9.41,.02,0,0,0,0,0,0Z"/><path class="cls-1" d="M174.9,205.41c-9.78-.55-19.6-1.11-29.42-1.67-2.04-.11-4.07-.22-6.11-.31-2.01-.08-3.4-.95-4.27-2.83-2.81-6.08-5.73-12.11-8.55-18.18-1.59-3.42,.03-5.93,3.76-5.7,6.83,.42,13.66,.99,20.49,1.52,14.19,1.11,28.37,1.61,42.58,.39,8.35-.72,16.71-1.26,25.06-1.87,.65-.05,1.31-.08,1.97-.07,2.93,.06,4.6,2.4,3.37,5.1-2.94,6.5-6.03,12.93-9.09,19.38-.78,1.65-2.25,2.16-3.95,2.26-7.78,.44-15.57,.9-23.35,1.34-4.15,.23-8.3,.42-12.49,.64Zm-39.63-21.3c1.82,3.89,3.46,7.28,4.99,10.72,.51,1.14,1.14,1.59,2.44,1.62,3.79,.1,7.57,.43,11.36,.61,7.94,.38,15.88,1.12,23.81,.98,10.05-.17,20.09-1.05,30.13-1.67,.48-.03,1.18-.36,1.38-.75,1.8-3.65,3.5-7.33,5.48-11.52-26.66,3.11-52.9,3.07-79.57,0Z"/><path class="cls-1" d="M254.71,172.9c7.24-.3,10.31,2.46,10.86,8.5,.21,2.28,.04,4.69-.49,6.92-1.01,4.25-3.79,7.06-8.16,7.81-5.59,.96-11.22,1.7-16.83,2.5-4.61,.66-9.23,1.22-13.84,1.9-1.64,.24-3.06,.02-4.08-1.38-1.04-1.42-.8-2.85,.03-4.29,2.69-4.66,5.4-9.31,8.04-14,2.34-4.16,5.56-6.59,10.59-6.76,5.23-.17,10.44-.89,13.89-1.2Zm-22.99,19.07c.14,.18,.29,.36,.43,.54,7.84-1.14,15.68-2.23,23.5-3.47,.84-.13,2.05-1.06,2.21-1.8,.42-1.94,.44-3.99,.41-5.99,0-.41-.94-1.19-1.4-1.16-5.73,.4-11.46,.91-17.19,1.45-.58,.05-1.34,.37-1.64,.82-2.16,3.17-4.23,6.4-6.33,9.61Z"/><path class="cls-1" d="M96.22,172.87c5.07,.55,10.13,1.24,15.22,1.59,2.92,.2,5,1.47,6.49,3.81,2.59,4.05,5.09,8.16,7.58,12.27,.83,1.37,1.51,2.83,2.29,4.23,.8,1.43,1.12,2.86,.12,4.32-1,1.44-2.41,1.69-4.06,1.45-7-1.01-14-1.97-21-2.95-2.6-.36-5.19-.78-7.79-1.08-5.92-.69-9.27-3.65-10.44-9.46-.63-3.13-.47-6.25,.68-9.26,1.32-3.46,3.7-5.04,7.39-4.97,1.17,.02,2.33,.12,3.49,.18,0-.04,.01-.08,.02-.12Zm21.63,19.6c.16-.15,.31-.29,.47-.44-1.92-2.98-3.85-5.95-5.74-8.95-.62-.99-1.36-1.56-2.61-1.65-5.01-.35-10.01-.82-15.02-1.21-3.23-.25-3.5,.03-3.49,3.34,0,.51,0,1.02,.06,1.53,.37,2.92,1.39,3.9,4.3,4.29,2.74,.36,5.48,.76,8.22,1.15,4.6,.64,9.21,1.29,13.81,1.93Z"/></svg>