<?xml version="1.0" encoding="UTF-8"?><svg id="Capa_1" xmlns="http://www.w3.org/2000/svg" viewBox="0 0 350 350"><defs><style>.cls-1{fill:red;}</style></defs><path class="cls-1" d="M284.84,174.68c2.39-4.64,3.62-9.41,3.65-14.18,.03-5.76,.03-11.52,.02-17.28v-7.82s0,0,0,0c0-2.44,0-4.89,.01-7.33,.01-5.87,.03-11.94-.03-17.9-.04-3.73-1.78-7.03-4.78-9.06-2.95-1.99-6.59-2.37-9.98-1.04-2.47,.97-4.47,.86-6.47-.36-.67-.41-1.41-.75-2.13-1.07l-.47-.21c-5.61-2.59-11.1-2.68-16.3-.26-4.56,2.11-9.06,2.09-13.77-.08-4.79-2.2-9.85-2.23-15.07-.1-1.42,.58-2.86,1.17-4.34,1.54-2.79,.71-5.7,.31-9.16-1.24-5.36-2.41-10.79-2.45-16.13-.11-2.18,.95-3.05,2.59-2.33,4.38,.73,1.8,2.52,2.42,4.68,1.61,.14-.05,.27-.1,.41-.16,3.63-1.52,7.18-1.49,10.56,.1,6.2,2.92,12.23,2.92,18.44-.01,3.49-1.64,7.14-1.66,10.56-.05,6.31,2.97,12.41,2.98,18.65,.03,3.49-1.65,7.19-1.6,10.99,.15,.78,.36,1.55,.75,2.32,1.14,.59,.3,1.17,.59,1.77,.88,2.16,1.03,4.37,1.35,6.57,.95,.75-.14,1.48-.4,2.26-.68,.31-.11,.61-.22,.92-.32,1.71-.57,3.3-.44,4.48,.37,1.18,.81,1.87,2.26,1.94,4.07,.03,.77,.02,1.54,.01,2.31v1.21c0,1.03,0,1.55-.38,1.92-.38,.37-.9,.37-1.96,.35h-.74c-24.73,0-49.47,0-74.21,0h-14.84c-3.06,0-3.29-.21-3.54-3.22-.16-1.92-1.36-3.13-3.14-3.17-.02,0-.05,0-.07,0-1.81,0-3.06,1.27-3.19,3.24-.01,.21-.01,.42,0,.64v.24c0,4.66,0,9.33,0,13.99-.01,10.49-.02,21.34,.03,32.01,.09,17.5,14.39,31.82,31.88,31.92,13.45,.08,29.08,.14,44.4-.06,3.77-.05,7.62-1.01,10.55-1.85,2.47-.7,4.87-2.16,6.98-3.44,.74-.45,1.22-1.09,1.41-1.86,.19-.8,.03-1.66-.45-2.43-.93-1.48-2.64-1.89-4.35-1.07-.29,.14-.56,.31-.83,.47l-.31,.19c-4.42,2.63-9.44,3.83-15.33,3.67-.57-.02-1.21-.09-1.61-.54-.29-.33-.4-.79-.33-1.41,.09-.89,.14-1.79,.19-2.68,.11-1.82,.22-3.7,.64-5.5,2.96-12.46,14.49-20.84,27.41-19.96,1.63,.11,1.79,1.02,1.81,2.02,.12,5-.74,9.42-2.65,13.49-.47,1-.66,2.3-.51,3.39,.16,1.1,1.08,1.87,2.48,2.05,1.51,.2,2.65-.44,3.4-1.88Zm-18.22-45.71c.09-1.25,.13-2.54,.17-3.78,.02-.54,.03-1.08,.05-1.62l.02-.46,.46-.02c.53-.03,1.06-.06,1.59-.09,1.17-.07,2.39-.14,3.59-.16,1.18-.02,2.37-.01,3.55,0,1.32,0,2.64,.01,3.96-.02,.59-.01,1.26,.03,1.7,.5,.32,.34,.46,.85,.4,1.55-.09,1.25-.13,2.53-.17,3.78-.02,.54-.03,1.08-.05,1.62l-.02,.46-1.91,.1c-1.24,.06-2.48,.13-3.72,.19-.43,.02-.85,.01-1.28,0h-.56c-.56,0-1.11,0-1.67-.01-1.32-.01-2.68-.02-4.01,.02-.07,0-.13,0-.2,0-.51,0-1.1-.08-1.5-.49-.33-.34-.46-.85-.41-1.56Zm-10.6-6.14c3.97,0,4.2,.24,4.2,4.19,0,3.75-.22,3.97-3.97,3.97-1.99,0-2.98,0-3.59-.61-.61-.61-.61-1.6-.61-3.59,0-3.75,.22-3.97,3.97-3.97Zm-43.74,0c3.97,0,4.2,.24,4.2,4.19,0,3.75-.22,3.97-3.97,3.97-1.99,0-2.98,0-3.59-.61-.61-.61-.61-1.6-.61-3.59,0-3.75,.22-3.97,3.97-3.97Zm-25.85,1.77c-.02-.59,.11-1.03,.4-1.33,.39-.41,.98-.44,1.48-.45,4.44,.03,8.13,.03,11.61,0,.56,0,1.18,.05,1.59,.47,.31,.32,.44,.78,.41,1.43-.07,1.37-.07,2.85,0,4.51,.02,.6-.11,1.04-.4,1.34-.4,.41-1,.45-1.48,.44-1.4-.03-2.79-.02-4.19-.02h-1.73c-.52,.02-1.13,0-1.69,0-1.31,0-2.66-.02-3.99,.02-.06,0-.11,0-.17,0-.49,0-1.04-.07-1.42-.46-.31-.32-.45-.79-.42-1.44,.07-1.37,.07-2.85,0-4.51Zm30.06,59.38c-.03,.47-.1,1-.5,1.36-.26,.23-.6,.34-1.05,.34-.05,0-.1,0-.16,0-.51-.03-1.03-.02-1.54-.01h-.71c-7.32-.05-14.06-2.95-18.98-8.15-4.97-5.26-7.51-12.39-7.13-20.07,.05-1.05,.37-1.76,1.77-1.83,8.01-.4,15.34,2.32,20.67,7.67,5.34,5.36,8.05,12.71,7.63,20.7Zm63.61-34.72c-.61,.03-1.23,.06-1.85,.09-2.51,.12-5.11,.23-7.55,.78-14.65,3.26-24.95,16.1-25.06,31.24-.03,4.06-.27,4.31-4.31,4.31h-4.36c-3.87-.02-7.87-.03-11.8,.03-.04,0-.08,0-.11,0-.61,0-1.28-.08-1.72-.53-.46-.48-.49-1.21-.46-1.78,.24-4.47-.42-8.84-1.96-12.99-4.74-12.79-16.67-21.1-30.4-21.18-3.84-.02-4.07-.25-4.07-4.1,0-.55,0-1.11,.02-1.66,.02-1.24,.04-2.53-.04-3.77-.05-.85,.08-1.39,.45-1.78,.47-.49,1.2-.55,1.86-.54,3.69,.06,7.45,.05,11.08,.04,1.39,0,2.78,0,4.17,0h5.06c3.1,0,6.19,0,9.29,0,3.62,0,4.56-.92,4.57-4.47v-1.84c.02-2.08,.03-4.24-.02-6.35,0-.43,.03-1.06,.44-1.48,.41-.42,1.01-.46,1.51-.47,6.37,.04,12.72,.04,18.9,0,.47,0,1.09,.05,1.5,.47,.41,.42,.45,1.05,.44,1.48-.04,1.97-.03,3.97-.02,5.91v2.05c.01,3.85,.87,4.68,4.81,4.69h28.93c2.48,0,2.71,.23,2.72,2.71,0,.78,0,1.56,0,2.35,0,1.54-.02,3.14,.03,4.7,.05,1.64-.77,2.02-2.02,2.09Z"/><path class="cls-1" d="M254.7,217.71c-6.19-3.91-13.85-3.64-20,.7-5.94,4.19-11.85,4.67-17.56,1.42l-.25-.15c-.88-.5-1.78-1.02-2.71-1.32-4.28-1.4-6.42-4.14-6.96-8.9-.29-2.55-1.59-4.8-3.66-6.36-2.35-1.76-5.46-2.47-8.54-1.94-5.49,.95-9.23,6.37-8.34,12.1,.06,.4,.09,.81,.11,1.26,.01,.22,.02,.44,.04,.69l.05,.68-1.58-.35c-.6-.13-1.13-.25-1.67-.39-6.8-1.71-12.94-2.05-18.77-1.04-12.68,2.19-21.25,9.27-25.46,21.05-4.17,11.65-2.06,22.57,6.27,32.45,.86,1.02,1.74,2.02,2.64,3.05l1.96,2.24-1.01,.06c-.3,.02-.61,.04-.95,.07-.78,.06-1.67,.13-2.56,.13-11.47,.02-22.93,.02-34.4,0-11.75-.02-19.66-7.92-19.68-19.67-.01-5.67,0-11.34,0-17.01v-10.12c.01-.53,.02-1.02-.05-1.5-.24-1.59-1.53-2.71-3.13-2.72h-.02c-1.6,0-2.89,1.1-3.14,2.68-.07,.43-.06,.87-.06,1.35v.39s0,3.91,0,3.91c0,7.81,0,15.62,0,23.43,0,1.32,0,2.58,.2,3.78,2.14,13.28,12.25,21.87,25.75,21.89,4.7,0,9.4,0,14.1,0,2.56,0,5.12,0,7.68,0,4.36,0,8.72,0,13.08,.02h.11c3.7,0,7.29-.74,10.98-2.27,1.09-.45,2.39-.56,3.32-.28,6.11,1.84,12.2,1.88,18.12,.14,3.18-.94,6.28-2.29,9.44-3.71,.99-.44,1.67-1.12,1.97-1.95,.28-.77,.22-1.62-.18-2.46-.82-1.72-2.57-2.24-4.58-1.37-.41,.18-.82,.38-1.22,.58-.27,.13-.54,.27-.81,.4-5.98,2.81-11.57,3.81-17.07,3.05-11.21-1.54-20.25-10.52-21.99-21.83-1.77-11.51,4.36-22.75,14.9-27.35,10.27-4.48,20.43-2.14,28.12,.4,.57,.19,1.27,.77,1.39,1.38,.33,1.59,.59,3.19,.86,4.88l.43,2.61-1.47-.43c-.41-.12-.74-.21-1.06-.33-6.4-2.34-12.95-3.21-19.46-2.61-4.56,.42-8.93,2.79-11.97,6.49-2.96,3.6-4.35,7.96-3.91,12.28,.52,5.19,2.94,9.77,6.8,12.88,3.55,2.86,7.99,4.16,12.51,3.65,4.95-.56,9.88-2.52,15.51-6.15,1.36-.88,2.66-1.86,4.04-2.91,.65-.5,1.33-1.01,2.03-1.53l.63-.46,.35,1.68c.12,.57,.23,1.07,.32,1.57,.3,1.65,.58,3.3,.87,4.95,.59,3.37,1.19,6.86,1.86,10.27,1,5.09,5.38,8.55,10.64,8.41,5.1-.13,9.36-3.96,9.9-8.91,.22-1.99-.11-4.1-.43-6.15l-.17-1.14c-.19-1.28,.09-2.16,.95-3.04,1.77-1.81,3.77-3.86,5.59-5.95,4.07-4.69,9.35-6.18,16.61-4.69,3.33,.69,6.07,.86,8.36,.52,7.24-1.06,12.89-6.69,14.38-14.35,1.33-6.84-1.97-14.3-8.04-18.13Zm-65.7,29.93c-4.48,4.46-9.92,7.61-16.16,9.36-.38,.11-.79,.18-1.19,.23-.45,.05-.91,.08-1.26,.1l-.35,.02h-.02c-6.19,0-11.11-4.48-11.46-10.41-.37-6.29,3.9-11.48,9.93-12.07,6.64-.65,12.98,.43,18.83,3.21,2.73,1.3,4.13,2.63,4.4,4.2,.27,1.55-.59,3.26-2.71,5.37Zm18.74,25.46c-.2,.03-.4,.04-.6,.04-1.89,0-3.48-1.36-3.88-3.42-.81-4.17-1.56-8.43-2.29-12.54l-.39-2.22c-2.04-11.55-4.07-23.1-6.1-34.65l-1.06-5.98c-.13-.7-.26-1.43-.32-2.16-.2-2.29,1.15-4.16,3.29-4.54,2.17-.39,4.14,.99,4.6,3.22,.55,2.61,1.01,5.28,1.46,7.86l.35,1.99c2.69,15.21,5.37,30.42,8.04,45.64,.1,.59,.18,1.19,.25,1.69l.07,.6c0,2.44-1.31,4.15-3.42,4.47Zm48.61-38.13c-.68,3.18-2.62,5.94-5.32,7.57-2.58,1.56-5.6,1.97-8.5,1.16-3.55-.99-6.87-1.29-10.13-.92-6.1,.7-10.86,3.33-14.56,8.05-.32,.41-.65,.81-.99,1.21l-.68,.82-1.25-.44-5.11-29.02,2.51,1.25c1.02,.5,1.92,.95,2.81,1.41,7.38,3.8,14.8,3.15,22.69-1.98,2.43-1.58,5.44-3.11,9.3-2.46,3.02,.51,5.76,2.28,7.5,4.84,1.73,2.55,2.33,5.57,1.71,8.5Z"/><path class="cls-1" d="M85.3,194.98c-.02,4.65-.04,9.3-.04,13.95v.59c-.02,.57-.02,1.1,.04,1.62,.2,1.6,1.46,2.75,3.06,2.81,1.66,.05,3.03-1.13,3.27-2.8,.06-.42,.05-.85,.04-1.31v-.44s0-23.96,0-23.96l.55,.06c.43,.05,.85,.08,1.24,.12,.81,.07,1.58,.14,2.34,.28,11.18,2.04,22.44,1.27,33.45-2.3,10.84-3.51,22.03-3.7,33.26-.55l.76,.21c1.97,.53,2.22,.67,2.19,2.46,0,.3-.01,.66,0,1.09,.01,.83,.01,1.66,0,2.49v1.16c0,1.19,0,2.38-.02,3.56-.02,2.71-.03,5.52,.05,8.27,.04,1.29,.68,2.38,1.73,2.92,1,.52,2.19,.44,3.18-.21,1.23-.81,1.49-2.01,1.48-3.55,0-5.4,0-10.79,0-16.19,0-8.43,.01-17.15-.03-25.73-.04-7.32-2.93-13.61-8.58-18.69-.3-.27-.6-.55-.91-.83l-.76-.7,.31-.37c.09-.1,.16-.19,.22-.27,.14-.17,.25-.3,.37-.41,5.16-4.45,6.93-10.1,4.98-15.92-1.94-5.81-7.75-9.86-13.83-9.63-.92,.05-2.02-.67-2.59-1.36-.74-.89-1.43-1.84-2.09-2.76-.78-1.08-1.59-2.19-2.47-3.19-3.11-3.51-4.36-7.45-3.73-11.72,.34-2.28,1.02-4.64,1.98-6.81,2.05-4.65,2.11-9.76,.15-14.39-1.92-4.53-5.52-7.97-10.14-9.68-2.01-.74-4.09-1.11-6.16-1.11-2.74,0-5.46,.64-8,1.92-4.47,2.25-7.71,6.13-9.11,10.93-1.25,4.29-.81,8.65,1.34,13.34,2.83,6.16,2.32,11.74-1.51,16.56-1.55,1.96-3.12,3.93-4.46,5.98-1.09,1.66-2.39,2.36-4.48,2.39-4.06,.07-7.87,2.01-10.45,5.31-2.65,3.38-3.63,7.67-2.7,11.76,.79,3.48,2.76,6.39,6.01,8.88l.5,.38-.48,.4c-7.14,5.95-10.24,13.07-10.06,23.11,.19,10.77,.15,21.71,.11,32.3Zm29.67-84.62c.64-.87,1.23-1.67,1.82-2.46,4.92-6.55,5.59-13.92,2.02-22.52-1.08-2.61-2.07-5.43-1.22-8.66,.8-3.07,2.77-5.61,5.54-7.13,2.76-1.52,5.95-1.83,8.97-.87,2.94,.93,5.31,3,6.66,5.81,1.35,2.8,1.48,6.08,.36,8.98-.24,.61-.53,1.2-.82,1.78-.43,.86-.84,1.68-1.05,2.54-2.11,8.61-1.16,14.81,3.09,20.08,.64,.79,1.25,1.63,1.89,2.51,.32,.44,.65,.9,1.01,1.39l.59,.8h-30.51l1.65-2.23Zm-18.78,13.04c1.22-2.35,3.56-3.91,6.25-4.17,.59-.06,1.19-.05,1.76-.04h.56s47.93,0,47.93,0c.27,0,.53,0,.8,0,4.77,.06,8.27,3.28,8.31,7.65,.02,2.04-.73,3.94-2.11,5.35-1.55,1.57-3.79,2.44-6.29,2.45-3.43,.01-6.86,.01-10.29,.01-2.42,0-4.84,0-7.26,0h-13.8c-6.17,0-12.34,0-18.51,0h0c-3.28,0-5.7-1.36-7.22-4.05-1.28-2.27-1.32-4.89-.12-7.19Zm-4.56,51.47c.03-.43,.06-.86,.06-1.25-.02-4.27-.04-8.84,0-13.44,.09-11.02,8.1-19.06,19.05-19.11,12.37-.06,24.4-.06,35.74,0,10.7,.06,18.85,8.21,18.97,18.96,.04,3.71,.03,7.48,.02,11.13,0,1.67,0,3.34,0,5v.58l-.58-.09c-1.38-.21-2.74-.44-4.08-.66-2.97-.49-5.77-.95-8.64-1.29-8.05-.93-16.51,.01-25.14,2.81-6.17,2-12.5,3.01-18.9,3.01-3.79,0-7.6-.35-11.43-1.05-.41-.08-.87-.11-1.36-.15-1.24-.1-2.53-.21-3.19-1-.69-.82-.6-2.16-.51-3.45Z"/><path class="cls-1" d="M120.82,196.17c0-1.92-1.38-3.17-3.51-3.19-4.28-.04-8.8-.04-13.83,0-2.21,.02-3.56,1.17-3.62,3.09-.03,.89,.24,1.66,.79,2.23,.64,.68,1.62,1.04,2.83,1.07,1.58,.03,3.15,.02,4.73,.01h2.07s.06,0,.09,0c.7,0,1.4,0,2.1,0,1.61,0,3.22,.02,4.83-.02,2.14-.05,3.52-1.3,3.52-3.19Z"/><path class="cls-1" d="M120.82,210.71c-.02-1.93-1.39-3.13-3.58-3.15-4.94-.04-9.48-.04-13.89,0-1.11,.01-2.03,.36-2.66,1-.56,.57-.84,1.34-.83,2.23,.02,1.91,1.39,3.12,3.58,3.16,1.59,.03,3.19,.02,4.78,.02h2.05s.03,0,.04,0c.71,0,1.42,0,2.13,0,1.6,0,3.26,.02,4.88-.02,2.15-.05,3.52-1.32,3.5-3.23Z"/><path class="cls-1" d="M120.82,225.26c-.04-1.89-1.42-3.08-3.59-3.12-1.55-.03-3.11-.02-4.67-.02-.71,0-1.43,.01-2.13,0h-6.58s-.21,0-.21,0c-2.38,.05-3.76,1.21-3.78,3.17,0,.88,.28,1.65,.82,2.2,.65,.66,1.65,1.02,2.88,1.03,4.66,.04,9.23,.03,13.6,0,1.21-.01,2.2-.37,2.85-1.04,.55-.57,.83-1.33,.81-2.22Z"/><path class="cls-1" d="M120.82,239.99c.02-.88-.25-1.65-.79-2.21-.65-.68-1.63-1.04-2.85-1.06-1.58-.03-3.17-.02-4.76-.01h-2.04c-.7-.01-1.44,0-2.16,0-.7,0-1.41,0-2.11,0-.92,0-1.83,0-2.74,.03-2.13,.05-3.5,1.3-3.5,3.2,0,1.91,1.39,3.16,3.52,3.18,4.38,.04,8.91,.04,13.83,0,2.18-.02,3.56-1.21,3.61-3.11Z"/><path class="cls-1" d="M120.82,166.97c-.02-1.92-1.39-3.13-3.56-3.15-4.52-.04-9.18-.04-13.83,0-2.17,.02-3.54,1.22-3.57,3.13-.02,.88,.26,1.64,.8,2.2,.65,.67,1.64,1.04,2.87,1.06,1.58,.03,3.17,.02,4.75,.01h2.04s.08,0,.12,0c.7,0,1.39,0,2.09,0,1.58,0,3.21,.02,4.82-.02,2.1-.05,3.49-1.35,3.47-3.23Z"/></svg>