<?xml version="1.0" encoding="UTF-8"?><svg id="Capa_1" xmlns="http://www.w3.org/2000/svg" viewBox="0 0 350 350"><defs><style>.cls-1{fill:red;}</style></defs><path class="cls-1" d="M124.47,89.6c.4,.13,.47,.17,.55,.17,4.84,.36,4.98,.51,4.98,5.32,0,5.91,0,11.83,0,17.74,0,.83,0,1.67,0,2.66,.77,.07,1.35,.16,1.93,.16,2.99,.01,5.99,0,8.99,0,6.65,.03,10.91,4.27,10.96,10.96,.03,3.99,0,7.99,0,11.98,0,13.36,0,26.73,0,40.09v2.8c3.19-.49,6.13-.98,9.08-1.38,2.19-.3,3.59,.58,3.85,2.27,.25,1.65-.92,2.97-3.04,3.34-2.19,.38-4.4,.67-6.59,1.03-5.41,.87-9.34,3.7-11.5,8.8-.95,2.24-.77,2.49,1.63,2.49,15.36,0,30.72,0,46.08,0,5.91,0,11.83,0,17.74,0h2.44c-.71-12.42-8.86-19.86-17.16-27.24-2.14,1.81-4.18,3.67-6.35,5.34-4.05,3.11-8.61,5.26-13.42,6.97-2.05,.73-3.75-.22-4.23-1.55-.6-1.65,.21-3.12,2.32-3.82,7.46-2.49,13.75-6.69,18.89-12.65,1.74-2.02,3.11-2.04,5.08-.16,3.56,3.39,7.1,6.8,10.57,10.28,2.95,2.96,5.2,6.44,6.94,10.24,.31,.68,.64,1.36,1.2,1.97-.51-5.23-1.01-10.45-1.52-15.68-.85-8.63-1.7-17.26-2.55-25.89-1.02-10.31-2.17-20.61-2.99-30.93-.49-6.19-.52-12.41-.65-18.62-.04-2.26,1.11-3.22,3.54-3.22,7.68-.02,15.36,0,23.04,0,14.9,0,29.8,0,44.7,0,3.62,0,4.24,.72,4.38,4.26,.42,11.02-1.1,21.91-2.14,32.83-.81,8.56-1.66,17.11-2.5,25.66-1.01,10.31-2.03,20.62-3.04,30.93-.84,8.55-1.66,17.11-2.49,25.66-.76,7.79-1.52,15.58-2.31,23.37-.19,1.83-1.15,2.72-2.97,2.93-.3,.04-.61,.02-.92,.02-3.19,.07-3.14,.07-2.98,3.18,.05,.94,.41,1.27,1.24,1.59,3.87,1.53,5.67,4.47,5.65,8.6-.02,4.99,.01,9.98-.01,14.98-.03,5.61-3.46,9.04-9.05,9.06-6.6,.02-13.21,0-19.81,0-.61,0-1.26,.06-1.83-.1-1.42-.4-2.2-1.36-2.13-2.88,.07-1.41,.88-2.29,2.22-2.57,.74-.16,1.53-.09,2.29-.09,6.3,0,12.59,0,18.89,0,2.81,0,3.73-.92,3.74-3.72,.03-4.91,.04-9.83,0-14.74-.02-2.3-.93-3.33-3.19-3.35-9.29-.06-18.58,0-27.88-.06-1.5,0-1.52,.82-1.51,1.91,.02,5.45,.02,10.91,0,16.36-.02,5.89-3.4,9.25-9.31,9.26-45.23,0-90.47,.01-135.7,0-9.64,0-16.36-6.73-16.36-16.39-.01-38.01,0-76.03,0-114.04,0-3.54,.73-4.25,4.36-4.25,15.9,0,31.79,0,47.69,0,3.65,0,4.33,.66,4.33,4.26,0,18.35,0,36.71,0,55.06,0,.15,0,.31,0,.46-.03,2.57-1.04,3.92-2.88,3.87-1.82-.05-2.78-1.41-2.78-4.01,0-17.13,0-34.25,0-51.38,0-2.94,.25-2.61-2.56-2.62-13.29-.01-26.57-.01-39.86,0-2.93,0-2.64-.31-2.64,2.53,0,30.87,0,61.74,0,92.62,0,2.41,0,2.42,2.3,2.42,13.52,0,27.03,0,40.55,0,2.2,0,2.21-.01,2.21-2.28,0-9.22,0-18.43,0-27.65,0-3.44,.76-4.2,4.17-4.22q4.1-.02,4.1-4.09c0-1.69-.03-3.38,0-5.07,.05-2.28,.96-3.2,3.19-3.33,3.55-.21,3.54-.21,4.66-3.55,1.28-3.82,3.5-7,6.75-9.37,1.07-.78,1.4-1.64,1.4-2.9-.03-18.35-.01-36.71-.03-55.06,0-4.27-1.61-5.85-5.85-5.85-19.2,0-38.4,0-57.6,0-4.28,0-5.84,1.57-5.86,5.83,0,1.92,.04,3.84-.02,5.76-.06,1.99-1.21,3.19-2.9,3.14-1.61-.05-2.68-1.19-2.71-3.09-.05-2.61-.1-5.23,.02-7.83,.24-5.04,4.53-9.26,9.6-9.43,3.07-.1,6.14,0,9.21-.04,3.08-.03,2.88,.47,2.89-2.78,.01-6.22,0-12.44,0-18.66,0-3.47,.62-4.17,4.08-4.34,1.09-.05,1.49-.39,1.46-1.47-.05-2.38-.04-4.76,0-7.14,.02-1.03-.27-1.62-1.42-1.51-3.2,.3-4.28-1.7-4.15-4.38,.13-2.6-.01-5.22,.04-7.83,.06-2.48,1.07-3.48,3.55-3.48,18.12-.02,36.25-.02,54.37,0,2.38,0,3.34,.99,3.38,3.36,.04,2.53,.01,5.07,.01,7.6,0,4.02-.68,4.72-4.63,4.73-7.53,0-15.05,0-22.58,0-2.59,0-2.59,0-2.6,2.66,0,2.37,0,4.74,0,7.19Zm89.28,21.62c0,.68-.03,1.06,0,1.43,.96,9.77,1.92,19.55,2.88,29.32,1.02,10.38,2.05,20.76,3.07,31.15,.78,7.94,1.54,15.88,2.35,23.82,.05,.48,.28,1.12,.65,1.34,1.46,.91,1.69,2.24,1.63,3.78-.06,1.46-.01,2.92-.01,4.38q0,4.08,4.08,4.11c3.42,.02,4.18,.78,4.19,4.21,0,5.45,.03,10.9-.02,16.35-.01,1.28,.18,1.96,1.72,1.95,9.83-.06,19.65-.05,29.48,0,1.3,0,1.77-.54,1.85-1.75,.11-1.61,.3-3.21,.46-4.81,1.84-18.78,3.68-37.56,5.53-56.34,1.84-18.78,3.68-37.56,5.52-56.34,.25-2.57,.25-2.58-2.28-2.58-12.28,0-24.57,0-36.85,0-.77,0-1.55,.05-2.3-.08-1.36-.23-2.18-1.08-2.3-2.48-.13-1.52,.62-2.53,2.02-2.96,.71-.21,1.52-.15,2.28-.15,11.9,0,23.8,0,35.7,0q4.27,0,4.25-4.38c-.01-2.73,.23-2.43-2.51-2.43-19.35,0-38.69,0-58.04,0-3.78,0-3.8,0-3.77,3.72,.02,3.48-.44,3.06,3.03,3.09,3.07,.02,6.14-.04,9.21,.04,1.61,.04,2.71,1.1,2.84,2.5,.13,1.39-.5,2.41-1.77,2.91-.62,.24-1.36,.22-2.04,.22-3.52,.02-7.04,0-10.85,0Zm-36.53,105c-14.9,0-29.79,0-44.69,.01-1.58,0-3.64-.35-4.59,.47-.79,.68-.32,2.87-.33,4.39-.02,2.4,0,2.41,2.55,2.41,12.59,0,25.19,0,37.78,0,11.36,0,22.73,0,34.09,0,2.81,0,3.84,.87,3.85,3.37,.03,10.98,.03,21.96,0,32.94,0,2.31-1.05,3.28-3.42,3.37-.61,.02-1.23,0-1.84,0-23.34,0-46.69,0-70.03,0-.69,0-1.39-.04-2.07,.05-.31,.04-.72,.31-.83,.58-1.53,3.6,.5,6.66,4.4,6.66,30.18,0,60.36,0,90.54,0,3.54,0,4.31-.77,4.31-4.32,0-15.82,0-31.64,0-47.46,0-2.49,0-2.5-2.47-2.5-15.74,0-31.48,0-47.23,0Zm-13.08,41.3c11.36,0,22.72-.03,34.07,.04,1.62,0,2.07-.46,2.05-2.06-.08-8.06-.08-16.12,0-24.17,.02-1.7-.39-2.2-2.15-2.19-22.79,.06-45.59,.06-68.38,0-1.7,0-2.22,.42-2.2,2.16,.09,7.98,.04,15.96,.04,23.94,0,2.26,.02,2.28,2.24,2.28,11.43,0,22.87,0,34.3,0Zm-41.95,12.98c-.1-1.32-.25-2.38-.26-3.44-.03-4.76,0-9.52-.01-14.28,0-2.75,.17-2.42-2.52-2.42-10.59-.01-21.19,0-31.78,0-3.07,0-6.14,.05-9.21-.02-1.22-.03-1.59,.4-1.56,1.59,.07,2.38,.02,4.76,.02,7.14,0,7.38,4.03,11.44,11.34,11.45,6.91,0,13.82,0,20.73,0,4.37,0,8.74,0,13.26,0Zm55.07-59.95h36.39c5.46,0,5.43,0,5.04-5.48-.07-.99-.39-1.39-1.36-1.33-.61,.04-1.23,0-1.84,0-25.03,0-50.06,0-75.09,0q-4.59,0-4.55,4.56c.02,2.23,.02,2.24,2.26,2.24,13.05,0,26.11,0,39.16,0ZM111.54,95.5c-3.76,0-7.52,.04-11.28-.02-1.2-.02-1.61,.39-1.61,1.58,.04,5.68,.04,11.36,0,17.04,0,1.19,.41,1.58,1.61,1.58,7.45-.04,14.89-.05,22.34,0,1.29,0,1.73-.39,1.71-1.69-.05-5.6-.05-11.21,0-16.81,.01-1.3-.42-1.72-1.71-1.7-3.68,.07-7.37,.02-11.05,.02Zm36.93-21.47c.07-.6,.14-.9,.14-1.2,0-3.88,.26-3.12-2.94-3.12-14.73-.03-29.47-.01-44.2-.01-.61,0-1.25-.08-1.83,.05-.35,.08-.8,.44-.9,.76-.76,2.46,.04,3.53,2.6,3.53,14.89,0,29.78,0,44.66,0h2.47Zm-36.85,5.71c-1.91,0-3.83,.06-5.74-.02-1.32-.06-1.74,.47-1.71,1.74,.07,2.29,.04,4.59,0,6.89-.01,1.02,.26,1.53,1.42,1.51,3.9-.05,7.8-.05,11.71,0,1.11,.01,1.47-.4,1.45-1.47-.05-2.37-.06-4.74,0-7.11,.04-1.25-.51-1.58-1.64-1.54-1.83,.06-3.67,.02-5.51,.01ZM245.46,242.92c3.67,0,7.35-.07,11.02,.03,1.6,.05,1.91-.6,1.87-2.02-.03-1.35,0-2.28-1.87-2.25-7.35,.1-14.7,.08-22.05,0-1.59-.02-1.91,.6-1.87,2.02,.03,1.35,0,2.32,1.88,2.25,3.67-.14,7.35-.04,11.02-.04Z"/><path class="cls-1" d="M245.42,147.11c-5.45,0-10.89,.01-16.34,0-3.05,0-3.92-.9-3.93-4-.01-4.6-.02-9.2,0-13.81,.01-2.76,.96-3.76,3.73-3.77,11.04-.03,22.09-.03,33.13,0,2.85,0,3.77,.94,3.78,3.69,.02,4.76,.03,9.51,0,14.27-.01,2.67-.93,3.6-3.59,3.61-5.6,.02-11.2,0-16.8,0Zm.04-5.65c4.37,0,8.74-.03,13.1,.02,1.15,.01,1.65-.29,1.61-1.53-.08-2.37-.06-4.75,0-7.13,.02-1.05-.3-1.53-1.42-1.52-8.81,.02-17.63,.03-26.44,0-1.27,0-1.53,.59-1.5,1.7,.05,2.22,.09,4.45-.01,6.67-.06,1.39,.36,1.87,1.8,1.84,4.29-.09,8.58-.03,12.87-.03Z"/></svg>