<?xml version="1.0" encoding="UTF-8"?><svg id="Capa_1" xmlns="http://www.w3.org/2000/svg" viewBox="0 0 350 350"><defs><style>.cls-1{fill:red;}</style></defs><path class="cls-1" d="M191.95,171.81c8.56-19.32,17.06-38.52,25.56-57.73-2.72-.22-5.65-.25-8.51-.74-3.09-.53-6.2-1.24-9.13-2.33-3.22-1.2-5.58-3.54-6.53-6.99-1.81-6.55,2.53-12.64,9.81-13.21,4.4-.34,8.86,0,13.29,.18,7.96,.34,15.9,.82,23.88-.18,6.58-.82,11.63-3.55,14.86-9.54,1.56-2.9,3.49-5.63,5.46-8.27,2.08-2.79,4.8-4.83,8.37-5.27,6.52-.8,11.97,4.9,10.85,11.68-.56,3.35-1.68,6.72-3.15,9.8-3.24,6.77-7.92,12.57-13.3,17.81-4.07,3.96-9.12,5.7-14.61,6.36-1.94,.23-3.9,.44-5.85,.38-1.61-.05-2.35,.59-3.04,1.97-8.86,17.6-16.52,35.73-23.9,53.98-.93,2.3-1.78,4.63-2.81,6.88-.56,1.22-.2,1.67,.93,2.14,5.07,2.09,10.21,4.05,15.12,6.46,10.2,5.01,19.02,11.82,25.72,21.12,4.25,5.9,7,12.39,7.62,19.73,1.01,11.87-3.65,20.92-13.55,27.32-1.56,1.01-2.34,2.04-2.66,3.96-1.01,6.02-4.78,9.93-10.41,11.97-5.05,1.83-9.62,.58-13.67-2.77-.69-.57-1.43-1.2-1.83-1.97-.86-1.68-2.12-1.59-3.74-1.48-5.55,.39-11.12,.81-16.67,.75-18.8-.22-37.61-.6-56.41-1.05-4.05-.1-8.08-.71-12.11-1.19-1.42-.17-2.26,.08-3.07,1.43-3.58,5.96-10.33,8.46-16.75,6.38-6.39-2.07-10.54-8.11-9.95-14.93,.15-1.73-.51-2.35-1.75-3.12-9.59-6.02-16.96-13.85-20.25-25-5.21-17.7,1.21-41.98,16.84-53.22,5.83-4.19,12.25-6.99,19.19-8.64,1.43-.34,1.82-.75,1.46-2.24-3.04-12.48-6.02-24.97-8.94-37.48-.37-1.58-1.08-1.93-2.59-1.96-8.01-.17-14.75-3.19-20-9.32-3.07-3.59-5.06-7.65-5.13-12.46-.12-7.93,4.8-13.48,12.93-14.8,5.21-.84,10.42-.57,15.46,.63,7.58,1.8,15.26,2.46,22.98,3.02,3.77,.27,7.45,1.15,10.7,3.21,3.87,2.45,6.65,5.77,6.89,10.51,.29,5.54-2.4,9.68-7.27,11.96-3.57,1.67-7.49,2.6-11.31,3.68-1.38,.39-1.83,.76-1.47,2.27,3.17,13.07,6.27,26.15,9.38,39.23,.25,1.03,.46,1.83,1.94,1.9,14.17,.7,28.01,3.48,41.74,6.91,3.19,.8,6.39,1.57,9.36,2.29Zm-15.31,84.31s0,.08,0,.12c2.86,0,5.71-.05,8.57,0,13.16,.29,26.33,.76,39.37-1.64,7.43-1.37,14.64-3.39,21.03-7.65,8.13-5.41,10.87-13.09,9.31-22.48-1.23-7.39-5.12-13.4-10.09-18.8-7.82-8.5-17.54-14.16-28.2-18.14-24.02-8.99-48.74-15.19-74.33-17.51-8.87-.81-17.74-.23-26.4,2.13-11.06,3.02-20.02,8.83-25.3,19.4-3.81,7.61-5.6,15.66-5.15,24.19,.45,8.52,3.46,15.91,9.42,22.09,4.83,5.01,10.51,8.71,16.92,11.33,10.95,4.48,22.5,5.86,34.18,6.31,10.22,.39,20.45,.44,30.68,.64ZM107.97,115.4l.05,.54c6.2-1.11,12.42-2.07,18.58-3.37,4.02-.85,8.08-1.82,11.86-3.38,4.84-1.99,5.05-6.67,.69-9.57-1.05-.69-2.26-1.23-3.47-1.55-1.73-.46-3.52-.74-5.31-.94-5.81-.68-11.64-1.21-17.44-1.95-3.86-.49-7.68-1.51-11.55-1.8-2.79-.21-5.71,.09-8.46,.68-3.32,.71-4.66,2.75-4.87,6.16-.19,3.03,.97,5.56,2.79,7.88,4.37,5.55,10.26,7.57,17.13,7.31Zm119.8-8.69c7.61-.23,13.84-.32,20.06-.66,3.74-.21,7.28-1.4,10.07-4.02,5.64-5.3,10.26-11.39,13.35-18.51,.73-1.68,1.11-3.6,1.23-5.44,.17-2.61-1.5-3.61-3.77-2.29-1.25,.73-2.39,1.85-3.24,3.03-2.2,3.04-4.2,6.22-6.31,9.33-3.27,4.81-7.65,7.85-13.42,9.11-10.21,2.24-20.46,1.64-30.74,1-3.73-.23-7.48-.35-11.2-.18-2.14,.1-3.34,1.48-3.38,3.02-.06,1.93,1.29,2.87,2.83,3.35,2.21,.68,4.49,1.42,6.77,1.56,6.37,.4,12.75,.51,17.76,.69Zm4.82,7.12c-1.42,0-2.49,.13-3.52-.03-2.06-.31-2.99,.65-3.89,2.42-8.88,17.58-16.74,35.62-24.11,53.88-1.53,3.78-1.54,3.78,2.24,4.96q2.26,.71,3.18-1.55c7.93-19.64,16-39.23,25.46-58.2,.19-.39,.34-.8,.63-1.48Zm-117.27,8.5c1.77,7.42,3.45,14.49,5.14,21.56,1.4,5.83,2.8,11.66,4.25,17.48,.13,.53,.68,1.37,1.03,1.37,1.91,0,3.82-.23,5.98-.4-3.31-13.82-6.56-27.43-9.84-41.13-2.26,.39-4.3,.73-6.57,1.12Zm6.04,137.65c-4.03-1.25-8.03-2.5-12.09-3.76,.03,3.38,3.03,5.8,5.4,6.32,2.56,.56,5.01-.32,6.69-2.57Zm106.93,1.56c3.5,2.1,6.92,1.16,9.58-2.62-3.24,.89-6.36,1.74-9.58,2.62Z"/><path class="cls-1" d="M108.77,208.6c.14-19.03,16.49-34.29,35.42-32.4,13.85,1.38,23.2,9.08,28.05,22.15,.86,2.32,.79,2.35,3.33,2.02,.52-.07,1.04-.26,1.55-.26,2.22,.03,3.9-.41,3.89-3.21,0-.81,.56-1.77,1.14-2.39,2.1-2.25,4.19-4.55,6.54-6.52,2.69-2.26,6.71-2.06,9.32,.41,3.66,3.46,7.23,7.02,10.68,10.69,2.69,2.87,2.59,6.88-.08,9.81-1.67,1.84-3.44,3.58-5.25,5.28-3.14,2.94-7.19,2.95-10.33,0-2.25-2.11-4.41-4.31-6.54-6.54-.81-.84-1.57-1.15-2.77-.93-2.59,.46-5.2,.79-7.82,1.01-1.39,.12-1.85,.56-1.93,2.04-.55,11.3-5.58,20.19-15.06,26.3-19.72,12.73-46.11,.68-49.63-22.55-.25-1.63-.35-3.28-.52-4.92Zm57.63,.53c-.72,.06-1.45,.08-2.17,.18-7.15,.96-14.3,1.95-21.45,2.89-2.75,.36-4.63-.83-4.96-3.04-.33-2.23,1.12-3.87,3.87-4.26,4.39-.62,8.79-1.18,13.18-1.78,3.47-.47,6.94-.97,10.41-1.46-1.77-10.79-15.09-19.62-26.6-18.13-14.11,1.83-23.67,14.22-22.29,27.52,1.5,14.42,14.06,23.87,27.19,22.65,16.06-1.5,23.39-15.54,22.82-24.58Zm22.17-10.38c3.26,3.26,6.52,6.52,9.82,9.82,1.44-1.43,3.03-2.99,4.5-4.45-3.34-3.34-6.61-6.61-9.91-9.91-1.4,1.45-2.95,3.04-4.41,4.55Z"/><path class="cls-1" d="M248.36,232.27c.16,3.1-2.17,6.76-6.33,9.26-1.98,1.19-4.15,2.1-6.31,2.93-2.25,.87-4.22-.07-4.96-2.09-.74-2.03,.21-3.83,2.49-4.82,1.58-.69,3.18-1.33,4.69-2.16,2.07-1.14,3.02-2.86,2.97-5.36-.1-5.24-2.15-9.62-5.52-13.44-1.49-1.68-3.24-3.13-4.8-4.75-1.5-1.54-1.53-3.58-.19-5.07,1.3-1.45,3.26-1.78,4.86-.48,7.68,6.19,12.94,13.74,13.1,25.98Z"/><path class="cls-1" d="M218.96,247.77c-2.02,.03-3.64-1.27-3.93-3.08-.31-1.97,.8-3.69,2.88-4.14,1.67-.37,3.39-.58,5.1-.71,2.06-.15,3.71,1.25,3.96,3.18,.26,1.99-.87,3.64-2.99,4.06-1.68,.34-3.4,.48-5.03,.69Z"/></svg>