<?xml version="1.0" encoding="UTF-8"?><svg id="Capa_1" xmlns="http://www.w3.org/2000/svg" viewBox="0 0 350 350"><defs><style>.cls-1{fill:red;}</style></defs><path class="cls-1" d="M102.64,237.67c0,1.61-.1,3.12,.03,4.61,.12,1.48-.51,1.77-1.82,1.64-6.3-.65-11.56-3.27-15.54-8.23-3.19-3.97-4.8-8.55-4.8-13.64-.01-35.81-.05-71.62,.01-107.42,.02-12.46,9.77-21.89,22.48-21.9,38.82-.02,77.65,0,116.47,0,9.12,0,18.23-.01,27.35,0,11.8,.02,20.49,7.37,22.45,18.98,.21,1.22,.23,2.48,.23,3.72,.01,35.28,.02,70.57,0,105.85,0,11.79-7.38,20.46-19,22.45-.52,.09-1.04,.11-1.56,.19-1.14,.18-1.79-.17-1.58-1.45,.01-.06,0-.13,0-.2,.02-1.44-.45-3.2,.21-4.22,.53-.81,2.46-.68,3.75-1,6.69-1.65,11.43-7.52,11.75-14.54,.03-.65,.03-1.31,.03-1.97,0-34.82,0-69.65-.02-104.47,0-1.82-.16-3.69-.61-5.44-1.71-6.63-7.41-11.12-14.31-11.47-.65-.03-1.31-.03-1.97-.03-47.48,0-94.96,0-142.45-.02-4.14,0-7.94,.91-11.16,3.59-4.46,3.7-5.94,8.61-5.7,14.22,.03,.78,.35,1.03,1.08,1,.59-.03,1.18,0,1.77,0,54.63,0,109.26,0,163.89,0,.59,0,1.19,.06,1.77-.01,1.23-.16,1.63,.36,1.54,1.55-.09,1.24-.06,2.49-.01,3.74,.03,.86-.32,1.19-1.16,1.13-.59-.04-1.18,0-1.77,0-54.76,0-109.52,0-164.28,0-.59,0-1.18,.03-1.77,0-.74-.04-1.1,.25-1.04,1.02,.03,.39,0,.79,0,1.18,0,31.48,0,62.96,0,94.44,0,6.09,2.23,10.97,7.47,14.27,2.2,1.39,4,1.89,8.28,2.45Z"/><path class="cls-1" d="M152.91,205.9c0-20.85-.01-41.7,0-62.55,0-6.34,4.11-11.35,10.27-12.62,.89-.18,1.82-.22,2.73-.22,6.03-.02,12.06-.03,18.1,0,7.59,.03,13.06,5.43,13.07,12.98,.02,41.76,.02,83.53,0,125.29,0,7.45-5.47,12.91-12.91,12.94-6.1,.03-12.19,.03-18.29,0-7.53-.03-12.96-5.5-12.97-13.08-.02-20.91,0-41.83,0-62.74Zm6.4,.22c0,20.66,0,41.31,0,61.97,0,4.78,2.47,7.24,7.29,7.24,5.51,0,11.02-.16,16.52,.06,4.2,.17,7.94-2.33,7.61-7.81-.08-1.32-.46-1.64-1.7-1.61-3.08,.08-6.16-.02-9.24,.05-1.19,.02-1.86-.18-1.72-1.58,.11-1.17,.08-2.36,0-3.54-.07-1.06,.39-1.34,1.37-1.32,2.23,.05,4.46,.01,6.69,.01,4.87,0,4.84,0,4.57-4.99-.05-.95-.36-1.25-1.27-1.21-1.24,.05-2.49-.04-3.74,.03-1.06,.06-1.37-.38-1.32-1.37,.06-1.31,.05-2.62,0-3.93-.03-.87,.34-1.15,1.17-1.12,1.31,.04,2.62-.02,3.93,.01,.76,.02,1.25-.13,1.22-1.06-.05-1.38-.04-2.75,0-4.13,.02-.77-.32-1.03-1.05-1.02-1.31,.03-2.63-.05-3.93,.02-1.05,.06-1.39-.37-1.33-1.37,.06-1.05,0-2.1,.01-3.15,.01-1.89,.01-1.86,1.94-1.92,1.41-.04,3.4,.34,4.08-.41,.73-.81,.17-2.73,.3-4.16,.12-1.32-.39-1.67-1.65-1.63-3.15,.08-6.3-.03-9.44,.05-1.23,.03-1.63-.37-1.54-1.57,.09-1.17,.07-2.36,0-3.54-.06-1.04,.35-1.36,1.36-1.34,2.23,.05,4.46,.05,6.69,0,1.48-.03,3.56,.37,4.27-.41,.77-.84,.25-2.85,.29-4.35,0-.13-.01-.26,0-.39,.07-.76-.29-1.05-1.03-1.03-1.38,.03-2.75-.03-4.13,.01-.85,.03-1.17-.31-1.14-1.15,.04-1.18,.1-2.37-.01-3.54-.13-1.39,.38-1.82,1.75-1.76,1.47,.06,2.96-.15,4.44-.24,.04-1.56,.09-3.13,.13-4.69,0-.07,0-.13,0-.2,.07-.76-.28-1.05-1.03-1.03-1.38,.03-2.75-.03-4.13,.01-.85,.03-1.18-.3-1.14-1.15,.05-1.11,0-2.23,0-3.34,0-1.91,.01-1.88,1.92-1.93,1.42-.04,3.4,.35,4.09-.4,.73-.8,.18-2.73,.31-4.16,.12-1.29-.34-1.69-1.64-1.65-3.21,.09-6.43,0-9.64,.04-1.01,.02-1.41-.31-1.35-1.34,.07-1.24,.07-2.49,0-3.74-.05-1.01,.31-1.38,1.34-1.36,2.23,.06,4.46,.05,6.69,0,1.48-.03,3.55,.38,4.28-.4,.77-.83,.25-2.85,.3-4.34,0-.07,0-.13,0-.2,.11-.92-.26-1.29-1.22-1.25-1.31,.06-2.62-.02-3.93,.02-.83,.03-1.19-.27-1.16-1.13,.05-1.18,.09-2.37-.01-3.54-.13-1.37,.34-1.84,1.74-1.77,1.47,.07,2.96-.14,4.44-.23,.05-1.56,.06-3.13,.15-4.69,.05-.92-.26-1.3-1.22-1.26-1.31,.06-2.62-.02-3.93,.02-.83,.03-1.2-.26-1.16-1.13,.05-1.11,0-2.23,0-3.34,0-1.92,.01-1.9,1.9-1.95,1.42-.04,3.39,.36,4.09-.39,.74-.79,.19-2.72,.32-4.15,.11-1.26-.3-1.71-1.62-1.67-3.21,.09-6.43,0-9.64,.04-.99,.01-1.44-.27-1.37-1.33,.07-1.11,.1-2.24,0-3.34-.13-1.35,.32-1.83,1.72-1.78,3.14,.1,6.29,.04,9.44,.02,.58,0,1.28,.27,1.46-.79,.84-4.84-2.13-8.52-6.99-8.54-5.84-.02-11.67,0-17.51,0-.65,0-1.32,.03-1.95,.17-3.16,.74-4.94,3.21-4.94,6.87,0,20.72,0,41.44,0,62.16Z"/><path class="cls-1" d="M108.83,220.68c0-16.98-.02-33.96,.03-50.95,0-1.26,.29-2.61,.79-3.77,3.79-8.7,7.67-17.37,11.53-26.04,.27-.6,.54-1.21,.92-1.73,1.43-1.9,4.02-1.76,5.26,.26,.24,.39,.4,.82,.59,1.24,3.89,8.73,7.8,17.46,11.63,26.22,.51,1.16,.81,2.51,.81,3.77,.04,33.96,.04,67.93,.03,101.89,0,5.27-2.7,8.88-7.43,9.94-.76,.17-1.56,.21-2.34,.21-4,.02-8,.03-12,0-5.92-.03-9.81-3.94-9.81-9.91-.01-17.05,0-34.09,0-51.14Zm25.19-6.69c0-12.66,0-25.32,0-37.98,0-1.12-.04-2.23,0-3.34,.04-.85-.29-1.16-1.14-1.14-1.84,.04-3.67,.01-5.51,.01-3.61,0-7.22,.03-10.82-.02-1.02-.01-1.45,.32-1.33,1.34,.04,.32,0,.66,0,.98,0,26.76,0,53.52,0,80.28,0,.46-.11,.96,.04,1.36,.15,.37,.56,.87,.89,.9,1.44,.1,2.89,.1,4.32,0,.33-.02,.77-.52,.89-.89,.16-.47,.04-1.04,.04-1.56,0-24.01,0-48.01,.01-72.02,0-1.35-.3-3.11,.41-3.92,.59-.67,2.46-.26,3.76-.26,2.44,0,2.21-.23,2.21,2.21,0,24.14,0,48.28,.01,72.41,0,1.29-.35,3.06,.33,3.74,.68,.68,2.45,.32,3.74,.32,2.34,.01,2.11,.24,2.11-2.1,0-13.45,0-26.89,0-40.34Zm-9.3,48.86c-2.75,0-5.5,.03-8.25-.02-.92-.01-1.27,.28-1.25,1.23,.05,2.68-.03,5.37,.04,8.05,.05,2.08,1.11,3.16,3.19,3.2,4.12,.06,8.25,.06,12.37,0,2.07-.03,3.13-1.13,3.18-3.21,.07-2.68-.01-5.37,.04-8.05,.02-.96-.35-1.23-1.26-1.22-2.68,.04-5.37,.02-8.05,.02Zm.13-114.3c-.15,0-.3,0-.44,0-2.38,5.46-4.76,10.93-7.19,16.53h15.14c-2.55-5.61-5.03-11.07-7.5-16.53Z"/><path class="cls-1" d="M247.69,167.3c-.07,3.79-.94,7.3-2.8,10.58-.37,.65-.56,1.47-.58,2.22-.43,12.91-.82,25.82-1.23,38.73-.61,19.01-1.26,38.01-1.84,57.02-.03,1.12-.44,1.77-1.32,2.4-7,5-15.83,4.99-22.77-.01-.87-.63-1.29-1.28-1.32-2.4-.48-16.32-1.01-32.64-1.53-48.96-.5-15.66-1.01-31.33-1.55-46.99-.02-.62-.18-1.32-.49-1.85-2.06-3.5-2.86-7.28-2.66-11.31,.43-8.63,2.93-16.5,8.68-23.09,5.91-6.78,13.53-9.87,22.44-9.99,1.41-.02,2.57,.33,3.22,1.74,.67,1.43,.46,2.73-.65,3.78-1.96,1.87-1.87,3.96-1.06,6.32,1.48,4.33,2.98,8.67,4.14,13.09,.74,2.83,.89,5.81,1.31,8.72Zm-28.05,17.82c0,1.26-.02,2.17,0,3.08,.49,15.86,.98,31.71,1.47,47.57,.38,12.25,.79,24.51,1.14,36.76,.03,.94,.35,1.43,1.18,1.77,3.38,1.4,6.74,1.41,10.13,.05,.92-.37,1.23-.91,1.26-1.91,.34-11.93,.74-23.85,1.11-35.78,.51-16.38,1.01-32.76,1.51-49.15,.02-.7,0-1.41,0-2.4-5.96,2.86-11.79,2.85-17.8,0Zm15.55-44.31c-4.14,.75-7.53,2.55-10.45,5.31-4,3.77-6.25,8.52-7.56,13.76-.9,3.63-1.65,7.3-.85,11.07,1.29,6.12,7.17,10.5,13.28,9.88,6.5-.66,11.08-5.76,11.12-12.31,.03-4.56-.56-9.03-2.02-13.34-1.57-4.65-3.28-9.25-3.52-14.36Z"/><path class="cls-1" d="M159.46,105.31c6.69,0,13.38,.04,20.07-.03,1.47-.02,2,.38,1.85,1.86-.15,1.42,.43,3.48-.31,4.14-.87,.78-2.82,.43-4.29,.43-12.53,.02-25.06,.01-37.58,.01-2.01,0-2.03,0-2.01-2.02,.01-1.37-.43-3.32,.27-3.95,.84-.74,2.69-.41,4.11-.42,5.97-.03,11.94-.01,17.91-.01Z"/><path class="cls-1" d="M102.62,105.31q3.17,0,3.17,3.23t-3.23,3.17-3.17-3.23,3.23-3.17Z"/><path class="cls-1" d="M118.38,108.61q0,3.11-3.1,3.11-3.3,0-3.3-3.3,0-3.11,3.1-3.11,3.3,0,3.3,3.3Z"/><path class="cls-1" d="M130.98,108.66q0,3.06-3.15,3.06t-3.25-3.35q0-3.06,3.15-3.06,3.25,0,3.25,3.35Z"/></svg>