<?xml version="1.0" encoding="UTF-8"?><svg id="Capa_1" xmlns="http://www.w3.org/2000/svg" viewBox="0 0 350 350"><defs><style>.cls-1{fill:red;}</style></defs><path class="cls-1" d="M283.21,247.9c-1.25,3.62-3.38,6.4-7.27,7.41-.95,.25-1.96,.35-2.94,.35-16.99,.02-33.99,.04-50.98,0-6.16-.01-10.21-4.06-10.37-10.3-.08-3.13-.06-6.26,0-9.38,.02-1.25-.33-1.89-1.68-1.72-.56,.07-1.14,.01-1.7,.01-39.67,0-79.35,0-119.02,0-9.26,0-16.46-3.84-21.32-11.79-2.23-3.65-3.28-7.69-3.22-11.98,.06-4.52,3.47-8.11,7.99-8.39,1.35-.08,2.71-.12,4.05-.02,1.5,.11,2.35-.26,2.05-1.97-.08-.48-.01-.99-.01-1.49,0-34.63,0-69.25,0-103.88,0-5.29,1.99-9.53,6.33-12.58,2.26-1.58,4.8-2.43,7.59-2.45,.71,0,1.42-.02,2.13-.02,52.83,0,105.65,0,158.48-.02,3.27,0,6.39,.4,9.16,2.24,4.49,2.98,6.69,7.22,6.69,12.6,0,15.36,0,30.71,0,46.07,0,.57,.05,1.14,0,1.71-.12,1.16,.44,1.5,1.5,1.42,.71-.05,1.42-.01,2.13,0,5.06,.05,8.28,2.3,10.06,7.01,.1,.26,.24,.51,.36,.77v96.43ZM174.03,86.21c-26.37,0-52.75,0-79.12,0-.78,0-1.57-.03-2.35,.03-3.2,.23-6,2.45-6.84,5.54-.29,1.08-.39,2.24-.39,3.37-.02,34.83-.02,69.67-.02,104.5,0,.28,.03,.57,0,.85-.17,1.26,.46,1.65,1.61,1.55,.42-.04,.85,0,1.28,0,40.17,0,80.33,0,120.5,0,.5,0,1-.04,1.49,0,1.15,.09,1.52-.49,1.45-1.54-.04-.57,0-1.14,0-1.71,0-14.5-.01-29.01,.02-43.51,0-1.55,.09-3.16,.51-4.63,1.22-4.31,5.01-6.95,9.84-6.96,12.65-.03,25.31,0,37.96-.01,2.96,0,2.67,.33,2.68-2.57,0-15.21-.11-30.43,.06-45.64,.06-5.64-3.53-9.37-9.33-9.33-26.45,.16-52.89,.07-79.34,.07Zm44.23,113.52c0,14.92,0,29.85,0,44.77,0,3.67,.99,4.64,4.7,4.64,16.35,0,32.69,0,49.04,0,3.73,0,4.75-1.05,4.75-4.85,0-29.71,0-59.41,0-89.12,0-3.95-.98-4.95-4.86-4.95-11.44,0-22.88,0-34.33,0-5.19,0-10.38-.02-15.56,.01-2.46,.02-3.61,1.2-3.73,3.66-.03,.64-.01,1.28-.01,1.92,0,14.64,0,29.28,0,43.92Zm-69.51,27.99c19.9,0,39.8,0,59.7,0,.57,0,1.14-.04,1.7,0,1.13,.1,1.49-.43,1.48-1.5-.03-5.4-.04-10.8,0-16.2,0-1.18-.54-1.44-1.57-1.41-1.56,.05-3.13,.09-4.69-.01-1.42-.1-1.87,.44-1.82,1.82,.04,1.27,0,2.58-.31,3.8-1.14,4.47-5,7.21-10.08,7.22-15.14,.02-30.28-.12-45.41,.07-6.62,.08-11.6-4.5-11.05-10.88,.14-1.6-.44-2.04-2.03-2.04-20.18,.05-40.37,.03-60.55,.04-2.41,0-3.06,.7-2.86,3.1,.38,4.42,2.11,8.22,5.36,11.28,3.61,3.41,7.98,4.72,12.86,4.72,19.76-.02,39.52,0,59.27,0Zm21.5-19.1c-4.48,0-8.95,0-13.43,0-3.98,0-7.96-.01-11.93,.01-.64,0-1.41-.26-1.64,.83-.71,3.35,.75,5.4,4.08,5.41,15.2,.02,30.4,.01,45.6,0,.7,0,1.44-.08,2.09-.3,1.77-.62,2.57-2.65,1.97-5.08-.39-1.61-1.77-.82-2.66-.83-8.03-.07-16.05-.04-24.08-.04Z"/><path class="cls-1" d="M174.03,94.67c24.11,0,48.21,.08,72.32-.06,5.37-.03,7.99,3.11,7.89,7.98-.19,9.31-.05,18.63-.07,27.94,0,.84-.06,1.72-.31,2.51-.46,1.44-1.92,2.31-3.31,2.16-1.45-.16-2.63-1.26-2.85-2.75-.11-.77-.09-1.56-.09-2.34,0-8.82,0-17.63,0-26.45q0-2.47-2.37-2.48c-47.5,0-95,0-142.5,0-2.41,0-2.42,0-2.42,2.42,0,26.95,0,53.9,0,80.85,0,2.49,0,2.49,2.61,2.49,31.64,0,63.29,0,94.93,0,.92,0,1.86,0,2.75,.18,1.64,.35,2.54,1.61,2.49,3.24-.05,1.54-.94,2.67-2.51,3.01-.76,.16-1.55,.19-2.33,.19-32.28,0-64.57,.01-96.85,0-5.34,0-7.65-2.35-7.65-7.71,0-27.87,0-55.75,0-83.62,0-5.23,2.33-7.58,7.52-7.58,24.25,0,48.5,0,72.74,0Z"/><path class="cls-1" d="M175.07,117.74c12.3,.23,24.1,4.84,34.03,14.16,.31,.29,.63,.58,.91,.9,1.29,1.51,1.29,3.32,.01,4.6-1.18,1.19-3.02,1.27-4.45,.13-.78-.62-1.45-1.36-2.2-2.02-17.23-15.26-43.39-14.9-60.17,.83-.41,.39-.81,.8-1.26,1.15-1.54,1.2-3.4,1.1-4.6-.21-1.24-1.37-1.22-3.11,.21-4.58,1.19-1.22,2.47-2.36,3.79-3.43,9.14-7.48,20.65-11.55,33.73-11.54Z"/><path class="cls-1" d="M173.67,133.17c9.55,.26,17.66,3.33,24.48,9.64,.52,.48,1.04,.99,1.42,1.57,.82,1.26,.62,2.87-.45,3.91-1.07,1.03-2.34,1.38-3.7,.64-.67-.37-1.25-.92-1.82-1.44-11.24-10.3-28.51-10.28-39.76,.04-2.29,2.1-4.02,2.33-5.53,.73-1.46-1.54-1.09-3.52,1.05-5.49,6.96-6.39,15.23-9.43,24.31-9.59Z"/><path class="cls-1" d="M173.38,148.65c6.06,.19,10.57,1.99,14.35,5.56,1.65,1.55,1.85,3.48,.59,4.9-1.26,1.4-3.3,1.49-4.92-.05-5.36-5.13-14.15-5.02-19.33,0-1.61,1.56-3.65,1.46-4.91,.04-1.32-1.48-1.13-3.27,.57-4.87,4.08-3.83,8.95-5.62,13.65-5.57Z"/><path class="cls-1" d="M223.4,194.35c0-10.66,.12-21.33-.06-31.99-.08-4.75,3.02-7.13,7.08-7.09,11.37,.11,22.75,.03,34.13,.04,4.81,0,7.08,2.25,7.08,7.05,.02,21.33,.02,42.66,0,63.99,0,4.68-2.25,6.91-6.97,6.92-11.45,.03-22.89-.05-34.34,.04-4.78,.04-7.02-3.05-6.96-6.96,.16-10.66,.05-21.33,.05-31.99Zm6.52,0c0,10.1,.04,20.19-.04,30.29-.01,1.6,.43,2.05,2.03,2.04,10.31-.07,20.62-.03,30.93-.04,2.13,0,2.16-.02,2.16-2.1,0-20.19,0-40.38,0-60.57,0-2.08-.03-2.1-2.17-2.1-10.24,0-20.47,0-30.71,0-2.19,0-2.2,.01-2.2,2.2,0,10.1,0,20.19,0,30.29Z"/><path class="cls-1" d="M247.32,244.53c-1.13,0-2.27,.05-3.4,0-1.92-.11-3.28-1.48-3.29-3.23,0-1.74,1.35-3.17,3.28-3.24,2.41-.08,4.82-.09,7.23,0,1.93,.07,3.18,1.51,3.13,3.33-.05,1.72-1.28,3.01-3.12,3.13-1.27,.08-2.55,.02-3.83,.02Z"/></svg>