<?xml version="1.0" encoding="UTF-8"?><svg id="Capa_1" xmlns="http://www.w3.org/2000/svg" viewBox="0 0 350 350"><defs><style>.cls-1{fill:red;}</style></defs><path class="cls-1" d="M80.04,100.87c4.65-6.33,10.93-10.03,18.59-11.49,1.86-.35,1.96-.24,2.15,1.66,.12,1.28,.66,2.85,.13,3.77-.43,.74-2.2,.7-3.36,1.03-4.13,1.17-7.72,3.24-10.71,6.33-.68,.7-1.23,3.4-.71,4.13,.23,.32,.93,.43,1.42,.43,4.02,.03,8.03,.09,12.05-.01,1.75-.04,3.06,.5,4.26,1.76,2.43,2.55,4.97,4.99,7.45,7.49,1.96,1.99,1.96,3.41-.01,5.4-2.61,2.64-5.26,5.23-7.85,7.88-.93,.94-1.97,1.37-3.3,1.35-4.2-.05-8.4,.03-12.6-.04-1.24-.02-1.5,.4-1.55,1.57-.07,1.61,.44,2.75,1.63,3.86,11.14,10.35,29.13,7.69,36.63-5.56,1.24-2.19,2.68-3.24,5.16-2.92,.79,.1,1.61-.06,2.41,.03,1.36,.16,1.62-.44,1.6-1.68-.06-5.25-.03-10.5-.03-16.04-1.59,0-3.29-.06-4.98,.02-1.76,.08-2.89-.67-3.72-2.19-3.71-6.84-9.42-10.97-17.1-12.29-1.09-.19-1.31-.65-1.13-1.62,.16-.85,.2-1.72,.29-2.58,.2-2.02,.36-2.16,2.41-1.75,6.7,1.32,12.39,4.45,16.91,9.61,1.05,1.2,1.88,2.6,2.91,3.83,.37,.44,1.01,.81,1.58,.91,2.91,.5,5.35,.08,5.97-3.44,5.36-10.28,13.86-15.93,25.33-17.26,.8-.09,1.64-.44,2.3-.89,1.89-1.3,3.9-2.1,6.21-2.11,3.03,0,6.06,0,9.08,0,2.37,0,4.44,.83,6.38,2.17,.61,.43,1.4,.74,2.14,.83,12.48,1.46,21.33,7.83,26.31,19.4,.44,1.02,.97,1.26,2.02,1.37,2.73,.28,4.41-.59,6.16-2.97,11.1-15.16,33.82-15.94,46-1.81,.98,1.14,1.53,2.3,1.46,3.84-.1,2.16,0,4.32-.03,6.49-.04,2.29-1.14,3.39-3.45,3.4-4.88,.03-9.76,.03-14.64-.01-1,0-1.73,.26-2.43,.99-1.54,1.6-3.18,3.1-4.95,4.82,2,2,3.83,3.89,5.75,5.68,.33,.31,1.04,.28,1.57,.28,4.76,.02,9.52,0,14.27,.01,2.9,0,3.88,.99,3.89,3.9,0,2.16,.11,4.33-.05,6.48-.07,.97-.45,2.07-1.05,2.83-1.06,1.35-2.32,2.57-3.64,3.67-.91,.75-1.22,1.52-1.21,2.67,.04,13.47,.02,26.94,.02,40.41,0,.49-.03,.99,0,1.48,.04,.74-.34,.99-1.01,.94-.06,0-.12,0-.19,0-1.53-.05-3.06-.1-4.59-.16-.08-1.46-.23-2.92-.23-4.38-.02-11.37-.01-22.74-.01-34.11v-2.02c-2.6,.61-5.08,1.44-7.61,1.75-11.73,1.44-21.27-2.61-28.27-12.09-1.52-2.05-2.95-2.84-5.62-2.15,.17,.85,.21,1.82,.56,2.66,2.74,6.52-.66,13.29-7.61,14.63-11.15,2.14-22.33,4.1-33.5,6.1-.71,.13-1.49,.07-2.2-.06-10.81-1.93-21.61-3.91-32.43-5.83-7.48-1.33-11.19-8.03-8.28-14.99,.32-.76,.36-1.64,.59-2.74-1.28,0-2.34-.13-3.33,.05-.54,.1-1.11,.66-1.44,1.16-4.61,6.91-10.95,11.27-19.07,13-5.26,1.12-10.43,.74-15.52-.96-.58-.2-1.16-.41-1.75-.6-.1-.03-.24,.03-.49,.08v1.99c0,33.86,0,67.72,0,101.58,0,.43,.03,.87,0,1.3-.05,.74,.33,.9,1,.95,4.84,.43,4.84,.44,4.84-4.35,0-11.74,0-23.48,0-35.22,0-2.18-.17-1.95,2.02-1.97,.99,0,1.98,.04,2.97,0,.83-.04,1.06,.33,1.05,1.1-.03,2.1,.03,4.2-.03,6.3-.03,1.04,.14,1.54,1.38,1.53,5.99-.06,11.99-.05,17.98,0,1.08,0,1.34-.37,1.34-1.39-.04-6.98-.04-13.96,0-20.95,0-1.07-.36-1.34-1.38-1.34-5.99,.04-11.99,.04-17.98,0-1.07,0-1.37,.36-1.34,1.38,.06,2.04-.05,4.08,.04,6.12,.05,1.17-.37,1.52-1.49,1.44-1.11-.08-2.23-.07-3.33,0-.99,.06-1.27-.35-1.25-1.29,.04-2.66,.01-5.31,.01-7.97,0-8.28,.13-16.56-.05-24.84-.1-4.4,3.17-7.64,7.61-7.6,14.77,.15,29.53,.15,44.3,0,4.47-.04,7.63,3.21,7.61,7.6-.11,26.26-.05,52.52-.05,78.78,0,.49,.04,.99,0,1.48-.08,.86,.23,1.28,1.14,1.18,.37-.04,.74,0,1.11,0,32.07,0,64.13,0,96.2,0,.37,0,.74-.03,1.11,0,.85,.08,1.29-.21,1.19-1.13-.05-.49,0-.99,0-1.48,0-18.23,0-36.45,0-54.68,0-2.03,0-2.05,1.96-2.03,1.28,.02,3.02-.37,3.72,.3,.68,.65,.35,2.41,.35,3.69,.01,17.73,0,35.47,.01,53.2,0,2.41-.21,2.1,2.03,2.12,2.9,.03,3.88,1.01,3.89,3.91,.01,3.4-.05,6.8,.03,10.19,.04,1.54-.35,2.78-1.56,3.75H121.57c-.02-1.05-.06-2.1-.04-3.15,.05-2.84-.54-2.64,2.69-2.64,45.35,0,90.7,0,136.05,0,3.63,0,3.64,0,3.62-3.58-.02-2.83,.38-2.44-2.45-2.44-57.03,0-114.06,0-171.09,0-1.4,0-3.35-.36-4.03,.38-.72,.78-.18,2.69-.3,4.09-.11,1.26,.43,1.58,1.59,1.57,3.46-.05,6.92-.02,10.38-.02,5.38,0,10.75,.02,16.13-.01,1.14,0,1.72,.25,1.6,1.55-.12,1.41-.06,2.84-.07,4.26h-34.11c-.49-.49-.99-.99-1.48-1.48,0-4.82,0-9.64,0-14.46,.91-1.45,2.19-2,3.9-1.93,2.16,.08,1.97,.28,1.98-1.97,0-17.73,0-35.46,0-53.18,0-17.6-.01-35.21,.02-52.81,0-1.16-.36-1.88-1.22-2.67-1.67-1.54-3.14-3.29-4.69-4.96,0-3.34,0-6.67,0-10.01,.9-1.45,2.18-1.96,3.89-1.93,4.74,.08,9.49,.04,14.23,.01,.58,0,1.33-.04,1.71-.39,1.88-1.74,3.66-3.59,5.68-5.61-1.69-1.6-3.27-2.98-4.71-4.49-.87-.91-1.76-1.31-3.05-1.29-4.56,.08-9.12-.03-13.68,.06-1.76,.03-3.14-.4-4.07-1.93v-10.01Zm136.49,8.95c0,4.67-.02,9.11,.01,13.55,0,1.33-.32,3.07,.37,3.88,.57,.66,2.44,.35,3.71,.24,2.4-.22,3.81,.74,5.01,2.87,7.49,13.28,25.42,15.99,36.61,5.68,1.25-1.15,1.79-2.33,1.69-4.02-.07-1.11-.3-1.49-1.47-1.47-4.2,.07-8.4,0-12.6,.05-1.4,.02-2.48-.42-3.46-1.42-2.59-2.65-5.24-5.24-7.85-7.88-1.89-1.91-1.89-3.35-.01-5.26,2.34-2.37,4.8-4.65,7.04-7.11,1.5-1.65,3.14-2.32,5.37-2.23,3.82,.16,7.66,.06,11.49,.02,.47,0,1.33-.31,1.34-.48,.01-1.47,.54-3-.86-4.3-6.28-5.84-13.56-8.17-21.99-6.31-6.96,1.53-12.17,5.55-15.58,11.8-.94,1.73-2.17,2.56-4.15,2.41-1.53-.12-3.07-.02-4.67-.02ZM127.5,252.09c7.29,0,14.58,0,21.87,0,1.8,0,1.8-.01,1.81-1.8,0-7.66,0-15.32,0-22.99,0-1.8-.01-1.81-1.8-1.81-14.58,0-29.17,0-43.75,0-1.8,0-1.8,.01-1.81,1.8,0,7.66,0,15.32,0,22.99,0,1.8,.01,1.8,1.8,1.81,7.29,0,14.58,0,21.87,0Zm38.61-140.65c0,6.86,.03,13.72-.02,20.58,0,1.14,.32,1.47,1.46,1.46,4.94-.06,9.89-.06,14.83,0,1.14,.01,1.46-.32,1.46-1.46-.04-13.66-.01-27.31-.03-40.97,0-3.18-1.77-4.91-4.95-4.95-2.47-.03-4.94-.02-7.41,0-3.66,.02-5.32,1.66-5.32,5.32-.01,6.67,0,13.35,0,20.02Zm-6.03-21.86c-.3,0-.48-.03-.65,0-11.32,2.12-19.74,12.14-19.98,23.91-.12,6.11,0,12.23-.06,18.35-.02,1.31,.37,1.65,1.66,1.64,5.68-.07,11.37-.02,17.05-.03,2.21,0,1.98,.21,1.98-1.99,0-13.41,0-26.81,0-40.22,0-.55,0-1.1,0-1.66Zm29.76-.07c0,4.98,0,9.85,0,14.73,0,9.2,0,18.41,0,27.61,0,.89-.13,1.65,1.27,1.64,6.05-.07,12.11-.05,18.16-.01,.97,0,1.26-.32,1.26-1.27-.05-6.49,.14-12.98-.1-19.46-.42-11.55-8.93-21.11-20.58-23.23Zm-14.73,49.98c-2.96,0-5.93,0-8.89,0-8.83,0-17.66,0-26.49,0-1.58,0-1.94,.44-1.69,1.98,.35,2.1,1.77,3.39,4.19,3.82,9.46,1.71,18.92,3.45,28.39,5.11,1.98,.35,3.91,.93,6.02,.52,6.41-1.25,12.86-2.35,19.29-3.51,3.94-.71,7.89-1.43,11.83-2.12,1.98-.35,3.44-1.28,3.98-3.34,.52-1.96,.17-2.45-1.82-2.45-11.61,0-23.21,0-34.82,0Zm-23.93,68.21c0-3.46-.04-6.92,.02-10.38,.02-1.09-.22-1.51-1.42-1.5-5.93,.06-11.86,.05-17.8,0-1.08,0-1.51,.22-1.5,1.42,.06,6.92,.05,13.84,0,20.76,0,1.09,.22,1.51,1.42,1.5,5.93-.06,11.86-.07,17.8,0,1.3,.02,1.51-.48,1.49-1.61-.06-3.4-.02-6.8-.02-10.2Zm-37.04-17.88c3.02,0,6.04-.03,9.07,.02,.92,.01,1.3-.23,1.29-1.23-.04-6.04-.03-12.09,0-18.13,0-.87-.13-1.34-1.19-1.33-5.98,.05-11.97,.04-17.95,0-1.09,0-1.56,.35-1.55,1.49,.03,5.98,.03,11.97,0,17.95,0,.98,.32,1.27,1.27,1.25,3.02-.05,6.04-.02,9.07-.02Zm26.72,0c3.02,0,6.04-.03,9.07,.02,.96,.02,1.27-.29,1.27-1.26-.04-5.98-.04-11.96,0-17.95,0-1.15-.48-1.49-1.56-1.49-5.98,.03-11.96,.03-17.95,0-.86,0-1.19,.24-1.19,1.15,.03,6.11,.04,12.21,0,18.32,0,1.01,.39,1.24,1.3,1.23,3.02-.04,6.04-.02,9.07-.02Z"/><path class="cls-1" d="M209.25,163.11c12.85,0,25.71,0,38.56,0,3.43,0,4.31,.86,4.31,4.22,0,20.95,0,41.9,0,62.84,0,3.3-.9,4.22-4.13,4.22-25.95,0-51.91,0-77.86,0-3.18,0-4.12-.92-4.12-4.04,0-21.07,0-42.14,0-63.21,0-3.11,.94-4.03,4.13-4.03,13.04,0,26.08,0,39.11,0Zm-.18,65.25c11.68,0,23.36,0,35.04,0,2.21,0,1.98,.22,1.99-1.99,0-18.41,0-36.83,0-55.24,0-2.21,.22-1.99-1.99-1.99-23.36,0-46.72,0-70.07,0-2.21,0-1.98-.22-1.99,1.99,0,18.41,0,36.83,0,55.24,0,2.21-.22,1.98,1.99,1.99,11.68,0,23.36,0,35.04,0Z"/><path class="cls-1" d="M142.41,231.33q2.94,0,2.94,2.91,0,3.13-3.09,3.13-2.94,0-2.94-2.91,0-3.13,3.09-3.13Z"/><path class="cls-1" d="M184.58,217.5c2.94-3.16,5.76-6.2,8.58-9.22,10.58-11.34,21.16-22.67,31.74-34.01,1.27-1.36,1.28-1.36,2.69-.06,.95,.87,1.89,1.76,2.93,2.73-.3,.39-.52,.74-.79,1.03-13.19,14.14-26.39,28.27-39.54,42.45-1,1.07-1.57,1.01-2.47,.03-.91-1-1.97-1.86-3.14-2.95Z"/><path class="cls-1" d="M239.53,191.84c-5.33,5.92-10.49,11.66-15.65,17.4-3.31,3.67-6.61,7.35-9.92,11.02-1.18,1.31-1.19,1.31-2.54,.1-1.01-.9-2-1.82-3.13-2.84,2.03-2.27,3.99-4.47,5.96-6.66,6.53-7.26,13.06-14.51,19.59-21.76,1.18-1.31,1.18-1.32,2.55-.11,1.01,.9,2,1.82,3.14,2.85Z"/><path class="cls-1" d="M188.94,197.88c-1.42-1.44-2.76-2.78-4.16-4.2,.33-.38,.63-.76,.97-1.11,5.19-5.2,10.42-10.36,15.56-15.62,1.01-1.03,1.6-1.03,2.46,.04,.87,1.09,2.51,2.04,2.59,3.15,.07,.92-1.61,1.99-2.56,2.95-4.49,4.51-8.99,9-13.49,13.5-.43,.43-.88,.83-1.37,1.29Z"/></svg>