<?xml version="1.0" encoding="UTF-8"?><svg id="Capa_1" xmlns="http://www.w3.org/2000/svg" viewBox="0 0 350 350"><defs><style>.cls-1{fill:red;}</style></defs><path class="cls-1" d="M60.69,145.42c.52-1.14,.92-2.36,1.58-3.42,2.11-3.34,5.27-4.98,9.18-5,12.35-.04,24.7-.02,37.04,0,.73,0,1.51,.09,2.18,.36,1.47,.59,2.2,1.8,2.06,3.35-.13,1.54-.98,2.67-2.56,2.99-.94,.19-1.92,.2-2.88,.2-11.38,.01-22.76,0-34.14,.01-.89,0-1.8,0-2.67,.14-1.79,.31-3.03,1.86-3,3.62,.03,1.76,1.33,3.26,3.11,3.54,.58,.09,1.19,.09,1.78,.09,15.32,0,30.65,0,45.97,0,.66,0,1.32-.06,1.95-.09,.07-.25,.18-.43,.13-.53-1.87-3.99-1.16-7.67,.84-11.49,12.32-23.57,24.53-47.2,36.76-70.82,2.18-4.22,5.5-6.69,10.31-6.38,1.9,.12,3.81,1.08,5.59,1.92,.85,.4,1.28,.52,2.12-.01,6.09-3.86,12.52-2.05,15.9,4.46,11.51,22.15,23,44.31,34.44,66.5,.82,1.6,1.75,2.18,3.56,2.17,15.99-.07,31.98-.05,47.98-.04,5.41,0,9.51,2.85,10.94,7.49,1.54,4.99-.66,10.3-5.45,12.55-1.45,.68-1.89,1.59-2.15,2.99-4.2,22.56-8.43,45.12-12.66,67.68-2.01,10.73-4.07,21.45-6.04,32.19-1.51,8.22-6.84,12.8-15.12,12.8-48.27,0-96.55,0-144.82,0-8.3,0-13.64-4.58-15.17-12.75-4.38-23.51-8.82-47.01-13.23-70.51-1.85-9.85-3.7-19.71-5.49-29.57-.25-1.37-.76-2.2-2.1-2.78-3.15-1.36-4.8-4.07-5.9-7.18,0-1.49,0-2.98,0-4.46Zm114.28-63.76c-9.66,18.63-19.1,36.83-28.69,55.33,1.33,0,2.21,0,3.1,0,14.13,0,28.26,0,42.38,.01,.96,0,1.95,.03,2.86,.28,1.58,.43,2.41,1.75,2.33,3.37-.08,1.59-1.07,2.79-2.69,3.09-.87,.16-1.77,.16-2.66,.17-9.22,.01-18.44,0-27.66,0-6.39,0-12.79-.02-19.18,.02-.76,0-1.93,.07-2.22,.53-1.3,2.09-2.35,4.34-3.6,6.74h72.1c-12.02-23.19-23.93-46.15-36.06-69.54Zm-49.69,76.71c-.08,.37-.14,.51-.13,.65,.97,9.91,1.99,19.82,2.89,29.74,.14,1.58,.71,1.95,2.17,1.94,13.02-.04,26.03-.02,39.05-.03,2.21,0,2.23-.03,2.24-2.24,.01-9.22,0-18.45,0-27.67,0-2.5-.02-2.52-2.62-2.52-13.76,0-27.52,0-41.28,0-.79,0-1.58,.08-2.32,.12Zm99.53,.11c-.48-.09-.83-.21-1.18-.21-14.5-.01-29.01,0-43.51-.04-1.49,0-1.68,.71-1.68,1.93,.03,9.52,.03,19.04,0,28.56,0,1.39,.38,1.99,1.88,1.98,13.24-.04,26.48-.04,39.72,0,1.33,0,1.75-.44,1.87-1.77,.47-5.48,1.09-10.94,1.62-16.42,.45-4.64,.86-9.29,1.29-14.03Zm-74.6,39.12c-6.39,0-12.78,0-19.17,0-2.09,0-2.15,.04-1.95,2.13,.89,9.46,1.85,18.92,2.71,28.38,.15,1.63,.81,2.04,2.39,2.03,11.74-.07,23.48-.07,35.22,0,1.69,.01,2.14-.51,2.13-2.15-.07-9.43-.07-18.87,0-28.31,.01-1.69-.53-2.14-2.16-2.12-6.39,.08-12.78,.03-19.17,.03Zm49.55,0c-6.46,0-12.93,.03-19.39-.03-1.42-.01-1.95,.39-1.94,1.88,.05,9.58,.05,19.17,0,28.75,0,1.42,.39,1.93,1.89,1.93,11.89-.05,23.77-.06,35.66,0,1.58,0,2.03-.6,2.17-2.02,.88-9.46,1.82-18.92,2.72-28.38,.2-2.1,.15-2.13-1.94-2.13-6.39-.01-12.78,0-19.17,0Zm-124.21-39.23c0,.46-.04,.75,0,1.02,1.83,9.78,3.72,19.56,5.48,29.35,.29,1.62,1.02,1.97,2.51,1.96,9.52-.06,19.04-.03,28.56-.03,2.6,0,5.21-.02,7.81,0,1.03,0,1.44-.34,1.32-1.46-.98-9.54-1.9-19.08-2.86-28.62-.24-2.34-.29-2.35-2.63-2.35-12.65,0-25.29,0-37.94,0-.72,0-1.45,.08-2.27,.12Zm177.78-.13c-6.47,0-12.94,.04-19.42-.03-1.51-.01-2.19,.26-2.34,2.01-.8,9.33-1.75,18.65-2.68,27.97-.25,2.47-.29,2.48,2.12,2.48,11.6,0,23.21,0,34.81,0q2.74,0,3.24-2.66c1.69-9.13,3.39-18.26,5.08-27.39,.44-2.37,.44-2.38-2.07-2.38-6.25,0-12.5,0-18.75,0Zm-170.42,39.48c.09,.86,.12,1.59,.26,2.31,1.72,9.12,3.45,18.23,5.18,27.34q.52,2.73,3.35,2.73c9.88,0,19.77,0,29.65,0,3.96,0,3.89,0,3.48-4.05-.9-8.72-1.73-17.44-2.56-26.16-.22-2.27-.17-2.29-2.51-2.29-11.59,0-23.19,0-34.78,0-.65,0-1.3,.07-2.07,.12Zm184.26,.11c-.48-.12-.69-.21-.9-.21-12.26-.01-24.52,0-36.78-.04-1.3,0-1.65,.57-1.74,1.72-.2,2.67-.48,5.32-.74,7.99-.66,6.87-1.35,13.75-1.97,20.62-.19,2.15-.12,2.19,1.88,2.19,10.78,.01,21.55-.02,32.33,.04,1.51,0,2.06-.51,2.3-1.95,.78-4.61,1.71-9.19,2.57-13.79,1.02-5.47,2.02-10.94,3.05-16.57Zm-134.25,39.11c-.07,.47-.12,.62-.1,.76,.84,8.8,1.71,17.59,2.49,26.39,.13,1.47,.72,1.8,2.09,1.8,10.63-.05,21.25-.02,31.88-.03,2.23,0,2.24-.01,2.24-2.39,0-8.02,0-16.05,0-24.07,0-2.44-.01-2.45-2.4-2.45-11.37,0-22.74,0-34.11,0h-2.09Zm84.27,.19c-.42-.08-.71-.18-.99-.18-12.04-.01-24.07,0-36.11-.04-1.29,0-1.65,.48-1.64,1.69,.03,8.47,.05,16.94-.01,25.41-.01,1.5,.52,1.87,1.94,1.86,10.77-.05,21.55-.06,32.32,0,1.51,0,1.87-.57,1.98-1.91,.35-4.29,.82-8.57,1.23-12.86,.44-4.64,.85-9.28,1.28-13.99Zm-126.86-.19c-.02,.51-.08,.74-.04,.95,1.34,7.22,2.65,14.45,4.06,21.65,.79,4.02,3.59,6.29,7.72,6.31,8.17,.04,16.34-.02,24.51,.04,1.54,.01,2.1-.35,1.93-1.98-.86-8.19-1.62-16.4-2.46-24.59-.24-2.38-.32-2.38-2.82-2.38-9.58,0-19.16,0-28.75,0-1.33,0-2.66,0-4.16,0Zm169.47,.3c-.38-.15-.52-.24-.65-.24-11.22-.02-22.43-.02-33.65-.07-1.08,0-1.38,.42-1.47,1.42-.29,3.4-.67,6.79-1.01,10.19-.51,5.17-1.02,10.34-1.53,15.51-.1,1.04-.14,1.85,1.38,1.84,8.54-.06,17.08,.02,25.63-.07,3.48-.04,6.02-2.18,6.92-5.56,.44-1.64,.71-3.33,1.02-5.01,1.12-5.97,2.23-11.94,3.36-18.01ZM171.44,73.04c.02-2.24-.86-3.49-2.5-4.07-1.61-.57-2.94-.04-3.99,1.17-.48,.55-.79,1.25-1.13,1.91-12.21,23.52-24.41,47.05-36.6,70.58-.34,.66-.7,1.32-.9,2.03-.53,1.93,.29,3.64,2.04,4.42,1.62,.72,3.42,.2,4.52-1.32,.26-.36,.45-.77,.65-1.16,12.38-23.85,24.75-47.71,37.11-71.57,.4-.77,.64-1.63,.78-2Zm52.33,72.17c-.23-.55-.54-1.54-1.01-2.45-12.22-23.6-24.46-47.19-36.69-70.78-.34-.66-.66-1.36-1.15-1.9-1.08-1.18-2.41-1.7-4.02-1.08-1.62,.62-2.59,1.89-2.37,3.6,.13,1.07,.58,2.14,1.08,3.11,12.15,23.47,24.32,46.93,36.5,70.39,.37,.72,.74,1.48,1.27,2.08,1.09,1.22,2.5,1.58,4.05,.97,1.54-.61,2.3-1.81,2.34-3.93Zm5.93,6c.59,.03,1.17,.09,1.76,.09,15.39,0,30.78,0,46.17,0,.52,0,1.04,0,1.56-.07,1.91-.25,3.28-1.78,3.27-3.62,0-1.76-1.26-3.26-3.06-3.57-.65-.11-1.33-.12-2-.12-14.72,0-29.44,0-44.16,0-.52,0-1.08-.09-1.55,.08-.38,.14-.86,.56-.93,.93-.4,2.01-.7,4.05-1.06,6.29Z"/></svg>