<?xml version="1.0" encoding="UTF-8"?><svg id="Capa_1" xmlns="http://www.w3.org/2000/svg" viewBox="0 0 350 350"><defs><style>.cls-1{fill:red;}</style></defs><path class="cls-1" d="M106.22,264.37c-.2-.1-.4-.23-.61-.3-5.11-1.63-7.9-5.4-7.9-10.79,0-33.46,0-66.92,0-100.37,0-.47-.05-.95,0-1.41,.12-.94-.26-1.41-1.12-1.88-7.87-4.28-11.91-10.93-11.93-19.91-.03-13.76,0-27.52,0-41.28,0-.12,0-.24,0-.35,.02-2.82,1.37-4.45,3.66-4.4,2.2,.05,3.49,1.65,3.49,4.39,0,11.76,0,23.52,0,35.28,0,2.19-.23,1.95,2,1.95,1.34,0,2.68-.08,4.02-.13,.08-1.39,.21-2.78,.22-4.16,.02-10.82,0-21.64,.01-32.46,0-.59-.03-1.18,.04-1.76,.23-1.78,1.72-3.09,3.5-3.11,1.77-.02,3.3,1.27,3.56,3.04,.08,.58,.05,1.17,.05,1.76,0,11.64,0,23.29,0,34.93,0,2.09-.22,1.88,1.89,1.9,1.12,0,2.24-.03,3.35,.01,.76,.03,1.09-.25,1.02-1.02-.04-.41,0-.82,0-1.23,0-11.47,0-22.93,0-34.4,0-.59-.03-1.18,.03-1.76,.2-1.87,1.73-3.23,3.57-3.22,1.84,.01,3.34,1.39,3.52,3.27,.06,.58,.03,1.18,.03,1.76,0,11.58,0,23.17,0,34.75,0,1.83,0,1.86,1.77,1.83,1.45-.03,2.89-.14,4.34-.21,.05-1.4,.13-2.8,.13-4.2,.01-10.58,0-21.17,0-31.75,0-.41,0-.82,0-1.23,.03-2.65,1.43-4.27,3.66-4.22,2.16,.05,3.48,1.63,3.49,4.22,0,14.17,.1,28.34-.03,42.51-.08,8.38-4.02,14.72-11.29,18.85-1.43,.81-1.75,1.64-1.75,3.12,.03,33.63,.03,67.27,.02,100.9,0,5.39-2.78,9.15-7.9,10.79-.21,.07-.41,.2-.61,.3h-4.23Zm-14.14-131.85c.1,.61,.14,1.07,.27,1.51,1.36,4.72,4.33,8,8.89,9.81,3.26,1.3,3.63,1.78,3.63,5.32,0,34.34,0,68.68,0,103.02,0,.65-.04,1.3,.04,1.94,.24,1.82,1.75,3.15,3.48,3.12,1.67-.03,3.12-1.3,3.37-3.04,.1-.69,.06-1.41,.06-2.11,0-34.34,0-68.68,0-103.02,0-3.41,.42-3.96,3.55-5.2,4.56-1.79,7.56-5.05,8.93-9.77,.14-.48,.18-.99,.29-1.59h-32.51Z"/><path class="cls-1" d="M252.65,264.37c-.26-.11-.52-.25-.79-.34-4.88-1.58-7.72-5.43-7.72-10.57-.01-16.58-.02-33.16,.02-49.74,0-1.32-.3-2.3-1.31-3.23-2.02-1.88-3.97-3.85-5.85-5.87-3.18-3.41-4.84-7.49-4.85-12.15-.03-15.99-.4-32,.09-47.97,.65-20.97,9.97-37.58,27.02-49.83,2.5-1.8,4.36-1.28,6.09,1.51V255.91c-.65,1.35-1.17,2.79-1.97,4.05-1.51,2.38-3.92,3.55-6.5,4.42h-4.23Zm5.6-169.33c-.11-.06-.21-.13-.32-.19-.76,.71-1.55,1.4-2.27,2.14-10.77,10.96-16.22,24.17-16.34,39.5-.11,15.05-.01,30.1-.03,45.15,0,3.48,1.18,6.42,3.66,8.86,2.18,2.14,4.28,4.37,6.51,6.46,1.34,1.26,1.88,2.67,1.87,4.52-.05,16.93-.03,33.86-.03,50.8,0,.65-.04,1.3,.06,1.94,.26,1.74,1.71,3.01,3.38,3.03,1.66,.02,3.16-1.22,3.45-2.95,.11-.63,.07-1.29,.07-1.93,0-51.85,0-103.71,0-155.56v-1.76Z"/><path class="cls-1" d="M225.18,173.99c.02,27.67-22.44,50.18-50.1,50.2-27.67,.02-50.18-22.45-50.2-50.1-.02-27.68,22.44-50.18,50.1-50.2,27.68-.02,50.18,22.43,50.2,50.1Zm-50.22-42.94c-23.66,.04-42.97,19.41-42.93,43.06,.04,23.65,19.42,42.97,43.06,42.93,23.66-.04,42.98-19.43,42.93-43.07-.05-23.67-19.41-42.97-43.07-42.93Z"/><path class="cls-1" d="M175.07,241.8c-12.86-.33-24.74-3.68-35.65-10.44-.5-.31-1.01-.62-1.43-1.02-1.23-1.17-1.44-2.93-.58-4.36,.88-1.47,2.66-2.12,4.27-1.51,.54,.21,1.05,.52,1.55,.82,10.67,6.57,22.29,9.66,34.78,8.96,17.29-.97,31.66-8.1,43-21.23,.58-.67,1.11-1.38,1.75-1.98,1.37-1.28,3.24-1.32,4.66-.17,1.37,1.11,1.71,3.05,.79,4.62-.18,.3-.4,.58-.62,.85-10.58,12.92-24.02,21.06-40.47,24.05-3.97,.72-8.04,.95-12.06,1.4Z"/><path class="cls-1" d="M178.61,106.58c15.1,.22,31.22,6.89,44.56,20.18,.41,.41,.84,.84,1.16,1.32,.96,1.42,.74,3.35-.45,4.52-1.2,1.18-3.13,1.37-4.53,.37-.61-.44-1.14-1.01-1.68-1.55-10.38-10.26-22.8-16.11-37.37-17.41-11.1-.99-21.62,1.02-31.66,5.79-.53,.25-1.06,.53-1.62,.68-1.78,.49-3.48-.34-4.21-2-.7-1.58-.21-3.33,1.26-4.35,.43-.3,.91-.53,1.39-.76,9.29-4.51,19.09-6.81,33.14-6.79Z"/><path class="cls-1" d="M133.53,219.38c0,2.01-1.58,3.56-3.57,3.53-1.99-.03-3.67-1.73-3.66-3.73,.01-1.97,1.62-3.55,3.59-3.54,2,.02,3.65,1.7,3.64,3.73Z"/><path class="cls-1" d="M142.57,172.94c1-13.13,7.18-22.8,19.18-28.53,2.19-1.05,4.2-.42,5.14,1.46,.96,1.93,.17,3.95-2.11,5.02-6.48,3.03-11.16,7.79-13.48,14.57-.93,2.73-1.18,5.71-1.59,8.6-.3,2.13-1.62,3.57-3.62,3.56-1.76-.01-3.26-1.31-3.51-3.09-.07-.52-.01-1.05-.01-1.58Z"/><path class="cls-1" d="M174.92,148.69c-2.04-.01-3.59-1.54-3.6-3.55,0-1.99,1.57-3.56,3.58-3.59,2.08-.03,3.73,1.62,3.69,3.66-.04,1.99-1.63,3.49-3.67,3.48Z"/></svg>