<?xml version="1.0" encoding="UTF-8"?><svg id="Capa_1" xmlns="http://www.w3.org/2000/svg" viewBox="0 0 350 350"><defs><style>.cls-1{fill:red;}</style></defs><path class="cls-1" d="M174.41,302.58c-.5-.74-.94-1.52-1.51-2.2-24.2-29.01-48.48-57.96-72.54-87.08-4.56-5.52-8.25-11.74-12.31-17.67-.6-.87-.99-1.88-1.44-2.77,.14-.19,.17-.29,.24-.32,1.97-1.03,3.95-2.05,5.92-3.08,1.16,1.73,2.26,3.51,3.5,5.18,5.92,7.95,11.58,16.12,17.89,23.75,19.65,23.77,39.55,47.32,59.35,70.96,.37,.44,.78,.85,1.31,1.41,.5-.47,1.01-.85,1.4-1.33,22.8-27.38,45.62-54.74,68.37-82.16,10.26-12.36,17.47-26.3,20.19-42.22,5.77-33.73-3.9-62.45-29.01-85.66-14.26-13.18-31.41-20.64-50.7-22.75-47.51-5.2-89.42,26.39-99.47,70.72-3.01,13.26-3.08,26.54-.18,39.82,.39,1.77-.06,2.41-1.75,2.63-1.22,.16-2.42,.52-3.61,.88-1.24,.37-1.81,0-2.01-1.31-.57-3.75-1.47-7.47-1.83-11.24-2.27-23.36,2.7-45.07,15.7-64.66,15.77-23.77,37.8-38.56,65.96-43.46,51.2-8.9,100.24,22.64,113.04,72.93,7.8,30.64,2.12,59.16-16.95,84.44-11.54,15.3-23.97,29.94-36.23,44.69-13.58,16.34-27.42,32.46-41.14,48.69-.47,.55-.8,1.21-1.19,1.82h-.99Z"/><path class="cls-1" d="M174.9,185.34c-16.78,0-33.57,0-50.35,0-2.94,0-2.95-.01-2.95-3.01,0-22.99,0-45.97,0-68.96,0-2.92,0-2.93,2.96-2.93,8.68,0,17.37-.1,26.04,.07,2.36,.05,3.6-.74,4.48-2.81,.87-2.05,2.08-3.94,3.05-5.95,.56-1.16,1.23-1.72,2.64-1.71,9.43,.07,18.85,.07,28.28,0,1.4-.01,2.08,.54,2.64,1.7,1,2.08,2.27,4.05,3.14,6.18,.81,1.98,2.01,2.6,4.13,2.57,8.85-.12,17.69-.05,26.54-.05,2.7,0,2.71,.01,2.71,2.68,0,23.15,0,46.3,0,69.45,0,2.75-.01,2.76-2.95,2.76-16.78,0-33.57,0-50.35,0Zm-26.8-58.53c5.37,0,10.75,.04,16.12-.03,1.3-.02,2.63-.22,3.87-.6,3.72-1.15,7.57-1.63,11.24-.52,3.83,1.16,7.64,1.13,11.5,1.14,3.64,.01,7.27,.02,10.91,.03,5.62,0,11.24-.05,16.86,.03,1.51,.02,2.1-.42,1.98-1.95-.11-1.48-.01-2.97-.02-4.46-.02-2.4-.02-2.41-2.45-2.42-8.1,0-16.2-.04-24.3,.03-1.61,.02-2.57-.38-3.26-1.93-1.08-2.41-2.46-4.68-3.64-7.04-.48-.97-1-1.51-2.22-1.49-6.53,.07-13.06,.06-19.59,0-1.05,0-1.65,.33-2.11,1.27-1.09,2.22-2.45,4.33-3.38,6.61-.87,2.12-2.2,2.62-4.38,2.58-8.02-.13-16.04-.02-24.05-.08-1.52-.01-2.08,.44-1.97,1.96,.11,1.56,.13,3.15,0,4.71-.16,1.82,.62,2.2,2.28,2.17,5.54-.09,11.08-.03,16.61-.03Zm26.55,50.81c13.3,0,26.61,0,39.91,0,1.32,0,2.65-.09,3.96,.02,1.68,.14,2.16-.6,2.06-2.16-.1-1.65-.15-3.32,0-4.95,.19-1.93-.61-2.33-2.4-2.32-10.99,.08-21.98,.02-32.97,.06-1.13,0-2.26,.4-3.39,.52-3.17,.34-6.35,.9-9.52,.86-2.25-.03-4.49-1.3-6.75-1.33-11.57-.15-23.14-.05-34.71-.09-1.38,0-1.68,.61-1.64,1.8,.06,1.49,0,2.97,.01,4.46q0,3.12,3.03,3.13c14.13,0,28.26,0,42.39,0Zm-18.14-43.07c-.55-.07-.84-.13-1.14-.13-8.1,0-16.2,.04-24.3-.04-1.66-.02-1.87,.7-1.86,2.08,.04,7.27,.01,14.55,.02,21.82,0,2.35,.02,2.37,2.5,2.37,7.52,0,15.05,0,22.57,0,.63,0,1.27-.06,2.2-.11-5.36-8.7-5.36-17.28,0-25.98Zm36.7,26.09c8.92,0,17.43-.02,25.94,.02,1.58,0,1.42-.99,1.42-1.98,0-7.44-.05-14.88,.04-22.32,.02-1.78-.74-1.98-2.21-1.97-7.85,.05-15.71,.02-23.56,.03-.44,0-.88,.07-1.56,.13,5.36,8.72,5.36,17.23-.06,26.1Zm-18.33-27.82c-8.2,0-14.83,6.64-14.79,14.79,.04,8.05,6.6,14.59,14.7,14.65,8.19,.06,14.89-6.54,14.92-14.68,.02-8.16-6.62-14.76-14.83-14.76Z"/><path class="cls-1" d="M175.03,222.2c31.96-.38,60.41-21.04,70.43-51.45,1.09-3.32,.67-3.1,3.82-2.13,5.01,1.53,5.06,.22,2.97,5.75-11.39,30.04-32.8,48.74-64.53,54.05-43.49,7.29-83.57-21.53-92.74-63.09-9.83-44.54,18.61-88.47,63.25-97.85,44.2-9.29,88.15,19.69,96.93,64.03,.88,4.44,1.08,9.01,1.61,13.52,.16,1.37-.36,1.83-1.77,1.9-5.74,.28-5.64,.32-6.15-4.98-2.59-26.88-15.75-47.13-39.43-59.83-43.52-23.35-97.18,2.17-107.28,50.58-8.36,40.11,18.18,80.09,58.39,87.8,4.77,.91,9.66,1.15,14.5,1.71Z"/><path class="cls-1" d="M90.22,182.85c-2.05,.86-3.98,1.72-5.96,2.44-.35,.13-.92-.26-1.34-.5-.17-.1-.22-.43-.31-.65-2.54-5.8-2.29-6.25,3.83-7.75,1.04-.25,1.47-.08,1.79,.93,.57,1.79,1.27,3.53,2,5.53Z"/><path class="cls-1" d="M153.48,252.66c1.96-1.62,3.79-3.13,5.86-4.84,1.62,1.96,3.17,3.83,4.84,5.85-1.97,1.63-3.79,3.14-5.83,4.84-1.65-1.99-3.2-3.85-4.87-5.85Z"/><path class="cls-1" d="M167.82,269.99c-1.7-2.07-3.21-3.9-4.84-5.87,1.97-1.63,3.8-3.14,5.85-4.85,1.61,1.96,3.16,3.83,4.83,5.86-1.97,1.63-3.78,3.14-5.85,4.86Z"/><path class="cls-1" d="M251.97,154.16c5.12,.36,4.69-.14,3.97,4.93-.07,.49-.14,.98-.16,1.47-.07,1.36-.72,1.91-2.09,1.59-1.36-.31-2.73-.66-4.11-.79-1.38-.14-1.62-.79-1.34-1.98,.19-.8,.23-1.63,.35-2.44q.45-2.93,3.39-2.78Z"/><path class="cls-1" d="M178.12,147.76c-.05,4.16,.39,3.52-3.55,3.56-4.1,.04-4.12,0-4.1-4.01,.02-4.1-.36-3.53,3.56-3.56,4.09-.03,4.09,0,4.09,4.01Z"/></svg>