<?xml version="1.0" encoding="UTF-8"?><svg id="Capa_1" xmlns="http://www.w3.org/2000/svg" viewBox="0 0 350 350"><defs><style>.cls-1{fill:red;}</style></defs><path class="cls-1" d="M290.42,136.99c-8.77-16.76-17.52-33.54-26.44-50.22-4.81-9-12.14-15.47-21.59-19.3-7.06-2.86-14.26-5.4-21.45-7.92-1.59-.56-3.49-.84-5.14-.56-10.69,1.83-21.43,3.09-32.28,3.55-15.01,.64-29.89-.4-44.71-2.79-3.43-.56-6.81-1.55-10.36-.16-6.6,2.59-13.32,4.86-19.93,7.43-9.98,3.88-17.59,10.55-22.79,19.92-1.56,2.8-2.99,5.67-4.48,8.5-7.1,13.5-14.09,27.07-21.36,40.47-2.8,5.17-1.1,9.65,4.08,11.24,1.23,.38,2.41,.96,3.61,1.44,11.66,4.72,23.31,9.46,35,14.12,1.39,.55,1.87,1.24,1.7,2.69-.23,1.89-.31,3.8-.42,5.71-.03,.55-.06,1.1-.1,1.65,.54,.34,1.08,.71,1.6,1.14,1.29,1.05,2.57,2.12,3.84,3.2,.38-6.5,.76-13,1.16-19.51,.69-11.28,1.41-22.55,2.11-33.82,.08-1.22,.17-2.44,.16-3.66-.03-1.81-1.15-3.05-2.69-3.11-1.53-.06-2.77,1.1-2.9,2.91-.33,4.49-.61,8.99-.88,13.48-.21,3.5-.38,7.01-.6,10.52-.05,.74-.21,1.47-.35,2.43-4.32-1.7-8.42-3.3-12.52-4.92-6.38-2.52-12.76-5.04-19.15-7.55-.71-.28-1.42-.62-2.16-.72-1.35-.18-2.35,.44-2.94,1.69-.57,1.22-.23,2.28,.71,3.09,.56,.48,1.3,.77,2,1.05,10.35,4.1,20.71,8.17,31.06,12.26,3.29,1.3,2.68,.73,2.58,4.07-.02,.6-.1,1.19-.17,2.04-.84-.3-1.54-.52-2.23-.8-12.02-4.85-24.03-9.71-36.05-14.57q-2.61-1.06-1.33-3.52c8.34-15.87,16.7-31.73,25-47.61,4.78-9.14,11.97-15.48,21.65-19.01,6.16-2.25,12.3-4.55,18.46-6.79,3.36-1.22,5.12-.54,6.78,2.56,6.52,12.19,16.87,18.73,30.39,20.52,7.96,1.05,15.85,.68,23.53-1.85,9.65-3.17,16.93-9.21,21.76-18.16,2.05-3.79,3.57-4.4,7.6-2.92,6.23,2.28,12.46,4.54,18.66,6.9,8.99,3.42,15.9,9.32,20.41,17.82,8.65,16.3,17.19,32.67,25.8,49,.68,1.29,.9,2.08-.81,2.76-12.67,5.07-25.31,10.22-37.96,15.34-.27,.11-.58,.12-1.06,.22q-.6-4.79,3.52-6.42c9.92-3.93,19.85-7.85,29.77-11.78,.7-.28,1.46-.54,2.03-1.01,1.03-.85,1.42-1.97,.78-3.27-.61-1.23-1.63-1.83-2.99-1.59-.81,.14-1.6,.5-2.38,.81-9.72,3.83-19.43,7.66-29.15,11.49-.63,.25-1.27,.48-2.23,.84-.14-1.09-.31-2.03-.37-2.97-.48-7.54-.93-15.08-1.39-22.63-.02-.3-.01-.61-.05-.91-.22-1.77-1.47-2.94-2.99-2.82-1.47,.11-2.56,1.29-2.6,2.97-.03,1.29,.08,2.59,.16,3.89,.54,8.76,1.1,17.52,1.65,26.28,.73,11.73,1.45,23.46,2.16,35.2,.52,8.53,1.01,17.07,1.53,25.6,.7,11.43,1.42,22.85,2.12,34.28,.52,8.53,1.03,17.07,1.54,25.6,.19,3.12,.3,6.25,.55,9.37,.13,1.6-.42,2.15-2.05,2.13-5.5-.08-11-.03-16.49-.03h-.55c-.24,1.98-.85,3.87-1.79,5.62,6.48,0,12.96,0,19.44,0,4.78,0,7.47-2.99,7.14-7.73-.39-5.71-.73-11.43-1.07-17.14-.82-13.79-1.61-27.59-2.46-41.38-1.14-18.59-2.29-37.18-3.52-55.77-.12-1.81,.37-2.64,2.1-3.33,13.04-5.18,26.03-10.47,39.02-15.76,4.5-1.83,5.94-5.59,3.73-9.81Zm-90.66-61.87c-5.87,4.83-12.77,7.06-20.22,7.7-7.47,.64-14.79-.05-21.77-3.05-5.69-2.44-10.29-6.22-13.78-11.33-.3-.44-.58-.9-.85-1.36-.11-.19-.14-.42-.32-.98,21.46,3.09,42.75,3.1,64.43-.08-2.03,3.84-4.54,6.66-7.49,9.1Z"/><path class="cls-1" d="M240.86,275.88c1.42-.34,2.25-1.37,2.18-2.83-.07-1.44-.91-2.41-2.4-2.63-.6-.09-1.22-.05-1.83-.05-4.46,0-8.93,0-13.39,0,.79,1.65,1.44,3.5,1.98,5.63,3.65,0,7.31,0,10.96,0,.84,0,1.71,.08,2.51-.11Z"/><path class="cls-1" d="M129.06,74.25c3.52,6.72,8.57,12.03,14.95,16.08,9.39,5.95,19.83,8.03,31.76,8.14,1.15-.06,3.29-.11,5.42-.29,9.03-.76,17.54-3.17,25.18-8.19,6.58-4.33,11.76-9.92,15.08-17.12,.91-1.99,.41-3.57-1.16-4.3-1.56-.72-3.02-.04-3.98,1.98-3.65,7.69-9.46,13.3-17.03,16.95-13.25,6.38-27.1,6.81-41.07,2.95-11.09-3.07-19.66-9.56-24.77-20.14-.13-.27-.25-.56-.43-.8-.9-1.19-2.1-1.56-3.44-.96-1.33,.6-1.93,1.74-1.54,3.19,.24,.87,.62,1.72,1.04,2.53Z"/><path class="cls-1" d="M218.71,278.25c-.19-.75-.41-1.51-.68-2.26-.33-.93-.72-1.84-1.21-2.67-.61-1.03-1.26-2.01-1.93-2.96-6.22-8.91-14.75-14.62-25.75-16.86-1.11-.23-2.09,0-3.07,.69-6.06,4.31-12.62,5.27-19.61,2.64-4.05-1.52-6.96-4.31-9.39-7.92-5.8-8.63-11.87-17.07-17.85-25.58-8.97-12.77-19.21-24.36-30.69-34.79-1.77-1.61-3.58-3.2-5.41-4.75-1.11-.94-2.2-1.89-3.33-2.81-1.69-1.37-2.81-1.37-4.48,.01-6.46,5.33-11.15,11.91-13.8,19.87-.77,2.31-1.25,4.72-1.87,7.09v11.18c.9,4.93,3.29,9.26,5.45,13.7,3.54,7.3,5.2,15.05,5.16,23.18-.06,10.59-.02,21.17-.01,31.76,0,2.32,1.01,3.33,3.31,3.34,3.27,.01,6.54,.01,9.81,0,2.22-.01,3.22-1,3.29-3.18,0-.06,.01-.12,.01-.18,0-.32,0-.64,0-.95,0-1.49,0-2.99,0-4.48,0-8.05,0-16.09,0-24.14,0-6.08,1.24-11.89,3.81-17.41,.14-.31,.35-.59,.62-1.05,2.46,2.3,4.87,4.44,7.15,6.71,7.2,7.18,13.18,15.2,18.09,23.96,1.03,1.84,2.02,3.72,2.96,5.63,.57,1.14,1.12,2.29,1.65,3.46,.46,1.02,.98,1.96,1.53,2.84,1.48,2.34,3.28,4.21,5.38,5.62,3.13,2.09,6.93,3.16,11.35,3.18,8.18,.03,16.36,.03,24.53,0,7.59-.03,15.17-.1,22.69-1.34,2.28-.38,4.53-.88,6.62-1.83,.87-.4,1.72-.87,2.52-1.45,1.6-1.16,2.64-2.56,3.11-4.17,.36-1.23,.39-2.57,.02-4.05Zm-122.16,7.33c-.57,.02-.85-.18-.8-.78,.02-.32,0-.64,0-.95,0-9.12-.08-18.25,.02-27.37,.12-10.4-2.38-20.11-7.24-29.25-.38-.71-.74-1.43-1.1-2.15,4.53,1.81,8.68,4.12,12.68,6.71,.02,.02,.05,.03,.07,.05,1.84,1.2,3.61,2.5,5.43,3.72,.07,.05,.15,.1,.22,.15,.62,.42,.65,.75,.3,1.41-.25,.47-.47,.94-.7,1.41-2.82,5.8-4.19,11.99-4.27,18.45-.1,9.03-.03,18.07-.03,27.1q0,1.49-1.44,1.49c-.34,0-.68,0-1.02,0-.7,0-1.41,0-2.11,.01Zm109.14-1.33c-6.38,1.13-12.83,1.14-19.28,1.28-3.09,.07-6.18,.01-9.26,.01,0,.01,0,.02,0,.04-5.95,0-11.9,0-17.85,0-3.89,0-7.1-1.09-9.6-3.27-1.56-1.36-2.85-3.15-3.84-5.37-.14-.32-.29-.62-.44-.94-.88-1.91-1.8-3.78-2.77-5.63-6.3-12.01-14.48-22.65-24.65-31.85-3.81-3.45-7.82-6.6-12-9.47-1.78-1.22-3.6-2.39-5.45-3.51-4.52-2.73-9.23-5.17-14.16-7.27-.89-.38-1.33-.81-1.42-1.83-.57-6.33,.76-12.28,3.44-17.96,1.99-4.23,4.73-7.95,8.12-11.17,1.18-1.11,.86-1.1,2.14-.02,1.36,1.14,2.68,2.31,4.01,3.48,1.83,1.62,3.63,3.26,5.39,4.94,10.58,10.06,19.99,21.17,28.32,33.27,5.2,7.55,10.55,15,15.76,22.55,1.76,2.55,3.5,5.07,6.02,6.96,9.02,6.79,20.24,6.96,29.63,1.29,.82-.5,1.52-.62,2.41-.37,7.17,1.93,13.02,5.65,17.67,10.97,1.31,1.5,2.54,3.13,3.66,4.88,.15,.24,.29,.49,.42,.75,.52,.98,.9,2.05,1.25,3.1,.46,1.41,.06,2.28-1.25,3.1-.06,.04-.13,.07-.2,.11-1.88,1.12-3.98,1.57-6.1,1.94Z"/><path class="cls-1" d="M158.31,280.18c.32,.03,.63,.02,.95,.02,9.62,0,19.24,0,28.86,0,.36,0,.73,.02,1.09-.03,1.51-.2,2.56-1.44,2.49-2.91-.02-.47-.17-.9-.39-1.27-.45-.75-1.26-1.25-2.26-1.31-.41-.03-.82-.01-1.22-.01-4.72,0-9.44,0-14.16,0-2.95,0-5.9,0-8.85,0-2.13,0-4.27-.03-6.4,.02-1.07,.02-1.91,.53-2.37,1.31-.22,.38-.37,.82-.38,1.3-.06,1.53,1.05,2.74,2.65,2.89Z"/><path class="cls-1" d="M199.86,274.68c-1.02,0-1.89,.52-2.37,1.31-.25,.41-.4,.89-.4,1.41,0,1.51,1.24,2.78,2.74,2.78,1.5,0,2.76-1.25,2.77-2.76,0-.53-.15-1.02-.4-1.44-.48-.79-1.33-1.31-2.34-1.31Z"/></svg>