<?xml version="1.0" encoding="UTF-8"?><svg id="Capa_1" xmlns="http://www.w3.org/2000/svg" viewBox="0 0 350 350"><defs><style>.cls-1{fill:red;}</style></defs><path class="cls-1" d="M276.61,257.22c-.99,.05-2,.04-2.97,.02-.42,0-.84-.01-1.26-.01-2.91,0-3.14-.23-3.14-3.07v-58.42c0-.86-.01-2-.09-3.12-.38-5.96-5.1-10.75-11-11.15-2.05-.14-4.15-.13-6.19-.12h-.49c-.42,0-1.16-.05-1.6-.53-.32-.34-.44-.83-.39-1.48,.03-.31,.02-.63,.01-.95,0-.16,0-.32,0-.48,0-3.74-.01-7.47-.02-11.21-.03-8.59-.05-17.46,.07-26.2,.05-3.86-1.29-7.33-3.8-9.76-2.48-2.41-5.86-3.66-9.5-3.5-1.94,.08-3.91,.06-5.81,.04-1.43-.01-2.86-.03-4.28,0-.52,0-1.16-.04-1.6-.47-.44-.44-.48-1.08-.47-1.59,.06-2.71,.06-5.57,0-9.02-.02-1.3,.45-1.99,1.67-2.46,4.71-1.8,8.25-5.15,9.98-9.44,1.73-4.3,1.49-9.19-.67-13.77-2.36-5-4.88-10.04-7.31-14.92-1.28-2.55-2.55-5.11-3.81-7.67-.86-1.74-2-2.57-3.59-2.6-1.68-.03-2.87,.81-3.75,2.63-.69,1.42-1.39,2.83-2.1,4.25-.7,1.41-1.4,2.81-2.08,4.22-.75,1.55-1.53,3.1-2.31,4.64-1.83,3.64-3.72,7.41-5.3,11.22-3.27,7.85,.46,17.26,8.15,20.54,3.27,1.4,3.79,3.22,3.6,6.1-.12,1.77-.09,3.57-.06,5.31,.01,.77,.02,1.53,.02,2.28v.37l-.36,.11c-.16,.05-.28,.09-.37,.12-.18,.06-.31,.1-.47,.1h-9.87c-8.27,.01-16.53,.02-24.8,.05-.7,0-1.12-.14-1.43-.45-.4-.4-.45-.98-.45-1.54,.03-4.16,.05-9.64-.01-15.12-.02-1.35,.63-1.87,1.61-2.25,4.75-1.8,8.34-5.13,10.1-9.38,1.71-4.1,1.56-8.77-.4-13.16-3.16-7.08-6.75-14.12-10.23-20.93l-1.42-2.78c-.74-1.45-2.02-2.32-3.42-2.32h0c-1.38,0-2.64,.85-3.36,2.27l-1.37,2.7c-3.55,6.96-7.21,14.15-10.41,21.4-1.88,4.25-1.97,8.82-.27,12.87,1.79,4.25,5.35,7.56,10.03,9.32,.89,.34,1.69,.76,1.67,2.2-.06,4.62-.07,9.56,0,15.12,0,.51-.04,1.15-.46,1.58-.42,.43-1.09,.47-1.58,.48-12.91-.04-23.59-.04-33.62,0-.78-.03-1.29-.16-1.63-.51-.44-.45-.49-1.1-.48-1.74,.06-3.13,.08-5.75-.01-8.38-.06-1.63,.51-2.45,2.09-3.03,4.3-1.58,7.78-4.89,9.57-9.08,1.74-4.09,1.72-8.56-.04-12.59-3.2-7.29-6.88-14.51-10.44-21.51l-1.51-2.98c-.72-1.42-1.98-2.27-3.37-2.27-1.41,0-2.69,.87-3.43,2.32l-1.44,2.84c-3.49,6.85-7.1,13.94-10.27,21.07-1.9,4.26-2,8.86-.29,12.97,1.77,4.26,5.29,7.57,9.89,9.32,1.06,.4,1.76,.97,1.73,2.41-.05,2.47-.09,5.72,0,9.01,.02,.77-.13,1.29-.47,1.64-.45,.45-1.13,.5-1.76,.49-1.41-.03-2.82-.01-4.24,0-1.85,.02-3.77,.04-5.65-.05-3.73-.16-7.15,1.1-9.65,3.55-2.48,2.43-3.79,5.86-3.69,9.64,.1,4.07,.08,8.2,.05,12.2-.01,1.82-.02,3.64-.02,5.46v5.45c-.01,5.03-.02,10.23,.03,15.35,0,.7-.06,1.48-.59,1.98-.4,.38-.97,.53-1.82,.48-1.19-.07-2.4-.05-3.59-.03-.47,0-.95,.02-1.42,.02-2.94,.02-5.4,.82-7.52,2.46-3.33,2.58-4.88,6.08-4.86,11.02,.05,14.41,.04,29.05,.03,43.22v16.45c-.01,.35-.02,.7,0,1.05,.01,.55-.12,.97-.41,1.26-.28,.28-.69,.42-1.22,.41-.34,0-.67-.01-1-.01-.44,0-.87,0-1.28,.02-.58,.02-1.16,.03-1.74,.04-1.41,.02-2.87,.04-4.26,.25-1.78,.26-3.03,1.8-2.98,3.65,.06,1.89,1.39,3.28,3.39,3.55,.8,.11,1.61,.12,2.24,.12h48.42c51.52,0,103.04,0,154.57,.03h.01c2.43,0,4.31-.42,5.58-2.43v-2.67c-1.12-1.87-2.87-2.69-5.5-2.55Zm-63.88-154.01c-1.73-2.49-2.04-5.52-.85-8.32,1.6-3.79,3.41-7.39,5.33-11.21,.83-1.66,1.67-3.32,2.49-5.02l.35-.73,.49,.64c.09,.12,.17,.21,.23,.29,.14,.16,.24,.29,.33,.46,.73,1.48,1.47,2.96,2.21,4.43,1.74,3.47,3.54,7.06,5.16,10.66,1.26,2.81,1.08,5.9-.51,8.47-1.55,2.52-4.26,4.1-7.23,4.23-.14,0-.28,0-.42,0-3.05,0-5.86-1.45-7.58-3.92Zm-42.62-3.38c-3.54-2.36-5.14-6.71-3.72-10.11,1.66-3.98,3.6-7.9,5.48-11.7,.8-1.62,1.61-3.25,2.39-4.88l.16-.33,1.22,.18,.12,.24c.75,1.54,1.52,3.08,2.28,4.61,1.78,3.59,3.62,7.3,5.32,11.02,1.57,3.44,.48,7.86-2.52,10.29-1.75,1.42-3.85,2.14-5.92,2.14-1.69,0-3.35-.48-4.81-1.45Zm-46.52,4.9c-2.65-2.32-3.66-6.55-2.3-9.62,1.71-3.85,3.55-7.58,5.5-11.54,.82-1.67,1.66-3.37,2.5-5.11l.45-.92,.45,.92c.84,1.71,1.67,3.38,2.48,5.01,1.86,3.75,3.62,7.28,5.29,10.9,1.85,4,.67,8.45-2.95,11.06-1.59,1.15-3.41,1.72-5.24,1.72-2.18,0-4.38-.81-6.21-2.41Zm-15.46,34.93c.05-2.74,1.62-4.45,4.42-4.8,.56-.07,1.13-.06,1.68-.06h.48s69.84,0,69.84,0c16.98,0,33.97,0,50.95,0,.85,0,1.86,.03,2.81,.25,2.23,.52,3.48,1.99,3.54,4.15,.06,2.44,.06,4.93,.06,7.33,0,1.62,0,3.24,.01,4.86,.01,1.45-.88,1.81-1.76,1.97-6.14,1.13-11.35,.27-15.9-2.61-.52-.33-1.03-.66-1.55-1-1.68-1.09-3.42-2.22-5.23-3.07-9.26-4.3-18.41-3.84-27.21,1.37-.8,.48-1.58,.99-2.37,1.5-2.19,1.44-4.46,2.92-7.17,3.56-2.09,.49-4.09,.74-6,.74-3.96,0-7.57-1.06-10.92-3.19-.47-.3-.94-.6-1.41-.91-1.73-1.12-3.51-2.28-5.38-3.14-9.2-4.24-18.29-3.77-27.02,1.4-.8,.47-1.58,.98-2.37,1.49-2.32,1.5-4.72,3.06-7.57,3.71-3.28,.75-6.71,.8-10.2,.14-1.26-.24-1.8-.89-1.78-2.17,.02-1.69,.01-3.39,.01-5.08,0-2.16,0-4.32,.03-6.47Zm150.9,117.57c-12.2,0-24.4,0-36.59,0h-34.53c-32.09,0-64.19,0-96.28,0h-.73c-.17,0-.33,0-.48,0-.87,0-1.35-.05-1.69-.39-.39-.39-.38-.98-.37-2.04,0-.27,0-.57,0-.92-.01-8.29,0-16.59,0-24.88v-13.45s.7,.3,.7,.3c.7,.3,1.35,.57,1.96,.82,1.29,.53,2.41,.99,3.49,1.58,1.11,.61,2.19,1.3,3.24,1.96,1.51,.96,3.06,1.94,4.68,2.69,9.2,4.26,18.36,3.79,27.22-1.39,.65-.38,1.29-.77,1.93-1.16,2.41-1.47,4.91-2.99,7.59-3.8,5.84-1.75,11.62-.97,16.73,2.27,.5,.32,.99,.64,1.49,.96,1.7,1.1,3.45,2.25,5.29,3.1,9.34,4.33,18.56,3.84,27.38-1.47,.74-.45,1.47-.92,2.2-1.4,2.25-1.48,4.58-3,7.37-3.61,6.39-1.4,11.8-.61,16.53,2.39,.52,.33,1.03,.66,1.54,.99,1.68,1.09,3.42,2.22,5.23,3.07,9.3,4.35,18.52,3.88,27.39-1.39l1.72-1.03c1.8-1.08,3.66-2.19,5.53-3.22,.65-.36,1.36-.56,2.12-.77,.36-.1,.73-.21,1.13-.34l.6-.2,.06,.62c.03,.29,.06,.54,.08,.78,.05,.47,.1,.87,.1,1.28,0,12.04,0,24.09,0,36.13,0,2.27-.25,2.5-2.64,2.5Zm.97-48.55c-4.87,.69-9.02,3.28-12.84,5.88-5.62,3.81-11.84,4.65-18.49,2.52-2.14-.69-4.11-1.93-6.02-3.13-.48-.3-.96-.6-1.44-.9-3.56-2.17-6.65-3.74-10.18-4.35-7.89-1.38-14.77-.14-21.02,3.78l-.41,.25c-2.78,1.74-5.65,3.54-8.76,4.53-5.8,1.85-11.66,1.08-16.94-2.23-.54-.34-1.08-.69-1.62-1.04-1.66-1.07-3.38-2.18-5.16-3.01-9.2-4.28-18.36-3.82-27.22,1.39-.59,.35-1.18,.71-1.77,1.06-2.4,1.46-4.89,2.96-7.56,3.82-2.09,.67-4.16,1-6.22,1-3.79,0-7.5-1.14-11.1-3.41-3.12-1.97-6.41-3.68-8.92-4.95-1.06-.54-2.33-.78-3.56-1.02l-.33-.06c-1.13-.22-2.17-.69-2.13-2.55,.06-2.42,.05-4.88,.04-7.26,0-1.57-.01-3.14,0-4.71,.03-3.68,1.7-5.32,5.41-5.33,5.27-.01,10.54-.01,15.81-.01,4.61,0,9.21,0,13.82,0,1.01,0,1.85-.09,2.59-.26,1.85-.43,2.95-1.87,2.86-3.76-.09-1.9-1.36-3.25-3.23-3.43-1.34-.13-2.74-.13-4.08-.12h-1.12c-3.17-.02-6.33-.01-9.5,0h-.79c-.54,0-1.17,0-1.6-.43-.28-.28-.42-.69-.42-1.25,.02-4.49,.02-8.98,.01-13.38v-4.95s3.22,0,3.22,0c1.86,0,3.61,.01,5.37-.01,4.25-.06,8.44-1.4,13.18-4.22,.54-.32,1.08-.66,1.63-.99,2.33-1.42,4.73-2.9,7.32-3.73,6.01-1.92,12-1.12,17.32,2.32l1.08,.7c3.19,2.08,6.48,4.23,10.29,5.1,8.62,1.98,16.14,.8,22.98-3.6,2.71-1.74,5.52-3.55,8.61-4.52,6.13-1.92,12.02-1.12,17.51,2.38,2.81,1.79,5.57,3.5,8.5,4.82,4.92,2.21,10.25,2.02,14.81,1.54l1.99-.22v8.05c0,3.27,0,6.55,0,9.83,0,2.31-.25,2.55-2.6,2.55-4.25,0-8.51,0-12.76,0h-14.45c-17.13,0-34.26,0-51.39,0-.94,0-1.92,0-2.84,.16-1.57,.27-2.81,1.68-2.94,3.36-.12,1.6,1.01,3.29,2.48,3.68,.92,.25,1.97,.36,3.4,.36,25.82,.02,51.63,.02,77.45,.02h17.04c.59,0,1.19-.01,1.78,.03,2.84,.18,4.5,1.87,4.55,4.64,.04,2.36,.04,4.76,.04,7.08,0,1.98,0,3.97,.02,5.95,.02,1.22-.54,1.89-1.69,2.05Z"/><path class="cls-1" d="M203.85,172.21s.04,0,.06,0c2.05,0,3.75-1.63,3.8-3.66,.02-.95-.35-1.88-1.05-2.61-.71-.74-1.68-1.18-2.66-1.19-.99,0-1.96,.35-2.67,1.03-.7,.68-1.1,1.62-1.11,2.63-.03,2.13,1.53,3.77,3.64,3.8Z"/><path class="cls-1" d="M144.69,182.58c-.64-.71-1.56-1.13-2.57-1.18-.06,0-.13,0-.19,0-2.04,0-3.68,1.53-3.78,3.56-.09,1.88,1.59,3.78,3.47,3.91,.95,.07,1.96-.29,2.74-.97,.76-.67,1.23-1.6,1.28-2.54,.06-1.06-.28-2.04-.94-2.78Z"/><path class="cls-1" d="M149.05,159.1h-.01c-1.06,0-2.04,.39-2.74,1.11-.68,.68-1.04,1.6-1.03,2.59,.02,1.98,1.67,3.65,3.67,3.72,.98,.03,1.93-.32,2.65-1.01,.74-.7,1.15-1.65,1.17-2.67h0c.02-1.04-.34-1.99-1-2.67-.67-.68-1.63-1.06-2.7-1.06Z"/><path class="cls-1" d="M152.13,232.04c-.69-.68-1.67-1.03-2.76-1.03-1.05,.01-2.02,.43-2.72,1.17-.67,.71-1.02,1.64-.98,2.61,.08,1.97,1.8,3.64,3.76,3.65h.02c.97,0,1.88-.38,2.59-1.09,.73-.73,1.13-1.69,1.12-2.72,0-1.02-.38-1.95-1.04-2.61Z"/><path class="cls-1" d="M104.4,243.49s-.07,0-.11,0c-.96,0-1.87,.37-2.56,1.04-.73,.7-1.14,1.64-1.15,2.66h0c-.02,2.1,1.59,3.73,3.75,3.79,.93,.03,1.89-.37,2.61-1.09,.74-.73,1.16-1.72,1.14-2.69-.03-1.98-1.68-3.64-3.68-3.69Z"/><path class="cls-1" d="M248.46,234.63c-.67-.71-1.6-1.12-2.61-1.15-.03,0-.06,0-.1,0-.96,0-1.92,.39-2.63,1.07-.73,.7-1.14,1.61-1.17,2.57-.04,1.92,1.65,3.74,3.55,3.81,2.08,.08,3.87-1.52,3.95-3.58,.04-1.03-.31-2-.98-2.72Z"/><path class="cls-1" d="M201.83,247.25c0-.98-.37-1.89-1.05-2.57-.71-.71-1.68-1.1-2.73-1.1h-.03c-1.06,0-2.01,.39-2.69,1.08-.67,.68-1.02,1.63-1,2.66,.04,1.99,1.68,3.66,3.59,3.66,.01,0,.03,0,.04,0,2.08-.03,3.85-1.73,3.86-3.72Z"/></svg>