<?xml version="1.0" encoding="UTF-8"?><svg id="Capa_1" xmlns="http://www.w3.org/2000/svg" viewBox="0 0 350 350"><defs><style>.cls-1{fill:red;}</style></defs><path class="cls-1" d="M105.33,218.21c27.68-6.55,55.17-6.55,82.85-.01,0-3.63,0-7.08,0-10.53,.04-10.46,4.58-18.34,13.94-23.03,14.13-7.08,31.58,1.97,34.16,17.52,2.17,13.05-5.69,24.98-18.56,27.97-1.45,.34-1.83,.85-1.8,2.24,.09,3.81,.04,7.63,.03,11.45-.03,8.05-5,13.63-12.96,14.57-.21,.02-.41,.08-.86,.18,0,2.97,0,5.98,0,8.98,0,3.54-1.12,4.67-4.62,4.68-2.88,0-5.76-.05-8.64,.02-1.97,.04-3.26-.8-4.1-2.54-1.57-3.24-3.25-6.42-4.78-9.67-.56-1.18-1.23-1.67-2.6-1.66-20.45,.05-40.89,.05-61.34,0-1.28,0-1.93,.43-2.46,1.55-1.54,3.25-3.23,6.43-4.78,9.67-.88,1.83-2.19,2.71-4.25,2.66-3.02-.08-6.05,0-9.07-.03-2.81-.03-4.06-1.29-4.09-4.11-.03-2.74-.04-5.47,0-8.21,.02-1.04-.25-1.42-1.39-1.59-7.66-1.1-12.42-6.64-12.45-14.36-.01-3.89-.04-7.78,.02-11.66,.02-1.27-.26-1.81-1.67-2.13-11.55-2.62-19.22-12.44-19.09-24.22,.14-11.89,9.29-21.95,21.45-23.58,11.52-1.55,23.2,6.23,26.09,17.64,.75,2.95,.77,6.11,.93,9.18,.15,2.93,.03,5.88,.03,9.02Zm98.55,5.88c-1.03,1.86-1.93,3.4-2.73,4.99-.49,.97-1.01,1.17-2.03,.69-1.62-.78-3.29-1.46-4.98-2.06-13.68-4.94-27.92-6.74-42.36-7.24-8.94-.31-17.85,.15-26.72,1.28-9.08,1.15-18,3.05-26.6,6.28-1.83,.69-3.7,1.27-5.55,1.89-.99-1.75-1.98-3.5-2.96-5.26-.06-.1,0-.26,0-.73,2.24-.92,4.61-1.93,7-2.87,.88-.35,1.39-.73,1.37-1.83-.08-4.54,.11-9.08-.09-13.61-.4-8.99-7.82-16.14-16.71-16.33-9.38-.2-17.28,7.2-17.65,16.52-.37,9.43,6.85,17.27,16.49,17.89,3.15,.2,4.22,1.3,4.23,4.44,.01,5.18,0,10.37,0,15.55,.02,4.86,2.79,7.68,7.62,7.68,36.36,.01,72.72,.01,109.09,0,4.85,0,7.6-2.8,7.62-7.68,.02-5.11,0-10.22,0-15.34,0-3.43,.96-4.42,4.44-4.67,9.09-.65,16.07-7.85,16.28-16.8,.21-9.02-6.55-16.58-15.7-17.55-8.45-.9-17.02,5.4-18.23,14.02-.71,5.09-.33,10.34-.53,15.51-.05,1.34,.5,1.86,1.65,2.29,2.33,.87,4.6,1.9,7.05,2.93Zm-97.45,34.32c-1.23,0-2.15-.02-3.06,0-1.56,.04-3.82-.48-4.51,.32-.84,.98-.3,3.1-.46,4.71-.15,1.44,.42,1.99,1.8,1.75,1.07-.18,2.64-.05,3.09-.69,1.25-1.77,2.04-3.88,3.14-6.11Zm80.62,0c1.12,2.25,2.08,4.23,3.09,6.18,.14,.27,.53,.56,.81,.57,1.28,.02,2.65,.19,3.79-.23,.4-.15,.27-1.81,.33-2.79,.05-.86-.02-1.72,.01-2.58,.03-.8-.26-1.17-1.11-1.16-2.2,.03-4.4,.01-6.93,.01Z"/><path class="cls-1" d="M264.34,158.15c0,28.66,0,57.32,0,85.98,0,6.4-3.66,11.58-9.46,13.53-.54,.18-1.1,.32-1.66,.45q-2.69,.6-2.69,3.48c0,2.16,.02,4.32,0,6.48-.03,2.84-1.27,4.12-4.06,4.15-3.1,.03-6.19-.03-9.29,.02-1.88,.03-3.14-.77-3.95-2.43-1.45-2.97-3.11-5.86-4.37-8.91-.86-2.1-2.11-2.8-4.25-2.53-1.2,.15-2.45-.06-3.67,.05-1.4,.13-1.75-.47-1.66-1.74,.09-1.22,.11-2.46,0-3.67-.13-1.4,.48-1.68,1.74-1.66,5.54,.06,11.09,.02,16.63,.02,4.03,0,8.07,.02,12.1,0,4.74-.03,7.54-2.8,7.57-7.51,.03-5.33,0-10.66,0-15.99,0-51.27,0-102.54,0-153.81,0-.72,.02-1.44,0-2.16-.12-4.16-2.97-7.03-7.14-7.07-6.62-.05-13.25-.01-19.87-.01-7.34,0-14.69-.01-22.03,0-3.04,0-2.68-.38-2.68,2.6-.01,21.96,0,43.92,0,65.89,0,.5,0,1.01,0,1.51-.03,2.88,.31,2.57-2.49,2.59q-4.54,.02-4.54-4.43c0-21.82,0-43.64,0-65.46,0-3.06,.38-2.69-2.58-2.69-13.68-.02-27.36,0-41.04,0-5.44,0-8.07,2.63-8.11,8.06-.02,2.55,.22,2.28-2.34,2.31-1.15,0-2.3-.02-3.46,0-.75,.01-1.16-.15-1.24-1.05-.84-9.6,5.22-15,11.42-16.13,1.05-.19,2.15-.21,3.22-.21,31.76-.01,63.51-.01,95.27,0,8.78,0,14.65,5.85,14.66,14.6,.01,28.59,0,57.17,0,85.76Zm-28.87,100.25c1.08,2.19,2.03,4.17,3.05,6.12,.16,.31,.63,.57,.99,.64,3.35,.67,3.98,.15,3.98-3.18,0-.79-.05-1.58,0-2.37,.07-.95-.35-1.25-1.26-1.23-2.14,.04-4.29,.01-6.76,.01Z"/><path class="cls-1" d="M135.26,130.5c-4.68,0-9.36,0-14.04,0-2.05,0-2.06,.01-2.07,2.14,0,1.15-.05,2.31,.01,3.45,.06,1.07-.41,1.43-1.4,1.32-.14-.02-.29,0-.43,0-1.64-.06-3.86,.49-4.76-.35-.86-.81-.49-3.08-.41-4.7,.08-1.55-.48-1.9-1.96-1.89-9.29,.06-18.57,.04-27.86,.03-3.77,0-5.03-1.24-4.72-4.93,1.09-13.34,2.24-26.67,3.39-40,.21-2.48,1.51-3.56,4.21-3.57,8.28-.02,16.56,0,24.84,0,2.06,0,2.04-.01,2.08-2.13,.03-1.5-.46-3.65,.32-4.32,.94-.81,2.96-.41,4.52-.44,2.18-.04,2.18,0,2.19,2.23,0,1.01,.09,2.03-.02,3.02-.15,1.38,.43,1.68,1.72,1.67,7.99-.05,15.98-.03,23.97-.03,.58,0,1.15-.02,1.73,0,2.22,.1,3.51,1.23,3.7,3.41,.6,6.74,1.15,13.48,1.72,20.22,.52,6.17,1.04,12.33,1.56,18.5,.03,.36,.06,.72,.11,1.07,.51,3.85-1.26,5.5-5,5.35-4.46-.18-8.93-.04-13.39-.04Zm11.05-7.03c-.06-1.15-.08-2-.15-2.85-.82-9.89-1.71-19.78-2.44-29.67-.12-1.67-.72-1.98-2.23-1.96-6.33,.08-12.66,.03-19,.03-10.94,0-21.88,0-32.81-.01-1.17,0-1.97,.01-2.09,1.62-.77,10.18-1.67,20.36-2.51,30.53-.19,2.31-.18,2.32,2.23,2.32,18.85,0,37.71,0,56.56,0h2.44Z"/><path class="cls-1" d="M146.7,144.21c18.14,0,36.29,.15,54.42-.07,8.49-.1,15.23,6.52,14.87,14.93-.21,4.89-.08,9.79-.01,14.68,.02,1.33-.38,1.81-1.71,1.7-1.22-.1-2.45-.1-3.67,0-1.33,.11-1.73-.37-1.71-1.7,.07-4.82,.03-9.65,.03-14.47,0-5.4-2.67-8.05-8.12-8.05-36.07,0-72.14,0-108.2,0-5.3,0-8,2.68-8.01,7.94,0,4.82-.05,9.65,.03,14.47,.02,1.41-.39,1.93-1.82,1.81-1.64-.14-3.85,.49-4.77-.35-.86-.79-.44-3.07-.46-4.69-.04-3.96-.03-7.92-.01-11.88,.04-8.34,5.96-14.31,14.28-14.32,18.29-.02,36.57,0,54.86,0Z"/><path class="cls-1" d="M132.98,168.57q0,3.41-3.4,3.41-3.63,0-3.63-3.62,0-3.41,3.4-3.41,3.63,0,3.63,3.62Z"/><path class="cls-1" d="M167.55,168.57q0,3.41-3.4,3.41-3.63,0-3.63-3.62,0-3.41,3.4-3.41,3.63,0,3.63,3.62Z"/><path class="cls-1" d="M108.67,185.58q0-3.34,3.26-3.34,3.77,0,3.77,3.69,0,3.34-3.26,3.34-3.77,0-3.77-3.69Z"/><path class="cls-1" d="M146.54,189.27q-3.3,0-3.31-3.29,0-3.74,3.72-3.74,3.3,0,3.31,3.29,0,3.74-3.72,3.74Z"/><path class="cls-1" d="M181.21,189.27q-3.4,0-3.4-3.41,0-3.62,3.63-3.62,3.4,0,3.4,3.41,0,3.62-3.63,3.62Z"/><path class="cls-1" d="M129.34,206.55q-3.39,0-3.39-3.43,0-3.6,3.64-3.6,3.39,0,3.39,3.43,0,3.6-3.64,3.6Z"/><path class="cls-1" d="M164.08,199.52q3.47,0,3.47,3.56t-3.56,3.47-3.47-3.56,3.56-3.47Z"/><path class="cls-1" d="M81.06,196.07c5.74-.02,10.44,4.66,10.43,10.4-.01,5.78-4.65,10.43-10.41,10.43-5.75,0-10.43-4.66-10.43-10.41,0-5.76,4.63-10.41,10.41-10.43Zm3.38,10.31c-.06-1.75-1.63-3.27-3.38-3.27-1.84,0-3.44,1.66-3.37,3.49,.07,1.76,1.63,3.27,3.38,3.27,1.84,0,3.44-1.66,3.38-3.49Z"/><path class="cls-1" d="M212.53,196.07c5.73,.02,10.38,4.75,10.32,10.51-.05,5.76-4.74,10.37-10.51,10.33-5.74-.04-10.36-4.74-10.33-10.51,.04-5.74,4.72-10.34,10.51-10.33Zm-.15,13.8c1.84,.03,3.46-1.6,3.43-3.44-.03-1.75-1.57-3.29-3.33-3.32-1.83-.03-3.46,1.61-3.43,3.44,.04,1.76,1.57,3.29,3.33,3.32Z"/></svg>