<?xml version="1.0" encoding="UTF-8"?><svg id="Capa_1" xmlns="http://www.w3.org/2000/svg" viewBox="0 0 350 350"><defs><style>.cls-1{fill:red;}</style></defs><path class="cls-1" d="M57.84,118.47c.25-.63,.51-1.25,.75-1.88,1.42-3.73,3.82-5.41,7.83-5.44,2.75-.02,5.49-.04,8.24,.01,1.14,.02,1.96-.24,2.73-1.2,2.66-3.32,6.29-5.25,10.19-6.69,1.83-.68,3.64,.13,4.39,1.8,.75,1.68,.14,3.51-1.55,4.52-.39,.23-.81,.44-1.24,.59-6.33,2.27-9.3,7.14-10.14,13.48-1.37,10.33,.38,20.18,4.89,29.56,2.35,4.89,6.1,8.29,10.96,10.57,5.82,2.72,12,3.99,18.34,4.43,7.58,.53,15.06-.14,22.42-2.19,9.74-2.71,16.17-8.68,19.19-18.41,2.53-8.13,3.67-16.34,2.3-24.8-.99-6.14-4.16-10.45-10.13-12.71-5.54-2.1-11.25-3.31-17.1-3.92-8.91-.94-17.81-.93-26.69,.39-.53,.08-1.06,.11-1.6,.12-2.08,.01-3.45-1.11-3.68-2.98-.24-1.95,.91-3.58,2.99-3.93,2.33-.4,4.68-.7,7.03-.89,11.39-.9,22.73-.57,33.86,2.22,3.52,.88,7.03,2.11,10.28,3.72,2.47,1.22,4.65,3.14,6.72,5.02,.99,.9,1.84,1.34,3.16,1.33,8.7-.05,17.39-.05,26.09,0,1.32,0,2.23-.31,3.14-1.36,3.62-4.22,8.57-6.24,13.71-7.82,8.61-2.64,17.49-3.48,26.43-3.52,9.33-.04,18.59,.78,27.57,3.54,5.37,1.65,10.45,3.84,14.18,8.35,.4,.48,1.29,.73,1.97,.76,2.59,.09,5.19,.03,7.78,.04,5.42,0,8.15,2.19,9.18,7.55,.61,3.14,.37,6.24-1.14,9.13-1.34,2.56-3.42,4.04-6.4,4.07-1.22,.01-2.44,.01-3.66,.02-2.27,.02-2.29,.02-2.27,2.21,.03,4.35,.13,8.7,.12,13.04-.03,10.3-.01,20.59-.21,30.89-.09,4.57-.6,9.13-1.02,13.68-.1,1.08-.02,1.78,.94,2.51,3.3,2.52,4.79,5.93,4.04,10.04-.8,4.38-3.53,7.21-7.84,8.29-1.27,.32-1.66,1.02-2.03,2.07-2.65,7.57-6.35,14.55-12.2,20.16-10.1,9.68-22.28,13.36-36.08,12.07-6.17-.58-12.16-2.04-18.07-3.85-.86-.26-1.58-.6-2.27,.58-6.19,10.47-15.4,17.59-26.04,23-13.35,6.79-27.6,10.02-42.54,10.11-8.82,.05-17.3-1.67-24.94-6.35-6.92-4.24-11.83-10.05-13.29-18.28-1.48-8.3,.79-15.57,6.48-21.72,5.61-6.05,12.8-9.19,20.74-10.79,8.03-1.61,16.09-1.17,24.14-.25,15.88,1.81,30.83,7.08,45.79,12.33,8.27,2.9,16.52,5.84,25.18,7.4,7.6,1.37,15.15,1.53,22.58-1.03,9.52-3.28,16.25-9.68,20.81-18.52,.73-1.42,1.34-2.91,2-4.36,1.04-2.26,1.47-4-.68-6.38-4.63-5.15-2.27-13.24,4.25-15.83,1.39-.55,2.11-1.22,2.17-2.72,.37-10.21,.77-20.42,1.16-30.62,.01-.29-.08-.59-.13-.98-.26,.14-.52,.19-.61,.34-4.49,7.33-11.4,11.22-19.35,13.63-1.53,.46-3.07,.91-4.63,1.24-2.4,.5-4.23-.53-4.69-2.49-.48-2.1,.8-3.64,3.25-4.42,3.62-1.15,7.27-2.27,10.73-3.81,4.38-1.95,7.6-5.31,9.69-9.66,4.82-10.03,6.73-20.5,4.67-31.55-1.06-5.69-4.28-9.57-9.72-11.75-6.38-2.55-13.03-3.78-19.8-4.28-11.23-.82-22.41-.51-33.35,2.58-2.12,.6-4.17,1.44-6.2,2.3-4.39,1.85-7.04,5.24-8.17,9.81-1.91,7.74-1.33,15.46,.69,23.07,.88,3.29,2.18,6.49,3.58,9.61,2.18,4.87,5.96,8.21,10.76,10.45,6.68,3.11,13.76,4.35,21.06,4.62,1.06,.04,2.16-.02,3.18,.21,1.68,.37,2.79,1.93,2.7,3.52-.09,1.73-1.42,3.24-3.24,3.25-11.56,.07-22.64-1.82-32.35-8.65-4.99-3.51-8.01-8.53-10.16-14.08-1.24-3.19-2.04-6.54-3.18-9.76-.79-2.21-1.57-4.49-2.8-6.47-4.24-6.83-13.11-6.83-17.28,.05-1.44,2.37-2.22,5.15-3.18,7.78-1.2,3.29-2.11,6.68-3.42,9.92-3.33,8.22-9.26,13.93-17.54,16.99-15.91,5.88-31.92,5.91-47.86,.09-8.21-3-14.14-8.54-17.62-16.62-.21-.48-.47-.94-.74-1.49-2.28,8.4-3.32,26.61,1.95,33.08,2.29-.28,4.46-.9,6.57-.74,4.55,.36,8.21,3.89,8.94,8.49,.23,1.48,.81,1.81,2.1,2.03,6.06,1.03,12.17,1.14,18.24,.51,11.97-1.25,23.9-2.9,35.87-4.18,8.87-.94,17.77-1.72,26.68-.15,10.22,1.81,19.22,5.9,25.89,14.15,4.41,5.45,6.76,11.71,6.76,18.77,0,2.68-1.82,4.29-4.2,3.81-1.63-.33-2.6-1.66-2.81-3.7-.2-1.89-.3-3.82-.78-5.64-1.89-7.21-6.52-12.29-12.86-15.91-8.11-4.62-17.01-5.86-26.1-5.13-11.39,.91-22.73,2.35-34.09,3.66-8.95,1.04-17.89,2.02-26.91,1.5-2.81-.16-5.61-.6-8.38-1.06-.98-.16-1.64-.14-2.46,.56-3.82,3.3-8.27,3.81-12.25,1.54-3.99-2.28-5.79-6.41-5-11.32,.1-.61,.04-1.43-.29-1.9-5.41-7.77-6.43-16.59-5.63-25.6,.85-9.63,2.31-19.21,3.61-28.8,.69-5.11,.78-5.09-4.18-5.14-4.53-.04-6.9-1.74-8.34-6-.17-.5-.34-.99-.51-1.49,0-1.98,0-3.97,0-5.95Zm139.91,122.14c-.5-.33-.68-.5-.88-.57-11.59-3.71-23.08-7.8-34.81-11.01-10.98-3.01-22.29-4.38-33.73-2.96-6.3,.78-12.17,2.81-17.17,6.87-10.05,8.14-9.98,21.45,.15,29.47,5.7,4.51,12.37,6.54,19.48,7.03,13.15,.91,25.81-1.45,37.97-6.41,9.2-3.75,17.56-8.84,24.25-16.33,1.7-1.9,3.15-4.03,4.74-6.09Zm-32.75-113.33c6.76-4.03,13.39-3.91,20.05-.06,.49-2.78,.92-5.3,1.38-7.83,.17-.94-.28-1.22-1.12-1.22-6.85,0-13.69,0-20.54,0-.82,0-1.33,.23-1.16,1.19,.45,2.53,.89,5.06,1.39,7.92Zm-92.11-9.1c-2.28,0-4.32-.02-6.35,.02-.35,0-.88,.11-1.02,.34-.98,1.67-.88,3.45-.41,5.26,.41,1.56,1.66,.98,2.61,1.05,.98,.08,1.98,.11,2.94-.04,.45-.07,1.1-.56,1.19-.97,.42-1.75,.66-3.53,1.03-5.66Zm204.27,.02c.37,2.14,.57,4.01,1.09,5.8,.13,.44,1.35,.92,1.96,.81,1.57-.28,3.77,1.22,4.6-.99,.51-1.37,.15-3.09,.02-4.64-.03-.35-.67-.92-1.05-.94-2.16-.09-4.32-.04-6.63-.04ZM86.63,195.63c-.02-1.79-1.58-3.34-3.36-3.32-1.76,.02-3.34,1.64-3.32,3.39,.02,1.79,1.58,3.31,3.38,3.29,1.82-.02,3.31-1.54,3.29-3.35Zm185.31,10.21c1.79,.16,3.44-1.22,3.62-3.02,.18-1.73-1.26-3.44-3.05-3.62-1.76-.18-3.44,1.25-3.59,3.05-.15,1.82,1.21,3.44,3.01,3.6Z"/></svg>