<?xml version="1.0" encoding="UTF-8"?><svg id="Capa_1" xmlns="http://www.w3.org/2000/svg" viewBox="0 0 350 350"><defs><style>.cls-1{fill:red;}</style></defs><path class="cls-1" d="M261.7,169.27c.24-7.4-4.06-14.02-10.95-16.88-.4-.17-.8-.34-1.25-.53l-1.23-.53,.65-1.26c.27-.53,.52-1.02,.79-1.5,2.89-5.02,5.79-10.04,8.69-15.05,5.75-9.96,11.51-19.92,17.23-29.9,4.43-7.71,2.29-15.61-5.45-20.11l-1.44-.84c-7.16-4.17-14.56-8.48-21.91-12.61-2.12-1.19-3.96-1.89-5.65-2.12-6.37-.91-11.27,1.52-14.58,7.2-4.44,7.64-8.85,15.29-13.27,22.95-2.21,3.83-4.41,7.65-6.62,11.48-.27,.47-.57,.94-.87,1.4l-1.21,1.92-.11-1.53c-.29-4.07-.39-8.31-.3-13.35,.03-1.57-.38-2.86-1.28-4.06-2.95-3.93-5.9-7.87-8.84-11.8-3.92-5.24-7.84-10.49-11.78-15.71-.81-1.08-1.76-1.66-2.75-1.67-1.01,.02-2.09,.59-3.03,1.75-.2,.25-.39,.5-.58,.75l-5.16,6.9c-4.78,6.39-9.72,13-14.62,19.47-1.06,1.4-1.52,2.84-1.51,4.67,.04,8.83,.04,17.8,.03,26.48v11.96s-.81-.64-.81-.64c-.89-.71-1.37-1.46-1.77-2.16l-7.69-13.31c-7.44-12.87-14.88-25.75-22.28-38.64-3.49-6.08-8.37-8.63-14.94-7.79-1.4,.18-2.26-.28-2.96-1.58-1.24-2.3-2.66-4.77-4.46-7.77-2.25-3.74-5.99-4.76-9.75-2.65-3.83,2.15-7.82,4.45-11.85,6.85-3.71,2.21-4.7,5.95-2.59,9.76,1.59,2.87,3.1,5.47,4.61,7.95,.71,1.18,.67,2.02-.18,3.11-3.92,5.02-4.3,10.48-1.14,16.23,.31,.57,.63,1.14,.96,1.73l.7,1.25-.39,.25c-.21,.14-.4,.27-.58,.39-.38,.26-.73,.51-1.13,.69-2.88,1.31-5.04,3.71-5.93,6.6-.67,2.17-.93,5.63,1.6,9.76,3.67,5.98,7.2,12.18,10.61,18.17,1.57,2.76,3.14,5.52,4.73,8.26l.14,.24c.35,.61,.71,1.24,1.15,1.75,1.01,1.19,2.48,1.47,3.85,.73,1.36-.74,1.99-2.38,1.46-3.81-.22-.59-.54-1.14-.89-1.73l-.22-.38-7.35-12.75c-2.67-4.64-5.35-9.27-8.02-13.91-2.05-3.57-1.61-5.23,1.97-7.43,.65-.4,1.36-.75,2.05-.57,.71,.18,1.18,.86,1.54,1.51,6.1,10.71,12.52,21.85,19.64,34.05,.99,1.7,.82,2.64-.7,3.86-5.54,4.45-7.71,10.19-6.44,17.06,1.19,6.44,5.12,11.04,11.36,13.29,2.17,.78,2.58,1.93,2.58,3.77-.05,24.78-.04,49.35-.03,72.39,0,8.99,5.85,14.81,14.89,14.82,4.9,0,9.8,0,14.7,0h28.99c7.51,0,15.03,0,22.54,0,13.37,0,26.74,0,40.12,0h.01c5.84,0,10.07-2.39,12.92-7.31,1.51-2.6,1.71-5.5,1.71-7.98-.01-9.98-.01-19.97-.02-29.95,0-14.07,0-28.15-.04-42.22,0-1.74,.38-2.81,2.41-3.47,6.9-2.25,11.69-8.65,11.93-15.93Zm-57.43-41.57c.03-.68,.28-1.33,.54-2.02,.12-.32,.25-.66,.37-1.02l.19-.59,8.18,4.71c.44,.26,.89,.52,1.34,.76,2.03,1.07,3.85,.7,4.76-.97,.89-1.64,.31-3.36-1.53-4.47-1.47-.89-2.99-1.76-4.46-2.61-.78-.44-1.55-.89-2.32-1.34-.43-.25-.85-.51-1.32-.8l-1.17-.72,5.76-10,5.95,3.42c.38,.22,.75,.44,1.12,.66,.77,.45,1.57,.92,2.37,1.34,1.91,1,3.67,.61,4.59-1.02,.93-1.63,.35-3.4-1.47-4.49-2-1.21-4-2.35-6.13-3.57-.92-.52-1.85-1.06-2.79-1.6l-.43-.25,1.59-2.75c1.15-1.99,2.27-3.93,3.37-5.89,.27-.48,.58-.76,.97-.87,.54-.15,1.05,.11,1.56,.41,2.64,1.54,5.31,3.1,7.98,4.57,1.3,.72,2.52,.62,3.64-.29,1.09-.88,1.43-2.07,.94-3.26-.33-.79-1.08-1.63-1.96-2.18-1.98-1.25-4-2.41-6.13-3.63-.83-.48-1.68-.96-2.54-1.46l-.43-.25,.25-.43c.61-1.03,1.19-2.07,1.77-3.09,1.36-2.39,2.64-4.65,4.12-6.85,2.2-3.29,6.43-4.06,10.29-1.86,4.57,2.6,9.12,5.24,13.66,7.87l5.59,3.24c.42,.24,.83,.5,1.25,.75,.84,.52,1.71,1.05,2.61,1.46,2.4,1.12,4.08,2.94,4.74,5.11,.71,2.35,.24,4.98-1.36,7.6-3.69,6.06-7.27,12.33-10.73,18.4-1.45,2.54-2.9,5.08-4.37,7.62l-2.85,4.94c-3.19,5.52-6.49,11.22-9.68,16.86-.8,1.42-1.75,1.98-3.39,1.98h-.04c-7.7-.05-15.53-.04-23.11-.04h-8.58c-2.5,0-2.73-.22-2.75-2.64,0-.75,0-1.51,.01-2.26,0-.17,.03-.33,.08-.57,.02-.11,.05-.24,.08-.4l.11-.63,.58,.26c.26,.11,.49,.22,.71,.33,.41,.19,.74,.35,1.07,.45,1.56,.46,3.09-.16,3.8-1.56,.72-1.42,.32-3.05-.98-3.96-.64-.45-1.35-.85-2.03-1.24-.73-.41-1.48-.84-2.18-1.34-.65-.46-1.18-1.39-1.21-2.12-.11-2.62-.12-5.2,0-7.68Zm-24.77-54.52l6.06,8.07-.62,.24c-1.84,.72-3.63,1.07-5.43,1.07s-3.58-.35-5.44-1.06l-.62-.23,6.04-8.09Zm-15.02,20.04c1.33-1.77,2.63-3.49,3.89-5.24,.63-.87,1.31-1.33,2.63-.76,5.64,2.43,11.37,2.43,17.03,0,.8-.35,1.66-.51,2.48,.61,1.29,1.78,2.62,3.54,3.94,5.31l1.85,2.46-.4,.3c-3.99,3-10.07,4.8-16.44,4.8-5.66,0-11.55-1.42-16.42-4.69l-.44-.29,1.87-2.49Zm-3.41,23.1v-11.81c0-.21,.03-.41,.07-.7,.02-.14,.04-.31,.07-.51l.08-.69,.63,.29c11.83,5.53,23.32,5.54,35.14,.04l.66-.31,.05,.72c.02,.24,.04,.46,.06,.67,.04,.44,.07,.82,.07,1.2,0,14.38,0,28.77,0,43.15,0,2.45-.23,2.68-2.7,2.68h-9.16c-7.51,0-15.02,0-22.53,.02h-.06c-.7,0-1.41-.05-1.88-.53-.37-.37-.54-.93-.53-1.77,.04-10.82,.04-21.83,.04-32.47Zm-78.95-38.95l-1.41-2.45,3.59-2.07c2.75-1.58,5.34-3.07,7.94-4.61,.41-.24,.94-.5,1.49-.35,.55,.15,.89,.65,1.12,1.08,1.03,1.86,2.09,3.69,3.21,5.62l1.62,2.79-2.72,1.57c-3.17,1.83-6.16,3.56-9.25,5.27-.12,.07-.27,.1-.43,.1-.6,0-1.35-.42-1.59-.81-1.21-1.99-2.36-4-3.58-6.13Zm9.18,37.52c-.77-1.34-1.53-2.65-2.29-3.95-1.75-3.01-3.41-5.85-4.98-8.79-1.91-3.58-.75-7.83,2.71-9.9,6.24-3.73,12.65-7.43,19.06-11,3.73-2.09,7.93-.91,10.21,2.86,1.66,2.75,3.24,5.5,4.91,8.42,.74,1.29,1.49,2.6,2.26,3.94l.25,.43-31.88,18.42-.25-.44Zm6.29,10.77l-2.37-4.12c-.1-.18-.08-.35-.07-.46,0-.04,.01-.09,.01-.15v-.25s.64-.41,.64-.41c.32-.22,.67-.44,1.02-.65l7.71-4.45c6.63-3.82,13.25-7.65,19.86-11.51,.64-.38,1.33-.7,2.01-.52,.53,.14,.98,.57,1.44,1.37,6.3,11.01,12.76,22.18,19,32.99l6.43,11.14c.17,.29,.32,.6,.51,.99l.72,1.44h-29.33c-1.34,0-2.71,.01-4.07,.01-2.35,0-4.72,0-7.07-.04-.74-.01-1.99-.37-2.43-1.13-4.71-8.06-9.44-16.29-14.01-24.25Zm143.48,63.39c0,24.06,0,48.12,0,72.18,0,5.52-3.04,8.56-8.56,8.56-17.65,0-35.3,0-52.95,0s-35.3,0-52.95,0c-5.61,0-8.7-3.08-8.71-8.68,0-21.39,0-42.77,0-64.16v-8.02c0-2.53,.24-2.76,2.86-2.76h72.67c14.9,0,29.8,0,44.71,0,.31,0,.54,0,.76,0,.93-.02,1.44-.02,1.81,.34,.38,.38,.38,.95,.38,2.09v.46Zm3.85-9.24c-.46,.04-.93,.04-1.39,.04-.19,0-.38,0-.56,0h-.56s-75.73,0-75.73,0c-16.8,0-33.61,0-50.41-.03-2.01,0-3.76-.26-5.23-.75-5.09-1.71-7.97-6.66-7.18-12.32,.71-5.05,5.06-8.98,10.35-9.34,.54-.04,1.08-.03,1.61-.03h.44s16.72,0,16.72,0c36.63,0,73.25,0,109.87,.03,2.01,0,3.77,.25,5.23,.74,4.85,1.62,7.99,6.72,7.31,11.86-.7,5.26-5.11,9.38-10.48,9.8Z"/><path class="cls-1" d="M215.08,201.46c-11.95,0-23.89-.01-35.84-.01s-23.61,0-35.42,.02c-6.23,0-10.62,4.42-10.67,10.74-.01,1.56,0,3.13,.02,4.69,.03,2.67,.06,5.43-.07,8.14-.15,3.18,.92,6.11,3,8.24,2.15,2.2,5.21,3.43,8.49,3.35,8.12-.18,16.38-.14,24.38-.1,3.4,.02,6.8,.03,10.2,.03h10.73c8.43,0,16.85,.01,25.28-.01,6.17-.02,10.54-4.34,10.62-10.52,.06-4.46,.06-9.01,0-13.92-.07-6.35-4.38-10.63-10.73-10.63Zm4.4,23.9c-.02,3.37-1.52,4.87-4.87,4.87-11.8,0-23.6,.01-35.4,.01s-23.15,0-34.72,0c-3.49,0-4.99-1.5-5.01-5-.03-4.63-.03-8.75,0-12.59,.03-3.36,1.54-4.86,4.91-4.86,8.55-.01,17.11-.01,25.66,0h9.62s8.6,0,8.6,0c8.6,0,17.19,0,25.79,0,4.1,0,5.41,1.33,5.42,5.45v1.82c0,3.44,.01,6.88,0,10.32Z"/><path class="cls-1" d="M204.18,251.26c-.05-1.5-1.11-2.72-2.57-2.97-.47-.08-.97-.08-1.5-.07h-.44c-5.1,0-10.19,0-15.29,0h-10.55c-4.87,0-9.73,0-14.6,0-2.96,0-4.43,1.01-4.48,3.08-.02,.87,.22,1.57,.73,2.08,.73,.75,2.05,1.15,3.81,1.15,13.48,0,26.96,0,40.44,0h.41c.54,.01,1.04,.02,1.52-.07,1.52-.29,2.59-1.63,2.53-3.2Z"/></svg>