<?xml version="1.0" encoding="UTF-8"?><svg id="Capa_1" xmlns="http://www.w3.org/2000/svg" viewBox="0 0 350 350"><defs><style>.cls-1{fill:red;}</style></defs><path class="cls-1" d="M150.91,67.16c2.8,.78,5.71,1.3,8.38,2.4,10.03,4.11,15.76,11.79,16.96,22.44,.69,6.13,.46,12.38,.42,18.58-.02,4.21-.11,8.47-.75,12.61-.9,5.9-3.85,10.88-8.27,14.9-.99,.9-1.26,1.77-1.04,3.04,.44,2.62,.68,5.27,1.16,7.88,.16,.86,.63,1.8,1.26,2.4,1.87,1.79,3.87,3.45,5.86,5.1,.67,.55,1.46,1,2.25,1.36,6.54,2.89,13.11,5.71,19.63,8.63,7.15,3.2,11.56,8.72,13.26,16.32,.46,2.04,.56,4.18,.6,6.29,.09,4.01,.03,8.02,.03,12.24,2.36,0,4.66-.02,6.96,0,6.82,.09,11,4.82,10.24,11.6-.12,1.08-.33,2.15-.51,3.23-2.83,16.16-5.68,32.32-8.5,48.49-1.24,7.09-6.95,12.03-14.1,12.03-33.48,0-66.96,.02-100.43-.03-1.67,0-3.41-.31-4.98-.86-2.78-.99-4.68-2.99-5.42-5.93-.97-3.83-1.93-7.65-2.84-11.5-.69-2.9,.69-4.65,3.67-4.66,9.61-.02,19.23,0,28.84-.01,2.17,0,2.2,0,2.57-2.08,2.24-12.67,4.54-25.33,6.65-38.03,.92-5.52,3.6-9.46,8.87-11.49,.72-.28,1.1-.65,1.1-1.47-.02-6.74-.01-13.49-.01-20.54-.73,.44-1.25,.71-1.72,1.04-3.48,2.52-6.94,5.06-10.41,7.59-.44,.32-.87,.66-1.33,.95-2.48,1.6-4.68,.88-5.6-1.94-2.3-7.05-4.52-14.13-6.77-21.2-.16-.51-.35-1.02-.58-1.71-.6,.21-1.17,.36-1.7,.59-5.18,2.25-10.35,4.55-15.54,6.78-7.27,3.12-10.75,8.7-10.76,16.51-.02,17.25,0,34.5,0,51.75,0,.68,.04,1.37-.04,2.04-.22,1.73-1.7,3.04-3.33,3-1.66-.04-3.07-1.36-3.25-3.1-.06-.54-.03-1.09-.03-1.64,0-17.32-.02-34.64,0-51.96,.02-10.88,4.99-18.54,15.03-22.86,4.75-2.05,9.44-4.24,14.24-6.19,3.77-1.53,7.07-3.64,10.16-6.29,2.26-1.94,3.77-3.9,3.86-6.97,.06-2.03,.59-4.04,.75-6.08,.05-.62-.27-1.48-.72-1.91-6.61-6.14-9.49-13.77-9.38-22.69,.07-6.48-.01-12.95,.03-19.43,.09-15.47,9.64-26.53,24.89-28.91,.32-.05,.63-.22,.94-.33,3.14,0,6.27,0,9.41,0Zm19.04,202.89c11.38,0,22.77,0,34.15,0,4.68,0,7.37-2.27,8.18-6.84,2.28-12.94,4.56-25.87,6.84-38.81,.67-3.82,1.33-7.64,2.01-11.46,.62-3.52-.48-4.86-4.01-4.91-.2,0-.41,0-.61,0-23.11,0-46.22,0-69.32,0-4.8,0-6.89,1.85-7.72,6.61-2.93,16.82-5.89,33.64-8.85,50.45-.46,2.61,.75,4.44,3.35,4.88,.67,.11,1.36,.08,2.04,.08,11.32,0,22.63,0,33.95,0ZM122.55,101.57c0,6.22-.27,12.29,.08,18.32,.33,5.76,3.13,10.5,7.55,14.23,1.15,.97,2.29,1.94,3.36,2.99,6.08,6.01,18.87,6.01,25.04,.22,1.59-1.49,3.24-2.92,4.86-4.39,2.48-2.25,4.14-5.05,5.23-8.18,2.07-5.96,1.21-12.1,1.37-18.47-12.26,2.39-22.58-.26-30.31-10.57-4.51,5.76-10.41,7.22-17.17,5.84Zm53.46,63.24c-.22,.62-.44,1.19-.62,1.76-2.19,6.87-4.36,13.75-6.56,20.61-1.14,3.57-3.29,4.29-6.31,2.11-3.76-2.71-7.49-5.45-11.24-8.17-.46-.33-.97-.6-1.65-1.02-.04,.91-.1,1.51-.1,2.12,0,5.59,0,11.18,0,16.76,0,2.35,.01,2.36,2.32,2.36,16.69,0,33.39,0,50.08,0,.27,0,.55-.02,.82,0,.94,.09,1.3-.24,1.28-1.26-.07-4.16,.09-8.32-.08-12.47-.3-7.1-3.65-12.28-10.22-15.19-5.47-2.43-10.97-4.8-16.46-7.19-.37-.16-.76-.25-1.26-.42Zm-12.74-64.41c1.26-.17,3.41-.48,5.56-.77,.89-.12,1.3-.54,1.22-1.49-.16-1.83-.11-3.69-.39-5.5-1.28-8.45-5.76-14.4-13.93-17.32-4.78-1.71-9.71-1.88-14.71-1.16-9,1.3-15.82,7.37-17.9,15.98-1.14,4.72-.1,5.82,4.77,5.07,.07-.01,.13-.03,.2-.04,4.11-.66,6.6-3.27,8.24-6.88,.68-1.5,1.53-2.76,3.39-2.78,1.86-.02,2.71,1.18,3.44,2.7,3.86,8.03,10.28,12.05,20.1,12.18Zm-17.07,67.82c4.9-5.54,9.72-10.98,14.51-16.44,.28-.32,.47-.87,.43-1.29-.19-1.95-.47-3.88-.73-5.9-9.55,4.99-18.89,4.99-28.37,.04-.11,.56-.16,1.09-.32,1.58-1.15,3.58,.09,6.22,2.68,8.84,4.1,4.16,7.82,8.68,11.81,13.17Zm-47.72,92.27c.51,2.13,.96,4.1,1.45,6.06,.74,2.95,1.42,3.49,4.54,3.5,6.06,.02,12.12,0,18.19,0,.51,0,1.02-.1,1.42-.14v-9.41h-25.6Zm42.7-87.75c-.61-.72-1.07-1.3-1.56-1.85-3.03-3.41-6.06-6.83-9.11-10.23-1.04-1.16-2.13-2.29-3.2-3.43-1.28,.98-2.54,1.99-3.85,2.92-.96,.68-1.18,1.38-.78,2.58,1.94,5.81,3.75,11.66,5.61,17.49,.15,.47,.39,.92,.63,1.48,3.54-2.57,6.9-5.01,10.26-7.45,.6-.44,1.19-.9,1.99-1.5Zm22.28,8.99c.24-.63,.42-1.06,.56-1.51,1.56-4.86,3.11-9.72,4.66-14.58,1.45-4.54,1.42-4.5-2.25-7.64-1.02-.87-1.56-.84-2.44,.17-3.93,4.52-7.95,8.98-11.92,13.46-.3,.34-.51,.74-.83,1.2,4.11,2.99,8.11,5.9,12.22,8.89Z"/><path class="cls-1" d="M291.24,156.76c-.66,3.67-1.08,7.41-2.03,11-5.09,19.46-16.49,34.1-34,43.98-.3,.17-.59,.35-.9,.48-1.79,.76-3.56,.21-4.42-1.36-.86-1.57-.41-3.35,1.25-4.44,2.45-1.6,4.96-3.12,7.43-4.69,.57-.36,1.1-.78,2.01-1.44-3.23-2.1-6.25-4.06-9.43-6.13-.78,1.63-1.41,2.97-2.07,4.29-2.46,4.89-5.38,9.48-9.26,13.39-.38,.39-.76,.79-1.2,1.11-1.42,1.03-3.07,.89-4.27-.31-1.07-1.07-1.28-2.84-.42-4.13,.37-.56,.88-1.04,1.35-1.53,4.24-4.44,7.2-9.67,9.74-15.72-3.84-1.01-7.47-2.09-11.16-2.9-2.32-.51-4.72-.62-7.08-.92-.89-.11-1.26,.15-1.45,1.14-.39,1.99-1.94,3.1-3.6,2.88-1.82-.24-2.96-1.62-2.96-3.79-.02-10.09-.01-20.18-.01-30.27,0-.55-.05-1.1,0-1.63,.14-1.21-.44-1.48-1.54-1.46-4.02,.05-8.04,.02-12.07,.02-.55,0-1.09,.02-1.64-.01-2-.14-3.41-1.56-3.39-3.39,.02-1.85,1.41-3.22,3.48-3.24,4.29-.05,8.59-.01,12.88-.02,2.25,0,2.26,0,2.26-2.15,0-7.5-.02-15,.02-22.5,0-1.15-.22-1.74-1.53-1.81-6.57-.35-12.93-1.78-19.1-4.07-.31-.12-.65-.16-1.21-.3-.34,1.09-.69,2.16-1,3.25-2.65,9.29-3.8,18.8-4.05,28.44-.02,.75,.01,1.5-.03,2.25-.12,2.13-1.57,3.59-3.46,3.53-1.83-.06-3.22-1.49-3.16-3.56,.12-4.29,.25-8.59,.63-12.86,.68-7.68,2.16-15.23,4.52-22.58,.35-1.1,0-1.63-.93-2.09-.98-.48-1.94-1-2.84-1.62-1.51-1.04-1.91-2.81-1.08-4.32,.88-1.62,2.63-2.18,4.38-1.35,1.03,.49,2.02,1.07,2.84,1.5,3.18-5.32,6.29-10.52,9.48-15.85-2.08,.85-4.25,1.6-6.29,2.6-2.63,1.28-5.16,2.76-7.72,4.17-1.32,.72-2.6,.77-3.84-.13-1.1-.8-1.65-2.01-1.19-3.23,.37-.99,1.15-2.03,2.04-2.6,7.06-4.55,14.74-7.64,22.97-9.27,28.72-5.69,57.06,6.51,72.65,31.29,5.6,8.9,8.92,18.62,10.05,29.09,.05,.46,.22,.91,.34,1.37v11.87Zm-25.4-50.46c-3.92,2.45-7.71,4.84-11.54,7.18-1,.61-.66,1.32-.42,2.11,3.06,9.88,4.55,20.03,4.99,30.34,.06,1.44,.5,1.81,1.9,1.79,7.36-.07,14.72-.03,22.08-.04,.52,0,1.04-.09,1.67-.15-1.09-16.26-7.42-29.94-18.68-41.23Zm18.66,48.23c-.44-.09-.64-.16-.83-.16-7.77,0-15.53,.01-23.3-.04-1.23,0-1.4,.51-1.48,1.57-.27,3.94-.55,7.88-1.01,11.79-.75,6.43-2.14,12.74-4.1,18.92-.27,.85-.28,1.45,.65,2.03,3.47,2.14,6.88,4.38,10.27,6.64,.72,.48,1.17,.47,1.72-.16,.99-1.12,2.06-2.18,3.03-3.32,9.1-10.73,14.14-23.1,15.04-37.28Zm-32.24-6.84c-.37-10.67-1.75-20.85-5.03-30.8-.41,.09-.68,.12-.92,.21-6.31,2.27-12.77,3.82-19.49,4.14-1.41,.07-1.43,.84-1.43,1.88,.02,7.56,.06,15.12-.03,22.68-.02,1.55,.44,1.93,1.95,1.91,6.61-.08,13.21-.03,19.82-.03,1.62,0,3.25,0,5.12,0Zm.08,6.82c-.62-.07-1.01-.14-1.4-.15-7.97,0-15.95,.03-23.92-.04-1.46-.01-1.64,.59-1.63,1.8,.04,7.43,.02,14.86,.02,22.28,0,2.21,0,2.23,2.19,2.38,6.08,.43,11.97,1.75,17.71,3.78,1.92,.68,2.06,.7,2.48-1.23,1.28-5.84,2.6-11.68,3.59-17.58,.61-3.66,.65-7.42,.95-11.25Zm-33.69-65.76c-10.51,3.78-15.15,12.43-19.44,21.66,5.79,2.35,11.61,3.59,17.6,4.12,1.91,.17,1.93,.11,1.93-1.8,0-7.36,0-14.72,0-22.08,0-.53-.05-1.06-.1-1.91Zm26.22,21.68c-2.19-5.37-4.76-10.26-8.6-14.28-2.13-2.23-4.73-4.05-7.24-5.88-.96-.7-2.27-.93-3.61-1.45,0,3.37,0,6.36,0,9.35,0,4.9,.06,9.8-.03,14.7-.03,1.5,.52,1.91,1.88,1.7,1.07-.17,2.16-.24,3.24-.39,4.86-.66,9.59-1.82,14.36-3.75Zm6.61-2.85c2.82-1.82,5.81-3.75,9.07-5.86-5.92-4.57-12.01-7.86-18.57-10,3.1,5.18,6.19,10.34,9.5,15.86Z"/><path class="cls-1" d="M113.68,227.54c0,4.49,.02,8.99-.02,13.48,0,.8-.08,1.65-.35,2.39-.52,1.41-2.04,2.26-3.41,2.06-1.45-.21-2.61-1.33-2.83-2.82-.08-.54-.07-1.09-.07-1.63,0-8.85,0-17.71,0-26.56,0-2.9,1.19-4.48,3.31-4.46,2.11,.02,3.37,1.65,3.37,4.47,.01,4.36,0,8.72,0,13.08Z"/><path class="cls-1" d="M183.14,238.88c0,1.79-1.65,3.39-3.45,3.34-1.78-.05-3.18-1.52-3.18-3.34,0-1.84,1.36-3.25,3.18-3.29,1.88-.04,3.44,1.45,3.45,3.29Z"/></svg>