<?xml version="1.0" encoding="UTF-8"?><svg id="Capa_1" xmlns="http://www.w3.org/2000/svg" viewBox="0 0 350 350"><defs><style>.cls-1{fill:red;}</style></defs><path class="cls-1" d="M174.84,203.19c-5.01,0-10.02,.02-15.03,0-7.82-.03-12.97-5.15-12.99-12.94-.02-10.15-.02-20.29,0-30.44,.02-7.81,5.15-12.97,12.93-12.99,10.15-.02,20.29-.02,30.44,0,7.82,.02,12.97,5.14,12.99,12.93,.03,10.15,.02,20.29,0,30.44-.02,7.82-5.14,12.96-12.93,13-5.14,.02-10.27,0-15.41,0Zm.26-48.14c-5.2,0-10.4-.02-15.6,0-3,.01-4.44,1.4-4.44,4.33-.02,10.4-.02,20.8,0,31.2,0,2.94,1.44,4.35,4.42,4.35,10.34,.02,20.67,.02,31.01,0,3.06,0,4.44-1.42,4.45-4.52,.02-10.27,.02-20.55,0-30.82,0-3.19-1.38-4.53-4.62-4.54-5.07-.02-10.15,0-15.22,0Z"/><path class="cls-1" d="M82.69,174.91c0-5.08,.12-10.16-.03-15.23-.22-7.27,5.36-12.95,12.87-12.88,10.22,.09,20.43,0,30.65,.03,7.62,.02,12.74,5.17,12.75,12.76,.02,10.28,.01,20.56,0,30.84-.01,7.58-5.14,12.74-12.76,12.76-10.22,.03-20.43-.05-30.65,.03-7.57,.06-13.09-5.66-12.87-12.89,.16-5.14,.03-10.28,.03-15.42Zm28.21-19.85c-5.08,0-10.15,0-15.23,0-3.52,0-4.86,1.36-4.86,4.91,0,10.02,0,20.05,0,30.07,0,3.53,1.37,4.9,4.88,4.91,10.09,0,20.17,0,30.26,0,3.44,0,4.86-1.34,4.87-4.73,.03-10.15,.03-20.3,0-30.45-.01-3.39-1.43-4.71-4.88-4.71-5.01-.01-10.02,0-15.04,0Z"/><path class="cls-1" d="M267.31,175.02c0,5.08-.13,10.16,.03,15.23,.23,7.3-5.28,13.05-12.99,12.97-10.22-.1-20.43,0-30.65-.04-6.39-.02-11.2-3.87-12.42-9.88-.19-.91-.21-1.87-.22-2.8-.01-10.34-.02-20.68,0-31.03,.01-7.37,5.13-12.6,12.49-12.64,10.4-.06,20.81-.05,31.21,0,7.32,.03,12.42,5.09,12.53,12.39,.08,5.26,.01,10.53,.02,15.8Zm-28.19-19.96c-5.08,0-10.15-.01-15.23,0-3.22,.01-4.69,1.36-4.71,4.5-.04,10.28-.04,20.55,0,30.83,.01,3.18,1.47,4.56,4.65,4.56,10.21,.01,20.43,.01,30.64,0,3.28,0,4.71-1.43,4.71-4.69,.01-10.15,.01-20.3,0-30.45,0-3.36-1.42-4.74-4.84-4.75-5.08-.01-10.15,0-15.23,0Z"/><path class="cls-1" d="M174.98,82.69c5.01,0,10.03,.15,15.04-.04,7.81-.29,13.3,5.59,13.2,13.14-.14,10.15-.01,20.31-.04,30.46-.02,6.48-3.93,11.31-10.03,12.49-.85,.17-1.74,.18-2.62,.18-10.34,.01-20.68,.02-31.03,0-7.47-.01-12.65-5.16-12.68-12.64-.04-10.34-.04-20.68,0-31.03,.03-7.39,5.13-12.49,12.55-12.57,5.2-.06,10.4-.01,15.61-.01Zm19.97,28.22c0-5.14,.01-10.28,0-15.41-.01-3.27-1.43-4.68-4.72-4.68-10.15-.01-20.3-.01-30.45,0-3.3,0-4.72,1.41-4.72,4.68-.01,10.21-.01,20.43,0,30.64,0,3.2,1.36,4.67,4.53,4.68,10.28,.04,20.55,.04,30.83,0,3.17-.01,4.53-1.48,4.54-4.68,.02-5.08,0-10.15,0-15.23Z"/><path class="cls-1" d="M175,267.31c-5.08,0-10.16-.13-15.23,.03-7.34,.24-13.07-5.37-12.99-12.97,.12-10.28,0-20.56,.04-30.84,.03-6.31,4.02-11.15,10.04-12.29,.85-.16,1.74-.17,2.62-.17,10.34-.01,20.68-.02,31.03,0,7.47,.01,12.63,5.15,12.66,12.66,.04,10.34,.05,20.68,0,31.03-.03,7.4-5.14,12.47-12.57,12.55-5.2,.06-10.4,.01-15.61,.01Zm19.95-28.03c0-5.08,0-10.15,0-15.22,0-3.45-1.34-4.86-4.73-4.87-10.15-.03-20.3-.03-30.45,0-3.33,0-4.71,1.41-4.71,4.69-.01,10.21-.01,20.43,0,30.64,0,3.26,1.43,4.67,4.73,4.68,10.15,.01,20.3,.01,30.45,0,3.28,0,4.7-1.43,4.72-4.69,.02-5.07,0-10.15,0-15.22Z"/><path class="cls-1" d="M82.7,110.88c0-5.39-.07-10.78,.02-16.17,.1-5.78,3.67-10.27,9.12-11.65,.9-.23,1.86-.34,2.79-.34,10.78-.02,21.56-.09,32.34,.01,6.05,.06,10.62,4.03,11.78,9.89,.16,.79,.19,1.62,.19,2.43,.01,10.47,.03,20.93,0,31.4-.02,7.27-5.17,12.47-12.41,12.49-10.47,.03-20.93,.03-31.4,0-7.19-.02-12.31-5.05-12.42-12.27-.08-5.26-.02-10.53-.02-15.79h0Zm8.11,0c0,5.08-.01,10.15,0,15.23,.01,3.14,1.45,4.69,4.56,4.7,10.28,.04,20.55,.04,30.83,0,3.14-.01,4.6-1.49,4.61-4.66,.04-10.21,.04-20.43,0-30.64-.01-3.25-1.52-4.7-4.75-4.7-10.15-.01-20.3-.01-30.45,0-3.32,0-4.79,1.49-4.8,4.84-.01,5.08,0,10.15,0,15.23Z"/><path class="cls-1" d="M267.28,110.82c0,5.45,.1,10.91-.03,16.36-.14,5.92-4.1,10.45-9.9,11.58-.79,.16-1.62,.18-2.43,.18-10.47,.01-20.93,.03-31.4,0-7.27-.02-12.45-5.18-12.47-12.43-.02-10.47-.02-20.93,0-31.4,.02-7.11,5-12.32,12.09-12.39,10.65-.11,21.31-.1,31.96,0,7.15,.06,12.07,5.1,12.17,12.3,.07,5.26,.01,10.53,.01,15.79,0,0-.01,0-.02,0Zm-8.09,.12c0-5.14,.01-10.28,0-15.42-.01-3.2-1.52-4.7-4.74-4.7-10.15-.01-20.3-.01-30.45,0-3.26,0-4.79,1.43-4.8,4.65-.04,10.21-.04,20.43,0,30.64,.01,3.25,1.48,4.7,4.75,4.72,10.15,.03,20.3,.03,30.45,0,3.36,0,4.79-1.5,4.8-4.85,.01-5.01,0-10.03,0-15.04Z"/><path class="cls-1" d="M110.82,267.28c-5.52,0-11.03,.11-16.54-.03-5.52-.14-9.9-3.82-11.24-9.14-.2-.78-.31-1.61-.31-2.41-.02-10.97-.1-21.94,.02-32.9,.07-5.89,4.15-10.45,9.93-11.55,.85-.16,1.74-.17,2.62-.17,10.34-.01,20.68-.02,31.02,0,7.51,.01,12.61,5.12,12.62,12.65,.02,10.34,.02,20.68,0,31.02-.01,7.33-5,12.45-12.32,12.56-5.26,.08-10.53,.02-15.79,.02,0-.01,0-.02,0-.03Zm-20.02-27.96c0,4.95,0,9.9,0,14.85,0,3.59,1.42,5.03,4.99,5.03,9.96,0,19.93,0,29.89,0,3.73,0,5.13-1.37,5.13-5.09,.02-9.96,.02-19.93,0-29.89,0-3.63-1.4-5.03-5.01-5.03-10.03-.02-20.05-.02-30.08,0-3.49,0-4.92,1.46-4.93,4.91-.01,5.08,0,10.15,0,15.23Z"/><path class="cls-1" d="M238.93,267.31c-4.95,0-9.91-.14-14.85,.03-8.17,.29-13.26-6.26-13.09-13.04,.25-10.15,.21-20.31,.02-30.46-.14-7.21,5.6-12.99,12.92-12.84,10.21,.21,20.43,.04,30.65,.06,7.59,0,12.68,4.96,12.72,12.53,.06,10.4,.06,20.81,0,31.21-.04,7.48-5.06,12.43-12.56,12.5-5.26,.05-10.53,0-15.79,.01Zm.38-8.11c4.95,0,9.9,0,14.85,0,3.59,0,5.02-1.43,5.03-5,0-9.96,0-19.93,0-29.89,0-3.73-1.37-5.12-5.09-5.13-9.96-.01-19.93-.02-29.89,0-3.62,0-5.03,1.4-5.03,5-.02,10.03-.02,20.05,0,30.08,0,3.49,1.46,4.92,4.91,4.93,5.08,.01,10.15,0,15.23,0Z"/></svg>