<?xml version="1.0" encoding="UTF-8"?><svg id="Capa_1" xmlns="http://www.w3.org/2000/svg" viewBox="0 0 350 350"><defs><style>.cls-1{fill:red;}</style></defs><path class="cls-1" d="M307.13,203.52c-.7,2.15-1.43,4.29-2.11,6.45-3.79,12.02-14.03,19.6-26.6,19.64-9.34,.02-18.69,0-28.03,0-3.21,0-3.85,.45-5.06,3.49-1.22,3.07-2.35,6.18-3.67,9.21-1.11,2.55-3.97,2.9-5.72,.81-.83-.98-1.01-2.07-.52-3.29,1.48-3.68,2.8-7.43,4.43-11.04,1.81-4.01,5.14-5.91,9.52-5.92,9.78-.02,19.57,.04,29.35-.03,6.47-.05,11.83-2.61,16-7.58,.56-.67,1.03-1.41,1.63-2.23-4.48-3.01-6.87-7.28-8.22-12.25-.12-.44-.82-.89-1.32-1.02-.77-.19-1.61-.08-2.41-.15-3.4-.27-6.17-1.66-8.23-4.48-3.47-4.75-7.02-9.45-10.52-14.17-2.63-3.56-6.02-5.94-10.33-7.09-1.49-.4-2.02-.04-2.5,1.38-3.13,9.17-6.34,18.32-9.58,27.46-1.58,4.44-4.91,6.75-9.35,6.58-3.53-.14-6.13-1.85-7.8-4.94-1.88-3.49-3.71-7.02-5.56-10.52-.31-.58-.65-1.14-1.12-1.98-.69,.86-1.28,1.58-1.84,2.32-18.5,24.09-37.01,48.18-55.51,72.26-.75,.98-1.57,1.91-2.35,2.87h-2.65c-2.35-1.95-2.83-3.19-1.82-4.97,.4-.7,.93-1.32,1.42-1.96,11.55-15.04,23.1-30.08,34.65-45.13,1.39-1.81,1.47-1.98-.49-3.11-4.57-2.64-9.27-5.08-13.87-7.67-1.21-.68-2-.57-3.01,.45-5.56,5.67-11.2,11.26-16.82,16.87-1.2,1.2-2.35,2.43-3.61,3.56-1.62,1.46-3.29,1.44-4.95,.06-.51-.42-.96-.91-1.42-1.38-6.6-6.6-13.2-13.21-19.81-19.81-.63-.63-1.11-1.52-2.35-.82-5.25,2.95-10.81,5.42-15.76,8.79-12.36,8.4-19.42,20.24-20.96,35.13-.54,5.17-.39,10.42-.39,15.64,0,1.98-.56,3.42-2.31,4.35h-2.21c-1.81-1-2.38-2.54-2.3-4.58,.22-5.58-.13-11.22,.51-16.74,1.93-16.62,10.02-29.72,23.66-39.37,2.21-1.56,4.61-2.89,7-4.17,4.79-2.57,9.64-5.04,14.46-7.55,6.68-3.48,9.46-8.58,8.84-16.01-.1-1.18-.71-1.36-1.64-1.63-3.95-1.13-7.95-2.15-11.78-3.6-9.59-3.61-15.34-12-15.46-22.25-.05-4.41,0-8.83-.01-13.24,0-3.15,.2-2.71-2.69-2.76-4.9-.07-8.41-2.58-9.7-7.1-1.05-3.66-.42-7.04,2.38-9.75,.89-.87,1.16-1.73,1.16-2.89-.03-7.94-.05-15.89,.01-23.83,.07-9.65,2.83-18.53,7.99-26.67,1.51-2.38,3.23-2.85,5.11-1.51,1.46,1.04,1.91,2.64,1.12,4.26-.35,.72-.83,1.39-1.24,2.09-3.92,6.66-6.09,13.84-6.19,21.57-.09,7.43-.04,14.86-.04,22.29,0,.29-.09,.65,.04,.87,.22,.37,.65,.97,.87,.92,.44-.11,1.08-.54,1.12-.9,.14-1.23,.05-2.5,.07-3.75,.05-2.81,.98-3.93,3.76-4.08,8.07-.42,15.86-2.06,23.35-5.11,11.06-4.5,20.64-11.2,29.14-19.5,2.71-2.65,5.8-4.42,9.56-5.1,10.12-1.82,18.94,5.38,19.04,15.68,.07,6.99,0,13.98,.03,20.97,0,.71-.4,1.74,.91,1.86,.97,.09,1.71,.03,1.69-1.32-.16-8.97,.31-17.99-.5-26.89-1.67-18.47-15.82-34.11-33.86-38.23-14.05-3.21-26.81-.3-38.26,8.43-1.14,.87-2.27,1.68-3.81,1.11-2.61-.96-3.12-4.19-.89-6.03,5.17-4.26,10.98-7.37,17.4-9.28,29.2-8.71,59.04,8.82,65.51,38.61,.8,3.7,1.01,7.58,1.09,11.38,.16,7.57,.06,15.15,.03,22.73,0,1.08,.26,1.9,1.01,2.75,2.8,3.2,3.25,6.87,1.49,10.68-1.72,3.73-4.73,5.69-8.91,5.76-3.06,.05-2.88-.66-2.93,2.96-.08,5.44,.21,10.92-.4,16.3-.96,8.53-5.74,14.71-13.54,18.24-3.66,1.65-7.59,2.72-11.46,3.87-1.35,.4-2.04,.85-1.88,2.34,.15,1.46,.02,2.95,.22,4.4,.69,4.94,3.32,8.55,7.73,10.86,1.17,.62,2.36,1.2,3.54,1.78,7.18,3.54,14.51,6.8,21.01,11.82,.48-.55,.94-1.01,1.33-1.51,5.56-7.23,11.08-14.49,16.7-21.67,.97-1.24,1.12-2.18,.28-3.52-1.01-1.61-1.85-3.34-2.68-5.06-2.72-5.64,.11-11.96,6.24-13.27,8.47-1.82,17-3.36,25.53-4.89,3.76-.67,7.65,1.54,9.36,5.2,.54,1.16,1.23,1.61,2.4,1.85,6.34,1.26,11.36,4.62,15.2,9.79,3.37,4.55,6.8,9.05,10.11,13.65,1.24,1.72,2.69,2.5,4.83,2.41,3.38-.13,6.78,.15,10.15-.08,5.11-.34,8.86,1.42,10.97,6.22v4.41Zm-122.44-79.09c0-9.71,.03-19.42-.01-29.13-.02-4.57-2.14-7.6-6.15-8.94-4.19-1.4-7.77-.38-10.88,2.72-5.33,5.32-11.2,9.98-17.6,13.95-10.77,6.67-22.29,11.21-35.02,12.26-1.58,.13-1.68,.92-1.68,2.16,.03,11.92,0,23.83,.02,35.75,.02,7.41,4.04,13.36,10.94,16.08,16,6.3,32.09,6.47,48.21,.44,8.3-3.11,12.16-8.79,12.17-17.7,0-9.19,0-18.39,0-27.58Zm-15.93,77.84c-4.69-2.52-8.04-6.16-9.59-11.14-.88-2.84-1.31-5.85-1.65-8.82-.16-1.43-.48-1.84-1.93-1.76-3.37,.18-6.75,.29-10.12,.19-2.99-.09-3.04-.23-3.24,2.85-.47,7.37-3.24,13.49-9.52,17.73-.09,.06-.1,.23-.02,.02,6.26,6.25,12.42,12.41,18.52,18.5,5.7-5.71,11.56-11.57,17.56-17.57Zm75.98-35.45c-.43,.06-1.02,.11-1.6,.22-3.75,.71-7.5,1.43-11.25,2.15-3.75,.72-7.5,1.41-11.24,2.18-2.45,.5-3.12,1.94-2.08,4.21,.15,.33,.34,.65,.51,.98,4.1,7.8,8.21,15.6,12.32,23.39,.31,.58,.6,1.19,1.01,1.7,1.17,1.44,3.09,1.3,4.05-.3,.33-.56,.54-1.2,.75-1.83,3-8.59,5.99-17.19,8.98-25.78,.43-1.25,.96-2.47,1.26-3.75,.45-1.95-.59-3.16-2.71-3.16ZM106.6,127.74c-.06-3.27,.5-3.21-2.17-3.23-2.76-.02-3.87,.86-3.88,2.99,0,2.19,1.23,3.16,4.02,3.15q2.03,0,2.03-2.91Zm84.87-.17c.04,3.26-.36,3.07,2.09,3.08,2.59,.02,3.94-1.05,3.94-3.05,0-2.02-1.35-3.11-3.9-3.09-2.51,.02-2.1-.15-2.14,3.05Zm106.88,78.85c.22-.07,.45-.13,.67-.2,.2-.63,.4-1.25,.59-1.88,1.27-4.29,.66-5.01-3.85-4.57-.18,.02-.35,.21-.92,.57,1.18,2.04,2.35,4.06,3.51,6.07Z"/><path class="cls-1" d="M124.37,269.3c-1.86-.94-2.51-2.47-2.36-4.52,.12-1.61-.03-3.23,.04-4.84,.06-1.21-.32-1.72-1.6-1.66-1.91,.09-3.82,.06-5.73,0-2.43-.06-3.7-1.29-3.66-3.43,.04-2.16,1.28-3.27,3.77-3.31,1.84-.03,3.68-.09,5.51,.02,1.42,.09,1.77-.49,1.72-1.79-.08-1.91-.06-3.82,0-5.73,.06-2.33,1.23-3.52,3.33-3.49,2.04,.02,3.33,1.29,3.41,3.51,.07,1.91,.08,3.82,0,5.73-.06,1.31,.31,1.86,1.72,1.78,1.9-.11,3.82-.06,5.73-.01,2.22,.05,3.58,1.36,3.55,3.33-.03,1.98-1.39,3.32-3.56,3.4-1.83,.06-3.68,.12-5.51-.01-1.61-.12-2.04,.52-1.92,2.01,.11,1.53-.07,3.09,.05,4.62,.14,1.97-.6,3.39-2.25,4.4h-2.21Z"/><path class="cls-1" d="M227.67,269.3c-2.55-1.96-2.78-2.78-1.59-5.8,1.07-2.73,2.15-5.47,3.25-8.19,.25-.61,.5-1.24,.88-1.76,.98-1.32,2.71-1.67,4.16-.94,1.38,.7,2.24,2.33,1.66,3.93-1.34,3.73-2.85,7.4-4.36,11.06-.26,.64-.89,1.13-1.35,1.69h-2.65Z"/></svg>