<svg xmlns="http://www.w3.org/2000/svg" xmlns:xlink="http://www.w3.org/1999/xlink" viewBox="0 0 221.41 225.53"><defs><style>.cls-1{fill:none;}.cls-2{clip-path:url(#clip-path);}.cls-3{fill:#8cc63f;}</style><clipPath id="clip-path" transform="translate(-74.47 -51.5)"><rect class="cls-1" width="350" height="350"/></clipPath></defs><title>Recurso 1</title><g id="Capa_2" data-name="Capa 2"><g id="Capa_1-2" data-name="Capa 1"><g class="cls-2"><path class="cls-3" d="M104.62,277c-2.52-1.08-4.63-2.62-5.2-5.49-.71-3.54.87-6.08,3.72-8q11-7.62,22.07-15.27c14.47-10,29-20,43.39-30.1,3.48-2.44,6.68-2.57,10.41-.59Q221.82,240.33,264.7,263c2.27,1.2,4.21,2.64,4.89,5.31a7.08,7.08,0,0,1-3,7.63c-.68.42-1.4.77-2.11,1.14Z" transform="translate(-74.47 -51.5)"/><path class="cls-3" d="M74.47,99.94c.48-14.46,6-26.64,16.91-36.14,11.49-10,25-14.11,40-11.56,19.53,3.31,32.64,14.74,39.28,33.37,3.86,10.83,3.05,21.57-1.54,32.11a144.9,144.9,0,0,1-16.86,29c-7.27,9.75-15,19.17-22.61,28.65-3.32,4.12-8.14,4.16-11.55.26A307,307,0,0,1,87.81,135.5a108.1,108.1,0,0,1-11.26-23,37,37,0,0,1-2.08-12.52m70.31,1a21,21,0,1,0-21,21,20.8,20.8,0,0,0,21-21" transform="translate(-74.47 -51.5)"/><path class="cls-3" d="M96.24,171.54c4,4.67,7.7,9,11.43,13.34a20.67,20.67,0,0,0,12.74,7.2,20.1,20.1,0,0,0,19.19-6.89c5.75-6.56,11.29-13.32,16.69-20.18a211.63,211.63,0,0,0,18.24-27.2,3,3,0,0,1,3.11-1.76q30.6.07,61.19,0a8,8,0,0,1,6.21,2.25,6.94,6.94,0,0,1,0,9.71,16.48,16.48,0,0,1-2.39,1.94l-151,104.6-.91.61c-3.12,2-6.06,2.17-8.63.38s-3.55-4.67-2.76-8.21q4.64-20.92,9.3-41.83,3.6-16.2,7.2-32.4c.09-.4.24-.8.47-1.58" transform="translate(-74.47 -51.5)"/><path class="cls-3" d="M295.87,251.25c.14,5.44-4.7,9-9.35,7.33a18.44,18.44,0,0,1-2.39-1.11q-43-22.77-86.06-45.58a14.17,14.17,0,0,1-2.24-1.38,7,7,0,0,1-.52-10.63,17.26,17.26,0,0,1,2.07-1.63q32.64-22.6,65.32-45.17a11.35,11.35,0,0,1,4.11-2c4-.76,7.24,1.62,8.23,5.8,1.08,4.56,2.06,9.14,3.08,13.72q8.69,39.14,17.36,78.29c.2.93.32,1.87.39,2.31" transform="translate(-74.47 -51.5)"/></g></g></g></svg>