<?xml version="1.0" encoding="UTF-8"?><svg id="Capa_1" xmlns="http://www.w3.org/2000/svg" viewBox="0 0 350 350"><defs><style>.cls-1{fill:#8cc63f;}</style></defs><path class="cls-1" d="M104.62,277.03c-2.53-1.08-4.63-2.63-5.21-5.5-.71-3.54,.88-6.08,3.72-8.04,7.37-5.08,14.72-10.18,22.08-15.27,14.47-10.02,28.98-19.99,43.39-30.1,3.48-2.44,6.68-2.57,10.41-.59,28.53,15.19,57.11,30.29,85.69,45.4,2.27,1.2,4.21,2.65,4.89,5.31,.73,2.88-.5,6.07-3.03,7.63-.68,.42-1.4,.76-2.1,1.14H104.62Z"/><path class="cls-1" d="M74.47,99.94c.48-14.46,6.01-26.63,16.91-36.13,11.49-10.01,25-14.11,40.02-11.57,19.53,3.31,32.65,14.75,39.28,33.37,3.86,10.83,3.05,21.57-1.54,32.12-4.5,10.34-10.15,20.03-16.86,29.03-7.27,9.75-14.98,19.18-22.61,28.65-3.32,4.12-8.14,4.16-11.55,.26-11.07-12.65-21.44-25.85-30.32-40.16-4.53-7.3-8.56-14.85-11.26-23.05-1.34-4.06-2.18-8.21-2.07-12.52Zm70.3,.98c-.04-11.48-8.93-20.99-20.96-20.99-12.15,0-20.97,9.65-20.97,20.98,0,11.32,8.8,20.99,20.96,20.99,12.02,0,20.92-9.49,20.98-20.98Z"/><path class="cls-1" d="M96.24,171.54c3.99,4.66,7.69,9.02,11.43,13.34,3.38,3.91,7.59,6.4,12.74,7.2,7.64,1.18,14.16-1.14,19.19-6.88,5.75-6.56,11.29-13.32,16.68-20.18,6.76-8.6,12.89-17.65,18.24-27.2,.75-1.34,1.61-1.77,3.11-1.76,20.4,.05,40.8,.04,61.2,.02,2.37,0,4.5,.47,6.2,2.25,2.61,2.73,2.63,7.02-.04,9.71-.72,.72-1.54,1.35-2.38,1.94-50.34,34.87-100.69,69.73-151.04,104.6-.3,.21-.6,.42-.91,.62-3.12,2.04-6.06,2.16-8.63,.37-2.56-1.78-3.55-4.66-2.76-8.21,3.09-13.95,6.2-27.89,9.3-41.83,2.4-10.8,4.79-21.6,7.19-32.39,.09-.41,.24-.8,.48-1.58Z"/><path class="cls-1" d="M295.87,251.25c.13,5.45-4.7,8.98-9.35,7.34-.82-.29-1.61-.7-2.39-1.11-28.69-15.19-57.38-30.38-86.07-45.58-.77-.41-1.55-.85-2.24-1.39-3.43-2.7-3.66-7.6-.52-10.62,.63-.61,1.35-1.13,2.07-1.63,21.76-15.07,43.52-30.14,65.31-45.17,1.24-.85,2.67-1.67,4.11-1.95,3.96-.76,7.24,1.62,8.23,5.79,1.08,4.56,2.06,9.14,3.08,13.72,5.79,26.1,11.58,52.2,17.36,78.3,.21,.93,.32,1.87,.4,2.3Z"/></svg>