<?xml version="1.0" encoding="UTF-8"?><svg id="Capa_1" xmlns="http://www.w3.org/2000/svg" viewBox="0 0 350 350"><defs><style>.cls-1{fill:#8cc63f;}</style></defs><path class="cls-1" d="M204.2,54.76c.78,0,1.57,0,2.35,0,2.63,.88,4.49,2.68,6.19,4.81,5.16,6.5,10.44,12.9,15.63,19.38,.83,1.04,1.71,1.63,3.08,1.84,8.51,1.3,16.99,2.72,25.5,4.04,5.43,.84,7.5,2.88,8.33,8.23,1.34,8.58,2.78,17.14,4.09,25.73,.2,1.29,.77,2.11,1.73,2.88,6.65,5.35,13.27,10.74,19.9,16.11,4.48,3.63,5.18,6.15,3.14,11.47-3.02,7.89-6.03,15.79-9.11,23.66-.58,1.48-.59,2.79-.01,4.28,3.11,7.94,6.15,15.91,9.2,23.87,1.92,5.01,1.18,7.68-3.04,11.1-6.69,5.42-13.37,10.86-20.09,16.25-.97,.78-1.53,1.6-1.73,2.88-1.31,8.58-2.75,17.15-4.09,25.73-.83,5.34-2.9,7.39-8.32,8.23-8.5,1.32-16.99,2.75-25.5,4.04-1.36,.21-2.25,.8-3.08,1.83-5.43,6.78-10.91,13.53-16.39,20.28-3.26,4.01-5.88,4.7-10.73,2.85-7.89-3.02-15.79-6.01-23.65-9.12-1.81-.72-3.36-.67-5.16,.04-7.71,3.05-15.47,5.97-23.22,8.93-5.26,2.01-7.77,1.34-11.29-3.01-5.43-6.69-10.86-13.37-16.26-20.08-.78-.97-1.62-1.51-2.9-1.7-8.51-1.3-16.99-2.73-25.5-4.05-5.56-.86-7.56-2.87-8.41-8.4-1.29-8.35-2.67-16.69-3.95-25.04-.24-1.57-.87-2.68-2.13-3.68-6.38-5.06-12.65-10.25-19.03-15.32-2.18-1.73-4.09-3.59-4.97-6.3,0-.78,0-1.57,0-2.35,3.5-9.19,7.04-18.36,10.46-27.58,.34-.92,.33-2.19-.01-3.11-3.42-9.21-6.95-18.39-10.45-27.57,0-.78,0-1.57,0-2.35,.91-2.69,2.81-4.57,4.99-6.3,6.37-5.06,12.64-10.25,19.01-15.31,1.26-1,1.9-2.1,2.14-3.67,1.27-8.35,2.66-16.67,3.95-25.02,.85-5.54,2.88-7.57,8.39-8.42,8.27-1.27,16.52-2.65,24.79-3.89,1.74-.26,2.96-.97,4.06-2.36,5.06-6.37,10.26-12.63,15.33-18.99,1.69-2.12,3.53-3.96,6.16-4.83,.78,0,1.57,0,2.35,0,1.16,.44,2.33,.87,3.49,1.31,7.88,3.02,15.76,6.02,23.62,9.07,1.3,.5,2.46,.61,3.82,.09,9.09-3.53,18.22-6.99,27.33-10.47Zm15.98,66.61c-.11-2.14-1.57-4.48-4.46-5.83-2.8-1.3-6.06-.73-8.25,1.48-.93,.94-1.69,2.05-2.46,3.13-24.17,33.82-48.33,67.65-72.48,101.47-.59,.83-1.2,1.66-1.67,2.55-1.73,3.29-.82,7.34,2.07,9.47,3.1,2.28,7.19,2.03,9.86-.69,.92-.94,1.69-2.05,2.46-3.13,15.62-21.84,31.22-43.69,46.83-65.54,8.65-12.1,17.29-24.21,25.94-36.31,1.2-1.68,2.25-3.4,2.17-6.61Zm.02,91.28c.02-12.31-10.22-22.58-22.55-22.6-12.3-.02-22.58,10.23-22.6,22.55-.02,12.32,10.22,22.57,22.55,22.59,12.32,.02,22.57-10.21,22.59-22.55Zm-67.77-97.77c-12.37,.09-22.62,10.45-22.48,22.73,.14,12.31,10.29,22.4,22.55,22.42,12.34,.02,22.63-10.28,22.6-22.6-.03-12.36-10.36-22.63-22.66-22.54Z"/><path class="cls-1" d="M197.58,205.19c4.05-.03,7.51,3.41,7.5,7.47,0,4.08-3.45,7.48-7.52,7.43-3.99-.04-7.31-3.35-7.38-7.34-.07-4.05,3.34-7.53,7.4-7.56Z"/><path class="cls-1" d="M152.46,144.92c-4.07-.03-7.47-3.52-7.39-7.57,.07-3.98,3.42-7.3,7.4-7.33,4.07-.03,7.51,3.38,7.51,7.45,0,4.08-3.44,7.49-7.51,7.45Z"/></svg>