<?xml version="1.0" encoding="utf-8"?>
<!-- Generator: Adobe Illustrator 27.0.0, SVG Export Plug-In . SVG Version: 6.00 Build 0)  -->
<svg version="1.1" xmlns="http://www.w3.org/2000/svg" xmlns:xlink="http://www.w3.org/1999/xlink" x="0px" y="0px"
	 viewBox="0 0 512 512" style="enable-background:new 0 0 512 512;" xml:space="preserve">
<style type="text/css">
	.st0{fill:#8CC63F;}
</style>
<g id="background_1_">
</g>
<g id="WhatsApp_Logo">
	<g>
		<path class="st0" d="M510.5,241.1c0,9.9,0,19.9,0,29.8c-0.3,1.6-0.8,3.2-0.9,4.8c-1.5,22.9-6.3,45.2-14.2,66.8
			C451,465,321.8,534.1,195,503.1C64.3,471.1-19.5,340.3,6.1,208.3c9.8-50.6,32.8-94.4,69-131.1c38-38.4,83.7-62.5,137.1-71.7
			c9.6-1.7,19.3-2.6,28.9-3.9c9.9,0,19.9,0,29.8,0c6.7,0.8,13.4,1.5,20.1,2.4c50.2,7.1,94.5,27.1,132.5,60.7
			c44.7,39.5,72.7,88.6,83,147.6C508.3,221.8,509.2,231.4,510.5,241.1z M240.8,240.8c0-25.3,0-50.2,0-74.8c-28.8-2-57.3-4-85.7-5.9
			c-6.3,26.6-9.8,53.3-10.5,80.7C176.9,240.8,208.7,240.8,240.8,240.8z M367.5,240.8c-0.7-27.4-4.2-54.1-10.4-80
			c-29.1,1.8-57.5,3.6-85.9,5.4c0,24.9,0,49.7,0,74.6C303.4,240.8,335.2,240.8,367.5,240.8z M31.3,240.8c28.5,0,55.8,0,82,0
			c3.7-28.9,7.3-57.3,10.8-85.2c-18.5-4.6-37.4-9.1-56.2-14.1c-3.4-0.9-4.9-0.4-6.6,2.6c-10.4,18.4-18.5,37.7-23.2,58.3
			C35.2,214.9,33.5,227.7,31.3,240.8z M398.8,271.2c-3.7,28.3-7.2,56.1-10.8,83.9c20,4.7,40.8,9.6,61.9,14.5
			c17.7-30.2,27.8-62.9,30.2-98.4C452.4,271.2,425.3,271.2,398.8,271.2z M449.9,142.5c-21.1,4.7-41.8,9.3-61.6,13.8
			c3.5,28.1,7.1,56.3,10.6,84.4c26.5,0,53.7,0,81.2,0C477.6,205.2,467.5,172.5,449.9,142.5z M271.2,344.4c28.7,2,57.1,3.9,85.6,5.9
			c5.6-19.7,11.7-66.1,10.2-79c-31.9,0-63.9,0-95.8,0C271.2,296,271.2,320.3,271.2,344.4z M155,349.7c29-1.8,57.3-3.6,85.8-5.4
			c0-24.3,0-48.7,0-73.1c-32.2,0-64,0-96.3,0C145.6,298,148.8,324.1,155,349.7z M32.6,271.2c-0.1,0.7-0.3,1.1-0.3,1.6
			c2.2,33.4,11.8,64.5,28.3,93.6c0.6,1.1,3.6,1.7,5.2,1.4c15.8-3.5,31.5-7.3,47.3-10.9c3.9-0.9,8-1.5,11-2
			c-3.6-28.3-7.1-55.7-10.7-83.6C87,271.2,59.8,271.2,32.6,271.2z M271.4,33.8c0,34.3,0,67.9,0,102.3c25.9-1.6,51.4-3.1,77.4-4.7
			c-2.5-6.5-4.3-11.8-6.5-17c-9.2-21.7-20.3-42.4-37.2-59.3C295.7,45.5,284.9,37.7,271.4,33.8z M240.9,476.5c0-34,0-67.5,0-102.1
			c-25.8,1.5-51.3,3.1-76.9,4.6c5.1,21.6,24.2,56,39.8,72.8C214.1,462.9,225.7,471.9,240.9,476.5z M240.9,33.8
			c-10.1,2.7-18.6,7.8-26.2,14.2c-21.4,18-34.3,41.6-45,66.8c-2.1,4.9-3.8,10-6.1,16c26.3,1.7,51.6,3.4,77.3,5.1
			C240.9,101.5,240.9,68,240.9,33.8z M271.3,374.5c0,34.8,0,68.3,0,102.7c44-18.3,61-56.9,77.5-97.6
			C322.4,377.8,297,376.2,271.3,374.5z M80,394.3c14.9,25,76.7,70.3,95,69.8c-19.2-24.1-31.8-51.5-41.7-81
			C115.5,386.9,98,390.5,80,394.3z M337.6,464.6c37.5-14.1,68.3-37,94.3-69c-18.4-4-35.7-7.9-53.3-11.7
			C368.8,413.3,356.1,440.3,337.6,464.6z M431.9,116.3c-25.7-31.6-56.1-54.4-92.4-68.9c7.5,12.7,15.7,25,22.3,38.1
			c6.7,13.2,11.9,27.2,18.1,41.6C396.5,123.7,413.7,120.1,431.9,116.3z M173.2,47.6c-36.3,14.2-66.5,36.5-91.9,67.3
			c18,3.9,35,7.7,52.3,11.5C142.9,97.6,155.6,71.4,173.2,47.6z"/>
	</g>
</g>
</svg>
