<?xml version="1.0" encoding="utf-8"?>
<!-- Generator: Adobe Illustrator 27.0.0, SVG Export Plug-In . SVG Version: 6.00 Build 0)  -->
<svg version="1.1" xmlns="http://www.w3.org/2000/svg" xmlns:xlink="http://www.w3.org/1999/xlink" x="0px" y="0px"
	 viewBox="0 0 512 512" style="enable-background:new 0 0 512 512;" xml:space="preserve">
<style type="text/css">
	.st0{fill-rule:evenodd;clip-rule:evenodd;fill:#8CC63F;}
</style>
<g id="background_1_">
</g>
<g id="WhatsApp_Logo">
	<g id="WA_Logo">
		<g>
			<path class="st0" d="M438.2,76.9c-47.6-47.7-111-74-178.5-74C120.7,2.9,7.5,116.1,7.4,255.2c0,44.5,11.6,87.9,33.7,126.1L5.3,512
				l133.7-35.1c36.8,20.1,78.3,30.7,120.6,30.7h0.1c0,0,0,0,0,0c139,0,252.2-113.2,252.3-252.3C512,187.9,485.8,124.6,438.2,76.9z
				 M259.7,465L259.7,465c-37.7,0-74.6-10.1-106.8-29.2l-7.7-4.5l-79.4,20.8l21.2-77.4l-5-7.9c-21-33.4-32.1-72-32.1-111.6
				c0-115.6,94.1-209.7,209.8-209.7c56,0,108.7,21.9,148.2,61.5c39.6,39.6,61.4,92.3,61.4,148.3C469.4,371,375.3,465,259.7,465z
				 M374.7,308c-6.3-3.2-37.3-18.4-43.1-20.5c-5.8-2.1-10-3.2-14.2,3.2c-4.2,6.3-16.3,20.5-20,24.7c-3.7,4.2-7.4,4.7-13.7,1.6
				c-6.3-3.2-26.6-9.8-50.7-31.3c-18.7-16.7-31.4-37.4-35.1-43.7c-3.7-6.3-0.4-9.7,2.8-12.9c2.8-2.8,6.3-7.4,9.5-11
				c3.2-3.7,4.2-6.3,6.3-10.5c2.1-4.2,1.1-7.9-0.5-11c-1.6-3.2-14.2-34.2-19.4-46.8c-5.1-12.3-10.3-10.6-14.2-10.8
				c-3.7-0.2-7.9-0.2-12.1-0.2c-4.2,0-11,1.6-16.8,7.9c-5.8,6.3-22.1,21.6-22.1,52.6c0,31,22.6,61,25.7,65.2
				c3.2,4.2,44.4,67.9,107.7,95.2c15,6.5,26.8,10.4,35.9,13.3c15.1,4.8,28.8,4.1,39.7,2.5c12.1-1.8,37.3-15.2,42.5-30
				c5.3-14.7,5.3-27.3,3.7-30C385.2,312.7,381,311.1,374.7,308z"/>
		</g>
	</g>
</g>
</svg>
